<svg width="20" height="20" viewBox="0 0 20 20" fill="none" xmlns="http://www.w3.org/2000/svg">
<path fill-rule="evenodd" clip-rule="evenodd" d="M9.36535 2.3327C8.85368 2.4002 8.22201 2.5452 7.32368 2.7527L6.29951 2.98937C5.54118 3.16437 5.01785 3.28604 4.61868 3.4227C4.23285 3.5552 4.01451 3.6852 3.85035 3.8502C3.68535 4.01437 3.55535 4.2327 3.42285 4.61854C3.28618 5.0177 3.16451 5.5402 2.98951 6.29937L2.75285 7.3227C2.54535 8.22187 2.40035 8.85354 2.33285 9.3652C2.26618 9.86354 2.28201 10.201 2.37035 10.5077C2.45785 10.8144 2.62368 11.1085 2.94368 11.496C3.27285 11.8944 3.73035 12.3535 4.38285 13.006L5.90785 14.531C7.04035 15.6635 7.84618 16.4677 8.53951 16.996C9.21785 17.5144 9.71451 17.7085 10.2187 17.7085C10.7228 17.7085 11.2195 17.5144 11.8987 16.996C12.5912 16.4677 13.3978 15.6627 14.5303 14.5302C15.6637 13.3969 16.4678 12.591 16.997 11.8985C17.5137 11.2194 17.7087 10.7235 17.7087 10.2185C17.7087 9.71437 17.5145 9.21854 16.9962 8.53937C16.4678 7.84604 15.6628 7.03937 14.5303 5.90687L13.0053 4.38187C12.3537 3.7302 11.8945 3.2727 11.497 2.94354C11.1087 2.62354 10.8145 2.4577 10.5078 2.3702C10.2012 2.28187 9.86368 2.26687 9.36618 2.3327M9.20285 1.09354C9.80035 1.01437 10.3245 1.01687 10.8528 1.16854C11.382 1.3202 11.8278 1.59604 12.2928 1.97937C12.7428 2.35104 13.2428 2.85104 13.8687 3.47687L15.4487 5.05687C16.5403 6.14854 17.4053 7.01354 17.9903 7.78187C18.5937 8.57104 18.9595 9.33104 18.9595 10.2185C18.9595 11.1069 18.5937 11.8669 17.9912 12.656C17.4053 13.4244 16.5412 14.2894 15.4487 15.381L15.382 15.4477C14.2903 16.5394 13.4253 17.4044 12.657 17.9894C11.8678 18.5927 11.107 18.9585 10.2195 18.9585C9.33201 18.9585 8.57201 18.5927 7.78201 17.9902C7.01451 17.4044 6.14951 16.5402 5.05701 15.4477L3.47785 13.8669C2.85285 13.2419 2.35201 12.741 1.98035 12.2919C1.59701 11.826 1.32118 11.3802 1.16951 10.8519C1.01785 10.3227 1.01535 9.79854 1.09451 9.20104C1.17035 8.6227 1.33035 7.9327 1.52868 7.07104L1.77868 5.9852C1.94535 5.26604 2.08035 4.67937 2.24118 4.21187C2.40951 3.7227 2.62035 3.31187 2.96701 2.9652C3.31368 2.61854 3.72535 2.40687 4.21368 2.2402C4.68118 2.07854 5.26785 1.94354 5.98701 1.7777L7.07285 1.5277C7.93451 1.3277 8.62451 1.16937 9.20285 1.0927M7.90868 6.6627C7.7133 6.46733 7.44832 6.35757 7.17201 6.35757C6.89571 6.35757 6.63072 6.46733 6.43535 6.6627C6.23997 6.85808 6.13021 7.12307 6.13021 7.39937C6.13021 7.67567 6.23997 7.94066 6.43535 8.13604C6.53209 8.23278 6.64693 8.30952 6.77333 8.36187C6.89973 8.41423 7.0352 8.44117 7.17201 8.44117C7.30882 8.44117 7.4443 8.41423 7.57069 8.36187C7.69709 8.30952 7.81194 8.23278 7.90868 8.13604C8.00542 8.0393 8.08216 7.92445 8.13451 7.79805C8.18687 7.67165 8.21382 7.53618 8.21382 7.39937C8.21382 7.26256 8.18687 7.12709 8.13451 7.00069C8.08216 6.87429 8.00542 6.75944 7.90868 6.6627ZM5.55201 5.77937C5.76429 5.56423 6.01703 5.3932 6.29568 5.27614C6.57432 5.15908 6.87337 5.09829 7.17561 5.09728C7.47785 5.09626 7.7773 5.15505 8.05672 5.27024C8.33615 5.38543 8.59003 5.55476 8.80374 5.76848C9.01746 5.98219 9.18678 6.23607 9.30198 6.51549C9.41717 6.79492 9.47595 7.09437 9.47494 7.39661C9.47393 7.69884 9.41314 7.99789 9.29608 8.27654C9.17901 8.55519 9.00799 8.80793 8.79285 9.0202C8.36297 9.45008 7.77994 9.69158 7.17201 9.69158C6.56408 9.69158 5.98105 9.45008 5.55118 9.0202C5.12131 8.59033 4.87981 8.0073 4.87981 7.39937C4.87981 6.79144 5.12131 6.20841 5.55118 5.77854M15.8753 9.15854C15.9924 9.27572 16.0581 9.43458 16.0581 9.6002C16.0581 9.76583 15.9924 9.92468 15.8753 10.0419L10.0595 15.8585C9.94103 15.9689 9.78433 16.029 9.62241 16.0262C9.46049 16.0233 9.30601 15.9577 9.19149 15.8432C9.07698 15.7287 9.01139 15.5742 9.00853 15.4123C9.00568 15.2504 9.06578 15.0937 9.17618 14.9752L14.9912 9.15854C15.0492 9.10046 15.1181 9.05439 15.194 9.02295C15.2698 8.99152 15.3512 8.97534 15.4333 8.97534C15.5154 8.97534 15.5967 8.99152 15.6725 9.02295C15.7484 9.05439 15.8173 9.10046 15.8753 9.15854Z" fill="#061D00"/>
</svg>
