<svg width="34" height="37" viewBox="0 0 34 37" fill="none" xmlns="http://www.w3.org/2000/svg">
<path d="M26.4631 9.96219C27.5563 9.98441 28.1141 10.8976 28.1141 11.5785C28.1141 12.2593 27.2886 13.2291 27.2886 13.2291C26.8033 14.122 27.8351 14.1221 27.8351 14.1221H33.0001V2.89301C33.0001 1.8485 32.1521 0.999974 31.1062 0.999974H19.9261V6.20436C19.9261 6.20436 19.9455 6.81044 19.4 6.73367C19.2927 6.71953 19.1931 6.67106 19.106 6.60641C18.7282 6.32761 17.1439 5.36387 16.2602 6.58416C15.828 7.18016 15.827 8.00247 16.265 8.59645C17.1495 9.79249 18.7288 8.79441 19.106 8.51358C19.1931 8.45095 19.2927 8.40248 19.4 8.38833C19.9455 8.31156 19.9261 8.91765 19.9261 8.91765V14.1221H25.0911C25.0911 14.1221 26.1229 14.122 25.6376 13.2291C25.6376 13.2291 24.8121 12.2593 24.8121 11.5785C24.8121 10.8976 25.3699 9.93996 26.4631 9.96219Z" stroke="#111727" stroke-miterlimit="10"/>
<path d="M14.0734 35.7377V35.7478H3.30056C2.02997 35.7478 1 34.7175 1 33.4467V22.6237H6.16439C6.16439 22.6237 7.19597 22.6237 6.71089 23.5167C6.71089 23.5167 5.88518 24.4864 5.88518 25.1693C5.88518 25.8482 6.4436 26.8078 7.53681 26.7856C8.62981 26.8078 9.18681 25.8482 9.18681 25.1693C9.18681 24.4864 8.36252 23.5167 8.36252 23.5167C7.87622 22.6237 8.90902 22.6237 8.90902 22.6237L14.0726 22.6156V27.818C14.0726 27.818 14.092 28.4261 13.5465 28.3493C13.4392 28.3332 13.3396 28.2867 13.2525 28.222C12.8745 27.9432 11.2904 26.9796 10.4067 28.1978C9.97434 28.7958 9.97353 29.6181 10.4115 30.2101C11.2958 31.4061 12.8753 30.4081 13.2525 30.1293C13.3396 30.0646 13.4392 30.0181 13.5465 30.004C14.092 29.9272 14.0726 30.5333 14.0726 30.5333L14.0734 35.7377Z" stroke="#111727" stroke-miterlimit="10"/>
<path d="M1 22.6157V11.6857C1 10.5018 1.95966 9.54212 3.14338 9.54212H14.0734V14.7061C14.0734 14.7061 14.0734 15.7385 13.1843 15.2516C13.1843 15.2516 12.2179 14.4273 11.5389 14.4273C10.8613 14.4273 9.94969 14.9849 9.92767 16.0779C9.90545 17.1709 10.8613 17.7306 11.5389 17.7306C12.2179 17.7306 13.1843 16.9042 13.1843 16.9042C14.0734 16.4194 14.0734 17.4517 14.0734 17.4517V22.6157" stroke="#111727" stroke-miterlimit="10"/>
<path d="M14.0735 22.5954H14.0777L19.2496 22.6156C19.2496 22.6156 19.8565 22.6338 19.7803 22.0883C19.7646 21.9812 19.7187 21.8802 19.6547 21.7954C19.3755 21.4176 18.3772 19.8377 19.5733 18.9528C20.1666 18.5143 20.9927 18.5164 21.5889 18.9507C22.8018 19.8357 21.8405 21.4176 21.5617 21.7954C21.4962 21.8802 21.4503 21.9812 21.4346 22.0883C21.3586 22.6338 21.9653 22.6156 21.9653 22.6156L27.1499 22.6136V33.7275C27.1499 34.8447 26.2452 35.7478 25.1292 35.7478H14.0735" stroke="#111727" stroke-miterlimit="10"/>
</svg>
