<svg width="38" height="35" viewBox="0 0 38 35" fill="none" xmlns="http://www.w3.org/2000/svg">
<path d="M25.7571 0.999957V34.2644H1V1.00182L25.7571 0.999957Z" stroke="#061D00" stroke-miterlimit="10"/>
<path d="M5.00586 22.8389H13.6195" stroke="#061D00" stroke-miterlimit="10"/>
<path d="M5.00586 19.3682H12.7524" stroke="#061D00" stroke-miterlimit="10"/>
<path d="M5.00586 26.333H15.4753" stroke="#061D00" stroke-miterlimit="10"/>
<path d="M5.00586 29.8291H18.8823" stroke="#061D00" stroke-miterlimit="10"/>
<path d="M5.00586 9.74102C5.00586 7.32641 6.96259 5.37157 9.37532 5.37157C11.788 5.37157 13.7448 7.32641 13.7448 9.74102C13.7448 12.1538 11.788 14.1086 9.37532 14.1086C6.96259 14.1086 5.00586 12.1538 5.00586 9.74102Z" stroke="#061D00" stroke-miterlimit="10"/>
<path d="M8.02295 8.63075C8.02295 7.88319 8.62848 7.27766 9.37417 7.27766C10.1217 7.27766 10.7272 7.88319 10.7272 8.63075C10.7272 9.37643 10.1217 9.98193 9.37417 9.98193C8.62848 9.98193 8.02295 9.37643 8.02295 8.63075Z" stroke="#061D00" stroke-miterlimit="10"/>
<path d="M6.43115 12.9685C6.93388 11.8416 8.06269 11.0585 9.37464 11.0585C10.6866 11.0585 11.8154 11.8415 12.32 12.9647" stroke="#061D00" stroke-miterlimit="10"/>
<path d="M18.7421 22.3535C21.1847 25.9646 26.0153 26.9949 29.702 24.7637L30.0555 24.5371C33.783 22.0175 34.761 16.9515 32.2411 13.2236C29.7195 9.49777 24.6532 8.51959 20.9257 11.041H20.9247C17.1996 13.5628 16.2212 18.6263 18.7421 22.3535Z" stroke="#061D00"/>
<path d="M18.3282 22.634C15.652 18.6776 16.6911 13.3026 20.6456 10.6264C24.602 7.95013 29.9788 8.98923 32.655 12.9438C35.3294 16.9003 34.2922 22.2771 30.3358 24.9515C26.3812 27.6277 21.0044 26.5905 18.3282 22.634Z" stroke="#061D00" stroke-miterlimit="10"/>
<path d="M31.5154 23.9944L36.7613 31.7484C37.1912 32.3857 37.0248 33.251 36.3876 33.6827C35.7503 34.1126 34.885 33.9462 34.4551 33.3089L29.2297 25.5848" stroke="#061D00" stroke-miterlimit="10"/>
<path d="M20.1991 21.3679C18.2237 18.4468 18.9899 14.4773 21.911 12.5" stroke="#061D00" stroke-miterlimit="10"/>
</svg>
