<svg width="38" height="34" viewBox="0 0 38 34" fill="none" xmlns="http://www.w3.org/2000/svg">
<path d="M29.4443 9.39779C29.4443 8.14017 30.4641 7.12184 31.7219 7.12184C32.9797 7.12184 33.9994 8.14017 33.9994 9.39779C33.9994 10.6572 32.9797 11.6755 31.7219 11.6755C30.4641 11.6755 29.4443 10.6572 29.4443 9.39779Z" stroke="#111727" stroke-miterlimit="10"/>
<path d="M26.7266 16.9097C26.7266 14.9396 27.8663 13.2322 29.5257 12.4207C30.1761 12.7806 30.9269 12.9839 31.7246 12.9839C32.5226 12.9839 33.2701 12.7806 33.9239 12.4207C35.5799 13.2358 36.7196 14.9396 36.7196 16.9097" stroke="#111727" stroke-miterlimit="10" stroke-linecap="round"/>
<path d="M3.71777 25.8267C3.71777 24.5691 4.73736 23.549 5.99533 23.549C7.25313 23.549 8.27289 24.5691 8.27289 25.8267C8.27289 27.0844 7.25313 28.1045 5.99533 28.1045C4.73736 28.1045 3.71777 27.0844 3.71777 25.8267Z" stroke="#111727" stroke-miterlimit="10"/>
<path d="M1 33.3386C1 31.3667 2.13977 29.6611 3.79913 28.8497C4.44935 29.2077 5.20031 29.4128 5.99806 29.4128C6.79599 29.4128 7.54354 29.2077 8.19717 28.8497C9.8533 29.6629 10.9931 31.3667 10.9931 33.3386" stroke="#111727" stroke-miterlimit="10" stroke-linecap="round"/>
<path d="M17.0459 25.8267C17.0459 24.5691 18.0657 23.549 19.3235 23.549C20.5812 23.549 21.601 24.5691 21.601 25.8267C21.601 27.0844 20.5812 28.1045 19.3235 28.1045C18.0657 28.1045 17.0459 27.0844 17.0459 25.8267Z" stroke="#111727" stroke-miterlimit="10"/>
<path d="M14.3281 33.3386C14.3281 31.3667 15.4679 29.6611 17.1273 28.8497C17.7777 29.2077 18.5284 29.4128 19.3264 29.4128C20.1243 29.4128 20.8717 29.2077 21.5255 28.8497C23.1814 29.6629 24.3212 31.3667 24.3212 33.3386" stroke="#111727" stroke-miterlimit="10" stroke-linecap="round"/>
<path d="M29.7246 25.8267C29.7246 24.5691 30.7442 23.549 32.002 23.549C33.26 23.549 34.2795 24.5691 34.2795 25.8267C34.2795 27.0844 33.26 28.1045 32.002 28.1045C30.7442 28.1045 29.7246 27.0844 29.7246 25.8267Z" stroke="#111727" stroke-miterlimit="10"/>
<path d="M27.0068 33.3386C27.0068 31.3667 28.1466 29.6611 29.806 28.8497C30.4564 29.2077 31.2072 29.4128 32.0051 29.4128C32.8028 29.4128 33.5506 29.2077 34.2042 28.8497C35.8601 29.6629 36.9999 31.3667 36.9999 33.3386" stroke="#111727" stroke-miterlimit="10" stroke-linecap="round"/>
<path d="M3.43945 2.73619H23.2813V15.8396C23.2813 16.4207 22.8103 16.8921 22.2293 16.8921H4.49142C3.91047 16.8921 3.43945 16.4207 3.43945 15.8396V2.73619Z" stroke="#111727" stroke-miterlimit="10"/>
<path d="M8.62036 14.272H20.6125" stroke="#111727" stroke-miterlimit="10"/>
<path d="M18.7867 14.272H16.6868V7.12208H18.7867V14.272Z" stroke="#111727" stroke-miterlimit="10"/>
<path d="M16.6849 14.272H14.5847V8.42107H16.6849V14.272Z" stroke="#111727" stroke-miterlimit="10"/>
<path d="M14.5848 14.272H12.4846V9.67691H14.5848V14.272Z" stroke="#111727" stroke-miterlimit="10"/>
<path d="M12.4869 14.272H10.3867V10.7888H12.4869V14.272Z" stroke="#111727" stroke-miterlimit="10"/>
<path d="M25.3594 2.73486H1.23291V1.00045H25.3594V2.73486Z" stroke="#111727" stroke-miterlimit="10"/>
</svg>
