<svg width="24" height="25" viewBox="0 0 24 25" fill="none" xmlns="http://www.w3.org/2000/svg">
<path d="M14.5 7.25781L9.5 10.7578M14.5 18.2578L9.5 14.7578M9.5 12.7578C9.5 13.4209 9.23661 14.0567 8.76777 14.5256C8.29893 14.9944 7.66304 15.2578 7 15.2578C6.33696 15.2578 5.70107 14.9944 5.23223 14.5256C4.76339 14.0567 4.5 13.4209 4.5 12.7578C4.5 12.0948 4.76339 11.4589 5.23223 10.99C5.70107 10.5212 6.33696 10.2578 7 10.2578C7.66304 10.2578 8.29893 10.5212 8.76777 10.99C9.23661 11.4589 9.5 12.0948 9.5 12.7578ZM19.5 19.2578C19.5 19.9209 19.2366 20.5567 18.7678 21.0256C18.2989 21.4944 17.663 21.7578 17 21.7578C16.337 21.7578 15.7011 21.4944 15.2322 21.0256C14.7634 20.5567 14.5 19.9209 14.5 19.2578C14.5 18.5948 14.7634 17.9589 15.2322 17.49C15.7011 17.0212 16.337 16.7578 17 16.7578C17.663 16.7578 18.2989 17.0212 18.7678 17.49C19.2366 17.9589 19.5 18.5948 19.5 19.2578ZM19.5 6.25781C19.5 6.92085 19.2366 7.55674 18.7678 8.02558C18.2989 8.49442 17.663 8.75781 17 8.75781C16.337 8.75781 15.7011 8.49442 15.2322 8.02558C14.7634 7.55674 14.5 6.92085 14.5 6.25781C14.5 5.59477 14.7634 4.95889 15.2322 4.49005C15.7011 4.0212 16.337 3.75781 17 3.75781C17.663 3.75781 18.2989 4.0212 18.7678 4.49005C19.2366 4.95889 19.5 5.59477 19.5 6.25781Z" stroke="#061D00" stroke-width="1.5" stroke-linecap="round" stroke-linejoin="round"/>
</svg>
