<svg width="36" height="35" viewBox="0 0 36 35" fill="none" xmlns="http://www.w3.org/2000/svg">
<path d="M32.945 8.98627C33.3752 8.98627 33.7239 9.33443 33.7239 9.76516C33.7239 10.1947 33.3752 10.5435 32.945 10.5435C32.5149 10.5435 32.1661 10.1947 32.1661 9.76516C32.1661 9.33443 32.5149 8.98627 32.945 8.98627Z" fill="#061D00"/>
<path d="M32.945 20.9658C33.3752 20.9658 33.7239 21.3146 33.7239 21.7448C33.7239 22.1741 33.3752 22.5229 32.945 22.5229C32.5149 22.5229 32.1661 22.1741 32.1661 21.7448C32.1661 21.3146 32.5149 20.9658 32.945 20.9658Z" fill="#061D00"/>
<path d="M23.9602 0.719566C24.3897 0.719566 24.7385 1.06831 24.7385 1.49845C24.7385 1.9286 24.3897 2.27734 23.9602 2.27734C23.53 2.27734 23.1813 1.9286 23.1813 1.49845C23.1813 1.06831 23.53 0.719566 23.9602 0.719566Z" fill="#061D00"/>
<path d="M23.9602 31.4486C24.3897 31.4486 24.7385 31.7974 24.7385 32.227C24.7385 32.6578 24.3897 33.0059 23.9602 33.0059C23.53 33.0059 23.1813 32.6578 23.1813 32.227C23.1813 31.7974 23.53 31.4486 23.9602 31.4486Z" fill="#061D00"/>
<path d="M2.2761 6.7093C2.70625 6.7093 3.05499 7.05805 3.05499 7.48879C3.05499 7.91834 2.70625 8.26709 2.2761 8.26709C1.84656 8.26709 1.4978 7.91834 1.4978 7.48879C1.4978 7.05805 1.84656 6.7093 2.2761 6.7093Z" fill="#061D00"/>
<path d="M2.2761 19.4687C2.70625 19.4687 3.05499 19.8174 3.05499 20.247C3.05499 20.6771 2.70625 21.0259 2.2761 21.0259C1.84656 21.0259 1.4978 20.6771 1.4978 20.247C1.4978 19.8174 1.84656 19.4687 2.2761 19.4687Z" fill="#061D00"/>
<path d="M32.2262 34.4434C31.2079 34.4434 30.3096 34.0244 29.5907 33.3651L23.7802 27.5545C23.6608 27.4351 23.5408 27.2552 23.5408 27.0157C23.5408 26.5968 23.9002 26.2369 24.2597 26.2369C24.4391 26.2369 24.6791 26.2967 24.7985 26.4768L30.609 32.2866C31.0285 32.7062 31.5673 32.9455 32.2262 32.9455C32.8851 32.9455 33.3645 32.7062 33.844 32.2866C34.2628 31.868 34.5023 31.2683 34.5023 30.6695C34.5023 30.0705 34.2628 29.5312 33.844 29.0529L28.0335 23.2418C27.9135 23.1224 27.7935 22.883 27.7935 22.703C27.7935 22.2836 28.1529 21.9246 28.5724 21.9246C28.8118 21.9246 28.9918 22.0441 29.1118 22.1641L34.9217 27.9739C35.6406 28.6929 36 29.5917 36 30.6101C36 31.6285 35.5806 32.5266 34.9217 33.2451C34.1428 34.0244 33.1845 34.4434 32.2262 34.4434Z" fill="#061D00"/>
<path d="M23.4808 28.5127C23.3013 28.5127 23.1213 28.4533 22.9419 28.2732L20.3058 25.6378C20.007 25.3384 20.007 24.8596 20.3058 24.5595C20.6058 24.2601 21.0847 24.2601 21.3841 24.5595L23.4808 26.6561L28.2729 21.8639L26.1763 19.7679C25.8769 19.4685 25.8769 18.989 26.1763 18.6896C26.4757 18.3902 26.9552 18.3902 27.2546 18.6896L29.8901 21.3251C30.1896 21.6251 30.1896 22.1034 29.8901 22.4035L24.0796 28.2133C23.8402 28.4533 23.6608 28.5127 23.4808 28.5127Z" fill="#061D00"/>
<path d="M20.9053 20.127C20.7253 20.127 20.5458 20.0675 20.3658 19.8881C20.0664 19.5881 20.0664 19.1086 20.3658 18.8092C21.5641 17.6114 22.283 15.9943 22.283 14.2571C22.283 12.5199 21.6242 10.9027 20.3658 9.70432C19.1681 8.50717 17.5509 7.78829 15.8137 7.78829C14.0765 7.78829 12.4593 8.44657 11.2609 9.70432C9.88317 11.0821 9.22489 12.9393 9.40431 14.9159C9.46432 15.3354 9.16488 15.6948 8.74543 15.7548C8.32598 15.8142 7.96655 15.5148 7.90654 15.0954C7.66711 12.6999 8.506 10.3638 10.1832 8.686C11.6804 7.18882 13.6576 6.35052 15.8137 6.35052C17.9703 6.35052 19.9464 7.18882 21.4441 8.686C22.9419 10.1838 23.7802 12.1604 23.7802 14.3171C23.7802 16.4737 22.9419 18.4503 21.4441 19.9475C21.2647 20.0675 21.0847 20.127 20.9053 20.127Z" fill="#061D00"/>
<path d="M32.2263 29.2316C33.0533 29.2316 33.7241 29.9023 33.7241 30.7294C33.7241 31.5563 33.0533 32.2266 32.2263 32.2266C31.3993 32.2266 30.7285 31.5563 30.7285 30.7294C30.7285 29.9023 31.3993 29.2316 32.2263 29.2316Z" fill="#061D00"/>
<path d="M2.2761 32.9458C1.85725 32.9458 1.4978 32.587 1.4978 32.1676V23.9609C1.4978 23.5415 1.85725 23.1827 2.2761 23.1827H5.27105C5.6905 23.1827 6.04995 23.5415 6.04995 23.9609C6.04995 24.3805 5.6905 24.7399 5.27105 24.7399H2.99499V32.227C2.99499 32.587 2.63555 32.9458 2.2761 32.9458Z" fill="#061D00"/>
<path d="M17.1914 26.9556C16.8319 26.9556 16.4725 26.6562 16.4725 26.2967C16.4125 25.8781 16.7119 25.5179 17.1314 25.4584C18.3291 25.3385 19.4674 24.979 20.4857 24.4995C21.6835 23.9606 22.7618 23.1824 23.7201 22.2235C24.679 21.2652 25.3973 20.1875 25.9968 18.9891C27.9734 14.7364 27.0745 9.64484 23.7201 6.29045C21.6241 4.1938 18.8085 2.99546 15.7536 2.99546C12.6986 2.99546 9.9437 4.1938 7.78705 6.29045C3.77377 10.3037 3.35432 16.7131 6.88814 21.2058C7.12816 21.5046 7.06816 21.984 6.76872 22.2837C6.46929 22.5229 5.98984 22.4635 5.6904 22.1641C1.67713 17.1319 2.09657 9.82427 6.64871 5.27213C9.04479 2.87605 12.2198 1.55829 15.6342 1.55829C19.048 1.55829 22.2229 2.87605 24.619 5.27213C26.4756 7.12875 27.7334 9.52483 28.1529 12.1603C28.5723 14.7364 28.2129 17.3119 27.1345 19.648C26.5357 21.0258 25.6374 22.2235 24.559 23.3017C23.4807 24.3802 22.283 25.2185 20.9052 25.8781C19.7075 26.4167 18.3891 26.8363 17.0713 26.9556C17.2514 26.9556 17.2514 26.9556 17.1914 26.9556Z" fill="#061D00"/>
<path d="M5.27109 32.9458C4.85224 32.9458 4.4928 32.587 4.4928 32.1676V21.745C4.4928 21.3255 4.85224 20.966 5.27109 20.966H8.26604C8.68549 20.966 9.04494 21.3255 9.04494 21.745C9.04494 22.1644 8.62548 22.4638 8.26604 22.4638H5.98998V32.227C5.98998 32.587 5.63053 32.9458 5.27109 32.9458Z" fill="#061D00"/>
<path d="M8.26596 32.9458C7.8471 32.9458 7.48767 32.587 7.48767 32.1676V18.75C7.48767 18.3305 7.8471 17.9711 8.26596 17.9711H11.2609C11.6804 17.9711 12.0398 18.3305 12.0398 18.75V24.021C12.0398 24.4403 11.6804 24.7994 11.2609 24.7994C10.8421 24.7994 10.4826 24.4403 10.4826 24.021V19.4689H8.98485V32.227C8.98485 32.587 8.6254 32.9458 8.26596 32.9458Z" fill="#061D00"/>
<path d="M11.261 32.9458C10.8421 32.9458 10.4827 32.587 10.4827 32.1676V23.9609C10.4827 23.5415 10.8421 23.1827 11.261 23.1827H14.2565C14.6754 23.1827 15.0348 23.5415 15.0348 23.9609C15.0348 24.3805 14.6754 24.7399 14.2565 24.7399H11.9798V32.227C11.9798 32.587 11.6204 32.9458 11.261 32.9458Z" fill="#061D00"/>
<path d="M17.2515 32.9458C16.832 32.9458 16.4726 32.587 16.4726 32.1676V22.4638H14.9748V32.227C14.9748 32.6464 14.6153 33.0059 14.1965 33.0059C13.777 33.0059 13.4176 32.6464 13.4176 32.227V21.745C13.4176 21.3255 13.777 20.966 14.1965 20.966H17.1914C17.6109 20.966 17.9703 21.3255 17.9703 21.745V32.227C17.9703 32.587 17.6109 32.9458 17.2515 32.9458Z" fill="#061D00"/>
<path d="M21.7436 32.9458H0.778889C0.359441 32.9458 0 32.587 0 32.1676C0 31.748 0.359441 31.3888 0.778889 31.3888H21.7436C22.163 31.3888 22.5225 31.748 22.5225 32.1676C22.4625 32.587 22.103 32.9458 21.7436 32.9458Z" fill="#061D00"/>
<path d="M14.9748 17.252C14.7954 17.252 14.6754 17.1925 14.556 17.0725C14.1965 16.8325 14.1365 16.3536 14.3759 15.9942L15.7537 14.1976H14.2565C13.9565 14.1976 13.7171 14.0176 13.5971 13.7781C13.4776 13.5381 13.4776 13.2387 13.6577 12.9992L15.9337 10.0043C16.1732 9.64485 16.6526 9.58485 17.0115 9.82428C17.3709 10.0643 17.4309 10.5432 17.1915 10.9026L15.8137 12.6998H17.3109C17.6109 12.6998 17.8504 12.8792 17.9704 13.1187C18.0898 13.3587 18.0898 13.6575 17.9104 13.8976L15.6343 16.8925C15.4543 17.1319 15.2149 17.252 14.9748 17.252Z" fill="#061D00"/>
<path d="M32.2261 15.755C31.8067 15.755 31.4473 16.1139 31.4473 16.5333C31.4473 16.9528 31.8067 17.3122 32.2261 17.3122C32.6456 17.3122 32.945 16.8928 32.945 16.4739C32.945 16.0545 32.5856 15.755 32.2261 15.755ZM32.2261 18.75C30.9684 18.75 29.9501 17.7317 29.9501 16.4739C29.9501 15.2162 30.9684 14.1979 32.2261 14.1979C33.4845 14.1979 34.5022 15.2162 34.5022 16.4739C34.5022 17.7317 33.4239 18.75 32.2261 18.75Z" fill="#061D00"/>
<path d="M29.2313 3.77506C28.8118 3.77506 28.4524 4.13392 28.4524 4.55337C28.4524 4.97222 28.8118 5.33225 29.2313 5.33225C29.6507 5.33225 29.9502 4.91281 29.9502 4.49336C29.9502 4.0745 29.5907 3.77506 29.2313 3.77506ZM29.2313 6.77002C27.9735 6.77002 26.9552 5.75111 26.9552 4.49336C26.9552 3.23501 27.9735 2.21729 29.2313 2.21729C30.4896 2.21729 31.5073 3.23501 31.5073 4.49336C31.5073 5.75111 30.429 6.77002 29.2313 6.77002Z" fill="#061D00"/>
<path d="M4.13331 1.49813C3.53385 1.49813 2.99499 1.97699 2.99499 2.63646C2.99499 3.29534 3.47444 3.77479 4.13331 3.77479C4.79219 3.77479 5.27105 3.29534 5.27105 2.63646C5.27105 1.97699 4.73219 1.49813 4.13331 1.49813ZM4.13331 5.27197C2.69555 5.27197 1.4978 4.07423 1.4978 2.63646C1.4978 1.19869 2.69555 0.000355721 4.13331 0.000355721C5.57049 0.000355721 6.76883 1.19869 6.76883 2.63646C6.76883 4.07423 5.57049 5.27197 4.13331 5.27197Z" fill="#061D00"/>
</svg>
