<svg width="36" height="36" viewBox="0 0 36 36" fill="none" xmlns="http://www.w3.org/2000/svg">
<path d="M33.5666 13.2892C34.0147 13.2892 34.3779 13.6518 34.3779 14.1005C34.3779 14.5479 34.0147 14.9111 33.5666 14.9111C33.1186 14.9111 32.7554 14.5479 32.7554 14.1005C32.7554 13.6518 33.1186 13.2892 33.5666 13.2892Z" fill="#061D00"/>
<path d="M27.3273 2.37061C27.7759 2.37061 28.1385 2.73386 28.1385 3.18189C28.1385 3.62992 27.7759 3.99316 27.3273 3.99316C26.8792 3.99316 26.5166 3.62992 26.5166 3.18189C26.5166 2.73386 26.8792 2.37061 27.3273 2.37061Z" fill="#061D00"/>
<path d="M25.019 10.1701C25.4671 10.1701 25.8303 10.5327 25.8303 10.9813C25.8303 11.4287 25.4671 11.792 25.019 11.792C24.571 11.792 24.2078 11.4287 24.2078 10.9813C24.2078 10.5327 24.571 10.1701 25.019 10.1701Z" fill="#061D00"/>
<path d="M7.05039 0.000131369C7.49842 0.000131369 7.86168 0.363386 7.86168 0.810795C7.86168 1.25944 7.49842 1.62207 7.05039 1.62207C6.60237 1.62207 6.23975 1.25944 6.23975 0.810795C6.23975 0.363386 6.60237 0.000131369 7.05039 0.000131369Z" fill="#061D00"/>
<path d="M7.05039 10.1701C7.49842 10.1701 7.86168 10.5327 7.86168 10.9813C7.86168 11.4287 7.49842 11.792 7.05039 11.792C6.60237 11.792 6.23975 11.4287 6.23975 10.9813C6.23975 10.5327 6.60237 10.1701 7.05039 10.1701Z" fill="#061D00"/>
<path d="M3.182 2.37061C3.63065 2.37061 3.99327 2.73386 3.99327 3.18189C3.99327 3.62992 3.63065 3.99316 3.182 3.99316C2.73397 3.99316 2.37134 3.62992 2.37134 3.18189C2.37134 2.73386 2.73397 2.37061 3.182 2.37061Z" fill="#061D00"/>
<path d="M3.93076 27.3271H0.811283C0.374394 27.3271 0 26.9527 0 26.5159V22.5858C0 22.1489 0.374394 21.7739 0.811283 21.7739H4.74204C5.17831 21.7739 5.55269 22.1489 5.55269 22.5858C5.55269 23.0221 5.17831 23.3965 4.74204 23.3965H1.62255V25.767H3.99326C4.43015 25.767 4.80455 26.1415 4.80455 26.5785C4.74204 26.9527 4.36765 27.3271 3.93076 27.3271Z" fill="#061D00"/>
<path d="M9.421 27.3271C8.98473 27.3271 8.61035 26.9527 8.61035 26.5159V22.5858C8.61035 22.1489 8.98473 21.7739 9.421 21.7739C9.85789 21.7739 10.2323 22.1489 10.2323 22.5858V26.5159C10.1698 26.9527 9.79539 27.3271 9.421 27.3271Z" fill="#061D00"/>
<path d="M17.9688 27.3271C17.5319 27.3271 17.1575 26.9527 17.1575 26.5159V22.5858C17.1575 22.1489 17.5319 21.7739 17.9688 21.7739C18.4056 21.7739 18.78 22.1489 18.78 22.5858V26.5159C18.78 26.9527 18.4056 27.3271 17.9688 27.3271Z" fill="#061D00"/>
<path d="M13.2893 19.5283H10.9186C10.4823 19.5283 10.1079 19.1539 10.1079 18.7177C10.1079 18.2808 10.4823 17.9058 10.9186 17.9058H13.2893C13.7262 17.9058 14.1006 18.2808 14.1006 18.7177C14.1006 19.1539 13.7262 19.5283 13.2893 19.5283Z" fill="#061D00"/>
<path d="M13.2891 23.459H4.74195C4.30506 23.459 3.93066 23.0839 3.93066 22.6476V18.7175C3.93066 18.2806 4.30506 17.9056 4.74195 17.9056C5.17822 17.9056 5.5526 18.2806 5.5526 18.7175V21.837H13.3516C13.7885 21.837 14.1629 22.2108 14.1629 22.6476C14.1629 23.0839 13.726 23.459 13.2891 23.459Z" fill="#061D00"/>
<path d="M21.8995 23.459H13.2892C12.8529 23.459 12.4785 23.0839 12.4785 22.6476V18.7175C12.4785 18.2806 12.8529 17.9056 13.2892 17.9056H17.9687C18.4056 17.9056 18.78 18.2806 18.78 18.7175C18.78 19.1538 18.4056 19.5282 17.9687 19.5282H14.0379V21.8989H21.837C22.2739 21.8989 22.6482 22.2733 22.6482 22.7101C22.6482 23.147 22.2739 23.459 21.8995 23.459Z" fill="#061D00"/>
<path d="M3.18201 17.9689H10.2322V15.5982H3.18201V17.9689ZM10.981 19.5283H2.37134C1.93445 19.5283 1.56006 19.1539 1.56006 18.7177V14.8494C1.56006 14.4125 1.93445 14.0381 2.37134 14.0381H10.981C11.4179 14.0381 11.7923 14.4125 11.7923 14.8494V18.7795C11.7298 19.1539 11.3554 19.5283 10.981 19.5283Z" fill="#061D00"/>
<path d="M26.579 19.5283C26.1422 19.5283 25.7678 19.1539 25.7678 18.7177V15.5982H18.78V17.9689H21.8995C22.3364 17.9689 22.7108 18.3427 22.7108 18.7795C22.7108 19.2164 22.3364 19.5908 21.8995 19.5908H17.9688C17.5319 19.5908 17.1575 19.2164 17.1575 18.7795V14.8494C17.1575 14.4125 17.5319 14.0381 17.9688 14.0381H26.579C27.0159 14.0381 27.3897 14.4125 27.3897 14.8494V18.7795C27.3272 19.1539 26.9528 19.5283 26.579 19.5283Z" fill="#061D00"/>
<path d="M17.9687 12.5405H10.9809C10.5441 12.5405 10.1697 12.1661 10.1697 11.7299V7.79849C10.1697 7.36222 10.5441 6.98783 10.9809 6.98783C11.4178 6.98783 11.7922 7.36222 11.7922 7.79849V10.918H17.2824V7.79849C17.2824 7.36222 17.6568 6.98783 18.0937 6.98783C18.5306 6.98783 18.905 7.36222 18.905 7.79849V11.7299C18.78 12.1661 18.4056 12.5405 17.9687 12.5405Z" fill="#061D00"/>
<path d="M8.61036 7.04919H20.3395V4.67849H8.61036V7.04919ZM21.0883 8.60986H7.86158C7.42469 8.60986 7.05029 8.23486 7.05029 7.79797V3.86783C7.05029 3.43094 7.42469 3.05655 7.86158 3.05655H21.0883C21.5252 3.05655 21.8996 3.43094 21.8996 3.86783V7.79797C21.8996 8.23486 21.5252 8.60986 21.0883 8.60986Z" fill="#061D00"/>
<path d="M30.4466 23.4586C30.0103 23.4586 29.6359 23.0836 29.6359 22.6473V19.5278H22.6482V21.8985H26.5789C27.0158 21.8985 27.3896 22.2729 27.3896 22.7098C27.3896 23.1467 27.0158 23.5205 26.5789 23.5205H21.8994C21.4625 23.5205 21.0881 23.1467 21.0881 22.7098V18.779C21.0881 18.3421 21.4625 17.9684 21.8994 17.9684H30.4466C30.8835 17.9684 31.2579 18.3421 31.2579 18.779V22.7098C31.2579 23.0836 30.8835 23.4586 30.4466 23.4586Z" fill="#061D00"/>
<path d="M7.05024 31.2573H3.93077C3.49388 31.2573 3.12012 30.8836 3.12012 30.4465V26.5158C3.12012 26.079 3.49388 25.7053 3.93077 25.7053H12.5405C12.978 25.7053 13.3517 26.079 13.3517 26.5158C13.3517 26.9526 12.978 27.3271 12.5405 27.3271H4.74205V29.698H7.11275C7.54963 29.698 7.92403 30.0721 7.92403 30.5084C7.86153 30.8836 7.48713 31.2573 7.05024 31.2573Z" fill="#061D00"/>
<path d="M12.5404 31.2573C12.1041 31.2573 11.7297 30.8836 11.7297 30.4465V26.5158C11.7297 26.079 12.1041 25.7053 12.5404 25.7053H21.0882C21.5251 25.7053 21.8995 26.079 21.8995 26.5158C21.8995 26.9526 21.5251 27.3271 21.0882 27.3271H13.2892V30.4465C13.2892 30.8836 12.9148 31.2573 12.5404 31.2573Z" fill="#061D00"/>
<path d="M19.5289 31.2573H15.5981C15.1613 31.2573 14.7869 30.8836 14.7869 30.4465C14.7869 30.0098 15.1613 29.6353 15.5981 29.6353H19.5289C19.9652 29.6353 20.3396 30.0098 20.3396 30.4465C20.3396 30.8836 19.9652 31.2573 19.5289 31.2573Z" fill="#061D00"/>
<path d="M7.86168 33.5661H14.8494V31.1955H7.86168V33.5661ZM15.6607 35.1255H7.05039C6.61412 35.1255 6.23975 34.7518 6.23975 34.315V30.4466C6.23975 30.0098 6.61412 29.6354 7.05039 29.6354H15.6607C16.0976 29.6354 16.472 30.0098 16.472 30.4466V34.3768C16.4088 34.7518 16.0345 35.1255 15.6607 35.1255Z" fill="#061D00"/>
<path d="M28.1385 35.1255H19.5288C19.0919 35.1255 18.7175 34.7518 18.7175 34.315V30.4466C18.7175 30.0098 19.0919 29.6354 19.5288 29.6354H21.0882C21.5251 29.6354 21.8995 30.0098 21.8995 30.4466C21.8995 30.8836 21.5251 31.2574 21.0882 31.2574H20.277V33.5661H27.3272V30.4466C27.3272 30.0098 27.7016 29.6354 28.1385 29.6354C28.5754 29.6354 28.9498 30.0098 28.9498 30.4466V34.3768C28.8873 34.7518 28.5129 35.1255 28.1385 35.1255Z" fill="#061D00"/>
<path d="M29.6987 31.2573H21.0884C20.6515 31.2573 20.2771 30.8836 20.2771 30.4465V26.5158C20.2771 26.079 20.6515 25.7053 21.0884 25.7053H26.5792C27.0161 25.7053 27.3898 26.079 27.3898 26.5158C27.3898 26.9526 27.0161 27.3271 26.5792 27.3271H21.8997V29.698H28.9499V26.5784C28.9499 26.1414 29.3243 25.7669 29.7612 25.7669C30.1974 25.7669 30.5718 26.1414 30.5718 26.5784V30.4465C30.4468 30.8836 30.0731 31.2573 29.6987 31.2573Z" fill="#061D00"/>
<path d="M27.3273 25.767H34.3781V23.3965H27.3273V25.767ZM35.1263 27.3271H26.5791C26.1422 27.3271 25.7678 26.9527 25.7678 26.5159V22.5858C25.7678 22.1489 26.1422 21.7739 26.5791 21.7739H35.1888C35.6257 21.7739 36 22.1489 36 22.5858V26.5159C35.9375 26.9527 35.5632 27.3271 35.1263 27.3271Z" fill="#061D00"/>
<path d="M3.18199 7.86147C2.7451 7.86147 2.37133 8.23524 2.37133 8.67213C2.37133 9.1084 2.7451 9.4834 3.18199 9.4834C3.61888 9.4834 3.99326 9.1084 3.99326 8.67213C3.99326 8.23524 3.55638 7.86147 3.18199 7.86147ZM3.18199 10.981C1.87194 10.981 0.811279 9.92029 0.811279 8.61024C0.811279 7.29958 1.87194 6.23892 3.18199 6.23892C4.49266 6.23892 5.49081 7.29958 5.49081 8.61024C5.49081 9.92029 4.43016 10.981 3.18199 10.981Z" fill="#061D00"/>
<path d="M32.818 4.74197C31.9442 4.74197 31.2579 5.42763 31.2579 6.30141C31.2579 7.17457 31.9442 7.86146 32.818 7.86146C33.6911 7.86146 34.378 7.17457 34.378 6.30141C34.378 5.42763 33.6292 4.74197 32.818 4.74197ZM32.818 9.4209C31.071 9.4209 29.6985 8.04773 29.6985 6.30141C29.6985 4.55448 31.071 3.18193 32.818 3.18193C34.5649 3.18193 35.9374 4.55448 35.9374 6.30141C35.9374 8.04773 34.5024 9.4209 32.818 9.4209Z" fill="#061D00"/>
</svg>
