<svg width="36" height="38" viewBox="0 0 36 38" fill="none" xmlns="http://www.w3.org/2000/svg">
<path d="M35.1505 7.31746C35.6196 7.31746 36 7.69786 36 8.16638C36 8.63621 35.6196 9.0166 35.1505 9.0166C34.6813 9.0166 34.3009 8.63621 34.3009 8.16638C34.3009 7.69786 34.6813 7.31746 35.1505 7.31746Z" fill="#061D00"/>
<path d="M33.5173 29.4011C33.9858 29.4011 34.3662 29.7815 34.3662 30.2501C34.3662 30.7191 33.9858 31.0996 33.5173 31.0996C33.0481 31.0996 32.6677 30.7191 32.6677 30.2501C32.6677 29.7815 33.0481 29.4011 33.5173 29.4011Z" fill="#061D00"/>
<path d="M26.1344 35.9347C26.6035 35.9347 26.9833 36.3152 26.9833 36.7838C26.9833 37.2536 26.6035 37.6333 26.1344 37.6333C25.6652 37.6333 25.2848 37.2536 25.2848 36.7838C25.2848 36.3152 25.6652 35.9347 26.1344 35.9347Z" fill="#061D00"/>
<path d="M23.7165 2.41756C24.1856 2.41756 24.566 2.79796 24.566 3.26713C24.566 3.73631 24.1856 4.1167 23.7165 4.1167C23.2479 4.1167 22.8676 3.73631 22.8676 3.26713C22.8676 2.79796 23.2479 2.41756 23.7165 2.41756Z" fill="#061D00"/>
<path d="M22.0835 17.1832H23.7165V18.8169H22.0835V17.1832Z" fill="#061D00"/>
<path d="M12.283 17.1832H13.9165V18.8169H12.283V17.1832Z" fill="#061D00"/>
<path d="M9.01625 2.41756C9.48536 2.41756 9.86582 2.79796 9.86582 3.26713C9.86582 3.73631 9.48536 4.1167 9.01625 4.1167C8.54721 4.1167 8.16675 3.73631 8.16675 3.26713C8.16675 2.79796 8.54721 2.41756 9.01625 2.41756Z" fill="#061D00"/>
<path d="M1.63325 11.4343C2.10229 11.4343 2.48249 11.8141 2.48249 12.2839C2.48249 12.7524 2.10229 13.1328 1.63325 13.1328C1.16394 13.1328 0.783936 12.7524 0.783936 12.2839C0.783936 11.8141 1.16394 11.4343 1.63325 11.4343Z" fill="#061D00"/>
<path d="M1.63325 26.9186C2.10229 26.9186 2.48249 27.2992 2.48249 27.7674C2.48249 28.2367 2.10229 28.6172 1.63325 28.6172C1.16394 28.6172 0.783936 28.2367 0.783936 27.7674C0.783936 27.2992 1.16394 26.9186 1.63325 26.9186Z" fill="#061D00"/>
<path d="M17.9672 12.2835C16.0071 12.2835 14.178 13.0676 12.7404 14.4395C11.3684 15.8114 10.5842 17.6408 10.5842 19.6659C10.5842 21.6262 11.3684 23.4556 12.7404 24.8929C14.1124 26.2648 15.9418 27.0488 17.9672 27.0488C19.993 27.0488 21.7569 26.2648 23.1943 24.8929C24.5661 23.521 25.3503 21.691 25.3503 19.6659C25.3503 17.6408 24.5661 15.8768 23.1943 14.4395C21.7569 13.0015 19.9275 12.2835 17.9672 12.2835ZM17.9672 28.6172C15.55 28.6172 13.3282 27.7029 11.6297 26.0035C9.93087 24.3051 9.01624 22.0837 9.01624 19.6659C9.01624 17.2487 9.93087 15.0273 11.6297 13.3288C13.3282 11.6296 15.55 10.7152 17.9672 10.7152C20.385 10.7152 22.6058 11.6296 24.305 13.3288C26.0035 15.0273 26.9185 17.2487 26.9185 19.6659C26.9185 22.0837 26.0035 24.3051 24.305 26.0035C22.6058 27.6366 20.385 28.6172 17.9672 28.6172Z" fill="#061D00"/>
<path d="M20.4498 24.501H15.55C14.1779 24.501 13.0669 23.3903 13.0669 22.0184V21.1694C13.0669 20.9076 13.1975 20.6465 13.3937 20.5156L16.2684 18.3596C16.6604 18.0978 17.1176 18.1632 17.4447 18.4905C17.7708 18.8171 17.6403 19.3394 17.3138 19.666L14.7004 21.6263V22.0184C14.7004 22.4752 15.0923 22.8679 15.55 22.8679H20.4498C20.9073 22.8679 21.2994 22.4752 21.2994 22.0184V21.6263L18.7513 19.7315C18.3592 19.4703 18.2938 18.9473 18.5549 18.5553C18.8167 18.1632 19.3391 18.0978 19.7311 18.4244L22.6058 20.5804C22.8021 20.7119 22.9324 20.9731 22.9324 21.2343V22.0838C22.8676 23.3903 21.7569 24.501 20.4498 24.501Z" fill="#061D00"/>
<path d="M17.9672 15.5504C17.3138 15.5504 16.7255 16.2684 16.7255 17.1835C16.7255 17.7064 16.9219 18.2294 17.2485 18.5554C17.3791 18.6863 17.6403 18.8172 17.9672 18.8172C18.2938 18.8172 18.4895 18.6863 18.6204 18.5554C18.947 18.2294 19.1434 17.7712 19.1434 17.1835C19.2088 16.2684 18.6204 15.5504 17.9672 15.5504ZM17.9672 20.4502C17.3138 20.4502 16.6604 20.189 16.2033 19.7315C15.55 19.1438 15.1578 18.1633 15.1578 17.1835C15.1578 15.3541 16.4645 13.9167 18.0326 13.9167C19.6009 13.9167 20.9073 15.3541 20.9073 17.1835C20.9073 18.1633 20.5152 19.1438 19.862 19.7315C19.2736 20.189 18.6204 20.4502 17.9672 20.4502Z" fill="#061D00"/>
<path d="M17.9672 32.668C17.5098 32.668 17.1177 32.2758 17.1177 31.8185V27.7029C17.1177 27.2453 17.5098 26.8532 17.9672 26.8532C18.4248 26.8532 18.8168 27.2453 18.8168 27.7029V31.8185C18.8168 32.2758 18.4248 32.668 17.9672 32.668Z" fill="#061D00"/>
<path d="M17.9672 12.2837C17.5098 12.2837 17.1177 11.891 17.1177 11.4341V7.31782C17.1177 6.86096 17.5098 6.46826 17.9672 6.46826C18.4248 6.46826 18.8168 6.86096 18.8168 7.31782V11.4341C18.8168 11.891 18.4248 12.2837 17.9672 12.2837Z" fill="#061D00"/>
<path d="M9.27753 29.0747C9.08156 29.0747 8.8854 29.0091 8.68944 28.8135C8.36264 28.4869 8.36264 27.9639 8.68944 27.6367L11.5644 24.7627C11.8912 24.4361 12.4139 24.4361 12.7404 24.7627C13.067 25.0887 13.067 25.6116 12.7404 25.9384L9.86581 28.8135C9.73491 29.0091 9.53875 29.0747 9.27753 29.0747Z" fill="#061D00"/>
<path d="M23.7165 14.6353C23.5208 14.6353 23.3245 14.5698 23.1287 14.3734C22.8021 14.0468 22.8021 13.5245 23.1287 13.1979L26.0034 10.3226C26.33 9.99599 26.853 9.99599 27.1796 10.3226C27.5062 10.6499 27.5062 11.1728 27.1796 11.4994L24.3049 14.3734C24.174 14.5698 23.9783 14.6353 23.7165 14.6353Z" fill="#061D00"/>
<path d="M9.80012 20.4502H5.68408C5.22644 20.4502 4.83484 20.0581 4.83484 19.6013C4.83484 19.1438 5.22644 18.7517 5.68408 18.7517H9.80012C10.2576 18.7517 10.6494 19.1438 10.6494 19.6013C10.6494 20.0581 10.2576 20.4502 9.80012 20.4502Z" fill="#061D00"/>
<path d="M30.2507 20.4502H26.1344C25.6768 20.4502 25.2848 20.0581 25.2848 19.6013C25.2848 19.1438 25.6768 18.7517 26.1344 18.7517H30.2507C30.7075 18.7517 31.0996 19.1438 31.0996 19.6013C31.0341 20.0581 30.6421 20.4502 30.2507 20.4502Z" fill="#061D00"/>
<path d="M26.6567 29.0747C26.461 29.0747 26.2647 29.0091 26.069 28.8135L23.1943 25.9384C22.8677 25.6116 22.8677 25.0887 23.1943 24.7627C23.5209 24.4361 24.0439 24.4361 24.3705 24.7627L27.2451 27.6367C27.5718 27.9639 27.5718 28.4869 27.2451 28.8135C27.0488 29.0091 26.8531 29.0747 26.6567 29.0747Z" fill="#061D00"/>
<path d="M12.2177 14.6353C12.0217 14.6353 11.8256 14.5698 11.6297 14.3734L8.75499 11.4994C8.42819 11.1728 8.42819 10.6499 8.75499 10.3226C9.08153 9.99599 9.6043 9.99599 9.93084 10.3226L12.8054 13.1979C13.1325 13.5245 13.1325 14.0468 12.8054 14.3734C12.6098 14.5698 12.4138 14.6353 12.2177 14.6353Z" fill="#061D00"/>
<path d="M9.34275 9.53906C9.1466 9.53906 8.95095 9.47361 8.75499 9.34336C8.42819 9.01675 8.42819 8.49378 8.75499 8.16653L8.82031 8.10172C10.9762 6.40323 13.5244 5.35731 16.2033 5.0307H16.2684C16.7255 5.0307 17.1176 5.42276 17.1176 5.88027C17.1176 6.33778 16.7911 6.6644 16.399 6.6644C14.0471 6.92555 11.7602 7.90537 9.86578 9.34336C9.73488 9.47361 9.53872 9.53906 9.34275 9.53906Z" fill="#061D00"/>
<path d="M26.5919 9.53906C26.3955 9.53906 26.1992 9.47361 26.0689 9.34336C24.1741 7.83992 21.8872 6.92555 19.5354 6.6644C19.1434 6.59894 18.8168 6.27168 18.8168 5.88027C18.8168 5.42276 19.2088 5.0307 19.6009 5.0307H19.6657C22.3447 5.35731 24.8927 6.40323 27.0487 8.10172C27.0487 8.10172 27.1142 8.10172 27.1142 8.16653C27.4408 8.49378 27.4408 9.01675 27.1142 9.34336C26.9833 9.40816 26.7876 9.53906 26.5919 9.53906Z" fill="#061D00"/>
<path d="M31.7534 18.8169C31.2959 18.8169 30.9693 18.4903 30.9693 18.0976C30.7075 15.7459 29.7277 13.459 28.2904 11.5641C28.0292 11.2375 28.0292 10.78 28.3552 10.4534C28.6824 10.1274 29.2047 10.1274 29.5313 10.4534L29.5968 10.5189C31.2959 12.6749 32.3412 15.2236 32.6678 17.9019V17.9673C32.6024 18.4242 32.2103 18.8169 31.7534 18.8169Z" fill="#061D00"/>
<path d="M28.8781 29.0093C28.6824 29.0093 28.4861 28.944 28.3552 28.8136C28.0292 28.5519 28.0292 28.0296 28.2904 27.7031C29.7932 25.8081 30.7075 23.5212 30.9693 21.1695C31.0341 20.7768 31.3614 20.4502 31.7534 20.4502C32.2103 20.4502 32.6024 20.8423 32.6024 21.2343V21.2998C32.2758 23.9787 31.2305 26.526 29.5314 28.6822C29.5314 28.6822 29.5314 28.6822 29.4665 28.7483C29.3356 28.944 29.0745 29.0093 28.8781 29.0093Z" fill="#061D00"/>
<path d="M19.6009 34.236C19.1434 34.236 18.7513 33.8434 18.7513 33.3865C18.7513 32.929 19.078 32.6025 19.47 32.6025C21.8872 32.3413 24.1086 31.3609 26.0035 29.9233C26.3301 29.6623 26.853 29.6623 27.1142 29.9888C27.4408 30.3154 27.3753 30.8384 27.0487 31.1644C27.0487 31.1644 27.0487 31.1644 26.9833 31.2305C24.8273 32.929 22.2792 33.9742 19.6009 34.3008C19.6657 34.236 19.6009 34.236 19.6009 34.236Z" fill="#061D00"/>
<path d="M16.334 34.2363H16.2684C13.5897 33.9098 11.0413 32.8646 8.88541 31.1648L8.82035 31.1C8.4938 30.7734 8.4938 30.2505 8.82035 29.9237C9.14663 29.5971 9.60434 29.5971 9.93088 29.8591C11.8256 31.3612 14.1124 32.276 16.4646 32.538C16.8565 32.6028 17.1833 32.9294 17.1833 33.322C17.1833 33.8437 16.7911 34.2363 16.334 34.2363Z" fill="#061D00"/>
<path d="M7.05615 29.0093C6.85999 29.0093 6.59852 28.944 6.46813 28.7483L6.40255 28.6822C4.7038 26.526 3.65885 23.9787 3.33179 21.2998V21.2343C3.33179 20.7768 3.72385 20.3854 4.18155 20.3854C4.63874 20.3854 4.96528 20.712 4.96528 21.1034C5.2265 23.4558 6.20691 25.742 7.64399 27.6368C7.90547 27.9641 7.90547 28.421 7.57892 28.7483C7.44802 28.944 7.25212 29.0093 7.05615 29.0093Z" fill="#061D00"/>
<path d="M4.18155 18.8169C3.72385 18.8169 3.33179 18.4242 3.33179 18.0328V17.9673C3.65885 15.2884 4.7038 12.7403 6.40255 10.5843L6.46813 10.5189C6.79467 10.1922 7.31744 10.1922 7.64399 10.5189C7.90547 10.8455 7.97098 11.303 7.7095 11.6296C6.20691 13.5244 5.29208 15.7459 5.03054 18.163C4.96528 18.4903 4.57342 18.8169 4.18155 18.8169Z" fill="#061D00"/>
<path d="M17.9671 4.89977C17.5097 4.89977 17.1176 5.29248 17.1176 5.74999C17.1176 6.20685 17.5097 6.53347 17.9017 6.53347C18.2938 6.53347 18.6858 6.20685 18.6858 5.74999C18.8167 5.29248 18.4247 4.89977 17.9671 4.89977ZM17.9671 8.1665C16.6604 8.1665 15.615 7.18668 15.5499 5.88025C15.5499 5.8148 15.5499 5.81479 15.5499 5.74999C15.5499 4.37746 16.6604 3.26674 18.0326 3.26674C19.4045 3.26674 20.5152 4.37746 20.5152 5.74999C20.5152 5.81479 20.5152 5.88025 20.5152 5.88025C20.3195 7.18668 19.2736 8.1665 17.9671 8.1665Z" fill="#061D00"/>
<path d="M17.9672 32.6678C17.5097 32.6678 17.1832 32.9944 17.1832 33.4521C17.1832 33.9095 17.5753 34.3008 18.0326 34.3008C18.4895 34.3008 18.8815 33.9095 18.8815 33.4521C18.7513 32.9944 18.4247 32.6678 17.9672 32.6678ZM17.9672 35.9346C16.5949 35.9346 15.4844 34.8238 15.4844 33.4521C15.4844 33.3865 15.4844 33.3217 15.4844 33.3217C15.55 32.0148 16.6604 31.0341 17.9017 31.0341C19.1434 31.0341 20.2534 32.0148 20.3195 33.3217C20.3195 33.3865 20.3195 33.3865 20.3195 33.4521C20.4498 34.8238 19.3391 35.9346 17.9672 35.9346Z" fill="#061D00"/>
<path d="M27.7673 8.95056C27.5716 8.95056 27.3753 9.01666 27.1796 9.21171C26.9184 9.53897 26.9184 9.99583 27.245 10.3224C27.3753 10.4533 27.5716 10.5842 27.8328 10.5842C28.0291 10.5842 28.2248 10.5188 28.3551 10.3885C28.486 10.2576 28.6169 9.99583 28.6169 9.80077C28.6169 9.60442 28.5514 9.40807 28.3551 9.21171C28.2248 9.08146 28.0291 8.95056 27.7673 8.95056ZM27.7673 12.2173C27.1141 12.2173 26.5263 11.9561 26.0034 11.4993C25.0884 10.5842 25.0236 9.14691 25.8725 8.16644C25.9379 8.10164 25.9379 8.10163 26.0034 8.03618C26.4609 7.57867 27.0487 7.31752 27.7673 7.31752C28.4205 7.31752 29.009 7.57867 29.5313 8.03618C29.9888 8.49369 30.2506 9.08146 30.2506 9.80077C30.2506 10.4533 29.9888 11.0418 29.5313 11.5641C29.5313 11.5641 29.4665 11.6295 29.401 11.695C28.9435 12.0216 28.3551 12.2173 27.7673 12.2173Z" fill="#061D00"/>
<path d="M8.16675 28.617C7.97104 28.617 7.77463 28.6818 7.64405 28.8132C7.51341 28.9435 7.38276 29.1392 7.38276 29.401C7.38276 29.6622 7.44808 29.7923 7.64405 29.9888C7.77463 30.1197 7.97105 30.25 8.23233 30.25C8.49381 30.25 8.6242 30.1852 8.82035 29.9888C9.08158 29.6622 9.08158 29.2048 8.75503 28.878C8.55887 28.6818 8.36265 28.617 8.16675 28.617ZM8.16675 31.8838C7.5134 31.8838 6.92564 31.6218 6.40261 31.1643C5.94549 30.7074 5.6842 30.0543 5.6842 29.401C5.6842 28.7479 5.94549 28.1594 6.40261 27.6364C6.40261 27.6364 6.46819 27.5716 6.53352 27.5063C6.9907 27.1141 7.57899 26.9184 8.16675 26.9184C8.82035 26.9184 9.40812 27.1797 9.93089 27.6364C10.8457 28.5515 10.9108 29.9887 10.0615 30.9692C9.9964 31.034 9.9964 31.034 9.93089 31.0995C9.40812 31.6218 8.82035 31.8838 8.16675 31.8838Z" fill="#061D00"/>
<path d="M31.8183 18.8168C31.3614 18.8168 31.0341 19.2082 31.0341 19.6657C31.0341 20.1232 31.3614 20.4498 31.8183 20.4498C32.2758 20.4498 32.6678 20.0578 32.6678 19.6009C32.6678 19.1434 32.2758 18.8168 31.8183 18.8168ZM31.8837 22.0835C31.8183 22.0835 31.7535 22.0835 31.7535 22.0835C30.4464 22.018 29.4666 20.9073 29.4666 19.6657C29.4666 18.4241 30.4464 17.3133 31.7535 17.2485C31.8183 17.2485 31.8183 17.2485 31.8837 17.2485C33.2556 17.2485 34.3663 18.3593 34.3663 19.7311C34.3663 21.103 33.1901 22.0835 31.8837 22.0835Z" fill="#061D00"/>
<path d="M4.11592 18.8168C3.6588 18.8168 3.26667 19.2082 3.26667 19.6657C3.26667 20.1232 3.6588 20.5153 4.11592 20.5153C4.57336 20.5153 4.89991 20.1232 4.89991 19.7311C4.89991 19.3391 4.57336 18.8168 4.11592 18.8168ZM4.11592 22.0835C2.74391 22.0835 1.63318 20.9728 1.63318 19.6009C1.63318 18.229 2.74391 17.1183 4.11592 17.1183C4.1815 17.1183 4.24656 17.1183 4.24656 17.1183C5.55351 17.1831 6.5334 18.2938 6.5334 19.5348C6.5334 20.7764 5.55351 21.9526 4.24656 22.018C4.1815 22.018 4.11592 22.0835 4.11592 22.0835Z" fill="#061D00"/>
<path d="M8.16666 8.95056C7.97095 8.95056 7.77453 9.01666 7.57889 9.21171C7.44799 9.34326 7.31741 9.53897 7.31741 9.80077C7.31741 9.99583 7.38267 10.1922 7.57889 10.3885C7.70947 10.5188 7.90543 10.5842 8.10159 10.5842C8.29756 10.5842 8.49372 10.5188 8.68936 10.3224C9.01616 9.99583 9.01616 9.53897 8.75494 9.21171C8.55878 9.08146 8.36256 8.95056 8.16666 8.95056ZM8.16666 12.2173C7.57889 12.2173 6.99061 12.0216 6.53342 11.6295C6.4681 11.5641 6.4681 11.5641 6.40252 11.4993C5.42263 10.5188 5.42263 9.01666 6.40252 8.03618C6.85996 7.57867 7.44799 7.31752 8.16666 7.31752C8.82026 7.31752 9.40803 7.57867 9.93079 8.03618C9.93079 8.03618 9.99631 8.10164 10.0614 8.16644C10.9107 9.14691 10.8456 10.5842 9.93079 11.4993C9.40803 11.9561 8.82026 12.2173 8.16666 12.2173Z" fill="#061D00"/>
<path d="M27.7673 28.617C27.5716 28.617 27.3753 28.6818 27.1796 28.878C26.8529 29.2048 26.8529 29.6622 27.1141 29.9888C27.245 30.1197 27.5062 30.25 27.7025 30.25C27.8982 30.25 28.0946 30.1852 28.2903 29.9888C28.4205 29.8587 28.5514 29.6622 28.5514 29.401C28.5514 29.2048 28.486 29.0089 28.2903 28.8132C28.1594 28.6818 27.9637 28.617 27.7673 28.617ZM27.7673 31.8838C27.1141 31.8838 26.5263 31.6218 26.0034 31.1643C26.0034 31.1643 25.9379 31.0995 25.8725 31.034C25.0236 30.0543 25.0884 28.617 26.0034 27.7027C26.4609 27.245 27.0487 26.9832 27.7673 26.9832C28.3551 26.9832 28.9435 27.1797 29.401 27.5716C29.4665 27.6371 29.4665 27.6371 29.5313 27.7027C29.9888 28.1594 30.2506 28.7479 30.2506 29.401C30.2506 30.0543 29.9888 30.6426 29.5313 31.1643C29.0744 31.6218 28.4205 31.8838 27.7673 31.8838Z" fill="#061D00"/>
<path d="M3.26674 33.517C2.8093 33.517 2.41691 33.9095 2.41691 34.3665C2.41691 34.8239 2.8093 35.216 3.26674 35.216C3.72386 35.216 4.11599 34.8239 4.11599 34.3665C4.11599 33.8435 3.72386 33.517 3.26674 33.517ZM3.26674 36.7837C1.89473 36.7837 0.783936 35.6729 0.783936 34.3009C0.783936 32.9291 1.89473 31.8184 3.26674 31.8184C4.63875 31.8184 5.74922 32.9291 5.74922 34.3009C5.74922 35.6729 4.63875 36.7837 3.26674 36.7837Z" fill="#061D00"/>
<path d="M2.48248 4.89977C2.02529 4.89977 1.63323 5.29248 1.63323 5.74999C1.63323 6.20685 2.02529 6.59892 2.48248 6.59892C2.93992 6.59892 3.33179 6.20685 3.33179 5.74999C3.26673 5.29248 2.8746 4.89977 2.48248 4.89977ZM2.48248 8.1665C1.11047 8.1665 0 7.05578 0 5.6839C0 4.31202 1.11047 3.20129 2.48248 3.20129C3.85449 3.20129 4.96529 4.31202 4.96529 5.6839C4.96529 7.05578 3.78943 8.1665 2.48248 8.1665Z" fill="#061D00"/>
<path d="M29.7931 1.63306C29.1393 1.63306 28.5515 2.15602 28.5515 2.87468C28.5515 3.594 29.0745 4.11631 29.7931 4.11631C30.4463 4.11631 31.0341 3.594 31.0341 2.87468C31.0341 2.15602 30.5118 1.63306 29.7931 1.63306ZM29.7931 5.75C28.2249 5.75 26.9185 4.44292 26.9185 2.87468C26.9185 1.30645 28.2249 1.66893e-05 29.7931 1.66893e-05C31.3614 1.66893e-05 32.6678 1.30645 32.6678 2.87468C32.6678 4.44292 31.3614 5.75 29.7931 5.75Z" fill="#061D00"/>
</svg>
