<svg width="37" height="39" viewBox="0 0 37 39" fill="none" xmlns="http://www.w3.org/2000/svg">
<path d="M35.7693 11.3555C36.2326 11.3555 36.6076 11.7311 36.6076 12.1938C36.6076 12.6571 36.2326 13.0327 35.7693 13.0327C35.306 13.0327 34.9304 12.6571 34.9304 12.1938C34.9304 11.7311 35.306 11.3555 35.7693 11.3555Z" fill="#061D00"/>
<path d="M31.1882 3.1625C31.5114 3.1625 31.7693 3.22649 32.0272 3.35575C32.2857 3.48438 32.5429 3.54965 32.7368 3.67827L32.2204 4.64582C32.2204 4.64582 32.1564 4.58183 32.0918 4.58183C32.0272 4.5172 31.9625 4.5172 31.8339 4.45257C31.7046 4.38794 31.64 4.38793 31.5114 4.3233C31.3821 4.25867 31.2529 4.25866 31.1242 4.25866V5.22686L31.3175 5.29148C31.5754 5.35547 31.7693 5.4201 31.9625 5.48473C32.1564 5.54936 32.2857 5.67864 32.4789 5.74263C32.6076 5.87189 32.7368 6.00114 32.8014 6.12977C32.8661 6.32302 32.9301 6.51692 32.9301 6.71081C32.9301 6.96869 32.8661 7.22656 32.8014 7.42046C32.7368 7.61371 32.6076 7.74296 32.4143 7.87158C32.2857 8.00084 32.0918 8.06548 31.8985 8.13011C31.7046 8.19474 31.5114 8.19475 31.2529 8.25874V9.09766H30.8017V8.25874C30.4786 8.25874 30.1561 8.19475 29.8336 8.06549C29.511 7.93623 29.2532 7.80762 28.9946 7.67836L29.511 6.64616C29.511 6.64616 29.5757 6.71079 29.6403 6.77542C29.7043 6.83941 29.8335 6.90405 29.9628 6.96868C30.0914 7.03331 30.2207 7.09732 30.4146 7.16259C30.5432 7.22658 30.7371 7.22656 30.9304 7.29119V6.38829L30.6078 6.25903C30.35 6.1944 30.1561 6.12975 30.0274 6.00113C29.8335 5.9365 29.7043 5.80726 29.6403 5.74263C29.5757 5.67864 29.4464 5.48473 29.3818 5.35547C29.1239 5.09759 29.1239 4.90433 29.1239 4.71044C29.1239 4.45255 29.1885 4.25866 29.2532 4.0654C29.3171 3.87151 29.4464 3.74292 29.5757 3.54966C29.7043 3.4204 29.8982 3.29112 30.0914 3.22649C30.2853 3.1625 30.4786 3.09723 30.7371 3.09723V2.3882H31.1882V3.1625ZM31.1242 6.32364V7.16259C31.5114 7.16259 31.64 7.03331 31.64 6.77542C31.64 6.64616 31.5754 6.58153 31.5114 6.5169C31.3821 6.45291 31.2529 6.38828 31.1242 6.32364ZM30.8017 5.03295V4.19467C30.4786 4.19467 30.2853 4.38794 30.2853 4.58183C30.2853 4.71045 30.35 4.77507 30.4146 4.8397C30.4786 4.90433 30.6078 4.96832 30.8017 5.03295Z" fill="#061D00"/>
<path d="M30.0914 35.5494C30.5547 35.5494 30.9304 35.925 30.9304 36.3883C30.9304 36.8516 30.5547 37.2266 30.0914 37.2266C29.6288 37.2266 29.2532 36.8516 29.2532 36.3883C29.2532 35.925 29.6288 35.5494 30.0914 35.5494Z" fill="#061D00"/>
<path d="M24.7368 15.2263C25.0593 15.2263 25.3172 15.2909 25.5758 15.4202C25.8336 15.5488 26.0915 15.6135 26.2854 15.7427L25.769 16.7103C25.769 16.7103 25.7044 16.6456 25.6404 16.6456C25.5758 16.581 25.5111 16.581 25.3819 16.517C25.2532 16.4524 25.1886 16.4524 25.0593 16.3878C24.9307 16.3231 24.8015 16.3231 24.6728 16.3231V17.2913L24.8661 17.3553C25.124 17.4199 25.3172 17.4846 25.5111 17.5492C25.7044 17.6138 25.8336 17.7424 26.0275 17.8071C26.1561 17.9363 26.2854 18.065 26.35 18.1942C26.4147 18.3875 26.4787 18.5814 26.4787 18.7746C26.4787 19.0331 26.4147 19.291 26.35 19.4843C26.2854 19.6782 26.1561 19.8074 25.9629 19.936C25.8336 20.0653 25.6404 20.1299 25.4465 20.1946C25.2532 20.2586 25.0593 20.2586 24.8015 20.3232V21.1621H24.3497V20.3232C24.0272 20.3232 23.7047 20.2586 23.3821 20.1299C23.0596 20.0007 22.8011 19.8714 22.5432 19.7428L23.0596 18.7746C23.0596 18.7746 23.1243 18.8392 23.1882 18.9039C23.2529 18.9685 23.3821 19.0331 23.5114 19.0971C23.64 19.1618 23.7693 19.2264 23.9625 19.291C24.0918 19.3557 24.2857 19.3557 24.4789 19.4203V18.5167L24.1564 18.3875C23.8985 18.3228 23.7047 18.2588 23.5754 18.1296C23.3821 18.0649 23.2529 17.9363 23.1882 17.8717C23.0596 17.7424 22.995 17.6138 22.9304 17.4846C22.6725 17.1621 22.6725 17.0328 22.6725 16.8395C22.6725 16.581 22.7371 16.3877 22.8011 16.1938C22.8657 16.0006 22.995 15.8713 23.1243 15.6781C23.2529 15.5488 23.4468 15.4202 23.64 15.3556C23.8339 15.291 24.0272 15.2263 24.2857 15.2263V14.5166H24.7368V15.2263ZM24.6728 18.3875V19.2264C25.0593 19.2264 25.1886 19.0971 25.1886 18.8393C25.1886 18.71 25.124 18.646 25.0593 18.5814C24.9307 18.5167 24.8015 18.4521 24.6728 18.3875ZM24.3497 17.0974V16.2585C24.0272 16.2585 23.8339 16.4524 23.8339 16.6456C23.8339 16.7749 23.8986 16.8395 23.9625 16.9042C24.0272 16.9681 24.1564 17.0328 24.3497 17.0974Z" fill="#061D00"/>
<path d="M18.0272 8.90386C18.4898 8.90386 18.8654 9.27949 18.8654 9.74214C18.8654 10.2054 18.4898 10.5811 18.0272 10.5811C17.5639 10.5811 17.1882 10.2054 17.1882 9.74214C17.1882 9.27949 17.5639 8.90386 18.0272 8.90386Z" fill="#061D00"/>
<path d="M9.76926 10.5813C9.44611 10.5813 9.12358 10.5166 8.80107 10.388C8.47856 10.2588 8.22068 10.1295 7.96216 10.0009L8.47855 9.03272C8.47855 9.03272 8.54319 9.09735 8.60782 9.16198C8.67245 9.22661 8.80107 9.29124 8.93033 9.35523C9.05959 9.41986 9.18822 9.48448 9.38211 9.54911C9.51073 9.61374 9.70399 9.61374 9.89788 9.67838V8.77482L9.57537 8.64555C9.31748 8.58092 9.12359 8.51695 8.99496 8.38768C8.80107 8.32305 8.67245 8.19441 8.60782 8.12978C8.47855 8.00052 8.41392 7.87127 8.34929 7.74265C8.2853 7.61339 8.2853 7.42015 8.2853 7.22625C8.2853 6.96837 8.34929 6.77511 8.41392 6.58122C8.47855 6.38797 8.60782 6.2587 8.73644 6.06545C8.8657 5.93619 9.0596 5.80694 9.25285 5.74231C9.4461 5.67832 9.64 5.61367 9.89788 5.61367V4.90402H10.3496V5.61367C10.6722 5.61367 10.9301 5.6783 11.1886 5.80693C11.4465 5.93619 11.7043 6.00082 11.8982 6.12944L11.3818 7.09699C11.3818 7.09699 11.3172 7.033 11.2526 7.033C11.1886 6.96837 11.1239 6.96837 10.9947 6.90374C10.8654 6.83911 10.8014 6.83909 10.6722 6.7751C10.5435 6.71047 10.4143 6.71048 10.285 6.71048V7.67803L10.4783 7.74265C10.7368 7.80728 10.9301 7.87127 11.1239 7.9359C11.3172 8.00054 11.4465 8.1298 11.6397 8.19443C11.769 8.32305 11.8982 8.45232 11.9622 8.58094C12.0269 8.77483 12.0915 8.96809 12.0915 9.16198C12.0915 9.41986 12.0269 9.67838 11.9622 9.87163C11.8982 10.0655 11.769 10.1941 11.5751 10.3234C11.4465 10.452 11.2526 10.5166 11.0593 10.5813C10.8654 10.6459 10.6722 10.6459 10.4143 10.7099V11.5488H9.76926V10.5813ZM10.1564 8.7102V9.54911C10.5436 9.54911 10.6722 9.41986 10.6722 9.16198C10.6722 9.03272 10.6075 8.96807 10.5435 8.90408C10.4143 8.83945 10.285 8.77483 10.1564 8.7102ZM9.83325 7.42013V6.58122C9.51074 6.58122 9.31748 6.7751 9.31748 6.96835C9.31748 7.09698 9.38211 7.16226 9.4461 7.22625C9.51073 7.29089 9.64 7.3555 9.83325 7.42013Z" fill="#061D00"/>
<path d="M9.12369 19.4205C9.58698 19.4205 9.96262 19.7954 9.96262 20.2587C9.96262 20.722 9.58698 21.0977 9.12369 21.0977C8.66103 21.0977 8.2854 20.722 8.2854 20.2587C8.2854 19.7954 8.66103 19.4205 9.12369 19.4205Z" fill="#061D00"/>
<path d="M2.67193 24.2588C3.13522 24.2588 3.51085 24.6345 3.51085 25.0977C3.51085 25.561 3.13522 25.936 2.67193 25.936C2.20863 25.936 1.83301 25.561 1.83301 25.0977C1.83301 24.6345 2.20863 24.2588 2.67193 24.2588Z" fill="#061D00"/>
<path d="M1.89761 10.5166C2.36091 10.5166 2.73653 10.8923 2.73653 11.3556C2.73653 11.8189 2.36091 12.1938 1.89761 12.1938C1.43496 12.1938 1.05933 11.8189 1.05933 11.3556C1.05933 10.8923 1.43496 10.5166 1.89761 10.5166Z" fill="#061D00"/>
<path d="M2.54339 31.4844L7.83352 36.7752L9.31747 35.2912C9.44609 35.1619 9.70398 35.0333 9.89787 35.0333L23.9624 35.5491L34.4787 25.0329C35.0597 24.4525 35.0597 23.4843 34.4787 22.9039C34.2208 22.646 33.8337 22.4521 33.3819 22.4521C32.9947 22.4521 32.6076 22.5814 32.2857 22.9039L25.1885 29.7426C24.866 31.0972 23.6399 32.0654 22.2206 32.0008L14.0272 31.6783C13.5754 31.6783 13.2529 31.2911 13.2529 30.8394C13.2529 30.3876 13.6401 30.0651 14.0912 30.0651L22.2852 30.4522C22.9949 30.4522 23.5753 30.0005 23.6399 29.2908C23.6399 29.1622 23.6399 29.0976 23.6399 28.9683C23.5753 28.6458 23.4467 28.3879 23.2528 28.194C23.0595 28.0007 22.737 27.8715 22.4145 27.8068L7.89815 26.1943L2.54339 31.4844ZM7.89815 38.7749C7.70426 38.7749 7.511 38.7103 7.31711 38.517L0.865551 32.0654C0.73629 31.9362 0.607666 31.6783 0.607666 31.4844C0.607666 31.2912 0.672299 31.0973 0.865551 30.904L7.05923 24.7103C7.25248 24.5171 7.44638 24.4524 7.70426 24.4524L22.6077 26.0656C23.2528 26.1296 23.8984 26.3875 24.4142 26.9039C24.6727 27.0972 24.866 27.4203 24.9946 27.6782L31.3175 21.8071C31.8986 21.2267 32.6722 20.9042 33.5112 20.9042C34.3501 20.9042 35.1244 21.2267 35.7048 21.8071C36.2852 22.3875 36.6077 23.1617 36.6077 24.0007C36.6077 24.8396 36.2852 25.6132 35.7048 26.1943L24.866 37.0331C24.7367 37.1623 24.4788 37.2916 24.2856 37.2916L10.2204 36.7752L8.47854 38.517C8.28529 38.7103 8.09141 38.7749 7.89815 38.7749Z" fill="#061D00"/>
<path d="M9.89779 36.7754C9.70389 36.7754 9.51064 36.7107 9.31738 36.5815L2.86518 30.3878C2.54331 30.0653 2.54331 29.5489 2.86518 29.2264C3.18834 28.9045 3.7041 28.9045 4.02661 29.2264L10.4782 35.4201C10.8013 35.7432 10.8013 36.259 10.4782 36.5815C10.3496 36.6461 10.091 36.7754 9.89779 36.7754Z" fill="#061D00"/>
<path d="M32.9301 33.1625C32.7369 33.1625 32.543 33.3557 32.543 33.5489C32.543 33.7428 32.7369 33.9361 32.9301 33.9361C33.124 33.9361 33.3173 33.7428 33.3173 33.5489C33.3173 33.2917 33.124 33.1625 32.9301 33.1625ZM32.9301 35.5493C31.834 35.5493 30.9304 34.6464 30.9304 33.5489C30.9304 32.4528 31.834 31.5492 32.9301 31.5492C34.0269 31.5492 34.9305 32.4528 34.9305 33.5489C34.9305 34.6464 34.0269 35.5493 32.9301 35.5493Z" fill="#061D00"/>
<path d="M9.96244 4.12979C7.76883 4.12979 5.89773 5.93625 5.89773 8.19449C5.89773 10.4527 7.7042 12.2585 9.96244 12.2585C12.2207 12.2585 14.0271 10.4527 14.0271 8.19449C14.0271 5.93625 12.156 4.12979 9.96244 4.12979ZM9.96244 13.8071C6.86528 13.8071 4.28516 11.291 4.28516 8.12984C4.28516 4.96805 6.80128 2.45259 9.96244 2.45259C13.1236 2.45259 15.6397 4.96805 15.6397 8.12984C15.6397 11.291 13.059 13.8071 9.96244 13.8071Z" fill="#061D00"/>
<path d="M30.9304 1.67813C28.7368 1.67813 26.8657 3.48397 26.8657 5.7422C26.8657 8.00044 28.6722 9.80688 30.9304 9.80688C33.1887 9.80688 34.9951 8.00044 34.9951 5.7422C34.9951 3.48397 33.1241 1.67813 30.9304 1.67813ZM30.9304 11.3555C27.8339 11.3555 25.2532 8.83936 25.2532 5.67821C25.2532 2.51642 27.7693 0.000271797 30.9304 0.000271797C34.0916 0.000271797 36.6077 2.51642 36.6077 5.67821C36.6077 8.83936 34.027 11.3555 30.9304 11.3555Z" fill="#061D00"/>
<path d="M18.0273 23.4844C14.9301 23.4844 12.3494 20.9682 12.3494 17.8071C12.3494 14.6459 14.8655 12.1298 18.0273 12.1298C18.6723 12.1298 19.3173 12.2585 19.8984 12.4523C20.2209 12.581 20.4141 12.8395 20.4141 13.2266C20.4141 13.6784 20.027 14.0656 19.5752 14.0656C19.4466 14.0656 19.382 14.0655 19.3173 14.0009C18.8656 13.8716 18.4144 13.807 17.9627 13.807C15.7691 13.807 13.898 15.6135 13.898 17.8717C13.898 20.13 15.7044 21.9364 17.9627 21.9364C18.4144 21.9364 18.8656 21.8718 19.3173 21.6785C19.382 21.6139 19.5112 21.6139 19.5752 21.6139C20.027 21.6139 20.4141 22.0004 20.4141 22.4522C20.4141 22.7747 20.2209 23.0972 19.8984 23.2265C19.2527 23.3558 18.6077 23.4844 18.0273 23.4844Z" fill="#061D00"/>
<path d="M21.2529 23.4844C20.6079 23.4844 19.9622 23.3558 19.3818 23.1619C17.1236 22.3876 15.6396 20.1946 15.6396 17.8071C15.6396 15.4202 17.1236 13.2913 19.3818 12.4523C19.9622 12.2585 20.6079 12.1298 21.2529 12.1298C21.898 12.1298 22.543 12.2585 23.124 12.4523C23.4465 12.581 23.6398 12.8395 23.6398 13.2266C23.6398 13.6784 23.2526 14.0656 22.8009 14.0656C22.6722 14.0656 22.6076 14.0655 22.543 14.0009C21.7041 13.6784 20.7365 13.6784 19.8982 14.0009C18.285 14.5813 17.1882 16.0653 17.1882 17.8071C17.1882 19.4843 18.285 21.0329 19.8982 21.6139C20.7365 21.9364 21.7041 21.9364 22.6076 21.6139C22.6722 21.5493 22.8009 21.5493 22.8655 21.5493C23.3173 21.5493 23.7044 21.9364 23.7044 22.3876C23.7044 22.7101 23.5112 23.0332 23.188 23.1619C22.4784 23.3558 21.8333 23.4844 21.2529 23.4844Z" fill="#061D00"/>
<path d="M24.4788 13.807C24.027 13.807 23.5752 13.8717 23.1241 14.0656C21.5109 14.646 20.4141 16.1299 20.4141 17.8717C20.4141 19.5489 21.5109 21.0975 23.1241 21.6785C23.5752 21.8072 24.027 21.9364 24.4788 21.9364C26.6724 21.9364 28.5435 20.13 28.5435 17.8717C28.5435 15.6135 26.6724 13.807 24.4788 13.807ZM24.4788 23.4844C23.8337 23.4844 23.1881 23.3558 22.6077 23.1619C20.3494 22.3876 18.8655 20.1946 18.8655 17.8071C18.8655 15.4202 20.3494 13.2913 22.6077 12.4523C23.1881 12.2585 23.8337 12.1298 24.4788 12.1298C27.5753 12.1298 30.156 14.6459 30.156 17.8071C30.156 20.9682 27.5753 23.4844 24.4788 23.4844Z" fill="#061D00"/>
<path d="M5.12336 17.033C4.67223 17.033 4.28508 17.4202 4.28508 17.8719C4.28508 18.3231 4.67223 18.7102 5.12336 18.7102C5.57514 18.7102 5.96229 18.3231 5.96229 17.8719C5.96229 17.4202 5.51051 17.033 5.12336 17.033ZM5.12336 20.2588C3.76868 20.2588 2.67188 19.162 2.67188 17.8073C2.67188 16.4526 3.76868 15.3558 5.12336 15.3558C6.47805 15.3558 7.5755 16.4526 7.5755 17.8073C7.5755 19.162 6.41406 20.2588 5.12336 20.2588Z" fill="#061D00"/>
<path d="M32.9301 16.1938C32.7369 16.1938 32.543 16.3878 32.543 16.581C32.543 16.7749 32.7369 16.9681 32.9301 16.9681C33.124 16.9681 33.3173 16.7749 33.3173 16.581C33.3173 16.3878 33.124 16.1938 32.9301 16.1938ZM32.9301 18.646C31.834 18.646 30.9304 17.7424 30.9304 16.6456C30.9304 15.5488 31.834 14.6459 32.9301 14.6459C34.0269 14.6459 34.9305 15.5488 34.9305 16.6456C34.9305 17.7424 34.0269 18.646 32.9301 18.646Z" fill="#061D00"/>
<path d="M20.8013 4.12934C20.1562 4.12934 19.5752 4.6451 19.5752 5.35476C19.5752 6.06506 20.0916 6.58083 20.8013 6.58083C21.4463 6.58083 22.0273 6.06506 22.0273 5.35476C22.0273 4.6451 21.5109 4.12934 20.8013 4.12934ZM20.8013 8.12939C19.2527 8.12939 17.9626 6.83871 17.9626 5.29077C17.9626 3.74219 19.2527 2.45214 20.8013 2.45214C22.3499 2.45214 23.6399 3.74219 23.6399 5.29077C23.6399 6.83871 22.3499 8.12939 20.8013 8.12939Z" fill="#061D00"/>
</svg>
