<svg width="28" height="28" viewBox="0 0 28 28" fill="none" xmlns="http://www.w3.org/2000/svg">
<path d="M15.2956 2.33927C14.6552 2.26812 14.0784 2.7296 14.0072 3.36999C13.9361 4.01038 14.3976 4.58719 15.038 4.65833C17.1424 4.89212 19.1048 5.83452 20.603 7.33079C22.1011 8.82707 23.046 10.7883 23.2824 12.8925C23.3543 13.5327 23.9317 13.9934 24.5721 13.9215C25.2124 13.8496 25.6731 13.2722 25.6011 12.6318C25.3056 10.0017 24.1246 7.55017 22.2518 5.67983C20.3791 3.8095 17.9262 2.63151 15.2956 2.33927Z" fill="white"/>
<path d="M15.3903 7.02168C14.7579 6.89831 14.1453 7.31095 14.0218 7.94335C13.8984 8.57577 14.311 9.18845 14.9435 9.31184C15.8551 9.4897 16.6929 9.93555 17.3496 10.5923C18.0065 11.2491 18.4522 12.0869 18.6302 12.9985C18.7536 13.6309 19.3662 14.0435 19.9987 13.9202C20.631 13.7968 21.0436 13.1841 20.9203 12.5517C20.6535 11.1843 19.9848 9.92755 18.9996 8.9424C18.0144 7.95725 16.7578 7.28848 15.3903 7.02168Z" fill="white"/>
<path d="M8.42329 13.792C8.08577 14.2003 7.74835 14.6085 7.41381 15.0186C8.93041 17.4959 11.008 19.4949 13.5576 20.9234C13.8889 20.5958 14.2212 20.2691 14.5533 19.9424C15.2466 19.2604 15.9398 18.5785 16.6257 17.8896C17.003 17.5106 17.3818 17.1301 17.8557 16.9096C18.2687 16.7173 18.7209 16.6246 19.1761 16.6385C19.6987 16.6546 20.1966 16.8551 20.6928 17.0547C20.9969 17.1772 21.3047 17.2947 21.6131 17.4124C22.3121 17.6794 23.014 17.9472 23.6817 18.2758C23.9782 18.4216 24.2802 18.604 24.5448 18.8826C24.9319 19.2901 25.193 19.8006 25.2967 20.353C25.3676 20.7307 25.3387 21.0822 25.2833 21.408C25.1475 22.207 24.9357 22.9981 24.7249 23.7857C24.6358 24.1188 24.5469 24.4512 24.4639 24.7832C24.3341 25.3026 23.8674 25.6671 23.332 25.6671C19.8901 25.6671 16.2962 25 13.2265 23.3885C9.71994 21.6315 6.87616 18.9024 4.98817 15.4892C3.12099 12.247 2.33203 8.37871 2.33203 4.66709C2.33203 4.13176 2.69636 3.66512 3.2157 3.53527L5.54834 2.95203C5.93641 2.85498 6.289 2.76681 6.5908 2.71552C6.91662 2.66015 7.26816 2.63118 7.64577 2.70208C8.19814 2.8058 8.70877 3.0669 9.11627 3.45397C9.39482 3.71857 9.57717 4.02051 9.72305 4.31709C10.0734 5.02932 10.3587 5.77812 10.643 6.52407C10.7693 6.85564 10.8955 7.18663 11.027 7.51361C11.2025 7.94992 11.379 8.3886 11.4107 8.8534C11.4383 9.25897 11.3808 9.66586 11.242 10.0479C11.0829 10.4858 10.7918 10.8585 10.5024 11.2291C9.82583 12.0955 9.1244 12.944 8.42329 13.792Z" fill="white"/>
</svg>
