<svg width="28" height="28" viewBox="0 0 28 28" fill="none" xmlns="http://www.w3.org/2000/svg">
<path d="M26.5503 10.1861L10.2229 26.5313C9.89166 26.8629 9.3237 26.8629 8.94475 26.5313C8.61351 26.1997 8.61351 25.6311 8.94475 25.2521L25.273 8.90694C25.6043 8.5753 26.1722 8.5753 26.5503 8.90694C26.882 9.28596 26.882 9.85448 26.5503 10.1861ZM4.59097 18.8088L5.86866 17.5296L10.4596 22.1252L9.18148 23.4044L4.59097 18.8088ZM1.41992 18.9983C1.08868 18.6667 1.08868 18.0981 1.41992 17.7191C3.02931 16.1083 15.8071 3.31641 17.7477 1.37394C17.9372 1.18443 18.1262 1.13706 18.363 1.13706C18.8364 1.13706 19.2621 1.51608 19.2621 2.03723C19.2621 2.27411 19.1676 2.511 19.0254 2.65313C18.4102 3.26904 3.54954 18.1455 2.69806 18.9983C2.36683 19.3299 1.79887 19.3299 1.41992 18.9983ZM5.91638 10.1387C3.97575 10.1387 2.36683 8.52792 2.36683 6.58545C2.36683 4.64298 3.97575 3.03215 5.91638 3.03215C7.85654 3.03215 9.46593 4.64298 9.46593 6.58545C9.46593 8.52792 7.85654 10.1387 5.91638 10.1387ZM19.6411 12.934L15.0501 8.33841L16.3283 7.05922L20.9188 11.6548L19.6411 12.934ZM17.5587 15.0186L12.9677 10.423L14.2459 9.14382L18.8364 13.7394L17.5587 15.0186ZM15.4759 17.1032L10.8854 12.5076L12.1631 11.2284L16.754 15.824L15.4759 17.1032ZM11.2639 21.3198L6.67334 16.7242L7.95103 15.445L12.542 20.0406L11.2639 21.3198ZM13.3467 19.1878L8.75573 14.5922L10.0339 13.313L14.6244 17.9086L13.3467 19.1878ZM23.0007 9.57022L21.7235 10.8494L17.1325 6.25381L18.4102 4.97462L23.0007 9.57022ZM27.3549 8.10152C26.5507 7.29611 25.2253 7.29611 24.4211 8.10152L23.8054 8.76481L19.2149 4.1692L19.8301 3.5533C20.2091 3.17428 20.4453 2.65313 20.4453 2.0846C20.4453 0.947548 19.4989 0 18.363 0C17.795 0 17.2743 0.236887 16.8963 0.615906L10.6486 6.86971C10.7909 4.12183 8.61351 1.84772 5.91638 1.84772C3.31282 1.84772 1.18364 3.9797 1.18364 6.58545C1.18364 9.28596 3.45504 11.4653 6.1999 11.3232L0.61567 16.9137C0.236715 17.2927 0 17.8139 0 18.3824C0 19.5195 0.946909 20.467 2.08237 20.467C2.65034 20.467 3.17153 20.2301 3.54955 19.8511L3.73902 19.6616L8.32999 24.2572L8.14052 24.4467C7.76157 24.8257 7.52531 25.3469 7.52531 25.9154C7.52531 27.0525 8.47176 28 9.60722 28C10.1284 28 10.6486 27.8105 11.0748 27.3841L27.4027 11.0389C28.2069 10.2335 28.2069 8.90694 27.3549 8.10152Z" fill="white"/>
<path d="M6.11071 7.91086V7.10544C6.25294 7.15282 6.3947 7.2002 6.48967 7.29495C6.58418 7.34233 6.63096 7.43708 6.63096 7.57922C6.63096 7.8161 6.48967 7.91086 6.11071 7.91086ZM5.82672 5.92101C5.68496 5.87363 5.54275 5.82625 5.4955 5.7315C5.401 5.68412 5.401 5.58937 5.401 5.49461C5.401 5.25773 5.54275 5.11559 5.87398 5.11559V5.92101H5.82672ZM6.96218 6.25265C6.58416 6.11052 6.20522 6.01576 6.15844 6.01576V5.11559C6.63096 5.16297 7.15213 5.44724 7.19891 5.54199L7.67238 4.64182C7.48337 4.54707 7.29388 4.45231 7.0099 4.31018C6.77317 4.21543 6.48967 4.16805 6.20522 4.12067V3.45739H5.73221V4.12067C5.11699 4.16805 4.59629 4.45231 4.35956 5.02084C4.21733 5.35248 4.21734 5.82625 4.31232 6.11052C4.40729 6.39478 4.64355 6.58429 4.92753 6.72642C5.30602 6.91593 5.68496 7.01069 5.82672 7.01069V7.91086C5.68496 7.91086 5.49549 7.86348 5.35373 7.8161C5.117 7.72135 4.83301 7.62659 4.64353 7.48446C4.54903 7.43708 4.50179 7.38971 4.50179 7.38971L4.02832 8.33725C4.54903 8.66889 5.16425 8.8584 5.73221 8.90578V9.66382H6.20522V8.90578C6.58418 8.90578 7.00992 8.81103 7.2939 8.57414C7.43566 8.47939 7.57789 8.33725 7.62514 8.14774C7.81462 7.8161 7.8146 7.29495 7.67238 6.96331C7.57787 6.67905 7.34114 6.44216 6.96218 6.25265Z" fill="white"/>
</svg>
