<svg width="31" height="28" viewBox="0 0 31 28" fill="none" xmlns="http://www.w3.org/2000/svg">
<path d="M22.886 3.30996L28.8702 3.25905L28.9227 9.26637C28.2981 8.60454 23.8743 4.27724 22.886 3.30996ZM12.5294 21.4846L8.83405 17.8701C8.57425 17.6155 8.15754 17.6155 7.89722 17.8701L3.68173 21.9937L1.49631 19.8555L8.31393 13.1864L12.0088 16.801C12.2691 17.0555 12.6853 17.0555 12.9456 16.801L23.8743 6.10998L26.0597 8.24818L12.5294 21.4846ZM30.1718 2.59723C30.1718 2.24086 29.859 1.98631 29.4947 1.98631L21.3241 2.08813C21.0643 2.08813 20.804 2.24086 20.752 2.49541C20.6476 2.74995 20.7001 3.0045 20.9079 3.20814L23.0414 5.29543L12.5294 15.4264L8.83405 11.8118C8.57425 11.5573 8.15754 11.5573 7.89722 11.8118L0.195237 19.4483C-0.0650791 19.7028 -0.0650791 20.1101 0.195237 20.3646L3.3175 23.4192C3.57782 23.6737 3.99401 23.6737 4.25433 23.4192L8.46981 19.2955L12.1652 22.9101C12.4255 23.1646 12.8417 23.1646 13.1015 22.9101L27.101 9.21546L29.2344 11.3027C29.3389 11.4046 29.5472 11.5064 29.7031 11.5064C30.0673 11.5064 30.3796 11.2009 30.3277 10.8446L30.1718 2.59723Z" fill="white"/>
<path d="M8.31566 4.2737C8.26319 4.22279 8.21123 4.12097 8.21123 4.01916C8.21123 3.81552 8.36763 3.66279 8.6799 3.66279V4.47734C8.52351 4.37552 8.41958 4.32461 8.31566 4.2737ZM8.99218 5.64826C9.14807 5.69917 9.25249 5.75008 9.35641 5.80099C9.46033 5.8519 9.5123 5.95372 9.5123 6.05553C9.5123 6.25917 9.35642 6.36099 8.99218 6.4119V5.64826ZM8.21123 6.31008C8.00338 6.25917 7.69111 6.10644 7.53472 6.00462C7.48276 5.95372 7.43079 5.90281 7.37883 5.90281L6.91016 6.81918C7.43079 7.12463 8.05535 7.32827 8.62794 7.37918V8.14282H9.04415V7.37918C9.2525 7.37918 9.46034 7.32827 9.66869 7.27736C10.0329 7.17554 10.3452 6.9719 10.553 6.61554C10.7094 6.25917 10.7094 5.75008 10.6055 5.44462C10.5011 5.19007 10.2932 4.98644 9.87654 4.7828C9.46034 4.63007 9.09611 4.52825 9.04415 4.52825V3.66279C9.5123 3.7137 10.0329 4.01916 10.0849 4.07007L10.553 3.2046C10.3452 3.10279 10.1369 3.00097 9.87654 2.89915C9.61674 2.79733 9.35642 2.74642 9.09611 2.69551V2.03369H8.62794V2.69551C8.00339 2.79733 7.48275 3.05188 7.22244 3.61188C7.06656 3.91734 7.06655 4.37552 7.17048 4.68098C7.2744 4.98644 7.53472 5.13916 7.79504 5.29189C8.15927 5.44462 8.52351 5.54644 8.6799 5.59735V6.46281C8.52351 6.36099 8.36762 6.36099 8.21123 6.31008Z" fill="white"/>
<path d="M8.78729 1.27297C10.9208 1.27297 12.6905 3.00389 12.6905 5.09118C12.6905 7.17847 10.9208 8.90939 8.78729 8.90939C6.65382 8.90939 4.88408 7.17847 4.88408 5.09118C4.88408 3.00389 6.65382 1.27297 8.78729 1.27297ZM8.78729 10.1821C11.6497 10.1821 13.9916 7.8912 13.9916 5.09118C13.9916 2.29116 11.6497 0.000235558 8.78729 0.000235558C5.92535 0.000235558 3.58301 2.29116 3.58301 5.09118C3.58301 7.8912 5.92535 10.1821 8.78729 10.1821Z" fill="white"/>
<path d="M23.3005 24.2307V23.4671C23.4568 23.518 23.5608 23.5689 23.6647 23.6198C23.7691 23.6707 23.8211 23.7726 23.8211 23.8744C23.8211 24.1289 23.6132 24.2307 23.3005 24.2307ZM22.9887 22.2453C22.8323 22.1944 22.7284 22.1435 22.6244 22.0926C22.572 22.0416 22.5205 21.9398 22.5205 21.838C22.5205 21.6344 22.6759 21.4816 22.9887 21.4816V22.2453ZM24.1334 22.6016C23.7172 22.4489 23.3529 22.3471 23.3005 22.3471V21.4816C23.7691 21.5325 24.2892 21.838 24.3417 21.8889L24.8099 21.0235C24.6015 20.9216 24.3937 20.8198 24.1334 20.718C23.873 20.6162 23.6132 20.5653 23.3529 20.5144V19.8525H22.8848V20.5144C22.2602 20.5653 21.7396 20.8198 21.4793 21.3798C21.3229 21.7362 21.3229 22.1435 21.4273 22.4489C21.5832 22.9071 22.1038 23.1107 22.6244 23.2635L22.9362 23.3653V24.2307C22.7798 24.2307 22.6245 24.1798 22.4681 24.1289C22.2602 24.078 21.9474 23.9253 21.7915 23.8235C21.7396 23.7726 21.6871 23.7217 21.6357 23.7217L21.167 24.638C21.6871 24.9435 22.3117 25.1471 22.8848 25.198V25.9617H23.3529V25.198C23.7691 25.198 24.1334 25.0962 24.4456 24.8417C24.6015 24.7398 24.706 24.5871 24.8099 24.4344C24.9658 24.078 24.9658 23.5689 24.8618 23.2635C24.7579 23.0089 24.5496 22.7544 24.1334 22.6016Z" fill="white"/>
<path d="M23.1008 26.7273C20.9668 26.7273 19.1976 24.9963 19.1976 22.9091C19.1976 20.8218 20.9668 19.0908 23.1008 19.0908C25.2342 19.0908 27.004 20.8218 27.004 22.9091C27.004 24.9963 25.2342 26.7273 23.1008 26.7273ZM23.1008 17.8181C20.2383 17.8181 17.8965 20.109 17.8965 22.9091C17.8965 25.7091 20.2383 28 23.1008 28C25.9627 28 28.305 25.7091 28.305 22.9091C28.305 20.109 25.9627 17.8181 23.1008 17.8181Z" fill="white"/>
</svg>
