<svg width="23" height="30" viewBox="0 0 23 30" fill="none" xmlns="http://www.w3.org/2000/svg">
<path d="M21.8392 0.999998V29H1V1.00161L21.8392 0.999998Z" stroke="white" stroke-miterlimit="10"/>
<path d="M12.6826 11.084C12.6826 9.19462 14.2143 7.66401 16.1036 7.66401C17.993 7.66401 19.5245 9.19462 19.5245 11.084C19.5245 12.9734 17.993 14.5056 16.1036 14.5056C14.2143 14.5056 12.6826 12.9734 12.6826 11.084Z" stroke="white" stroke-miterlimit="10"/>
<path d="M14.4004 11.1711L15.3819 12.2395L17.807 9.92987" stroke="white" stroke-miterlimit="10"/>
<path d="M12.6826 21.1515C12.6826 19.2621 14.2143 17.7299 16.1036 17.7299C17.993 17.7299 19.5245 19.2621 19.5245 21.1515C19.5245 23.0409 17.993 24.5715 16.1036 24.5715C14.2143 24.5715 12.6826 23.0409 12.6826 21.1515Z" stroke="white" stroke-miterlimit="10"/>
<path d="M14.7676 19.9926L17.34 22.6174" stroke="white" stroke-miterlimit="10"/>
<path d="M17.34 19.9926L14.7676 22.6174" stroke="white" stroke-miterlimit="10"/>
<path d="M3.68555 9.02661H10.0292" stroke="white" stroke-miterlimit="10"/>
<path d="M3.68555 11.1194H10.0292" stroke="white" stroke-miterlimit="10"/>
<path d="M3.68555 13.1418H10.0292" stroke="white" stroke-miterlimit="10"/>
<path d="M3.68555 19.2131H10.0292" stroke="white" stroke-miterlimit="10"/>
<path d="M3.68555 21.3049H10.0292" stroke="white" stroke-miterlimit="10"/>
<path d="M3.68555 23.3979H10.0292" stroke="white" stroke-miterlimit="10"/>
<path d="M6.31738 1.00144L7.29069 2.78418H15.5811L16.521 1.00144" stroke="white" stroke-miterlimit="10"/>
</svg>
