<svg width="28" height="28" viewBox="0 0 28 28" fill="none" xmlns="http://www.w3.org/2000/svg">
<path d="M19.7169 14.5129C19.6683 14.4642 19.6197 14.3668 19.6197 14.2695C19.6197 14.0747 19.766 13.9773 20.0091 13.9286V14.659C19.8633 14.6103 19.766 14.5616 19.7169 14.5129ZM20.3013 15.7303C20.4476 15.779 20.5448 15.8277 20.6421 15.8764C20.7398 15.9251 20.7884 16.0225 20.7884 16.1199C20.7884 16.3147 20.6421 16.4121 20.3499 16.4121V15.7303H20.3013ZM18.9867 16.0225C18.9381 15.9738 18.8895 15.9251 18.8409 15.9251L18.4023 16.7529C18.8409 17.0451 19.3761 17.1912 19.9119 17.2399V17.9216H20.3499V17.2399C20.5448 17.2399 20.6907 17.1912 20.8856 17.1425C21.2264 17.0451 21.47 16.8503 21.6649 16.5582C21.8108 16.266 21.8108 15.779 21.7136 15.4868C21.6158 15.2434 21.4214 15.0486 21.0315 14.9025C20.6907 14.7564 20.3499 14.7077 20.3013 14.659V13.8799C20.6907 13.9286 21.1778 14.1721 21.2264 14.2695L21.6649 13.4903C21.5186 13.3929 21.3237 13.2955 21.0806 13.1982C20.837 13.1495 20.5935 13.1008 20.3499 13.1008V12.5164H19.9605V13.1008C19.4252 13.1495 18.9867 13.3929 18.7431 13.8799C18.6945 14.026 18.6459 14.2208 18.6459 14.4155C18.6459 14.7077 18.6945 14.9512 18.9381 15.146C19.133 15.3408 19.4738 15.4868 19.766 15.5842L20.0577 15.6816V16.4608C19.6683 16.3634 19.2303 16.1686 18.9867 16.0225Z" fill="white"/>
<path d="M26.83 23.3739C26.83 23.9096 26.3915 24.3478 25.8562 24.3478C24.4926 24.3478 3.60339 24.3478 2.1911 24.3478C1.65536 24.3478 1.21733 23.9096 1.21733 23.3739V7.06087C1.21733 6.52522 1.65536 6.08696 2.1911 6.08696H7.40125L7.35264 6.72H2.48329C2.14249 6.72 1.85031 7.01217 1.85031 7.35304V21.3774C1.85031 21.7183 2.14249 22.0104 2.48329 22.0104H25.6127C25.9535 22.0104 26.2457 21.7183 26.2457 21.3774V7.30435C26.2457 6.96348 25.9535 6.6713 25.6127 6.6713H20.7433L20.6942 6.03826H25.9049C26.4401 6.03826 26.8786 6.47652 26.8786 7.01217V23.3739H26.83ZM18.893 26.1983C18.893 26.5391 18.6008 26.8313 18.26 26.8313H9.7873C9.4465 26.8313 9.15433 26.5391 9.15433 26.1983C9.15433 25.8574 9.4465 25.5652 9.7873 25.5652H18.3087C18.6008 25.5652 18.893 25.8574 18.893 26.1983ZM14.0237 1.50956C14.8511 2.33739 16.7019 3.84696 19.2338 4.09043L19.526 7.01217C19.7205 8.96 18.8444 10.8591 17.2858 11.9791L14.0237 14.3165L10.7611 11.9791C9.20295 10.8591 8.32641 8.9113 8.52136 7.01217C8.56997 6.57391 8.76491 4.4313 8.81353 4.09043C11.3454 3.84696 13.1957 2.33739 14.0237 1.50956ZM20.1104 12.1739C21.7657 12.1739 23.178 13.5374 23.178 15.2417C23.178 16.9461 21.8143 18.3096 20.1104 18.3096C18.4059 18.3096 17.0427 16.9461 17.0427 15.2417C17.0427 13.5374 18.4545 12.1739 20.1104 12.1739ZM24.9792 7.93739V20.7443H3.06765V19.4783H14.0237C14.3645 19.4783 14.6567 19.1861 14.6567 18.8452C14.6567 18.5043 14.3645 18.2122 14.0237 18.2122H3.06765V17.0435H5.50233C5.84312 17.0435 6.1353 16.7513 6.1353 16.4104C6.1353 16.0696 5.84312 15.7774 5.50233 15.7774H3.06765V7.93739H7.30402C7.44987 9.93391 8.42364 11.7843 10.0795 13.0017C13.926 15.7774 13.6829 15.6313 13.7801 15.68C13.9746 15.7774 14.2181 15.7774 14.4131 15.6313L15.9712 14.5113C15.4846 17.1409 17.5294 19.527 20.159 19.527C22.4964 19.527 24.444 17.6278 24.444 15.2417C24.444 12.807 22.3501 10.8104 19.8668 11.0052C20.4025 10.08 20.7433 9.05739 20.8406 7.93739H24.9792ZM25.8562 4.86956H20.5484L20.4025 3.45739C20.3534 3.16522 20.1104 2.92174 19.8182 2.92174C16.7019 2.87304 14.5589 0.340868 14.5103 0.243477C14.4131 0.0973911 14.2668 0.0486946 14.1209 0.0486946C14.0723 0.0486946 14.1209 0.0486946 14.0723 0.0486946C14.0237 0 14.0237 0 14.0237 0C13.8287 0 13.6829 0.0973911 13.5852 0.243477C13.5366 0.292173 11.3941 2.87304 8.27779 2.92174C7.98561 2.92174 7.69342 3.16522 7.69342 3.45739L7.49849 4.86956H2.1911C0.973768 4.86956 0 5.84348 0 7.06087V23.3739C0 24.5913 0.973768 25.5652 2.1911 25.5652H8.03422C7.5962 26.7339 8.52135 28 9.73868 28H18.26C19.526 28 20.4025 26.7339 19.964 25.5652H25.8071C27.0245 25.5652 27.9983 24.5913 27.9983 23.3739V7.06087C28.0469 5.84348 27.0731 4.86956 25.8562 4.86956Z" fill="white"/>
<path d="M16.0646 7.54883C16.3077 7.30535 16.3077 6.91578 16.0646 6.67231C15.821 6.42883 15.4311 6.42883 15.1881 6.67231L13.3377 8.52274L12.6071 7.79231C12.3635 7.54883 11.9741 7.54883 11.7305 7.79231C11.487 8.03578 11.487 8.42535 11.7305 8.66883L12.8506 9.78883C13.0942 10.0323 13.4836 10.0323 13.7272 9.78883L16.0646 7.54883Z" fill="white"/>
<path d="M10.3734 8.52179C10.7142 8.52179 11.0064 8.22961 11.0064 7.88874C11.0064 6.23309 12.3696 4.82092 14.074 4.82092C15.7785 4.82092 17.1417 6.1844 17.1417 7.88874C17.1417 9.59309 15.7785 10.9566 14.074 10.9566C13.7333 10.9566 13.4411 11.2487 13.4411 11.5896C13.4411 11.9305 13.7333 12.2227 14.074 12.2227C16.4115 12.2227 18.359 10.3235 18.359 7.93744C18.359 5.55135 16.4601 3.65222 14.074 3.65222C11.688 3.65222 9.78906 5.55135 9.78906 7.93744C9.78906 8.22961 10.0326 8.52179 10.3734 8.52179Z" fill="white"/>
</svg>
