<svg width="41" height="34" viewBox="0 0 41 34" fill="none" xmlns="http://www.w3.org/2000/svg">
<path d="M33.1681 1.05513C28.6665 0.531319 24.5927 3.7553 24.0693 8.25794C23.8023 10.5542 24.5125 12.7394 25.8687 14.399L24.8414 17.6953L27.8558 16.1556C28.8594 16.787 30.016 17.2103 31.2724 17.3567C35.774 17.8805 39.8476 14.6548 40.3712 10.1539C40.8947 5.65124 37.6697 1.57717 33.1681 1.05513Z" stroke="white" stroke-miterlimit="10"/>
<path d="M6.8678 5.64506C10.507 5.22354 13.8002 7.83024 14.2233 11.4687C14.4394 13.3258 13.8651 15.0913 12.7687 16.4334L13.5992 19.0983L11.1624 17.8549C10.3509 18.3646 9.41605 18.7068 8.40038 18.8249C4.76134 19.2482 1.46814 16.6415 1.04505 13.0013C0.62178 9.36287 3.22876 6.06834 6.8678 5.64506Z" stroke="white" stroke-miterlimit="10"/>
<path d="M15.2507 24.4306C15.2507 22.905 14.0145 21.6704 12.4896 21.6704C10.9646 21.6704 9.72852 22.905 9.72852 24.4306C9.72852 25.9561 10.9646 27.1925 12.4896 27.1925C14.0145 27.1925 15.2507 25.9561 15.2507 24.4306Z" stroke="white" stroke-miterlimit="10"/>
<path d="M17.9175 31.5707C17.9175 32.0663 17.8508 32.5442 17.7251 32.9993H7.25571C7.13014 32.5442 7.06348 32.0663 7.06348 31.5707C7.06348 29.6307 8.0802 27.9305 9.61137 26.9693C10.3138 27.7682 11.3441 28.2709 12.4905 28.2709C13.6368 28.2709 14.6669 27.7682 15.3696 26.9693C16.9006 27.9305 17.9175 29.6307 17.9175 31.5707Z" stroke="white" stroke-miterlimit="10"/>
<path d="M29.0133 24.4306C29.0133 22.905 27.7771 21.6704 26.2521 21.6704C24.7273 21.6704 23.4912 22.905 23.4912 24.4306C23.4912 25.9561 24.7273 27.1925 26.2521 27.1925C27.7771 27.1925 29.0133 25.9561 29.0133 24.4306Z" stroke="white" stroke-miterlimit="10"/>
<path d="M31.679 31.5707C31.679 32.0663 31.6123 32.5442 31.4868 32.9993H21.0174C20.8917 32.5442 20.8252 32.0663 20.8252 31.5707C20.8252 29.6307 21.8419 27.9305 23.3729 26.9693C24.0755 27.7682 25.1057 28.2709 26.252 28.2709C27.3984 28.2709 28.4287 27.7682 29.1313 26.9693C30.6623 27.9305 31.679 29.6307 31.679 31.5707Z" stroke="white" stroke-miterlimit="10"/>
<path d="M28.4717 9.34723C28.4717 8.83224 28.8891 8.41425 29.4041 8.41425C29.9191 8.41425 30.3365 8.83224 30.3365 9.34723C30.3365 9.86222 29.9191 10.2784 29.4041 10.2784C28.8891 10.2784 28.4717 9.86222 28.4717 9.34723Z" stroke="white" stroke-miterlimit="10"/>
<path d="M31.5703 9.34723C31.5703 8.83224 31.9878 8.41425 32.5027 8.41425C33.0177 8.41425 33.4352 8.83224 33.4352 9.34723C33.4352 9.86222 33.0177 10.2784 32.5027 10.2784C31.9878 10.2784 31.5703 9.86222 31.5703 9.34723Z" stroke="white" stroke-miterlimit="10"/>
<path d="M34.7588 9.34723C34.7588 8.83224 35.1762 8.41425 35.6912 8.41425C36.2062 8.41425 36.6236 8.83224 36.6236 9.34723C36.6236 9.86222 36.2062 10.2784 35.6912 10.2784C35.1762 10.2784 34.7588 9.86222 34.7588 9.34723Z" stroke="white" stroke-miterlimit="10"/>
</svg>
