<svg width="33" height="34" viewBox="0 0 33 34" fill="none" xmlns="http://www.w3.org/2000/svg">
<path d="M31.6387 33H1V29.3132H31.6387V33Z" stroke="white" stroke-miterlimit="10"/>
<path d="M6.57059 17.8235V26.7976H2.88379V17.8235H6.57059Z" stroke="white" stroke-miterlimit="10"/>
<path d="M14.3538 12.7236V26.7976H10.667V12.7236H14.3538Z" stroke="white" stroke-miterlimit="10"/>
<path d="M29.7546 8.91599V26.7976H26.0703V8.91599H29.7546Z" stroke="white" stroke-miterlimit="10"/>
<path d="M21.9714 15.4807V26.7976H18.2871V15.4807H21.9714Z" stroke="white" stroke-miterlimit="10"/>
<path d="M4.72852 11.6903L12.509 6.59044L20.1292 9.34752L27.9122 2.84445" stroke="white" stroke-miterlimit="10"/>
<path d="M10.667 6.59107C10.667 5.57257 11.4931 4.74889 12.5092 4.74889C13.5277 4.74889 14.3538 5.57257 14.3538 6.59107C14.3538 7.60956 13.5277 8.43323 12.5092 8.43323C11.4931 8.43323 10.667 7.60956 10.667 6.59107Z" stroke="white" stroke-miterlimit="10"/>
<path d="M18.2871 9.34752C18.2871 8.32903 19.1108 7.50289 20.1293 7.50289C21.1478 7.50289 21.9714 8.32903 21.9714 9.34752C21.9714 10.3636 21.1478 11.1897 20.1293 11.1897C19.1108 11.1897 18.2871 10.3636 18.2871 9.34752Z" stroke="white" stroke-miterlimit="10"/>
<path d="M26.0703 2.84461C26.0703 1.82611 26.894 0.999964 27.9125 0.999964C28.931 0.999964 29.7546 1.82611 29.7546 2.84461C29.7546 3.86063 28.931 4.68677 27.9125 4.68677C26.894 4.68677 26.0703 3.86063 26.0703 2.84461Z" stroke="white" stroke-miterlimit="10"/>
<path d="M2.88379 11.6905C2.88379 10.672 3.70995 9.84838 4.72844 9.84838C5.74447 9.84838 6.57059 10.672 6.57059 11.6905C6.57059 12.709 5.74447 13.5327 4.72844 13.5327C3.70995 13.5327 2.88379 12.709 2.88379 11.6905Z" stroke="white" stroke-miterlimit="10"/>
</svg>
