<svg width="21" height="20" viewBox="0 0 21 20" fill="none" xmlns="http://www.w3.org/2000/svg">
<path d="M6.93681 6.29001L1.17913 7.11516L1.07715 7.13567C0.922778 7.17618 0.782045 7.25646 0.669326 7.36832C0.556606 7.48018 0.475939 7.6196 0.435562 7.77235C0.395185 7.9251 0.396545 8.08571 0.439502 8.23778C0.482459 8.38984 0.565475 8.52791 0.680072 8.63789L4.85123 12.6512L3.86755 18.3202L3.85582 18.4183C3.84637 18.5761 3.87952 18.7336 3.95189 18.8746C4.02425 19.0156 4.13322 19.135 4.26764 19.2207C4.40207 19.3064 4.55711 19.3552 4.7169 19.3622C4.87669 19.3692 5.03548 19.334 5.17702 19.2604L10.3264 16.5843L15.4641 19.2604L15.5544 19.3014C15.7033 19.3594 15.8652 19.3772 16.0234 19.353C16.1816 19.3287 16.3305 19.2633 16.4547 19.1634C16.5788 19.0635 16.6739 18.9328 16.7301 18.7846C16.7863 18.6364 16.8016 18.4761 16.7745 18.3202L15.7899 12.6512L19.9629 8.63699L20.0333 8.56117C20.1338 8.43875 20.1998 8.29217 20.2243 8.13637C20.2489 7.98057 20.2313 7.8211 20.1732 7.67423C20.1152 7.52736 20.0188 7.39832 19.8938 7.30027C19.7689 7.20222 19.6199 7.13865 19.462 7.11605L13.7043 6.29001L11.1305 1.13397C11.0561 0.984579 10.9408 0.858783 10.7977 0.770817C10.6546 0.682852 10.4895 0.63623 10.321 0.63623C10.1525 0.63623 9.98742 0.682852 9.84436 0.770817C9.70129 0.858783 9.586 0.984579 9.51152 1.13397L6.93681 6.29001Z" fill="#FB8500"/>
</svg>
