<svg width="83" height="86" viewBox="0 0 83 86" fill="none" xmlns="http://www.w3.org/2000/svg">
<path fill-rule="evenodd" clip-rule="evenodd" d="M23.5398 0.024C23.5078 0.056 23.2428 0.0980051 22.9568 0.0980051C21.7388 0.140005 19.4408 0.596013 17.7138 1.12501C14.8118 2.01501 12.5558 3.212 9.45176 5.468C8.67876 6.04 6.27376 8.45502 5.37376 9.57802C4.49476 10.669 3.47776 12.258 2.66276 13.815C1.21176 16.601 0.480762 19.1 0.0677623 22.712C-0.0492377 23.697 -0.00623852 27.171 0.131761 28.167C0.353761 29.862 0.618763 31.112 0.788763 31.313C0.851763 31.387 0.873763 31.482 0.851763 31.514C0.777763 31.588 1.11676 32.658 1.58276 33.834C2.78976 36.874 4.41076 39.31 6.85776 41.778C8.24576 43.166 10.5018 45.093 11.3598 45.623C11.5718 45.739 11.8468 45.941 11.9738 46.047C12.1008 46.153 12.4188 46.365 12.6838 46.503C12.9488 46.641 13.1608 46.81 13.1608 46.874C13.1608 46.991 12.5468 48.06 12.3238 48.325C12.1328 48.558 10.9358 51.005 10.7248 51.598C10.6188 51.905 10.4278 52.414 10.3118 52.731C9.76076 54.171 9.26276 56.385 9.02976 58.302C8.88176 59.584 8.82876 62.518 8.93476 63.174C8.97676 63.46 9.05176 63.915 9.08276 64.18C9.49576 67.241 10.1318 69.465 11.3068 71.986C13.0548 75.693 15.5328 78.701 18.9328 81.222C20.6698 82.525 21.4218 82.98 22.9578 83.711C25.1188 84.738 27.1208 85.363 29.4718 85.755C31.0398 86.009 34.5558 86.009 36.3568 85.744C38.9938 85.363 42.6798 84.388 44.0038 83.71C44.1628 83.625 44.3108 83.562 44.3218 83.562C44.5228 83.626 46.8538 82.333 47.9548 81.56C49.6388 80.374 51.8528 78.255 53.1558 76.571C53.7388 75.808 54.8928 74.082 54.8928 73.965C54.8928 73.923 54.9568 73.806 55.0408 73.721C55.4008 73.308 56.5338 70.882 57.1168 69.262C57.7628 67.461 58.3028 64.951 58.4518 63.066C58.4938 62.536 58.5788 62.081 58.6428 62.039C58.7068 61.997 58.9498 61.954 59.1828 61.954C60.7608 61.943 64.1608 61.138 66.2268 60.302C75.3038 56.595 81.2138 48.683 82.1148 39.023C82.6228 33.505 81.1618 27.764 78.0578 23.135C74.8908 18.411 70.1988 14.895 64.9348 13.295C62.4988 12.564 60.1688 12.172 58.1668 12.172C57.4468 12.172 57.0118 12.119 56.8108 12.024C56.5568 11.886 56.4828 11.886 56.2288 12.013C56.0698 12.098 55.3498 12.236 54.6398 12.331C52.3628 12.606 50.2128 13.115 48.5808 13.761C48.1468 13.941 47.7338 14.079 47.6588 14.079C47.5958 14.079 47.3098 13.655 47.0338 13.147C46.5148 12.183 45.3818 10.361 45.0638 10.001C44.9578 9.88502 44.8098 9.694 44.7248 9.567C44.4068 9.112 43.5918 8.19002 42.8178 7.42802C40.2228 4.83302 37.0238 2.757 33.8148 1.602C30.9658 0.575003 28.5718 0.119 25.5528 0.024C24.4718 -0.008 23.5718 -0.008 23.5398 0.024ZM25.2348 1.54902C25.2348 1.67602 25.1398 2.47101 25.0228 3.29701C24.8958 4.13401 24.8108 4.928 24.8218 5.076C24.8218 5.224 24.8328 5.39401 24.8218 5.45701C24.8108 5.54201 24.4408 5.616 23.8368 5.658C23.2968 5.7 22.3858 5.817 21.8138 5.933C20.7228 6.145 20.5748 6.13403 20.5748 5.83803C20.5748 5.67903 20.0558 3.37 19.8228 2.502C19.7488 2.227 19.6638 2.11 19.5158 2.11C19.2618 2.11 18.9858 2.38502 18.9858 2.66102C18.9858 3.00002 19.3038 5.51003 19.4098 5.97603C19.4628 6.20903 19.4838 6.41002 19.4738 6.43202C19.4318 6.46402 18.8698 6.67601 17.5568 7.16301C17.1538 7.31101 16.5818 7.54402 16.2968 7.68202C15.9998 7.82002 15.7358 7.90401 15.6928 7.86201C15.5978 7.74501 13.9028 4.134 13.9028 4.028C13.9028 3.954 14.6128 3.604 15.8098 3.085C16.4558 2.81 18.8598 2.02601 19.2518 1.97301C19.4318 1.94101 19.7598 1.87801 19.9928 1.81401C20.4588 1.68701 20.7338 1.64501 22.0578 1.48601C23.0848 1.35901 23.6258 1.317 24.5788 1.317C25.1928 1.305 25.2348 1.32602 25.2348 1.54902ZM27.9998 1.528C29.3658 1.708 30.7638 1.98302 30.8808 2.10002C30.9338 2.15302 30.7008 2.93701 30.3828 3.84801C30.0548 4.75901 29.7898 5.61701 29.7898 5.75401C29.7898 5.90201 29.7368 6.05101 29.6838 6.08201C29.6198 6.11401 29.2068 6.08201 28.7518 5.98701C28.3068 5.90201 27.4698 5.775 26.9088 5.701L25.8708 5.57402L25.9348 4.13402C25.9558 3.34002 26.0088 2.39701 26.0408 2.02601L26.1038 1.369H26.4848C26.6968 1.369 27.3848 1.443 27.9998 1.528ZM33.1678 2.809C34.0788 3.116 36.6738 4.419 36.6738 4.567C36.6738 4.683 35.0748 6.91802 34.5868 7.50102L34.2798 7.86101L33.3478 7.416C32.8288 7.172 32.0448 6.85501 31.5998 6.70601C31.1548 6.54701 30.7738 6.40901 30.7528 6.38801C30.7318 6.36701 30.7848 6.16602 30.8698 5.95402C30.9648 5.73202 31.2718 4.84202 31.5478 3.98402C31.9398 2.76602 32.0878 2.42702 32.2048 2.48002C32.2888 2.51302 32.7228 2.661 33.1678 2.809ZM13.8378 6.36802C14.2928 7.37402 14.6748 8.27402 14.7058 8.35902C14.7268 8.46502 14.5368 8.64502 14.1548 8.88902C13.8368 9.09002 13.1808 9.57701 12.7038 9.96901C12.2268 10.371 11.8038 10.689 11.7608 10.689C11.7188 10.689 11.4008 10.318 11.0618 9.86302C10.7228 9.41802 10.1398 8.645 9.76976 8.158C9.18676 7.385 9.12376 7.25802 9.28276 7.17302C9.37776 7.12002 9.74876 6.824 10.0878 6.516C10.7548 5.912 12.7148 4.546 12.9048 4.546C12.9698 4.546 13.3828 5.37203 13.8378 6.36802ZM38.2418 5.468C39.5658 6.347 41.4408 7.98901 41.2708 8.13701C41.2178 8.19001 40.9428 8.43402 40.6458 8.67702C40.3598 8.92102 39.7238 9.50302 39.2478 9.98002C38.4428 10.764 38.3578 10.817 38.1888 10.669C37.9028 10.436 37.3198 9.928 37.0448 9.684C36.9068 9.568 36.5578 9.303 36.2508 9.102C35.1388 8.339 35.1808 8.519 35.8908 7.503C36.2408 7.016 36.7488 6.26401 37.0348 5.84001C37.3208 5.42701 37.5748 5.07701 37.5958 5.07701C37.6168 5.07601 37.9028 5.256 38.2418 5.468ZM27.5228 6.82402C29.5138 7.09902 31.2408 7.67102 33.4228 8.81502C35.9648 10.139 38.3268 12.247 39.9578 14.662C40.4558 15.414 41.5678 17.564 41.5258 17.734C41.5048 17.808 41.0388 18.285 40.4878 18.804C38.8668 20.319 37.4688 22.003 36.3778 23.74C36.1338 24.143 35.7428 24.757 35.5198 25.117C35.0648 25.837 33.7938 28.919 33.3488 30.413C32.9778 31.599 32.6608 33.315 32.5018 34.84L32.3848 36.047L30.6898 36.28C28.7198 36.555 26.2408 37.17 24.8638 37.742C24.6308 37.837 24.3448 37.954 24.2278 38.007C22.8188 38.568 20.5948 39.818 19.2818 40.793C18.8268 41.132 18.4138 41.407 18.3608 41.407C18.1918 41.407 16.6028 40.655 16.0728 40.316C14.2298 39.162 12.0908 37.234 10.8728 35.634C9.00876 33.187 8.05476 31.143 7.47276 28.336C7.20776 27.076 7.17576 26.747 7.18676 24.724C7.18676 22.849 7.21876 22.32 7.41976 21.335C7.90676 18.984 8.99776 16.272 10.1418 14.63C10.6928 13.836 11.9428 12.353 12.5888 11.738C13.2668 11.092 14.9718 9.78901 15.9468 9.16401C18.0118 7.86101 20.4478 7.003 22.7788 6.77C24.7688 6.569 25.6908 6.58002 27.5228 6.82402ZM9.19876 9.06901C9.59076 9.70401 10.1098 10.478 10.3528 10.796C10.5858 11.114 10.8188 11.431 10.8608 11.506C10.9028 11.57 10.6598 11.951 10.2778 12.406C9.90676 12.84 9.44076 13.433 9.23976 13.741C9.03876 14.038 8.84776 14.292 8.81576 14.292C8.78376 14.292 8.44476 14.017 8.04276 13.678C7.65076 13.35 6.93076 12.735 6.43276 12.333C5.94576 11.92 5.54276 11.539 5.54276 11.486C5.53176 11.253 8.03176 8.12802 8.31776 8.00102C8.39176 7.98002 8.45576 7.94801 8.46576 7.94801C8.47876 7.93601 8.80676 8.44401 9.19876 9.06901ZM42.8168 9.65202C43.2298 10.139 43.8018 10.881 44.0988 11.304L44.6388 12.077L43.3038 12.702C42.5838 13.041 41.7998 13.496 41.5668 13.698L41.1538 14.079L40.5288 13.253C40.1788 12.808 39.7238 12.236 39.5018 12.003L39.1098 11.558L40.4868 10.17C41.2498 9.40703 41.9168 8.78203 41.9698 8.78203C42.0228 8.78303 42.4038 9.17502 42.8168 9.65202ZM5.55576 12.755C5.80976 12.988 6.51976 13.645 7.14476 14.227L8.28876 15.265L8.08776 15.551C7.83376 15.911 7.18776 17.203 7.00776 17.701C6.93376 17.923 6.82776 18.103 6.77476 18.103C6.65776 18.103 4.45476 16.896 3.89376 16.525C3.66076 16.366 3.38576 16.207 3.27976 16.165C3.14176 16.112 3.09976 16.027 3.15276 15.858C3.35376 15.159 4.86876 12.246 5.00676 12.299C5.05776 12.321 5.30076 12.522 5.55576 12.755ZM45.6768 13.878C46.1748 14.842 46.1638 14.905 45.4018 15.234C45.1478 15.35 44.4698 15.753 43.8868 16.134C43.3038 16.515 42.7958 16.833 42.7428 16.833C42.7008 16.833 42.4358 16.388 42.1598 15.859C41.7258 15.012 41.6828 14.863 41.8318 14.789C41.9168 14.736 42.0858 14.598 42.1918 14.492C42.3078 14.375 42.4248 14.291 42.4568 14.291C42.4888 14.291 43.0928 14.005 43.8018 13.656C44.5118 13.306 45.1258 13.021 45.1578 13.021C45.2008 13.02 45.4338 13.401 45.6768 13.878ZM60.5478 13.814C61.1198 13.899 61.6278 14.005 61.6808 14.047C61.7228 14.089 61.6908 14.46 61.6068 14.873C61.5218 15.275 61.4268 16.176 61.3948 16.854C61.3208 18.051 61.3098 18.093 61.0978 18.051C60.0068 17.828 59.5298 17.765 58.3648 17.712L57.0088 17.649V15.584V13.519L58.2588 13.593C58.9378 13.624 59.9758 13.729 60.5478 13.814ZM55.8448 15.233C55.8448 16.091 55.8768 17.023 55.9078 17.277L55.9718 17.754L55.3578 17.839C55.0078 17.881 54.1818 18.03 53.5148 18.178C52.8478 18.326 52.1798 18.464 52.0318 18.496C51.7668 18.538 51.7568 18.507 51.2378 16.653C50.9518 15.615 50.6978 14.715 50.6768 14.641C50.6348 14.493 51.2808 14.292 52.7738 13.984C53.9278 13.74 54.2668 13.698 55.1888 13.677L55.8458 13.656L55.8448 15.233ZM64.8168 14.841C65.4838 15.074 66.0558 15.339 66.0878 15.413C66.1198 15.498 66.0248 15.953 65.8758 16.44C65.5258 17.563 65.3458 18.484 65.3568 19.024C65.3568 19.162 65.3248 19.268 65.2938 19.268C65.2518 19.268 64.5838 19.046 63.8008 18.77L62.3818 18.272L62.4558 17.584C62.4878 17.203 62.5938 16.334 62.6778 15.667C62.7628 15 62.8368 14.407 62.8368 14.354C62.8358 14.217 63.5138 14.375 64.8168 14.841ZM49.9668 16.25C50.1578 16.949 50.4328 17.828 50.5808 18.199C50.7398 18.58 50.8668 18.898 50.8668 18.909C50.8668 18.92 50.6868 18.994 50.4748 19.068C50.0198 19.206 47.8268 20.275 47.6148 20.445C47.4028 20.625 47.2118 20.498 46.9268 19.989C46.7788 19.735 46.3228 18.983 45.9098 18.305C45.4858 17.627 45.1468 17.023 45.1468 16.97C45.1468 16.737 49.0238 14.905 49.4258 14.958C49.5858 14.979 49.6918 15.223 49.9668 16.25ZM68.4278 16.452C69.0108 16.77 69.6568 17.14 69.8578 17.278L70.2288 17.522L69.7208 18.38C69.4348 18.857 69.0328 19.651 68.8098 20.159C68.5768 20.657 68.3758 21.059 68.3438 21.049C68.3118 21.028 67.7828 20.71 67.1578 20.339L66.0248 19.672L66.2368 19.28C66.3428 19.079 66.4378 18.846 66.4378 18.782C66.4378 18.718 66.6068 18.093 66.8088 17.405C67.2638 15.89 67.2638 15.88 67.3168 15.88C67.3368 15.879 67.8348 16.134 68.4278 16.452ZM3.14076 16.928C3.26776 17.044 3.98776 17.511 4.73976 17.987C5.50276 18.453 6.20176 18.898 6.30776 18.972C6.48776 19.099 6.47776 19.152 6.23376 20.063C6.09576 20.582 5.91576 21.408 5.85276 21.895C5.77876 22.372 5.69376 22.785 5.65176 22.806C5.56676 22.859 2.06076 22.234 1.75376 22.117C1.56276 22.043 1.53176 21.979 1.58476 21.577C1.73276 20.38 2.68676 16.726 2.85576 16.726C2.89676 16.727 3.02376 16.822 3.14076 16.928ZM44.7348 18.655C45.0528 19.248 45.5078 20.042 45.7518 20.424C45.9958 20.816 46.2068 21.176 46.2068 21.24C46.2068 21.314 46.0268 21.494 45.8148 21.664C45.5918 21.823 45.0418 22.289 44.5858 22.691L43.7698 23.422L43.5368 23.125C43.4098 22.956 42.7528 22.257 42.0748 21.568C41.4078 20.88 40.8458 20.276 40.8248 20.233C40.7718 20.095 43.8648 17.585 44.0978 17.574C44.1408 17.574 44.4268 18.061 44.7348 18.655ZM71.9448 18.771C72.7078 19.375 74.3808 20.964 74.3808 21.08C74.3808 21.144 74.2008 21.366 73.9888 21.599C73.7668 21.821 73.2258 22.467 72.7918 23.018C72.3578 23.569 71.9548 24.024 71.9018 24.035C71.8488 24.035 71.4888 23.738 71.1078 23.368C70.7268 23.008 70.1548 22.489 69.8368 22.214L69.2648 21.727L69.7728 20.784C70.3028 19.799 71.2238 18.316 71.3088 18.316C71.3408 18.316 71.6268 18.517 71.9448 18.771ZM59.8598 19.121C63.1008 19.598 66.0768 20.911 68.5878 22.966C69.5308 23.729 70.9498 25.233 71.5428 26.069C71.7758 26.408 72.0198 26.652 72.0828 26.609C72.1458 26.577 72.1568 26.598 72.1148 26.673C72.0728 26.736 72.1888 27.033 72.4008 27.351C73.1848 28.537 74.1058 30.613 74.5828 32.244C75.1018 34.055 75.1758 34.68 75.1758 37.169C75.1648 39.245 75.1338 39.69 74.9318 40.611C74.1268 44.223 72.7498 46.754 70.1968 49.307C67.7398 51.775 64.5938 53.544 61.0348 54.455C59.9968 54.72 59.5518 54.773 57.9528 54.826C55.8558 54.89 54.9868 54.805 53.2288 54.328C49.3948 53.301 46.2908 51.458 43.8978 48.778C41.8958 46.543 40.4658 43.641 39.7348 40.347C39.5128 39.341 39.4908 38.981 39.4908 36.693C39.5018 34.024 39.5648 33.526 40.1688 31.609C40.8788 29.311 42.1068 27.097 43.8758 24.894C46.1738 22.055 50.0618 19.863 54.0338 19.164C55.5058 18.909 58.3028 18.888 59.8598 19.121ZM42.5738 23.59L43.0608 24.151L42.6368 24.596C42.4038 24.84 42.0328 25.274 41.8108 25.57C41.5778 25.856 41.3658 26.142 41.3128 26.195C41.2708 26.259 41.1538 26.227 41.0478 26.131C40.9418 26.046 40.1688 25.506 39.3208 24.934C38.4738 24.362 37.7638 23.875 37.7428 23.864C37.6798 23.811 38.7808 22.402 39.4908 21.608L40.1158 20.93L41.1008 21.979C41.6518 22.552 42.3088 23.283 42.5738 23.59ZM76.0328 23.008C76.3828 23.485 76.8588 24.184 77.0918 24.554C77.4728 25.189 77.4948 25.243 77.3038 25.348C77.1978 25.412 76.4668 25.909 75.6728 26.45C74.8888 26.99 74.2318 27.414 74.2218 27.403C74.2108 27.382 73.9358 26.937 73.6078 26.407C73.2798 25.877 72.9088 25.358 72.7918 25.252C72.6748 25.146 72.5798 24.998 72.5798 24.913C72.5798 24.744 75.1108 22.149 75.2808 22.138C75.3448 22.139 75.6728 22.531 76.0328 23.008ZM3.15076 23.442C3.79676 23.59 4.59176 23.738 4.92976 23.781C5.26876 23.813 5.56576 23.908 5.58676 23.972C5.60776 24.035 5.65076 24.819 5.67176 25.709L5.73476 27.33L5.36376 27.256C5.16276 27.224 4.28376 27.298 3.36176 27.436C2.46176 27.563 1.68776 27.637 1.64576 27.595C1.45476 27.404 1.29576 23.327 1.47576 23.147C1.51776 23.105 1.65576 23.094 1.77276 23.126C1.88976 23.158 2.51576 23.304 3.15076 23.442ZM38.3048 25.55C38.8348 25.974 39.5648 26.556 39.9258 26.832L40.5718 27.33L39.9788 28.569C39.6608 29.247 39.3748 29.829 39.3648 29.851C39.3438 29.872 39.0788 29.787 38.7718 29.65C37.1518 28.951 35.6688 28.379 35.4888 28.379C35.3828 28.379 35.2978 28.358 35.2978 28.326C35.2978 28.252 36.9078 25.064 37.0248 24.905C37.0778 24.842 37.1728 24.778 37.2368 24.778C37.2888 24.777 37.7758 25.126 38.3048 25.55ZM78.5958 27.34C78.9668 28.187 79.5708 29.723 79.5708 29.808C79.5708 29.829 79.3488 29.872 79.0728 29.914C78.7868 29.956 77.9498 30.126 77.1978 30.295C75.6198 30.655 75.5458 30.655 75.5458 30.433C75.5458 30.338 75.3548 29.808 75.1118 29.257C74.8788 28.696 74.6988 28.24 74.7198 28.23C74.7408 28.219 75.0168 28.018 75.3338 27.796C75.9268 27.383 77.8338 26.377 78.0458 26.366C78.1198 26.365 78.3628 26.81 78.5958 27.34ZM6.05276 28.77C6.16976 29.3 6.76276 31.28 6.96376 31.778C7.01676 31.916 6.82576 32.064 6.10576 32.456C5.59776 32.731 4.77076 33.219 4.27376 33.526C3.77576 33.844 3.34176 34.066 3.29976 34.024C3.19376 33.908 2.42076 31.577 2.15576 30.592C1.96476 29.851 1.77476 28.823 1.80576 28.696C1.81676 28.654 3.62776 28.421 5.80976 28.177C5.87276 28.177 5.97876 28.441 6.05276 28.77ZM37.7758 30.56C38.2948 30.751 38.7608 30.952 38.8248 31.016C38.8878 31.08 38.8458 31.408 38.7078 31.948C38.5908 32.403 38.4328 33.071 38.3578 33.431C38.2838 33.865 38.1888 34.098 38.0928 34.098C38.0078 34.098 37.5418 33.939 37.0658 33.748C36.5888 33.547 35.7418 33.282 35.2018 33.144C34.6298 33.006 34.1958 32.837 34.1638 32.752C34.1108 32.604 34.6718 30.083 34.8738 29.575C34.9688 29.342 34.9688 29.342 35.9008 29.776C36.4088 30.009 37.2568 30.358 37.7758 30.56ZM79.9948 31.291C80.1328 31.651 80.6308 34.373 80.6308 34.755V35.052H78.8828C77.5478 35.052 77.0508 35.094 76.8278 35.211L76.5308 35.359L76.4568 34.491C76.4148 34.014 76.2868 33.199 76.1708 32.68C76.0648 32.161 75.9798 31.727 76.0008 31.706C76.0118 31.695 76.5198 31.589 77.1338 31.462C77.7478 31.345 78.4578 31.197 78.7228 31.144C79.6128 30.962 79.8778 30.994 79.9948 31.291ZM7.80076 33.642C8.08676 34.256 8.67976 35.231 9.25176 36.078C9.42176 36.322 9.55876 36.555 9.55876 36.608C9.55876 36.65 9.32576 36.852 9.05076 37.032C8.77576 37.223 8.05476 37.805 7.44076 38.335C6.82676 38.854 6.28676 39.267 6.22276 39.256C6.06376 39.203 4.87776 37.286 4.26376 36.089L3.73376 35.062L3.96676 34.914C4.10476 34.829 4.78276 34.469 5.47076 34.109C6.16976 33.749 6.85776 33.357 7.00676 33.251C7.16576 33.135 7.33476 33.039 7.38776 33.039C7.45076 33.038 7.63176 33.314 7.80076 33.642ZM35.2018 34.405C35.8058 34.627 36.6848 34.924 37.1508 35.062L38.0088 35.306L37.9878 37.054L37.9668 38.812L37.2998 38.876C36.9288 38.918 35.9968 38.982 35.2348 39.024L33.8468 39.098L33.7838 38.738C33.6988 38.304 33.7838 34.554 33.8788 34.226C33.9108 34.099 33.9848 33.993 34.0168 33.993C34.0578 33.991 34.5878 34.182 35.2018 34.405ZM79.1468 36.195L80.6828 36.269L80.7358 37.201C80.7678 37.72 80.7568 38.165 80.7248 38.186C80.6928 38.207 80.6298 38.716 80.5978 39.309C80.5558 39.913 80.4918 40.58 80.4598 40.802C80.3748 41.279 80.5978 41.289 78.3198 40.675C77.4298 40.442 76.5718 40.241 76.4348 40.241C76.2338 40.241 76.1808 40.199 76.2228 40.05C76.3388 39.658 76.4978 38.133 76.5088 37.275C76.5188 36.015 76.5188 36.025 77.1128 36.078C77.3888 36.099 78.2998 36.152 79.1468 36.195ZM11.5188 38.631L12.7578 39.828L12.5458 40.061C12.2068 40.432 11.4228 41.703 10.9998 42.571C10.7778 43.005 10.5658 43.408 10.5128 43.461C10.3858 43.588 9.52776 42.921 8.55376 41.968C7.83376 41.258 7.01776 40.337 7.01776 40.21C7.01776 40.178 7.43076 39.818 7.94976 39.416C8.45776 39.014 9.15776 38.399 9.50676 38.05C9.85676 37.701 10.1738 37.415 10.2058 37.425C10.2478 37.423 10.8298 37.974 11.5188 38.631ZM32.3848 38.726C32.4168 39.298 32.5018 40.018 32.5538 40.336C32.7128 41.268 32.6808 41.702 32.4688 41.692C32.1198 41.671 30.7948 41.851 30.1598 41.999C29.8098 42.073 29.3438 42.168 29.1428 42.2L28.7618 42.264L28.6878 41.724C28.6458 41.427 28.4548 40.622 28.2638 39.945C27.7658 38.218 27.7658 38.314 28.1998 38.218C29.2798 37.974 30.8688 37.752 31.7168 37.72L32.3098 37.688L32.3848 38.726ZM27.1198 39.976C27.2578 40.675 27.4478 41.544 27.5648 41.914L27.7558 42.571L27.3848 42.73C27.1728 42.815 26.9608 42.889 26.9078 42.889C26.7908 42.889 25.6258 43.419 24.9908 43.747C24.7788 43.864 24.5458 43.948 24.5038 43.927C24.3658 43.885 22.2688 40.749 22.2688 40.601C22.2688 40.347 26.2618 38.631 26.7178 38.684C26.8338 38.705 26.9398 39.054 27.1198 39.976ZM38.2208 40.442C38.2838 40.802 38.7078 42.581 38.8458 43.058C38.9088 43.249 38.7928 43.333 37.9558 43.715C36.7698 44.266 35.2128 44.827 35.0858 44.742C34.8638 44.604 34.3018 42.444 33.9838 40.452L33.9208 40.081L36.0388 40.07H38.1568L38.2208 40.442ZM14.9078 41.141C15.2048 41.321 15.8188 41.649 16.2848 41.872C16.7508 42.094 17.1528 42.285 17.1748 42.317C17.1958 42.338 16.6978 42.9 16.0628 43.546C15.4268 44.203 14.7388 44.944 14.5378 45.188C14.3368 45.453 14.0928 45.643 13.9768 45.643C13.7438 45.643 12.7168 45.103 11.7098 44.446L11.0428 44.012L11.2648 43.641C11.3918 43.429 11.9638 42.603 12.5468 41.798L13.6058 40.347L13.9978 40.58C14.2088 40.707 14.6218 40.961 14.9078 41.141ZM22.4278 42.889L23.4338 44.637L23.2008 44.796C22.7768 45.082 20.9558 46.565 20.4898 47.02L20.0238 47.465L19.2718 46.628C18.8588 46.172 18.2228 45.495 17.8528 45.124C17.4818 44.753 17.1858 44.414 17.1858 44.382C17.2068 44.138 18.9338 42.645 19.5478 42.348C19.8228 42.21 20.0458 42.051 20.0458 41.988C20.0458 41.914 20.1518 41.808 20.2898 41.734C20.4168 41.67 20.6818 41.49 20.8828 41.353C21.0838 41.205 21.2858 41.099 21.3378 41.109C21.3898 41.13 21.8768 41.925 22.4278 42.889ZM76.4358 41.406C76.7958 41.586 77.3258 41.724 79.3588 42.158C80.1638 42.327 80.1638 42.327 79.8988 43.323C79.6448 44.255 78.8718 46.374 78.7128 46.532C78.6598 46.596 78.5438 46.574 78.4378 46.468C78.1628 46.235 76.5628 45.303 75.6838 44.858L74.9208 44.477L75.2388 43.608C75.4188 43.121 75.6628 42.379 75.7788 41.956C75.8958 41.543 76.0008 41.193 76.0118 41.193C76.0228 41.193 76.2128 41.289 76.4358 41.406ZM33.3908 44.319C33.8778 45.939 34.5138 47.496 35.3078 49.032C36.0178 50.409 37.3308 52.379 37.5108 52.347C37.5748 52.326 37.6278 52.389 37.6278 52.485C37.6278 52.993 40.3178 55.652 42.1718 56.965C44.6818 58.755 47.3088 59.973 50.8468 61L51.6098 61.223V61.678C51.6098 62.398 51.1968 64.644 50.8678 65.703C50.4658 67.016 49.8938 68.383 49.4488 69.156C49.2368 69.516 49.0678 69.823 49.0678 69.845C49.0678 69.93 48.1358 71.381 47.7968 71.805C47.5958 72.07 47.3518 72.377 47.2668 72.483C45.7208 74.485 43.2418 76.381 40.9008 77.376C40.2438 77.651 38.3908 78.223 37.8398 78.329C37.6918 78.35 37.1728 78.456 36.6748 78.551C35.3398 78.816 31.5908 78.816 30.2138 78.54C25.8608 77.693 21.8148 75.108 19.1348 71.486C17.7048 69.548 16.5398 67.016 16.0848 64.866C15.5448 62.335 15.5448 59.03 16.0848 56.499C16.6568 53.819 18.3198 50.79 20.4058 48.629C20.8188 48.205 21.1788 47.824 21.2108 47.782C21.3168 47.623 22.8528 46.416 23.2758 46.151C25.9868 44.446 28.0848 43.609 30.5838 43.196C31.2298 43.101 32.0348 43.016 32.3738 43.027L32.9988 43.048L33.3908 44.319ZM39.9148 45.558C40.2428 46.215 40.6568 46.956 40.8148 47.2C40.9848 47.444 41.1218 47.666 41.1218 47.698C41.1218 47.73 40.9838 47.825 40.8148 47.91C40.6558 47.995 39.9998 48.461 39.3638 48.937C37.8708 50.049 37.7958 50.092 37.5318 49.763C37.2778 49.456 35.9748 47.083 35.6468 46.331C35.5198 46.045 35.4558 45.77 35.4878 45.738C35.5298 45.706 36.1978 45.473 36.9708 45.24C37.7338 44.996 38.5488 44.71 38.7718 44.594C38.9838 44.477 39.1958 44.382 39.2378 44.371C39.2798 44.371 39.5868 44.912 39.9148 45.558ZM17.8628 46.786C18.4348 47.432 18.9748 47.983 19.0488 48.015C19.3028 48.11 19.2078 48.322 18.4448 49.35C18.0318 49.901 17.5868 50.536 17.4598 50.748C17.3428 50.97 17.1948 51.15 17.1418 51.15C17.0998 51.15 16.8348 50.991 16.5588 50.79C15.5418 50.048 13.8258 48.926 13.7098 48.926C13.6358 48.926 13.5828 48.905 13.5828 48.873C13.5828 48.661 14.9278 46.787 15.8498 45.717L16.3898 45.092L16.6018 45.357C16.7188 45.505 17.2908 46.151 17.8628 46.786ZM74.7828 45.939C74.9418 46.056 75.7468 46.49 76.5838 46.914C77.4098 47.338 78.0878 47.74 78.0878 47.793C78.0878 48.047 76.5308 50.557 75.9908 51.182C75.8318 51.362 75.8208 51.351 75.6938 51.076C75.5458 50.727 74.8568 49.996 73.7028 48.958L72.8558 48.195L73.3748 47.369C73.6608 46.914 73.9888 46.363 74.0948 46.14C74.3278 45.695 74.4018 45.674 74.7828 45.939ZM42.0228 48.894C42.1288 49.053 42.6158 49.593 43.1028 50.101C43.6008 50.62 43.9818 51.075 43.9608 51.118C43.8548 51.372 41.0158 54.02 40.9208 53.967C40.7938 53.882 38.8558 51.647 38.5698 51.234L38.3578 50.948L38.8128 50.683C39.0668 50.535 39.8188 50.016 40.4868 49.518C41.1538 49.02 41.7368 48.618 41.7688 48.618C41.8108 48.608 41.9278 48.735 42.0228 48.894ZM72.7818 49.794C73.1098 50.101 73.7988 50.768 74.3178 51.277L75.2498 52.209L73.6928 53.766C72.2738 55.185 72.1148 55.313 72.0088 55.132C71.7758 54.719 70.3248 52.569 70.0278 52.198C69.8578 51.986 69.7208 51.785 69.7208 51.753C69.7208 51.721 70.2188 51.181 70.8328 50.556C71.4468 49.931 71.9448 49.38 71.9448 49.327C71.9448 49.127 72.2198 49.286 72.7818 49.794ZM13.3718 49.646C13.3718 49.731 15.5118 51.436 16.3058 51.976L16.6448 52.209L16.2318 53.088C16.0098 53.565 15.6708 54.444 15.4798 55.048C15.2998 55.641 15.1088 56.118 15.0768 56.107C13.1808 55.175 12.6408 54.931 11.9208 54.698L11.0628 54.423L11.2008 53.978C11.4548 53.173 11.8578 52.04 11.9738 51.828C12.0378 51.722 12.3128 51.161 12.5988 50.599C12.8738 50.027 13.1708 49.561 13.2448 49.561C13.3088 49.561 13.3718 49.604 13.3718 49.646ZM45.9628 52.697C46.4708 53.078 47.0218 53.46 47.1918 53.544C47.3508 53.629 47.4778 53.714 47.4778 53.745C47.4778 53.808 45.9848 56.478 45.8568 56.636C45.7938 56.721 45.7188 56.975 45.6878 57.208L45.6238 57.642L44.5648 56.922C43.9818 56.53 43.1558 55.916 42.7328 55.556L41.9598 54.91L42.6268 54.327C42.9978 54.009 43.6758 53.353 44.1308 52.865C44.5968 52.388 44.9778 51.997 44.9988 51.997C45.0098 51.997 45.4438 52.315 45.9628 52.697ZM69.5408 53.512C69.9328 54.105 70.4618 54.878 70.7268 55.228C70.9808 55.577 71.1928 55.895 71.1928 55.948C71.2138 56.117 67.9938 58.056 67.8988 57.929C67.8778 57.897 67.5178 57.018 67.1048 55.969L66.3418 54.073L66.5748 53.851C66.7018 53.724 66.8398 53.639 66.8718 53.66C66.9038 53.671 67.3378 53.406 67.8248 53.067C68.3118 52.718 68.7358 52.442 68.7678 52.442C68.7988 52.442 69.1488 52.919 69.5408 53.512ZM49.8608 54.857C50.4328 55.101 50.9308 55.302 50.9518 55.323C50.9728 55.344 50.8668 55.81 50.7288 56.35C50.5908 56.901 50.3688 57.812 50.2208 58.394C50.0828 58.966 49.9138 59.464 49.8398 59.485C49.6388 59.559 48.3148 59.04 47.0228 58.373L45.8788 57.79L46.1968 57.652C46.5468 57.504 47.3198 56.497 48.0818 55.205C48.3568 54.728 48.6428 54.358 48.6958 54.379C48.7588 54.402 49.2778 54.624 49.8608 54.857ZM65.4838 55.175C65.5788 55.493 65.9078 56.34 66.2038 57.05C66.5108 57.749 66.7548 58.374 66.7548 58.437C66.7548 58.49 66.5328 58.638 66.2568 58.755C65.6848 58.999 63.1108 59.835 62.9418 59.835C62.8888 59.835 62.8358 59.634 62.8358 59.38C62.8358 59.136 62.7828 58.628 62.7298 58.247C62.6768 57.866 62.6028 57.272 62.5708 56.923C62.5388 56.574 62.4858 56.118 62.4538 55.906L62.4008 55.525L63.3008 55.239C63.7878 55.091 64.4028 54.868 64.6568 54.762C64.9108 54.646 65.1548 54.561 65.2078 54.582C65.2608 54.593 65.3778 54.857 65.4838 55.175ZM12.3338 56.192C13.0538 56.52 13.8268 56.859 14.0498 56.944C14.8128 57.219 14.8548 57.262 14.7488 57.622C14.6958 57.802 14.5898 58.427 14.5268 59.01L14.3998 60.069L14.0818 60.005C13.9018 59.973 13.3298 59.888 12.7998 59.835C11.9418 59.74 10.1838 59.433 10.1098 59.358C10.0778 59.326 10.3958 56.996 10.5118 56.551C10.5538 56.35 10.6288 56.053 10.6598 55.884C10.7018 55.725 10.7978 55.598 10.8818 55.598C10.9568 55.599 11.6138 55.863 12.3338 56.192ZM53.4518 55.863C53.9818 55.948 54.7338 56.054 55.1258 56.096C55.9728 56.17 55.9308 56.032 55.6868 57.981C55.6018 58.68 55.5278 59.538 55.5278 59.877V60.502L54.3838 60.428C53.3458 60.364 51.1218 60.015 50.9948 59.898C50.9738 59.866 51.0898 59.326 51.2698 58.701C51.4398 58.076 51.6408 57.292 51.7148 56.975C52.0118 55.619 52.0328 55.577 52.2758 55.64C52.4028 55.673 52.9328 55.768 53.4518 55.863ZM61.2258 56.128C61.2468 56.372 61.4478 57.749 61.6808 59.295C61.7438 59.666 61.7658 59.994 61.7338 60.015C61.5538 60.206 57.8258 60.598 57.1368 60.502C56.7768 60.449 56.6918 60.407 56.6918 60.216C56.6918 59.792 57.0198 56.308 57.0628 56.233C57.0838 56.191 57.7198 56.127 58.4608 56.085C59.2018 56.043 60.0068 55.968 60.2398 55.916C60.9398 55.768 61.1938 55.821 61.2258 56.128ZM10.7878 60.619C11.3178 60.767 13.0228 61.138 13.9018 61.297L14.3788 61.382L14.4528 62.462C14.5158 63.405 14.6538 64.379 14.8128 64.93C14.8548 65.078 14.6858 65.121 13.7218 65.227C11.0318 65.513 10.5658 65.545 10.4918 65.471C10.3438 65.323 10.1948 64.242 10.1418 63.003C10.1208 62.336 10.0788 61.626 10.0468 61.425C9.99376 61.012 10.0788 60.472 10.1848 60.472C10.2268 60.471 10.5018 60.534 10.7878 60.619ZM54.2568 61.774C54.7548 61.859 55.6018 61.965 56.1418 62.007L57.1268 62.081L57.0528 62.791C57.0208 63.172 56.9788 63.501 56.9678 63.511C56.9568 63.522 56.5228 63.49 56.0038 63.437C54.7218 63.299 53.1228 63.31 52.8578 63.448C52.6568 63.554 52.6458 63.533 52.6988 62.887C52.7308 62.516 52.7628 62.061 52.7628 61.86C52.7738 61.532 52.7948 61.51 53.0698 61.563C53.2288 61.594 53.7588 61.689 54.2568 61.774ZM54.5948 64.602C55.3148 64.655 56.0988 64.74 56.3528 64.772L56.8078 64.836L56.7448 65.281C56.6388 65.916 56.3318 67.187 56.0668 68.077C55.8658 68.734 55.8128 68.829 55.6538 68.744C55.1878 68.5 54.4148 68.183 53.1758 67.727C52.4238 67.441 51.8198 67.187 51.8198 67.145C51.8198 67.103 51.8938 66.859 51.9788 66.605C52.0738 66.351 52.2228 65.779 52.3068 65.345C52.5608 64.095 52.5078 64.169 52.9318 64.349C53.1338 64.432 53.8858 64.549 54.5948 64.602ZM15.2678 66.741C15.4158 67.249 15.7758 68.245 15.9458 68.594C16.0098 68.732 16.0308 68.859 16.0098 68.869C15.9888 68.89 15.4908 69.219 14.9078 69.589C14.3248 69.96 13.5738 70.468 13.2238 70.712C12.8848 70.966 12.5458 71.168 12.4718 71.168C12.2388 71.168 11.4758 69.336 10.9568 67.493C10.7558 66.794 10.7558 66.72 10.9148 66.677C11.0208 66.645 11.7618 66.592 12.5778 66.56C13.3938 66.518 14.2508 66.454 14.4848 66.401C14.7178 66.359 14.9618 66.316 15.0248 66.306C15.0878 66.307 15.1938 66.498 15.2678 66.741ZM52.4558 68.796C53.0068 69.008 53.7798 69.262 54.1608 69.378C55.0508 69.622 55.4208 69.791 55.4208 69.939C55.4208 70.087 54.3298 72.322 54.1288 72.587C53.9808 72.778 53.9278 72.756 52.9218 72.1C52.3498 71.729 51.5558 71.242 51.1638 71.02C50.7608 70.808 50.4438 70.586 50.4438 70.533C50.4438 70.469 50.6028 70.078 50.8038 69.654C50.9948 69.23 51.1848 68.786 51.2278 68.648C51.2698 68.521 51.3338 68.415 51.3758 68.415C51.4178 68.415 51.9048 68.584 52.4558 68.796ZM16.8678 70.607C17.0158 70.882 17.2918 71.317 17.4818 71.56C17.6618 71.814 17.8208 72.058 17.8208 72.1C17.8208 72.142 18.0118 72.407 18.2448 72.693C18.4778 72.968 18.6688 73.233 18.6578 73.275C18.6578 73.307 18.3828 73.55 18.0538 73.805C17.7258 74.07 17.0688 74.695 16.6028 75.214C16.1368 75.722 15.7028 76.146 15.6388 76.146C15.3948 76.146 12.8958 72.534 12.9798 72.291C13.0118 72.185 16.3268 70.141 16.4958 70.12C16.5598 70.109 16.7188 70.332 16.8678 70.607ZM50.1578 71.995C50.6558 72.334 52.3078 73.266 52.9118 73.552C53.1238 73.647 53.3038 73.785 53.3038 73.838C53.3038 73.997 53.0918 74.368 52.7848 74.728C52.6368 74.919 52.3928 75.215 52.2448 75.416C52.0008 75.734 51.8108 75.956 51.0798 76.814L50.8148 77.121L50.2318 76.549C49.9038 76.242 49.4378 75.818 49.1828 75.617C48.6318 75.172 48.4728 75.035 47.9648 74.579L47.5618 74.23L48.1448 73.605C48.4628 73.266 48.9288 72.694 49.1718 72.334C49.4258 71.984 49.6488 71.699 49.6698 71.699C49.6918 71.698 49.9138 71.836 50.1578 71.995ZM21.3158 75.967C21.7708 76.327 21.7818 76.359 21.6438 76.592C21.5588 76.73 21.1568 77.45 20.7538 78.213C20.3508 78.965 19.9488 79.696 19.8638 79.834L19.7158 80.078L19.2708 79.729C19.0268 79.538 18.7938 79.348 18.7628 79.305C18.7308 79.252 18.5408 79.104 18.3388 78.956C17.8828 78.617 16.3368 77.113 16.3368 76.996C16.3368 76.858 17.1098 76.064 18.2328 75.058L19.3238 74.073L20.0868 74.825C20.5008 75.236 21.0508 75.755 21.3158 75.967ZM47.4038 75.66C47.7638 75.967 48.4948 76.571 49.0138 76.984C49.5438 77.408 49.9668 77.8 49.9668 77.863C49.9668 77.937 49.6598 78.244 49.2788 78.562C48.8978 78.88 48.4528 79.272 48.2728 79.42C48.1028 79.579 47.7748 79.812 47.5628 79.939L47.1708 80.183L46.4928 79.145C46.1218 78.562 45.5498 77.779 45.2218 77.387L44.6178 76.688L45.1788 76.275C45.4758 76.042 45.9418 75.682 46.2058 75.47C46.4708 75.258 46.7038 75.089 46.7138 75.089C46.7358 75.088 47.0538 75.342 47.4038 75.66ZM25.0018 78.329C25.5418 78.583 26.0288 78.795 26.0818 78.795C26.2508 78.795 26.2198 78.933 25.5838 80.924L24.9798 82.83L24.6728 82.756C24.0058 82.608 20.8178 80.913 20.7118 80.648C20.6908 80.574 20.8808 80.182 21.1458 79.769C21.4108 79.356 21.6328 78.975 21.6328 78.922C21.6328 78.869 21.6968 78.774 21.7708 78.71C21.8448 78.646 22.0888 78.233 22.3108 77.799L22.7028 77.005L23.3598 77.429C23.7198 77.661 24.4618 78.064 25.0018 78.329ZM44.5328 78.424C45.8668 80.225 46.2378 80.775 46.1638 80.902C46.1218 80.966 45.8668 81.146 45.5918 81.294C45.3168 81.432 44.5958 81.845 43.9928 82.184C43.3788 82.533 42.8488 82.788 42.8068 82.745C42.7648 82.692 42.5628 82.205 42.3618 81.654C42.1498 81.103 41.7898 80.224 41.5458 79.705C41.3128 79.197 41.1218 78.762 41.1438 78.741C41.1648 78.73 41.5568 78.519 42.0228 78.264C42.4888 78.01 43.0398 77.692 43.2408 77.554C43.4418 77.416 43.6428 77.321 43.6748 77.332C43.7178 77.354 44.0988 77.841 44.5328 78.424ZM40.4868 79.96C40.7518 80.701 41.4828 82.438 41.6518 82.735C41.8528 83.095 41.7788 83.339 41.4188 83.445C41.2278 83.498 40.7308 83.668 40.3168 83.805C39.9038 83.953 39.4058 84.102 39.1938 84.133C38.9928 84.165 38.7488 84.218 38.6538 84.26C38.5158 84.313 38.4738 84.26 38.4628 84.08C38.4418 83.19 38.0918 81.294 37.8378 80.616C37.6158 80.023 37.6258 79.853 37.9228 79.843C38.0178 79.843 38.5578 79.684 39.1088 79.494C39.6598 79.293 40.1468 79.166 40.1788 79.208C40.2118 79.24 40.3498 79.578 40.4868 79.96ZM28.9418 79.737C29.6088 79.906 30.4138 80.086 30.7218 80.118C31.2408 80.182 31.2728 80.203 31.2728 80.489C31.2728 80.658 31.2308 81.029 31.1778 81.305C31.1248 81.58 30.9868 82.396 30.8808 83.106C30.7428 84.038 30.6478 84.409 30.5528 84.409C30.0658 84.409 27.1418 83.699 26.2738 83.36L25.9878 83.254L26.3478 82.47C26.5488 82.036 26.8668 81.157 27.0578 80.51C27.3228 79.599 27.4498 79.345 27.5658 79.377C27.6498 79.409 28.2748 79.568 28.9418 79.737ZM36.8968 80.966C36.9498 81.358 37.0658 82.025 37.1618 82.438C37.4058 83.55 37.5118 84.344 37.4268 84.429C37.2468 84.63 33.9738 84.768 32.2998 84.641C31.7808 84.609 31.6858 84.567 31.7278 84.429C32.0778 83.359 32.4478 81.77 32.5008 81.167L32.5748 80.415L34.1738 80.341C35.0528 80.309 35.9638 80.235 36.1968 80.193C36.4298 80.14 36.6628 80.129 36.7048 80.172C36.7478 80.214 36.8328 80.574 36.8968 80.966Z" fill="white" fill-opacity="0.15"/>
<path fill-rule="evenodd" clip-rule="evenodd" d="M27.4281 10.9431C27.3431 11.0281 27.2271 11.2291 27.1741 11.3981C27.1111 11.5571 26.9831 11.8851 26.8991 12.1181L26.7401 12.5421L25.4901 12.6161C22.2171 12.7961 19.8341 14.6391 19.0821 17.5411C18.4781 19.9351 19.2511 21.5771 21.6981 23.0811C23.2661 24.0451 25.4581 25.5491 26.0091 26.0361C27.0151 26.9151 27.7571 27.8471 28.2331 28.7901C28.9961 30.3261 28.9001 31.5331 27.9471 32.5921C27.2161 33.3971 25.8071 33.9481 24.1341 34.0641C22.5031 34.1801 20.0881 33.4501 18.9441 32.4961C18.7221 32.3051 18.3301 31.8711 18.0761 31.5221C17.6101 30.8971 17.5251 30.6751 16.8161 28.1641C16.6571 27.6131 16.4351 27.0521 16.3081 26.9141C16.0221 26.6071 15.5771 26.6171 15.2061 26.9351C14.9311 27.1681 14.9091 27.2531 14.9201 27.8781C14.9521 29.1601 15.3441 30.8861 15.8421 31.8711C16.3191 32.8351 17.3141 33.9581 18.2671 34.6041L18.7751 34.9321L18.5211 35.3131C18.2031 35.7681 17.6101 37.3041 17.6101 37.6431C17.6101 37.9821 17.8751 38.2261 18.2561 38.2261C18.6591 38.2261 18.8071 38.0461 19.3791 36.7851C19.6441 36.2131 19.9091 35.6831 19.9611 35.6091C20.0351 35.5141 20.1941 35.5241 20.6071 35.6511C20.9141 35.7361 21.1901 35.8421 21.2321 35.8731C21.2741 35.9151 21.1901 36.3501 21.0521 36.8471C20.7241 37.9701 20.7241 38.2661 21.0521 38.5951C21.3701 38.9231 21.7511 38.9341 22.1011 38.6161C22.3551 38.4041 22.8111 37.3771 23.0121 36.5721C23.1391 36.0531 23.1711 36.0321 23.9341 35.9581C25.4491 35.7991 26.8361 35.2801 27.8321 34.4961C28.5521 33.9351 29.0081 33.3411 29.4631 32.3991C29.8131 31.6791 29.8441 31.5201 29.8441 30.7041C29.8341 28.1411 27.9481 25.6621 23.6061 22.4951C21.7951 21.1821 21.1381 20.5141 20.9371 19.8261C20.4811 18.2481 21.6361 15.9071 23.3311 14.9861C24.7931 14.1921 26.2231 14.0961 27.7481 14.7111C28.9661 15.1981 30.5761 16.5751 31.2961 17.7301C31.7301 18.4401 32.0371 19.2761 32.1221 19.9861C32.2381 20.8971 32.5991 21.2681 33.1491 21.0561C33.7001 20.8551 33.8801 19.7321 33.5621 18.5561C33.2121 17.2431 32.7151 16.4481 31.4651 15.2201L30.3101 14.0871L30.5431 13.6321C30.6701 13.3881 30.8821 12.8911 31.0201 12.5091C31.2421 11.9271 31.2641 11.7991 31.1471 11.5561C30.8401 10.9211 30.0561 11.2701 29.7911 12.1491C29.5161 13.0391 29.3351 13.4411 29.2081 13.4411C28.9221 13.4411 27.8841 12.9111 27.8841 12.7631C27.8841 12.6781 27.9791 12.3921 28.0961 12.1171C28.3291 11.5771 28.3931 11.1211 28.2661 10.9201C28.1581 10.7521 27.6181 10.7631 27.4281 10.9431Z" fill="white" fill-opacity="0.15"/>
<path fill-rule="evenodd" clip-rule="evenodd" d="M10.4697 18.7603C9.83471 19.7343 9.37871 21.3553 9.23071 23.1343C9.12471 24.4583 9.27271 27.6143 9.46371 28.4093C9.63271 29.0553 10.2477 29.2883 10.5127 28.8013C10.5657 28.6953 10.6187 27.3083 10.6297 25.7193C10.6507 22.3933 10.7147 21.5143 11.0427 20.0843C11.3177 18.9083 11.2757 18.5273 10.8837 18.5273C10.7347 18.5273 10.5547 18.6233 10.4697 18.7603Z" fill="white" fill-opacity="0.15"/>
<path fill-rule="evenodd" clip-rule="evenodd" d="M11.0412 30.8989C10.8082 30.9619 10.6172 31.248 10.6172 31.492C10.6172 31.799 11.1152 32.731 11.4012 32.954C11.6662 33.166 12.0052 33.198 12.1852 33.018C12.3972 32.806 12.3232 32.393 11.9632 31.673C11.6342 31.005 11.3802 30.7929 11.0412 30.8989Z" fill="white" fill-opacity="0.15"/>
<path fill-rule="evenodd" clip-rule="evenodd" d="M57.0529 22.5097C56.9149 22.7107 56.8729 23.0397 56.8619 23.8227C56.8509 24.4047 56.8199 24.8817 56.7769 24.8817C56.7239 24.8817 56.3849 24.8817 56.0039 24.8817H55.3159V24.1087C55.3159 23.2507 55.1459 22.8697 54.7439 22.8697C54.2989 22.8697 54.1619 23.1667 54.1299 24.1827L54.0979 25.1147L53.3039 25.4217C51.3229 26.1847 49.6069 28.1437 49.1199 30.1667C48.7709 31.6177 49.0879 33.8417 49.7769 34.7637C50.1269 35.2187 51.0589 35.9497 51.5989 36.1727C52.1389 36.3957 53.4419 36.7127 54.4159 36.8507C55.7289 37.0307 57.8269 37.4857 58.7059 37.7727C60.6549 38.4077 62.4659 39.7107 62.9639 40.8547C63.7369 42.6337 62.6359 44.5617 60.1249 45.8117C58.0909 46.8177 55.6759 46.9347 53.9609 46.0977C53.0819 45.6637 52.4989 45.1337 51.6409 43.9687C50.6139 42.5807 50.2639 42.2527 49.7979 42.2527C49.3429 42.2527 48.9609 42.6237 48.9609 43.0787C48.9609 43.5977 50.5499 46.1717 51.2699 46.8287C51.7779 47.2847 52.7949 47.9727 53.3249 48.2167C53.5479 48.3227 54.0879 48.4817 54.5429 48.5657L55.3689 48.7347L55.3369 50.1967C55.2949 51.5737 55.3049 51.6687 55.5169 51.8807C55.7709 52.1347 56.1419 52.1667 56.4279 51.9547C56.6609 51.7857 56.7779 51.0437 56.7879 49.6987C56.7989 48.8827 56.8089 48.8197 57.0419 48.7767C57.6349 48.6497 58.0689 48.6287 58.1219 48.7137C58.1539 48.7667 58.2279 49.2007 58.2809 49.6877C58.4509 51.0647 58.6309 51.3607 59.3299 51.3607C59.5419 51.3607 59.7109 51.2757 59.8699 51.0747C60.0819 50.8097 60.0919 50.6827 60.0609 49.4227L60.0189 48.0567L60.5169 47.8027C62.5819 46.7647 64.0119 44.9537 64.3189 43.0257C64.4779 41.9457 64.3929 41.2037 64.0119 40.3887C63.3339 38.9587 62.0419 37.8787 59.8179 36.8827C58.4939 36.2897 57.7839 36.0567 55.4749 35.4737C52.2549 34.6587 51.7889 34.4257 51.3119 33.3557C51.0149 32.6887 50.9199 31.5337 51.0899 30.6127C51.3549 29.2247 52.5619 27.7107 53.9179 27.0747C54.5219 26.7887 54.7649 26.7467 55.7399 26.7037C56.7359 26.6617 56.9899 26.6927 57.8579 26.9367C58.3979 27.0957 59.1499 27.3707 59.5209 27.5617C60.3789 27.9747 61.5439 29.0337 62.0419 29.8597C62.2429 30.1987 62.4869 30.5057 62.5819 30.5377C63.0589 30.7177 63.4719 30.5167 63.6309 29.9867C63.7479 29.5947 63.3979 28.6627 62.8899 28.0057C61.9369 26.7667 60.8669 26.0457 59.1399 25.4527L58.1339 25.1137L58.1659 23.9377C58.1869 22.9947 58.1549 22.6987 58.0279 22.4867C57.7839 22.1387 57.2859 22.1387 57.0529 22.5097Z" fill="white" fill-opacity="0.15"/>
<path fill-rule="evenodd" clip-rule="evenodd" d="M70.42 28.5476C70.187 28.7696 70.208 29.0246 70.505 29.7336C70.876 30.6126 71.162 31.7456 71.427 33.3026C71.618 34.4786 71.649 34.9447 71.596 36.4807C71.554 37.5927 71.448 38.7476 71.31 39.4996C70.95 41.4906 70.929 41.7976 71.151 42.0416C71.405 42.3166 71.755 42.3066 72.03 42.0096C72.274 41.7556 72.665 40.3996 72.962 38.8106C73.184 37.5716 73.121 33.9386 72.856 32.7206C72.379 30.5596 71.67 28.8967 71.108 28.5577C70.727 28.3367 70.631 28.3366 70.42 28.5476Z" fill="white" fill-opacity="0.15"/>
<path fill-rule="evenodd" clip-rule="evenodd" d="M70.2396 44.3708C70.1546 44.4238 69.7946 44.8788 69.4556 45.3768C68.8416 46.2668 68.8306 46.2978 68.9896 46.5738C69.0746 46.7328 69.2436 46.8708 69.3706 46.8918C69.7946 46.9558 70.9276 45.6948 71.0656 44.9858C71.1716 44.4768 70.6836 44.1068 70.2396 44.3708Z" fill="white" fill-opacity="0.15"/>
<path fill-rule="evenodd" clip-rule="evenodd" d="M26.2515 48.2472C25.9235 48.5752 26.0395 48.9892 26.7595 50.0902C26.9715 50.4082 27.1405 50.7042 27.1405 50.7472C27.1405 50.8322 25.8695 51.6152 25.8165 51.5522C25.7955 51.5312 25.5725 51.2022 25.3185 50.8322C24.8205 50.0912 24.5245 49.9322 24.1645 50.2602C23.8675 50.5252 23.9105 50.6942 24.4395 51.5522L24.9165 52.3152L24.3975 52.9932C23.7305 53.8722 23.3805 54.5922 23.1155 55.6832C22.5645 57.8862 22.9985 59.7932 24.4395 61.5612C26.0705 63.5632 28.0085 63.7002 31.7475 62.0692C32.4465 61.7622 34.6075 61.0522 35.1365 60.9462C37.0115 60.6072 38.4945 60.6182 39.5855 60.9882C40.3905 61.2742 41.1535 61.9202 41.4495 62.5662C41.7565 63.2552 41.7675 64.5152 41.4605 65.4052C40.6975 67.6082 38.9075 69.4402 36.6835 70.2772C36.1225 70.4892 35.7835 70.5422 34.9785 70.5422C33.8985 70.5532 33.8985 70.5532 31.5045 69.5782C30.6885 69.2602 30.3285 69.1542 30.0955 69.2072C29.5555 69.3232 29.3225 69.8852 29.5875 70.4572C29.7995 70.9232 32.4155 72.3112 33.5385 72.5442C33.8665 72.6082 34.5975 72.6712 35.1695 72.6712C36.0065 72.6712 36.3665 72.6182 37.0755 72.3962C37.9445 72.1102 38.1555 72.1102 38.1555 72.3852C38.1555 72.6392 39.2575 74.4722 39.5115 74.6412C39.8085 74.8322 40.2315 74.7262 40.4335 74.3972C40.6135 74.1002 40.4975 73.7512 39.7975 72.4902L39.2045 71.4312L39.4585 71.2192C40.0625 70.7212 40.1785 70.6372 40.2525 70.6372C40.2945 70.6372 40.4965 70.8592 40.6975 71.1242C41.7355 72.4802 42.0325 72.6812 42.5935 72.3952C43.1125 72.1202 43.1755 71.6222 42.7625 71.0182C42.6145 70.8062 42.4975 70.6052 42.4975 70.5632C42.4975 70.5312 42.2855 70.2032 42.0315 69.8322L41.5545 69.1652L41.8195 68.7842C42.2005 68.2122 42.5395 67.5022 42.8255 66.6662C43.0375 66.0522 43.0795 65.7132 43.0795 64.7072C43.0795 63.6162 43.0475 63.4042 42.7725 62.7162C42.1795 61.2012 41.3535 60.4072 39.8275 59.8992C37.8045 59.2212 34.9445 59.4972 30.9515 60.7362C29.7865 61.0962 28.3455 61.4252 27.8905 61.4252C26.6405 61.4252 25.0305 59.5082 24.8185 57.7602C24.7765 57.3892 24.7445 57.0292 24.7545 56.9552C24.7655 56.8812 24.8075 56.5742 24.8495 56.2882C24.9345 55.5892 25.2735 54.7102 25.6755 54.1592C27.3175 51.8712 31.6595 51.0032 34.1705 52.4752C34.7215 52.7932 35.0705 52.8142 35.3885 52.5172C35.7905 52.1362 35.5155 51.4052 34.7845 50.9072C34.0005 50.3672 32.4545 49.9112 31.3205 49.8902C30.8865 49.8902 29.0855 50.1552 28.5245 50.3142C28.4295 50.3462 28.1745 50.0182 27.8145 49.4142C27.5075 48.9062 27.1685 48.3872 27.0735 48.2812C26.8555 48.0352 26.4735 48.0142 26.2515 48.2472Z" fill="white" fill-opacity="0.15"/>
<path fill-rule="evenodd" clip-rule="evenodd" d="M18.711 64.5376C18.616 64.7816 18.849 66.0626 19.145 66.9206C19.569 68.1596 20.681 69.9816 21.899 71.4116C22.429 72.0466 24.314 73.6566 24.918 74.0066C25.087 74.1126 25.299 74.1446 25.479 74.0916C25.712 74.0386 25.765 73.9646 25.765 73.6786C25.765 73.3816 25.585 73.1596 24.314 71.9096C22.153 69.7916 20.893 68.0546 19.791 65.6606C19.558 65.1626 19.304 64.6756 19.219 64.5696C19.028 64.3476 18.785 64.3366 18.711 64.5376Z" fill="white" fill-opacity="0.15"/>
<path fill-rule="evenodd" clip-rule="evenodd" d="M27.8829 74.6632C27.7659 74.7802 27.6709 74.9492 27.6709 75.0342C27.6709 75.6062 29.2699 76.2202 29.7359 75.8282C29.9579 75.6482 29.9369 75.1612 29.7039 74.9492C29.4709 74.7372 28.6869 74.4512 28.3479 74.4512C28.2109 74.4512 27.9999 74.5462 27.8829 74.6632Z" fill="white" fill-opacity="0.15"/>
</svg>
