<svg width="146" height="147" viewBox="0 0 146 147" fill="none" xmlns="http://www.w3.org/2000/svg">
<path fill-rule="evenodd" clip-rule="evenodd" d="M19.2377 42.9792C18.564 43.6983 18.2145 44.2789 17.9013 45.2184C17.6753 45.8869 17.6365 46.2638 17.7004 46.9244C17.7557 47.6142 17.727 47.8385 17.5465 48.0779C17.4236 48.247 17.3043 48.4625 17.2859 48.5586C17.2671 48.716 18.4446 53.0014 18.7404 53.8098C18.7962 53.9485 18.8976 54.2941 18.972 54.593C19.0509 54.8776 19.2334 55.4697 19.3681 55.8931C19.6138 56.6565 20.6635 60.0007 20.9111 60.8116C21.1197 61.5109 22.0767 64.5045 22.2742 65.1006C22.3778 65.408 22.5126 65.8313 22.5767 66.0264C22.8223 66.7899 24.3986 71.554 24.6341 72.2379C24.7715 72.6239 24.9768 73.2756 25.1097 73.6757C25.5641 75.1627 25.7922 75.874 26.0332 76.5674C26.1706 76.9534 26.725 78.6136 27.2608 80.2615C27.7997 81.8949 28.3724 83.6069 28.5231 84.058C28.6739 84.509 28.9649 85.4172 29.1702 86.0688C29.3756 86.7204 29.7541 87.8841 29.9989 88.648C30.2436 89.412 30.5461 90.3378 30.6543 90.7153C30.7712 91.0877 30.9577 91.6648 31.0868 91.9944C31.2073 92.329 31.5372 93.3244 31.8122 94.2048C32.0881 95.0848 32.3782 95.9692 32.4606 96.1538C32.5333 96.3439 32.6588 96.6871 32.7198 96.9209C32.7904 97.1492 32.977 97.7262 33.1437 98.205C33.4603 99.1354 33.786 100.122 34.3879 102.012C34.5932 102.664 34.9511 103.729 35.1746 104.371C35.3981 105.012 35.6589 105.803 35.7538 106.116C35.8392 106.434 36.2187 107.621 36.5994 108.746C36.9706 109.877 37.694 112.04 38.199 113.571C38.7076 115.088 39.2495 116.683 39.3929 117.101C39.5458 117.514 39.7095 118.031 39.7555 118.237C39.8005 118.443 39.9352 118.866 40.0483 119.168C40.1615 119.47 40.4313 120.255 40.6371 120.908C42.79 127.517 42.9091 127.851 43.4129 128.258C43.6221 128.43 44.0331 128.866 44.3352 129.241C44.9759 130.033 45.5978 130.518 46.6516 131.071C47.6598 131.59 49.9989 132.209 50.8607 132.176C51.2206 132.163 51.6725 132.184 51.8697 132.229C52.2731 132.314 55.0418 131.56 57.4676 130.697C58.833 130.202 62.001 129.143 65.3882 128.02C66.1704 127.765 66.8338 127.516 66.8692 127.471C66.8895 127.423 66.9459 127.414 66.9865 127.44C67.0617 127.507 67.6242 127.317 74.0227 125.054C77.4057 123.859 77.5952 123.785 78.7656 123.354C79.3931 123.127 80.2515 122.814 80.6935 122.67C81.1214 122.521 82.2318 122.136 83.1567 121.81C84.076 121.474 86.2004 120.726 87.8718 120.127C89.5496 119.537 91.3753 118.887 91.9332 118.687C92.4911 118.488 93.5556 118.129 94.2813 117.883C95.0216 117.639 95.7333 117.411 95.8728 117.355C96.017 117.309 97.598 116.763 99.3973 116.152C104.06 114.548 104.706 114.31 107.477 113.199C108.849 112.652 111.111 111.762 112.512 111.222C113.912 110.682 115.395 110.095 115.807 109.919C116.21 109.747 116.655 109.564 116.798 109.517C116.934 109.476 117.208 109.379 117.393 109.297C119.1 108.568 120.47 107.997 121.424 107.593C122.906 106.982 123.359 106.708 123.523 106.356C123.615 106.156 123.936 105.886 124.634 105.422C125.77 104.656 126.664 103.724 126.987 102.95C127.642 101.373 127.872 99.5279 127.693 97.2471C127.57 95.5941 127.285 93.7645 127.142 93.6875C127.094 93.6671 127.09 93.6194 127.136 93.5929C127.292 93.5029 126.496 90.5135 125.555 87.657C125.368 87.0562 124.985 85.8212 124.711 84.903C124.438 83.9849 124.066 82.7689 123.884 82.2005C123.51 81.0218 123.14 79.8304 122.766 78.5898C122.154 76.5334 121.754 75.3097 120.958 73.1273C120.496 71.8405 120.01 70.47 119.883 70.0794C118.982 67.3338 118.022 64.3781 117.785 63.5854C117.63 63.0629 117.385 62.2998 117.232 61.8861C117.089 61.4678 116.702 60.3328 116.393 59.3738C116.079 58.4052 115.64 57.0942 115.434 56.4417C114.243 52.8117 112.18 46.1879 111.349 43.3284C110.992 42.1155 110.668 41.0682 110.573 40.8409C110.519 40.7254 110.487 40.5849 110.488 40.523C110.488 40.376 110.041 38.7752 108.611 33.8401C106.689 27.2074 105.249 23.2089 103.881 20.7332C103.061 19.2493 102.381 18.3703 101.687 17.8659C100.759 17.1904 99.009 16.8071 97.8737 17.0227C96.9207 17.1941 95.3399 17.6541 93.1018 18.3955C91.8591 18.807 90.338 19.3065 89.7045 19.5013C89.0847 19.6998 88.2017 19.9902 87.7492 20.1406C87.3032 20.3 86.3296 20.6057 85.5847 20.8395C84.4583 21.1965 83.2997 21.5837 82.3002 21.9287C82.1884 21.969 81.4672 22.2018 80.6982 22.4379C79.9348 22.6835 78.9394 23.0134 78.4933 23.1728C78.0472 23.3322 76.8654 23.7212 75.8786 24.0461C74.8919 24.3711 73.8965 24.7009 73.6737 24.7811C73.4509 24.8612 72.6925 25.1155 71.9799 25.3433C71.2673 25.5711 70.3929 25.8566 70.0205 25.9735C69.1128 26.2654 66.1825 27.1859 65.4094 27.4128C64.7245 27.6246 64.1752 27.7951 61.6378 28.6123C60.7025 28.9202 59.3328 29.3438 58.5875 29.579C57.8517 29.8086 56.7754 30.1483 56.2078 30.3293C53.937 31.0781 52.8615 31.4173 51.7651 31.7443C51.1412 31.9336 49.9902 32.2921 49.2263 32.5369C48.4573 32.773 47.5624 33.0449 47.2453 33.1298C46.3439 33.3685 43.731 34.1808 41.7939 34.8096C40.8348 35.1185 39.653 35.5075 39.1632 35.6552C35.0683 36.9305 29.1155 38.8639 29.0028 38.9648C28.9719 38.9953 28.8651 39.0443 28.7705 39.0504C28.6809 39.0652 28.1966 39.2224 27.6965 39.4142C27.1995 39.5914 26.5306 39.8309 26.2288 39.944C24.6401 40.5183 23.0531 41.0316 22.5755 41.1364C21.7195 41.3258 19.8088 42.3804 19.2377 42.9792ZM24.7817 41.5877C25.3052 41.4564 26.8487 40.9937 28.227 40.5651C29.6063 40.136 31.432 39.5703 32.2897 39.3199C34.9937 38.5174 37.2689 37.8401 38.2379 37.5485C38.7554 37.3848 39.5475 37.1469 40.0041 37.0057C41.2765 36.6255 45.5567 35.353 47.207 34.8655C48.0134 34.632 49.6314 34.1505 50.8165 33.8092C54.369 32.7604 55.134 32.5393 55.5564 32.3809C55.7742 32.2921 56.1975 32.1574 56.4822 32.0785C56.7764 31.9941 57.359 31.8171 57.7823 31.6824C58.2057 31.5476 59.5849 31.1185 60.8486 30.7434C62.1074 30.3596 63.4107 29.949 63.7508 29.838C64.09 29.7276 64.7662 29.5208 65.2555 29.3723C66.2814 29.0733 69.8612 27.9856 71.2341 27.5475C71.7511 27.383 72.4501 27.1757 72.7957 27.0743C73.1413 26.9729 73.7693 26.7686 74.1876 26.6252C75.1125 26.2991 78.3223 25.2287 80.6496 24.4717C81.5849 24.1638 83.1115 23.6738 84.0469 23.3659C84.9822 23.058 86.416 22.5974 87.2395 22.3298C90.4386 21.3026 92.6008 20.5797 94.0216 20.0526C98.005 18.5842 99.002 18.3631 99.8662 18.7579C101.792 19.6149 103.199 22.2643 105.19 28.783C105.451 29.6361 105.753 30.6475 105.87 31.02C106.295 32.4129 106.437 32.8931 106.994 34.8959C107.663 37.3468 107.573 37.0202 108.117 38.8952C108.357 39.7347 108.615 40.626 108.702 40.882C108.789 41.138 108.938 41.651 109.037 42.0339L109.215 42.7252L108.888 42.8775C108.703 42.9598 107.614 43.3196 106.478 43.6821C105.337 44.0351 104.156 44.4478 103.841 44.5809C103.347 44.805 103.275 44.8707 103.18 45.1708C103.049 45.6007 103.295 46.0707 103.675 46.1572C104.094 46.2459 108.526 44.8983 109.333 44.4323C109.59 44.2838 109.59 44.2838 109.775 44.7521C109.89 45.0158 109.963 45.2673 109.947 45.326C109.94 45.3784 109.476 45.5491 108.93 45.7051C108.379 45.8525 107.798 46.0526 107.642 46.1431C107.293 46.3441 107.177 46.7785 107.399 46.9924C107.644 47.2052 107.995 47.199 109.217 46.9446C109.817 46.819 110.333 46.7163 110.353 46.729C110.405 46.7357 111.211 49.254 112.307 52.8038C112.466 53.3113 112.717 54.1084 112.868 54.5595C113.019 55.0106 113.202 55.5407 113.257 55.7413C113.393 56.1892 113.999 58.0646 114.659 60.0562C114.927 60.8798 115.181 61.5531 115.21 61.5603C115.244 61.5775 115.279 61.6798 115.278 61.8031C115.29 61.931 115.571 62.906 115.924 63.961C116.268 65.0223 116.754 66.5639 117.004 67.3988C117.413 68.764 117.906 70.2532 119.554 75.0995C119.848 75.9689 120.185 76.997 120.307 77.379C120.784 78.9019 120.942 79.4099 121.133 80.0584C121.555 81.49 121.608 81.6432 121.701 81.6989C121.764 81.7238 121.767 81.7707 121.721 81.7972C121.685 81.8182 121.838 82.4882 122.079 83.2658C122.326 84.053 122.769 85.5209 123.076 86.5182C123.373 87.5209 123.833 88.931 124.09 89.6508C124.991 92.2494 125.613 95.3392 125.77 98.1102C125.947 101.065 125.483 102.508 123.973 103.746C123.724 103.951 123.062 104.455 122.522 104.877C121.569 105.598 121.486 105.646 120.426 106.013C119.826 106.224 119.132 106.503 118.888 106.632C118.635 106.765 118.421 106.84 118.405 106.812C118.389 106.785 117.989 106.918 117.517 107.118C117.035 107.322 115.669 107.879 114.469 108.363C113.269 108.848 111.63 109.525 110.81 109.864C110 110.196 108.925 110.622 108.418 110.805C107.926 110.991 107.208 111.272 106.824 111.432C105.8 111.864 103.045 112.916 102.161 113.207C101.743 113.35 101.008 113.604 100.534 113.779C100.056 113.946 99.3481 114.182 98.9484 114.316C98.5578 114.444 97.9108 114.659 97.5156 114.8C97.125 114.928 95.1952 115.589 93.2232 116.264C91.2552 116.923 89.3262 117.584 88.9371 117.736C88.5519 117.873 87.9149 118.106 87.5153 118.239C86.0793 118.738 84.5401 119.272 83.7099 119.592C83.2361 119.768 82.3263 120.098 81.6852 120.321C81.049 120.553 80.1574 120.873 79.7113 121.033C77.5998 121.823 74.0242 123.13 72.7519 123.594C71.9712 123.874 70.694 124.33 69.9183 124.618C68.4173 125.155 65.9819 125.999 64.3627 126.542C62.9162 127.023 60.2345 127.972 59.386 128.302C58.9782 128.464 58.3712 128.704 58.0416 128.834C57.7079 128.953 56.8072 129.301 56.0434 129.608C55.065 129.99 54.5243 130.155 54.2153 130.15C53.9777 130.141 53.4663 130.167 53.0901 130.213C52.7129 130.26 52.004 130.302 51.5148 130.303C51.017 130.308 50.5856 130.325 50.5493 130.346C50.5129 130.367 50.3254 130.341 50.1327 130.281C49.9392 130.222 49.7525 130.194 49.7248 130.21C49.6053 130.279 47.8564 129.834 47.8885 129.742C47.9002 129.698 48.8095 129.345 49.9049 128.956C52.0525 128.206 52.2851 128.059 52.2016 127.532C52.1365 127.166 51.9127 126.99 51.5045 126.981C50.8865 126.97 48.1654 127.869 46.8513 128.517C46.2336 128.825 46.1681 128.838 45.8587 128.662C45.5151 128.469 44.8639 127.659 44.8127 127.358C44.7941 127.198 44.821 127.183 45.0731 127.195C45.5013 127.217 49.5304 125.956 52.7732 124.792C53.3906 124.57 54.1204 124.308 54.3946 124.211C55.63 123.766 57.1738 123.242 58.7885 122.713C61.5254 121.818 61.6269 121.783 61.8024 121.535C62.026 121.223 61.9465 120.853 61.6106 120.631C61.246 120.402 61.2874 120.389 55.8543 121.973C53.1635 122.756 45.8723 125.254 45.03 125.679C44.6104 125.884 44.539 125.888 44.4385 125.714C44.375 125.604 44.2998 125.39 44.2772 125.245L44.2325 124.977L45.0264 124.678C45.4583 124.515 46.3354 124.192 46.9765 123.968C47.6127 123.736 48.2655 123.469 48.4214 123.379C49.045 123.019 48.8069 122.202 48.0611 122.205C47.6433 122.201 47.4609 122.245 45.1399 122.949C44.3472 123.186 43.6727 123.332 43.6407 123.276C43.5822 123.175 42.5532 120.101 42.044 118.499C41.9092 118.075 41.6888 117.396 41.5514 117.01C41.4089 116.615 41.1243 115.74 40.903 115.061C40.5097 113.807 39.8824 111.895 39.7708 111.617C39.7378 111.538 39.6896 111.371 39.6675 111.249C39.6454 111.126 39.3653 110.237 39.0464 109.283C38.732 108.314 38.1565 106.555 37.7674 105.374C37.3729 104.182 36.7671 102.307 36.4018 101.208C36.0467 100.105 35.687 99.0161 35.6163 98.7878C35.5362 98.565 35.2621 97.7083 34.9854 96.8889C34.7177 96.0653 34.2864 94.7243 34.0183 93.8999C33.411 92 32.1363 88.1622 31.8839 87.4269C31.7803 87.1196 31.6163 86.6034 31.5213 86.291C31.436 85.9731 31.2211 85.327 31.0457 84.8532C30.879 84.3744 30.4878 83.2308 30.1894 82.29C29.386 79.8185 28.2683 76.3785 27.7189 74.727C27.2506 73.3219 26.5687 71.2087 25.6461 68.3408C25.394 67.5441 25.1041 66.7461 25.0172 66.5515C24.9207 66.3624 24.8461 66.1492 24.8505 66.0727C24.8529 65.9489 24.3964 64.5243 24.003 63.4189C23.9004 63.1352 23.0822 60.722 22.1769 58.0519C21.2721 55.3828 20.3687 52.7601 20.1673 52.2412C19.4759 50.3657 19.2 47.7479 19.5645 46.3031C19.775 45.4598 20.3233 44.3974 20.9554 43.6283C21.3543 43.1532 21.4997 43.045 22.6078 42.4664C23.5063 42.0066 24.0814 41.7727 24.7817 41.5877Z" fill="white" fill-opacity="0.15"/>
<path fill-rule="evenodd" clip-rule="evenodd" d="M28.5768 49.2419C28.5497 49.3429 28.5633 49.4945 28.6108 49.5767C28.6583 49.659 28.5819 49.8867 28.4236 50.1005C28.0811 50.5673 27.9192 51.4309 28.045 52.0927C28.268 53.2849 28.7601 55.3853 29.0412 56.3603C29.8659 59.1867 31.0183 61.0767 32.583 62.1548C34.1126 63.2162 36.1353 63.3936 39.2201 62.7626C40.8043 62.4346 44.2302 61.4843 45.517 61.0232C45.6652 60.9618 45.8476 60.9177 45.9095 60.919C45.9618 60.9257 46.6612 60.717 47.4484 60.4704C48.2396 60.2088 49.2414 59.9121 49.6767 59.7959C50.111 59.6802 50.5716 59.524 50.6816 59.4605C50.8011 59.3915 51.2245 59.2568 51.6074 59.1581C52.3228 58.9771 54.0477 58.4708 55.286 58.0735C55.6584 57.9566 57.0895 57.5334 58.4802 57.1461C59.8654 56.7494 61.1806 56.3573 61.3983 56.2685C61.6211 56.1883 62.2037 56.0114 62.704 55.8819C63.1987 55.7429 64.5426 55.3584 65.689 55.0141C66.8354 54.6697 68.1742 54.2767 68.6745 54.1472C69.8788 53.8191 71.922 53.226 73.3845 52.7731C74.9643 52.2894 79.7784 50.9037 80.9882 50.5851C87.8948 48.7996 92.228 47.471 95.2955 46.2381C97.7133 45.2578 99.3247 43.8749 99.9667 42.2329C100.147 41.7615 100.323 40.5838 100.195 40.6578C100.158 40.6788 100.152 40.5842 100.182 40.4449C100.297 39.9254 99.6361 36.7242 99.0119 34.7971C98.1993 32.2456 97.7366 31.1062 96.9526 29.7483C96.0521 28.1886 95.9217 28.0687 94.9602 27.8653C93.8251 27.6153 90.328 28.0201 88.3057 28.6253C87.8823 28.76 87.3584 28.8905 87.1509 28.9133C86.943 28.9352 86.6638 29.0236 86.527 29.1026C86.3806 29.1871 85.9105 29.3488 85.4817 29.474C84.7713 29.6636 79.9279 31.1886 78.9198 31.5386C77.0177 32.1841 75.5522 32.6757 73.8498 33.2429C69.5735 34.6483 64.8063 36.2633 63.3713 36.7858C62.5543 37.0866 60.8578 37.6862 59.6119 38.1122C58.3691 38.5237 56.3616 39.2186 55.1571 39.6323C53.9526 40.046 51.8427 40.7756 50.4613 41.243C45.7505 42.8496 44.2818 43.3558 42.5117 43.9978C41.541 44.3505 40.3801 44.7759 39.9341 44.9353C39.488 45.0946 38.5409 45.4463 37.8225 45.726C34.0711 47.1944 31.9099 47.941 31.136 48.0206C30.4813 48.0926 28.6499 48.9664 28.5768 49.2419ZM30.7997 50C31.472 50.6765 33.163 51.8895 36.4617 54.0449C39.5681 56.0793 40.4945 56.646 43.0015 58.0842C44.7562 59.0895 44.9772 59.2182 44.9538 59.3057C44.9421 59.3494 44.4396 59.5171 43.8425 59.6909C42.6437 60.0285 42.5618 60.0146 41.4504 59.3596C41.1013 59.157 40.2848 58.6746 39.646 58.3102C39.0112 57.9308 38.1404 57.4185 37.7116 57.1638C37.2746 56.915 36.0689 56.2046 35.0222 55.5977C32.3957 54.0564 32.3615 54.0392 31.6725 53.6299C31.3417 53.4168 30.7516 53.0727 30.3775 52.8488L29.694 52.4489L29.5348 51.6852C29.358 50.785 29.3763 50.6266 29.7179 50.1604C30.113 49.6147 30.371 49.5755 30.7997 50ZM33.3144 48.8056C34.5985 48.3818 34.6968 48.362 34.7759 48.5611C34.8995 48.8812 35.5117 49.3476 38.1042 51.1278C42.7071 54.2923 47.7506 57.52 48.6762 57.9151L49.0889 58.0799L48.6483 58.2488C48.4074 58.3394 47.8153 58.5219 47.3482 58.6449L46.4855 58.8867L44.1489 57.3616C42.8606 56.5281 40.8226 55.2222 39.6104 54.4787C37.6235 53.2413 34.0138 50.971 32.3011 49.8687C31.6249 49.4393 31.524 49.3266 31.8001 49.2769C31.8806 49.2662 32.5654 49.0544 33.3144 48.8056ZM36.93 47.4641C38.1102 46.9663 38.1943 46.942 38.4055 47.1376C39.5715 48.2253 49.3244 54.9717 50.9855 55.8348C51.6374 56.1801 52.6556 56.8636 52.6322 56.951C52.6205 56.9947 52.0579 57.1844 51.3913 57.3857L50.1648 57.7393L49.7886 57.4057C49.4219 57.0666 45.471 54.4194 42.0452 52.2138C38.758 50.1003 35.6995 48.0868 35.6625 48.0227C35.636 47.9768 35.7223 47.9142 35.8578 47.873C35.9848 47.8389 36.4676 47.6571 36.93 47.4641ZM40.6238 46.0659C41.2599 45.8337 41.8133 45.6481 41.8752 45.6494C41.9276 45.6561 42.3769 45.9463 42.8637 46.3015C43.3555 46.6653 44.0447 47.1611 44.4061 47.4051C44.7675 47.6491 45.5989 48.221 46.258 48.6846C46.9257 49.1432 49.58 50.9005 52.1582 52.592C54.7422 54.2917 56.8474 55.694 56.8452 55.7322C56.828 55.7664 56.2177 55.9594 55.4715 56.1708C54.2632 56.514 54.0935 56.538 53.8096 56.3844C53.6278 56.2815 52.5681 55.5481 51.4573 54.746C50.3319 53.9408 47.136 51.7734 44.3405 49.9395C41.5595 48.1087 39.3262 46.5725 39.3817 46.5405C39.4352 46.5073 39.9972 46.2925 40.6238 46.0659ZM44.1335 44.7728C45.4989 44.2778 45.6867 44.2432 45.8988 44.4625C46.006 44.5842 46.7375 45.0672 47.5104 45.5378C48.2887 46.018 48.9308 46.4301 48.9468 46.4578C48.9628 46.4856 49.3871 46.7544 49.8888 47.0514C50.3905 47.3483 51.811 48.2406 53.0638 49.0346C57.0455 51.567 59.5737 53.1281 60.042 53.3473C60.5991 53.6122 61.6582 54.2605 61.6388 54.3329C61.6099 54.4108 59.0928 55.1551 58.6833 55.2079C58.5373 55.231 58.398 55.2017 58.366 55.1463C58.255 54.954 55.085 52.7474 53.6614 51.8696C50.8333 50.1272 50.0239 49.6153 47.5493 47.9991C46.1852 47.0985 44.6543 46.099 44.1367 45.7744C43.0958 45.1155 43.0931 45.1529 44.1335 44.7728ZM48.4059 43.2968C49.0288 43.0838 49.5895 42.931 49.6561 42.9422C49.723 42.9521 50.2174 43.2786 50.7489 43.6692C51.2804 44.0598 52.7284 45.0217 53.972 45.8198C55.2157 46.6179 56.9193 47.7266 57.7642 48.278C60.0225 49.7755 62.2082 51.1671 63.9712 52.2288C64.8325 52.7466 65.5575 53.1963 65.5735 53.224C65.6 53.2699 62.9828 54.0108 62.8903 53.9787C62.7979 53.9466 60.8308 52.6355 60.7993 52.5809C60.7783 52.5446 59.8755 51.9769 58.7918 51.3059C57.7127 50.6448 56.3323 49.7779 55.7213 49.3975C55.1047 49.0075 54.375 48.5477 54.0943 48.3796C53.8081 48.2018 53.0695 47.7484 52.4674 47.3616C51.8508 46.9717 50.3525 46.0504 49.1116 45.2992C47.8858 44.552 46.8691 43.9151 46.8536 43.8882C46.8326 43.8518 46.9244 43.7988 47.0544 43.748C47.1782 43.7124 47.7924 43.5044 48.4059 43.2968ZM32.1232 55.2784C34.379 56.7277 37.4767 58.5349 39.5187 59.5938C40.3078 60.0066 40.9462 60.3723 40.9299 60.406C40.8966 60.5604 38.7958 60.9037 38.6741 60.7789C38.483 60.5959 38.1426 60.3883 37.0591 59.8037C36.0094 59.2355 34.4911 58.3638 33.0895 57.5461C32.6078 57.2618 32.207 57.0776 32.2011 57.1294C32.1807 57.1781 32.1161 57.13 32.0526 57.0201C31.9891 56.9101 31.6649 56.6446 31.329 56.4228C30.855 56.1099 30.7031 55.9528 30.5955 55.6604C30.4321 55.2294 30.126 54.0851 30.1632 54.0636C30.1795 54.0519 31.0623 54.6069 32.1232 55.2784ZM52.4516 42.0003C53.1223 41.7839 53.7104 41.6165 53.7677 41.6318C53.8602 41.6639 57.3747 44.0873 60.5707 46.339C61.3984 46.9246 63.7214 48.4702 65.7212 49.7739C67.721 51.0777 69.3526 52.1657 69.3399 52.1857C69.3245 52.2431 67.098 52.8565 67.0106 52.8331C66.9819 52.8254 66.0249 52.2279 64.8851 51.5037C63.7453 50.7796 62.3112 49.8836 61.6901 49.5078C61.079 49.1274 59.2128 47.929 57.547 46.8238C55.8868 45.7281 53.7338 44.3292 52.7777 43.7311C51.8071 43.1299 51.0063 42.613 50.9908 42.5861C50.9447 42.5042 51.2047 42.4026 52.4516 42.0003ZM57.5288 40.4142C57.5735 40.4496 58.5068 41.0481 59.621 41.75C60.7302 42.4433 63.5845 44.293 65.9562 45.8589C70.2799 48.7078 73.3046 50.6426 73.5504 50.7085C73.6278 50.7366 73.7177 50.8083 73.7492 50.8628C73.7967 50.9451 73.3416 51.1108 72.2728 51.3977C71.4283 51.6289 70.7124 51.809 70.6924 51.7963C70.6687 51.7973 69.8802 51.2375 68.9345 50.5734C67.9882 49.9085 64.4484 47.5493 61.084 45.3221C57.7097 43.0995 54.9223 41.2597 54.8886 41.2433C54.8631 41.2211 55.4247 41.0078 56.1463 40.7736C56.8678 40.5394 57.4936 40.3733 57.5288 40.4142ZM59.9185 39.5114C61.735 38.8656 61.3563 38.8037 62.8894 39.997C64.0837 40.9217 65.8013 42.1806 67.6541 43.4838C67.9668 43.7074 69.4422 44.7389 70.929 45.788C73.2376 47.4147 74.8802 48.5217 76.632 49.6499C76.8443 49.7837 76.9999 49.9271 76.9922 49.9558C76.9768 50.0132 76.4139 50.2042 75.151 50.5789C74.7918 50.6766 74.7481 50.6649 74.6565 50.4002C74.5804 50.1624 73.6993 49.5464 69.9053 47.0649C65.332 44.0797 62.8391 42.474 62.6049 42.3644C62.5366 42.3299 61.8904 41.9328 61.1758 41.4771C60.4462 41.0173 59.6875 40.5512 59.4765 40.4398C58.6819 40.0175 58.593 39.9475 58.8118 39.8824C58.9191 39.8563 59.4216 39.6886 59.9185 39.5114ZM63.7427 38.233C64.287 38.0538 64.8277 37.8883 64.93 37.8535C65.0942 37.8199 65.4875 38.057 66.7674 38.982C66.8718 39.0568 68.0894 39.9797 69.4765 41.0263C70.8632 42.0721 72.2695 43.1319 72.6073 43.3769C72.9441 43.6223 73.6497 44.1445 74.1867 44.5446C75.1518 45.2841 76.7776 46.4482 78.1892 47.4311C79.5702 48.3831 80.3542 48.957 80.4022 49.0401C80.4497 49.1224 78.6615 49.6052 78.488 49.5587C78.4306 49.5433 77.762 49.0853 77.0172 48.5372C76.2638 47.9942 74.4717 46.7541 73.0324 45.7872C71.5876 44.8108 70.4012 44.0039 70.3907 43.9857C70.3747 43.958 66.677 41.4094 64.2236 39.744C63.3772 39.168 62.679 38.6786 62.663 38.6508C62.6305 38.5946 62.6486 38.5841 63.7427 38.233ZM67.2963 37.0381C67.8647 36.8566 68.3969 36.7202 68.4893 36.7523C68.6578 36.7902 70.5831 38.197 72.2813 39.5282C73.5258 40.4979 74.7226 41.2988 74.8144 41.2458C74.8603 41.2193 74.9442 41.2806 74.9972 41.3724C75.0557 41.4737 75.7016 41.9564 76.4395 42.4726C77.172 42.9792 78.7417 44.066 79.9304 44.8969C81.1136 45.7184 82.5749 46.7453 83.1883 47.1498C83.7972 47.5684 84.2887 47.9337 84.2723 47.9673C84.2646 47.996 83.7344 48.1797 83.0955 48.365L81.9285 48.6958L81.3634 48.2889C81.0602 48.0598 80.6778 47.7794 80.5197 47.6756C79.8141 47.1534 76.9675 45.103 76.3194 44.6585C75.9283 44.3831 75.1735 43.8398 74.657 43.4532C73.3201 42.4515 68.2397 38.8421 67.0935 38.0847C66.5653 37.7419 66.1582 37.4388 66.1946 37.4178C66.2313 37.3955 66.7193 37.2246 67.2963 37.0381ZM32.5921 58.5907C33.7214 59.2966 34.7093 59.8637 35.9193 60.4976C36.498 60.7997 36.9596 61.0713 36.9432 61.105C36.9238 61.1774 35.99 61.19 35.1936 61.1244C34.5841 61.0849 33.6083 60.6448 33.0244 60.1633C32.7057 59.9073 32.326 59.4418 31.9452 58.8661C31.2397 57.7942 31.2897 57.7769 32.5921 58.5907ZM71.5959 35.6931C72.5322 35.4089 72.6036 35.4046 72.929 35.6082C73.4372 35.9383 76.2298 37.8733 78.6668 39.5724C79.8214 40.3861 81.2074 41.3468 81.7374 41.7128C82.2666 42.0794 83.1937 42.7311 83.7931 43.1553C84.3924 43.5794 85.7543 44.5183 86.8267 45.2317C87.8895 45.9505 88.7537 46.5774 88.747 46.6298C88.7181 46.7077 87.6863 47.0586 86.5184 47.3657L85.9158 47.53L83.8812 46.1239C82.7568 45.3424 80.2417 43.5902 78.2947 42.2318C76.3516 40.8583 74.6954 39.7476 74.6198 39.7427C74.5442 39.7378 74.5037 39.7116 74.5496 39.6851C74.586 39.6641 74.4796 39.5419 74.311 39.4198C72.4394 38.0421 70.9356 36.9415 70.5209 36.6671C70.2392 36.4753 69.9912 36.2997 69.9757 36.2729C69.937 36.2098 70.2626 36.0957 71.5959 35.6931ZM74.9312 34.5861C75.5542 34.3731 76.1291 34.2248 76.2165 34.2482C76.3039 34.2717 77.0595 34.7765 77.8927 35.3716C78.7259 35.9668 80.3363 37.1039 81.4653 37.8955C82.5952 38.6865 83.7844 39.5403 84.1131 39.7916C85.7829 41.0538 88.5833 43.0443 90.328 44.2021L92.2754 45.4991L91.9135 45.6342C91.7002 45.7088 91.2683 45.8727 90.9427 45.9868C90.614 46.1154 90.292 46.2158 90.2347 46.2004C90.1728 46.1992 89.8187 45.988 89.4318 45.7218C89.0599 45.4596 87.7882 44.5911 86.6065 43.7942C83.2921 41.5496 81.6751 40.4648 79.8798 39.2393C78.9687 38.6152 77.2135 37.4392 75.9689 36.6175C74.7238 35.7948 73.7056 35.1113 73.6951 35.0931C73.6631 35.0377 73.7604 34.9942 74.9312 34.5861ZM80.0558 32.9981C80.2474 33.0341 80.6822 33.3212 83.8295 35.5525C86.2681 37.2761 86.7831 37.6381 86.8046 37.6753C86.8151 37.6935 87.2714 38.0178 87.8205 38.397C88.3702 38.7771 89.2139 39.3905 89.7094 39.7406C90.6375 40.4161 92.7252 41.7661 94.8688 43.085C95.5537 43.5094 96.1306 43.8726 96.1466 43.9003C96.2471 44.0744 93.8048 45.0561 93.5111 44.9693C93.3034 44.9056 92.721 44.5329 91.8194 43.9033C91.437 43.623 90.5068 42.9857 89.7798 42.4886C89.0474 41.9819 88.433 41.5538 88.4225 41.5356C88.4065 41.5079 88.0887 41.2756 87.6977 41.0003C85.6516 39.5523 84.2317 38.513 84.1787 38.4212C84.1472 38.3667 84.0838 38.3409 84.0284 38.3729C83.9825 38.3994 83.8996 38.3618 83.8571 38.2882C83.7671 38.1323 82.0921 36.947 79.4153 35.1288C78.3525 34.4099 77.4806 33.8117 77.4701 33.7935C77.4276 33.7199 79.8841 32.9748 80.0558 32.9981ZM82.7949 32.0644C83.4648 31.8486 84.0824 31.6884 84.1653 31.7259C84.3729 31.7896 86.2353 33.0873 89.007 35.0701C90.2062 35.9192 91.6588 36.9512 92.2477 37.3572C92.8311 37.7536 93.9911 38.5769 94.8243 39.172C95.6575 39.7671 96.8513 40.6067 97.4707 41.0436L98.6037 41.8201L98.4759 42.0647C98.301 42.3978 97.5777 43.0729 97.3762 43.1038C97.1883 43.1384 95.4584 42.0702 92.3757 40.0349C90.2752 38.6426 89.9092 38.3886 87.1726 36.4467C85.7204 35.4134 83.0099 33.5788 82.4335 33.2384C81.858 32.8975 81.4099 32.5454 81.4835 32.5029C81.529 32.4778 82.1196 32.2707 82.7949 32.0644ZM87.8671 30.4697C88.0867 30.4041 90.9688 32.262 96.3916 35.9566L98.1627 37.1603L98.4439 38.1353C98.6094 38.676 98.7513 39.2176 98.772 39.3396C98.7942 39.4619 98.8513 39.7949 98.8975 40.087C98.9528 40.3726 98.9694 40.6575 98.9454 40.7198C98.8769 40.8333 98.2028 40.3657 96.794 39.1976C95.2617 37.9414 93.7502 36.8696 88.4201 33.2935C86.783 32.196 85.4385 31.2853 85.433 31.2757C85.4179 31.2475 87.0563 30.7173 87.8671 30.4697ZM91.5032 29.5436C91.8326 29.5001 92.1289 29.5253 92.1709 29.598C92.3034 29.8275 93.3669 30.6315 95.0391 31.7699C96.8248 32.9768 96.8909 33.0494 97.3241 34.4136C97.4569 34.8138 97.6022 35.2553 97.6489 35.4004C97.709 35.6105 97.5578 35.5384 96.7256 34.967C96.1814 34.5964 95.7201 34.2635 95.7096 34.2453C95.6461 34.1353 92.1336 31.8216 90.8873 31.0608C90.0994 30.5862 89.4381 30.1608 89.4116 30.1149C89.3641 30.0326 90.6849 29.6742 91.5032 29.5436ZM94.9704 29.3651C95.0844 29.4344 95.3693 29.8438 95.6161 30.3133L96.0488 31.1269L94.735 30.2712C94.0003 29.8027 93.3964 29.3928 93.3804 29.3651C93.3128 29.2459 94.784 29.2521 94.9704 29.3651Z" fill="white" fill-opacity="0.15"/>
<path fill-rule="evenodd" clip-rule="evenodd" d="M28.3646 66.1797C28.3248 66.3008 28.303 66.497 28.3046 66.6058C28.3188 66.8424 28.7558 68.9133 28.9886 69.7824C29.1442 70.39 30.7841 75.9003 30.9403 76.3609C30.9961 76.4996 31.1266 77.0235 31.2569 77.5233C31.4953 78.4861 32.0733 80.5253 32.5697 82.0851C32.7279 82.5931 32.8952 83.1569 32.9393 83.3393C32.9784 83.513 33.1604 84.1043 33.3259 84.6449C33.4914 85.1856 33.7948 86.1351 33.9897 86.7686C34.1795 87.3934 34.4724 88.3247 34.6356 88.8413C34.7851 89.3543 34.9411 89.9005 34.9787 90.0496C35.0602 90.4668 35.3813 91.383 35.5453 91.667C35.8683 92.2265 36.6592 92.1983 36.838 91.6181C36.8873 91.4915 36.8499 91.0247 36.7479 90.594C36.6554 90.1578 36.5506 89.6802 36.5129 89.531C36.4512 89.2122 35.924 87.303 35.6741 86.4681C35.5792 86.1557 35.3458 85.3494 35.159 84.6859C34.9718 84.0238 34.6797 83.0297 34.5146 82.4898C34.3587 81.9437 33.845 80.186 33.3881 78.5907C32.9263 76.9867 32.2318 74.7458 31.8551 73.6053C31.4638 72.4617 30.8255 70.5301 30.421 69.3214C29.318 65.9711 29.3359 66.022 29.0875 65.8478C28.8363 65.6626 28.4489 65.8377 28.3646 66.1797Z" fill="white" fill-opacity="0.15"/>
<path fill-rule="evenodd" clip-rule="evenodd" d="M38.8471 71.0754C38.7636 71.1848 38.7076 71.3638 38.7274 71.462C38.7527 71.5698 38.7764 71.8009 38.7823 71.9811C38.7827 72.1518 38.8936 72.724 39.0241 73.248C39.1586 73.7569 39.3108 74.4646 39.3598 74.8035C39.9162 78.1392 40.5205 79.9058 41.2994 80.471C42.4358 81.2952 43.7197 81.189 47.4453 79.9318C48.8085 79.475 49.1776 79.3104 50.0738 78.7445C51.2912 77.9932 51.5112 77.7183 51.6003 76.8967C51.6641 76.3091 51.6378 76.1776 51.08 73.6014C50.6236 71.455 50.2747 70.4706 49.6194 69.5037C48.4724 67.793 47.3943 67.7676 43.0576 69.3662C42.4451 69.5974 41.5622 69.912 41.1161 70.0714C40.67 70.2308 40.0908 70.4555 39.8302 70.5563C39.5616 70.6629 39.2742 70.7792 39.1806 70.809C39.0846 70.8528 38.9392 70.961 38.8471 71.0754ZM41.0922 71.4061C41.5106 71.2627 42.2913 70.9829 42.811 70.781C44.4955 70.1387 46.3376 69.5393 46.9722 69.4305C47.499 69.3469 47.6232 69.3721 47.8891 69.5985C48.4819 70.1373 48.9398 71.3764 49.7099 74.6383C50.0889 76.2047 50.115 76.484 49.9377 76.7689C49.613 77.2866 47.1691 78.3916 45.1653 78.9249C42.428 79.6497 42.1529 79.5752 41.4994 77.9353C41.1511 77.036 40.9427 76.251 40.4995 74.0855C40.338 73.2977 40.1505 72.4649 40.0884 72.2074C39.9875 71.8627 40.0036 71.7425 40.1446 71.7108C40.241 71.6897 40.6739 71.5495 41.0922 71.4061Z" fill="white" fill-opacity="0.15"/>
<path fill-rule="evenodd" clip-rule="evenodd" d="M55.3272 66.3191C54.9023 67.1511 55.3524 69.5828 56.4601 72.3912C57.7581 75.6775 58.4286 76.1829 60.9297 75.7909C61.6016 75.6847 62.5481 75.48 63.0379 75.3324C63.5277 75.1847 64.223 74.9911 64.5778 74.9075C65.9968 74.5894 68.1573 73.5014 68.8618 72.7517C69.5314 72.0475 69.6182 70.9697 69.1595 69.1792C68.5341 66.7401 67.2333 64.445 66.0119 63.6214C65.0529 62.9765 64.2343 63.0207 61.5213 63.8296C60.7619 64.0602 59.9692 64.2973 59.7541 64.3487C59.5385 64.3993 59.1725 64.5494 58.9294 64.6782C58.6999 64.8107 58.4866 64.8854 58.4706 64.8576C58.4496 64.8213 57.9854 64.9912 57.4398 65.2322C56.8798 65.4701 56.2818 65.7045 56.0994 65.7486C55.6315 65.8502 55.532 65.9319 55.3272 66.3191ZM57.7646 66.1348C58.3682 65.9942 59.2696 65.7555 59.7589 65.6069C61.4283 65.1084 63.7337 64.5476 64.2633 64.5108C65.0477 64.4494 65.2424 64.6187 66.1214 66.1412C66.9104 67.5078 67.3531 68.6344 67.744 70.2435C67.8951 70.8653 67.9154 71.1965 67.8289 71.3446C67.5867 71.7292 65.4854 72.7715 64.0825 73.2016C62.5636 73.6628 60.7169 74.0443 60.0148 74.0582C59.1934 74.0555 58.9796 73.8972 58.3656 72.8338C57.7036 71.6871 57.3519 70.8879 57.0239 69.7679C56.7249 68.7419 56.3517 66.9516 56.3844 66.7122C56.433 66.4763 56.5393 66.4265 57.7646 66.1348Z" fill="white" fill-opacity="0.15"/>
<path fill-rule="evenodd" clip-rule="evenodd" d="M73.6636 60.6482C73.6577 60.8721 73.6218 61.2959 73.5911 61.5826C73.5351 61.9937 73.6314 62.5005 73.9893 63.7984C74.4058 65.2819 74.5559 65.6478 75.2145 66.8946C75.8251 68.0582 76.0288 68.369 76.3749 68.6703C77.3178 69.5196 78.8527 69.466 82.3895 68.476C84.7134 67.819 87.2075 66.7589 87.7108 66.2108C88.2496 65.618 88.3603 64.8578 88.0825 63.5506C87.5022 60.6813 85.7122 57.581 84.28 56.9644C83.7248 56.7227 83.4358 56.7302 82.4844 57.0104C81.1406 57.3948 77.8229 58.4904 76.6963 58.933C76.1171 59.1578 75.4023 59.4238 75.1004 59.5369C74.7985 59.65 74.3558 59.8571 74.1176 59.9946C73.7322 60.2171 73.6841 60.2818 73.6636 60.6482ZM75.5303 60.4515C76.1178 60.2832 77.9891 59.6682 79.686 59.0914C81.3885 58.5242 82.9723 58.0254 83.2166 57.9825C83.7252 57.9095 83.7814 57.9867 84.7504 59.6651C85.5088 61.0008 86.5482 63.605 86.6553 64.4485L86.7081 64.8579L85.9235 65.237C85.4944 65.4478 84.9821 65.6824 84.792 65.7552C84.6019 65.828 83.9713 66.0697 83.3967 66.3044C80.8465 67.3114 77.9553 67.8317 77.3067 67.3864C76.9111 67.1252 75.9036 65.506 75.5287 64.5608C75.3758 64.1479 75.1397 63.379 75.0038 62.8455C74.8724 62.322 74.6822 61.7586 74.5977 61.6123C74.4507 61.3796 74.3385 60.8451 74.4303 60.7921C74.4493 60.7811 74.9391 60.6335 75.5303 60.4515Z" fill="white" fill-opacity="0.15"/>
<path fill-rule="evenodd" clip-rule="evenodd" d="M89.7994 54.9145C89.5676 55.635 89.6404 56.8411 89.9981 58.2247C90.3681 59.6495 90.4907 59.9459 91.5972 62.0103L92.4782 63.6424L93.0351 63.9929C93.4594 64.2618 93.7732 64.3613 94.3835 64.4003C95.2742 64.4611 95.8464 64.3502 98.5981 63.5443C102.801 62.3293 103.783 61.7623 104.055 60.3697C104.517 58.0974 104.025 55.9957 102.383 53.1525C101.705 51.9782 101.313 51.594 100.589 51.4C100.28 51.3093 100.035 51.2671 100.062 51.313C100.083 51.3493 99.9934 51.365 99.8686 51.3389C99.595 51.289 98.4233 51.5255 97.8053 51.7472C97.5826 51.8273 97.3488 51.8884 97.2724 51.884C97.1053 51.8708 93.5236 52.911 92.1145 53.3943C91.5329 53.595 90.8159 53.8992 90.5128 54.0742C90.0275 54.3556 89.9517 54.4363 89.7994 54.9145ZM94.8559 53.8427C98.6306 52.7765 99.8367 52.4716 100.041 52.549C100.366 52.667 100.79 53.4005 101.427 54.9285C102.148 56.6648 102.268 57.085 102.48 58.6381C102.667 60.022 102.588 60.4348 102.056 60.7418C101.359 61.1443 99.2105 61.871 97.419 62.306C97.0124 62.4057 96.5721 62.5132 96.4612 62.553C94.3065 63.185 93.5651 62.9168 92.7462 61.2245C92.1665 60.0304 91.2081 57.4164 90.9577 56.4108C90.778 55.6335 91.0835 54.8706 91.6402 54.7328C91.7289 54.7185 93.1805 54.3088 94.8559 53.8427Z" fill="white" fill-opacity="0.15"/>
<path fill-rule="evenodd" clip-rule="evenodd" d="M43.7442 88.5388C43.6844 88.6472 43.6743 88.7997 43.7218 88.882C43.7693 88.9643 43.7896 89.2955 43.7799 89.6186C43.7513 90.2471 43.899 91.2011 44.5332 94.5034C44.9227 96.4921 44.964 96.6276 45.4373 97.4675C46.0198 98.4764 46.3033 98.6914 47.1663 98.7682C48.2838 98.8817 49.3692 98.7077 51.9682 97.9773C54.0725 97.386 54.9163 97.0454 55.9169 96.4065C56.9357 95.7571 57.1411 95.4549 57.2234 94.4536C57.4154 92.202 56.6848 89.1147 55.4708 86.99C55.0258 86.2192 54.6921 85.9592 53.9523 85.7998C52.5149 85.4923 50.1543 85.9995 46.0499 87.5125C43.9879 88.263 43.8634 88.3233 43.7442 88.5388ZM45.4484 88.9486C45.8896 88.8648 47.198 88.5251 48.3641 88.1948C52.5771 86.9979 53.4887 86.8388 53.8472 87.2057C54.1359 87.5159 55.1199 90.1521 55.4442 91.5179C55.8127 93.0661 55.9445 94.3964 55.7446 94.7081C55.5206 95.0822 53.5927 96.1711 52.5314 96.5148C50.6284 97.1366 49.5095 97.4027 48.4804 97.4842C46.9744 97.6077 46.7603 97.535 46.3103 96.7556C45.8388 95.9389 44.9276 92.6245 44.7731 91.149C44.7144 90.5594 44.6355 90.0426 44.6035 89.9872C44.519 89.8408 44.5134 89.1951 44.5957 89.1476C44.6329 89.1261 45.0222 89.0365 45.4484 88.9486Z" fill="white" fill-opacity="0.15"/>
<path fill-rule="evenodd" clip-rule="evenodd" d="M37.4448 96.8227C37.3933 96.9875 37.4132 97.3178 37.4847 97.5698C37.5522 97.8126 37.6573 98.2288 37.7162 98.5008C38.0011 99.6942 38.4444 101.138 38.6349 101.468C38.9104 101.945 39.2912 102.117 39.6298 101.921C39.9598 101.731 39.9543 101.721 39.6689 100.505C39.5416 99.9665 39.3276 99.0877 39.2058 98.5588C39.0785 98.0203 38.8617 97.3268 38.7094 96.999C38.4588 96.4589 38.4036 96.4054 38.131 96.3792C37.7349 96.3492 37.5563 96.4638 37.4448 96.8227Z" fill="white" fill-opacity="0.15"/>
<path fill-rule="evenodd" clip-rule="evenodd" d="M61.6401 83.2707C61.5086 83.4448 61.3464 83.7579 61.2745 83.9714C61.1544 84.4195 61.2555 86.0366 61.4515 86.756C61.5286 87.0175 61.7046 87.8084 61.8468 88.5207C62.3517 91.0051 63.1089 92.7827 63.9024 93.3511C64.7006 93.9295 65.7939 93.8733 68.892 93.0753C71.2711 92.472 71.8099 92.2833 72.9522 91.6977C73.9649 91.1858 74.0153 91.1451 74.2768 90.6881C74.5469 90.2019 74.7427 89.4411 74.6417 89.2661C74.6097 89.2107 74.5144 88.7276 74.44 88.1967C74.3601 87.6563 74.1116 86.4418 73.8751 85.5022C73.5282 84.0755 73.3775 83.6244 72.9277 82.7594C72.0145 80.9876 71.2066 80.3283 69.9954 80.3925C69.0535 80.4351 63.9185 82.005 62.5152 82.6685C62.1229 82.8569 61.7994 83.0806 61.6401 83.2707ZM65.9994 82.7712C69.9167 81.6342 70.2561 81.586 70.6798 82.0019C70.8454 82.1626 71.0978 82.4938 71.2463 82.751C72.0038 84.063 73.2916 88.6877 73.1155 89.4626C73.0506 89.7322 72.9738 89.7892 71.9107 90.3418C70.1344 91.2692 66.0217 92.5559 65.1055 92.4729C64.1319 92.3745 63.5408 91.3948 63.1171 89.1568C62.6178 86.5341 62.352 83.9117 62.5806 83.7797C62.6369 83.7472 64.179 83.2841 65.9994 82.7712Z" fill="white" fill-opacity="0.15"/>
<path fill-rule="evenodd" clip-rule="evenodd" d="M110.592 58.1999C110.566 58.3246 110.597 58.674 110.668 58.9874C110.748 59.2958 110.944 60.1008 111.103 60.7789C111.263 61.4571 111.502 62.4444 111.639 62.9766C111.779 63.495 112.007 64.4397 112.158 65.0614C112.299 65.6886 112.491 66.5073 112.591 66.8911C112.756 67.5788 113.565 70.5481 113.993 72.0743C115.174 76.174 115.84 78.4929 115.951 78.833C116.031 79.0558 116.568 80.751 117.159 82.5995C117.74 84.4535 118.405 86.5152 118.635 87.1896C118.856 87.8689 119.186 88.8644 119.36 89.4C119.759 90.6001 119.835 90.7528 120.152 90.8144C120.547 90.904 120.905 90.6361 121.02 90.178C121.154 89.7095 121.071 89.3542 120.208 86.5257C119.855 85.3843 119.454 84.0746 119.313 83.6181C119.18 83.1565 118.976 82.5044 118.855 82.1698C118.586 81.4081 118.241 80.2372 116.411 74.1021C116.114 73.0993 115.644 71.524 115.37 70.6059C114.45 67.5291 113.463 64.1242 113.353 63.638C113.082 62.449 111.843 58.7986 111.525 58.2478C111.245 57.762 110.716 57.7368 110.592 58.1999Z" fill="white" fill-opacity="0.15"/>
<path fill-rule="evenodd" clip-rule="evenodd" d="M79.2682 77.4951C79.1509 77.758 79.2545 79.8875 79.4438 80.8913C79.9607 83.6506 80.3287 84.796 81.0663 85.9475C82.0034 87.4006 82.9808 87.8016 84.8892 87.507C87.4284 87.1171 90.4935 86.2401 91.7566 85.5478C93.3323 84.675 93.5249 84.0985 93.1417 81.5068C92.9998 80.5611 92.8114 79.5567 92.7235 79.2784C92.6391 78.9842 92.5392 78.6631 92.4988 78.5513C92.1678 77.4699 91.6866 76.4025 91.1454 75.5291C90.1123 73.8878 89.7809 73.8216 86.8054 74.6839C83.7689 75.5687 82.9399 75.8267 81.5276 76.3246C79.9339 76.8902 79.428 77.158 79.2682 77.4951ZM81.8223 77.427C82.5121 77.2238 83.9105 76.8079 84.941 76.4947C88.7723 75.3346 89.0529 75.2708 89.5309 75.3366C89.89 75.3867 89.895 75.3954 90.3521 76.2931C90.6209 76.8227 90.9757 77.7552 91.1927 78.511C91.5811 79.8398 92.1508 83.0085 92.0726 83.4451C92.0376 83.6604 91.9054 83.7494 90.9436 84.2435C90.3404 84.5548 89.508 84.913 89.0846 85.0478C86.133 85.9933 84.9505 86.2972 84.0127 86.3249C82.284 86.3807 81.3252 84.8061 80.8085 81.093C80.6962 80.3265 80.6125 79.5676 80.6181 79.4293C80.6187 79.2823 80.5891 78.871 80.5296 78.5139C80.4851 78.1609 80.4753 77.8479 80.5116 77.8269C80.549 77.8076 81.1406 77.6242 81.8223 77.427Z" fill="white" fill-opacity="0.15"/>
<path fill-rule="evenodd" clip-rule="evenodd" d="M96.4033 72.1155C96.358 72.2271 96.3777 72.4732 96.4592 72.6583C96.5319 72.8484 96.6522 73.5006 96.7309 74.103C96.9805 76.2093 97.9896 79.5031 98.7946 80.8974C99.5713 82.2226 100.242 82.4718 101.96 82.0792C104.099 81.5902 106.541 80.7792 107.789 80.1443C109.747 79.1491 109.819 78.7886 108.769 75.2737C107.42 70.8185 106.669 69.4541 105.314 69.0135C104.893 68.8779 104.652 68.8821 103.974 69.0652C103.139 69.2915 100.755 70.1411 99.7927 70.5501C99.4963 70.6727 98.7406 70.9739 98.105 71.2069C96.7864 71.6991 96.5151 71.8431 96.4033 72.1155ZM99.0635 72.2551C99.5937 72.0714 100.56 71.7338 101.202 71.5103C103.441 70.707 104.511 70.3583 104.79 70.3312C105.201 70.3016 105.472 70.6223 106.155 71.9531C106.879 73.3567 108.184 76.9091 108.345 77.9286C108.39 78.2198 108.365 78.2598 107.824 78.5723C107.2 78.9323 105.133 79.7584 104.062 80.0839C103.698 80.1958 102.948 80.4209 102.413 80.596C101.239 80.9563 100.547 81.0498 100.266 80.8817C99.6939 80.5271 99.0719 78.9417 98.4694 76.3301C97.655 72.8015 97.6392 72.6883 97.878 72.6358C97.9935 72.6038 98.5292 72.4296 99.0635 72.2551Z" fill="white" fill-opacity="0.15"/>
<path fill-rule="evenodd" clip-rule="evenodd" d="M49.0172 107.692C48.8041 108.023 48.6631 108.667 48.7636 108.841C48.8591 109.006 49.3679 111.244 49.6423 112.651C50.0776 114.931 50.9076 117.13 51.5313 117.639C51.881 117.926 52.6282 118.118 53.257 118.086C55.5517 117.972 60.1214 116.397 61.3249 115.324C62.3871 114.367 62.4558 113.362 61.6737 110.23C60.7149 106.429 60.1157 105.307 58.8078 104.864C58.1105 104.63 57.1483 104.722 55.5088 105.166C54.9299 105.329 54.3132 105.489 54.1308 105.533C53.5836 105.665 50.5968 106.742 49.8858 107.079C49.3649 107.32 49.1641 107.461 49.0172 107.692ZM51.1641 107.663C51.9287 107.503 53.4646 107.093 54.752 106.717C55.4091 106.521 56.0531 106.345 56.1759 106.323C56.2982 106.301 56.7623 106.217 57.2135 106.128C58.4234 105.894 58.5777 105.927 58.8637 106.423C58.9962 106.652 59.2053 107.142 59.3285 107.524C59.6026 108.381 60.2274 110.161 60.6683 111.348C61.0324 112.361 61.168 113.188 61.0289 113.647C60.8541 114.212 59.3098 115.287 57.7895 115.896C56.8711 116.255 55.0151 116.789 54.3746 116.865C53.5498 116.963 52.7608 116.782 52.3881 116.411C51.7158 115.734 50.5472 112.312 50.1918 109.936C49.9237 108.158 49.9175 108.211 50.3393 107.968C50.5402 107.852 50.9117 107.711 51.1641 107.663Z" fill="white" fill-opacity="0.15"/>
<path fill-rule="evenodd" clip-rule="evenodd" d="M66.1376 102.393C65.4855 103.382 65.3919 103.644 65.4336 104.414C65.5688 106.598 67.1411 111.035 68.1996 112.235C68.9108 113.023 69.5011 113.049 72.5145 112.422C75.9918 111.687 77.7426 110.97 78.4875 109.952C79.2409 108.905 79.3457 107.328 78.8088 104.789C78.2346 102.014 77.6138 100.367 76.8531 99.643C76.4759 99.2857 75.8205 99.0406 75.3005 99.0718C74.8368 99.0947 73.1946 99.5544 71.9729 100.002C71.5927 100.148 71.0812 100.322 70.8529 100.393C70.5042 100.508 67.8199 101.557 66.6342 102.045C66.4314 102.138 66.2124 102.289 66.1376 102.393ZM69.7599 102.185C72.7455 101.17 74.6645 100.576 75.1494 100.504C75.6248 100.438 75.8893 100.664 76.2912 101.508C76.6666 102.306 77.2031 104.295 77.4335 105.752C77.6324 107.007 77.5864 108.135 77.3124 108.721C77.09 109.203 77.0583 109.234 76.1079 109.77C74.9004 110.455 73.3229 110.963 71.4242 111.276C69.8739 111.535 69.3902 111.545 69.0694 111.327C68.4678 110.941 67.1478 108.021 66.7716 106.245C66.3741 104.371 66.373 103.479 66.767 103.251C66.8784 103.188 68.2256 102.704 69.7599 102.185Z" fill="white" fill-opacity="0.15"/>
<path fill-rule="evenodd" clip-rule="evenodd" d="M84.7954 96.4543C84.7347 97.3451 85.0058 99.4887 85.3986 101.121C85.8512 103.049 86.083 103.747 86.6449 104.89C87.1593 105.951 87.5743 106.372 88.2523 106.53C88.9945 106.713 91.0263 106.335 94.015 105.453C98.5108 104.13 104.791 102.362 106.53 101.922C110.419 100.948 111.467 100.6 112.839 99.8207C114.573 98.8434 114.797 98.36 114.634 95.9827C114.529 94.3807 113.959 91.9943 113.294 90.3353C112.507 88.3799 111.203 87.6038 109.396 88.0119C107.824 88.3814 101.946 90.1481 97.3243 91.6549C96.6863 91.8639 95.6622 92.1861 95.0469 92.3705C93.061 92.9547 91.5376 93.4301 89.1176 94.2165C87.5719 94.7174 85.5577 95.4646 85.2 95.6711C84.8687 95.8612 84.8256 95.9346 84.7954 96.4543ZM88.0775 95.9531C89.1986 95.6489 90.5274 95.2604 91.0349 95.1014C91.5574 94.9464 92.7734 94.5745 93.7429 94.2838C95.6124 93.7299 99.5563 92.469 104.638 90.8065C109.696 89.1458 110.428 88.9926 111.083 89.4084C111.508 89.6773 111.76 90.1791 112.379 92.0116C112.614 92.6955 112.932 93.649 113.113 94.1315C113.558 95.3905 113.668 96.1953 113.491 96.9465L113.335 97.5871L112.247 98.2026C111.627 98.548 110.575 99.0332 109.799 99.3226C107.702 100.118 104.027 101.334 101.281 102.15C100.329 102.43 98.5767 102.952 97.3694 103.319C93.2993 104.532 90.675 105.154 89.1682 105.278C88.4784 105.333 88.3166 105.243 87.7803 104.526C87.3412 103.936 87.0807 103.231 86.4472 100.819C85.8969 98.7641 85.6438 96.7578 85.9184 96.5993C85.9925 96.5577 86.962 96.267 88.0775 95.9531Z" fill="white" fill-opacity="0.15"/>
<path fill-rule="evenodd" clip-rule="evenodd" d="M121.065 93.3943C120.992 93.6925 121.051 94.1115 121.286 95.0274C121.46 95.7101 121.655 96.3436 121.718 96.4536C121.988 96.9212 122.73 96.7248 122.853 96.1529C122.959 95.7003 122.922 95.4893 122.588 94.361C122.276 93.3314 122.075 93.0061 121.675 92.9069C121.353 92.812 121.185 92.9448 121.065 93.3943Z" fill="white" fill-opacity="0.15"/>
</svg>
