<svg width="44" height="44" viewBox="0 0 44 44" fill="none" xmlns="http://www.w3.org/2000/svg">
<path d="M7.33333 32.9993L16.5 21.9993M36.6667 32.9993L27.5 21.9993M5.5 14.666L18.7458 23.4964C19.9219 24.2806 20.5099 24.6727 21.1455 24.8249C21.7072 24.9596 22.2928 24.9596 22.8545 24.8249C23.4901 24.6727 24.0781 24.2806 25.2542 23.4964L38.5 14.666M11.3667 34.8327H32.6333C34.6869 34.8327 35.7137 34.8327 36.498 34.433C37.1879 34.0816 37.7489 33.5206 38.1003 32.8307C38.5 32.0464 38.5 31.0195 38.5 28.966V15.0327C38.5 12.9792 38.5 11.9524 38.1003 11.1681C37.7489 10.4781 37.1879 9.91719 36.498 9.56566C35.7137 9.16602 34.6869 9.16602 32.6333 9.16602H11.3667C9.31315 9.16602 8.28637 9.16602 7.50204 9.56566C6.8121 9.91719 6.25117 10.4781 5.89965 11.1681C5.5 11.9524 5.5 12.9791 5.5 15.0327V28.966C5.5 31.0195 5.5 32.0464 5.89965 32.8307C6.25117 33.5206 6.8121 34.0816 7.50204 34.433C8.28637 34.8327 9.31313 34.8327 11.3667 34.8327Z" stroke="#111727" stroke-width="1.6" stroke-linecap="round" stroke-linejoin="round"/>
</svg>
