<svg width="44" height="44" viewBox="0 0 44 44" fill="none" xmlns="http://www.w3.org/2000/svg">
<path d="M25.7583 10.9993C27.5491 11.3487 29.1947 12.2245 30.4848 13.5146C31.775 14.8046 32.6507 16.4503 33 18.241M25.7583 3.66602C29.4787 4.07932 32.9479 5.74533 35.5965 8.39053C38.245 11.0357 39.9155 14.5029 40.3333 18.2227M33.9167 38.4993C18.2226 38.4993 5.5 25.7767 5.5 10.0827C5.5 9.37461 5.5259 8.67259 5.5768 7.97752C5.63521 7.17982 5.66441 6.78098 5.87345 6.4179C6.04659 6.1172 6.35342 5.83203 6.66596 5.68131C7.04332 5.49935 7.48345 5.49935 8.36368 5.49935H13.5288C14.269 5.49935 14.6391 5.49935 14.9564 5.62117C15.2366 5.72879 15.4862 5.90358 15.6831 6.1302C15.906 6.38674 16.0325 6.73458 16.2855 7.43023L18.4233 13.3094C18.7176 14.1188 18.8648 14.5235 18.8399 14.9075C18.8179 15.246 18.7022 15.5718 18.506 15.8486C18.2836 16.1625 17.9143 16.3841 17.1758 16.8272L14.6667 18.3327C16.8701 23.189 20.8085 27.1325 25.6667 29.3327L27.1722 26.8236C27.6153 26.0849 27.8368 25.7157 28.1507 25.4933C28.4275 25.2971 28.7533 25.1815 29.0919 25.1595C29.4758 25.1345 29.8806 25.2817 30.69 25.576L36.5691 27.7138C37.2647 27.9668 37.6127 28.0933 37.8691 28.3163C38.0957 28.5132 38.2706 28.7627 38.3781 29.043C38.5 29.3602 38.5 29.7303 38.5 30.4706V35.6357C38.5 36.5159 38.5 36.956 38.3179 37.3333C38.1672 37.6459 37.8822 37.9528 37.5815 38.1259C37.2183 38.3349 36.8196 38.364 36.0219 38.4225C35.3267 38.4735 34.6247 38.4993 33.9167 38.4993Z" stroke="#050048" stroke-width="2" stroke-linecap="round" stroke-linejoin="round"/>
</svg>
