<svg width="28" height="28" viewBox="0 0 28 28" fill="none" xmlns="http://www.w3.org/2000/svg">
<path d="M18.1847 11.8199V10.8762C18.3811 10.9259 18.5281 11.0252 18.6265 11.0749C18.7245 11.1742 18.7735 11.2735 18.7735 11.3729C18.7735 11.6709 18.5776 11.8199 18.1847 11.8199ZM17.8413 9.43584C17.6453 9.38618 17.5474 9.28684 17.4489 9.23717C17.3509 9.13784 17.3019 9.0385 17.3019 8.93917C17.3019 8.64117 17.4979 8.49216 17.8413 8.49216V9.43584ZM19.1659 9.83318C18.6755 9.63451 18.2342 9.53518 18.1847 9.53518V8.4425C18.7245 8.54183 19.3623 8.8895 19.4113 8.93917L19.9511 7.84649C19.7552 7.69749 19.4608 7.59815 19.1659 7.49882C18.8715 7.39948 18.5281 7.30015 18.2342 7.25048V6.50547H17.6943V7.30015C16.9585 7.39948 16.3697 7.69749 16.0753 8.39283C15.9769 8.5915 15.9279 8.83984 15.9279 9.13784C15.9279 9.53518 16.0259 9.83318 16.2713 10.1312C16.5657 10.4292 17.0075 10.5782 17.3999 10.7272L17.7923 10.8265V11.8695C17.5964 11.8199 17.3999 11.8199 17.253 11.7205C17.0075 11.6212 16.6641 11.4722 16.4187 11.3232C16.3203 11.2735 16.2713 11.2239 16.2713 11.1742L15.7314 12.3165C16.3203 12.7139 17.0565 12.9126 17.7433 13.0119V13.9556H18.2831V13.0616C18.7245 13.0616 19.2154 12.9126 19.6077 12.6145C19.8042 12.4655 19.9022 12.3165 20.0496 12.1179C20.2455 11.7205 20.2455 11.0749 20.0986 10.6775C19.9022 10.3299 19.6567 10.0319 19.1659 9.83318Z" fill="#050048"/>
<path d="M17.9398 14.5528C15.5846 14.5528 13.6221 12.6157 13.6221 10.182C13.6221 7.74833 15.5356 5.81131 17.9398 5.81131C20.3441 5.81131 22.208 7.74833 22.208 10.182C22.208 12.6157 20.2946 14.5528 17.9398 14.5528ZM17.9398 4.61929C14.8975 4.61929 12.3955 7.10266 12.3955 10.182C12.3955 13.2614 14.8485 15.7944 17.9398 15.7944C21.0309 15.7944 23.4352 13.3111 23.4352 10.182C23.4352 7.05299 20.9819 4.61929 17.9398 4.61929Z" fill="#050048"/>
<path d="M11.8564 22.1517C11.6111 21.9033 11.2185 21.9033 10.9733 22.1517L6.26313 26.9197C6.01776 27.1681 6.01776 27.5654 6.26313 27.8137C6.5085 28.0621 6.90084 28.0621 7.14621 27.8137L11.8564 23.0457C12.0525 22.7974 12.0525 22.4 11.8564 22.1517Z" fill="#050048"/>
<path d="M11.0245 19.4696C10.7792 19.2213 10.3864 19.2213 10.1415 19.4696L2.78183 26.9197C2.53626 27.1681 2.53626 27.5654 2.78183 27.8137C3.02677 28.0621 3.41954 28.0621 3.66491 27.8137L11.0245 20.3637C11.2697 20.1153 11.2697 19.718 11.0245 19.4696Z" fill="#050048"/>
<path d="M18.5798 19.122V17.632C18.5798 17.2843 18.2854 16.9863 17.942 16.9863C14.2129 16.9863 11.1709 13.9069 11.1709 10.1322C11.1709 9.78453 10.8765 9.48653 10.5332 9.48653C10.1897 9.48653 9.89527 9.78453 9.89527 10.1322C9.89527 14.3539 13.1336 17.8803 17.2552 18.1783V19.0723C12.6429 18.7743 9.01205 14.8506 9.01205 10.1322C9.01205 5.41381 12.6429 1.53976 17.2552 1.19209V2.68211C17.2552 3.02978 17.5497 3.32778 17.893 3.32778C21.6219 3.32778 24.6145 6.40716 24.6145 10.1819C24.6145 10.5295 24.9089 10.8275 25.2523 10.8275C25.5957 10.8275 25.8901 10.5295 25.8901 10.1819C25.8901 5.96015 22.6521 2.43377 18.5304 2.13577V1.24176C23.1429 1.53976 26.7733 5.46348 26.7733 10.1819C26.7733 14.9499 23.1429 18.824 18.5798 19.122ZM27.9999 10.1819C27.9999 4.56947 23.4863 7.43866e-05 17.942 7.43866e-05C12.3977 7.43866e-05 7.88379 4.56947 7.88379 10.1819C7.88379 15.7943 12.3977 20.4133 17.942 20.4133C23.4863 20.4133 27.9999 15.8439 27.9999 10.1819Z" fill="#050048"/>
<path d="M7.29051 17.9789L3.61079 21.7039C3.36541 21.9523 3.36541 22.3496 3.61079 22.5979C3.85597 22.8463 4.24849 22.8463 4.49387 22.5979L8.17378 18.8729C8.41896 18.6245 8.41896 18.2272 8.17378 17.9789C7.92845 17.7305 7.53568 17.7305 7.29051 17.9789Z" fill="#050048"/>
<path d="M16.1277 21.3567C15.8823 21.1083 15.4894 21.1083 15.2445 21.3567L11.6137 25.032C11.3683 25.2804 11.3683 25.6777 11.6137 25.9261C11.859 26.1744 12.2514 26.1744 12.497 25.9261L16.1277 22.2507C16.3731 21.9527 16.3731 21.605 16.1277 21.3567Z" fill="#050048"/>
<path d="M7.78482 14.8503C7.5395 14.602 7.14711 14.602 6.90174 14.8503L0.621675 21.2574C0.376108 21.5057 0.376108 21.9031 0.621675 22.1514C0.867048 22.3997 1.25938 22.3997 1.50475 22.1514L7.83391 15.7443C8.03019 15.496 8.03019 15.0986 7.78482 14.8503Z" fill="#050048"/>
<path d="M1.0673 19.0219L7.15127 12.8631C7.39665 12.6148 7.39665 12.2174 7.15127 11.9691C6.9059 11.7208 6.51357 11.7208 6.26819 11.9691L0.18403 18.1775C-0.0613432 18.4259 -0.0613432 18.8232 0.18403 19.0715C0.429354 19.2702 0.822125 19.2702 1.0673 19.0219Z" fill="#050048"/>
</svg>
