<svg width="31" height="28" viewBox="0 0 31 28" fill="none" xmlns="http://www.w3.org/2000/svg">
<path d="M22.886 3.3102L28.8702 3.25929L28.9227 9.26661C28.2981 8.60479 23.8743 4.27748 22.886 3.3102ZM12.5294 21.4849L8.83405 17.8703C8.57425 17.6158 8.15754 17.6158 7.89722 17.8703L3.68173 21.994L1.49631 19.8558L8.31393 13.1866L12.0088 16.8012C12.2691 17.0558 12.6853 17.0558 12.9456 16.8012L23.8743 6.11022L26.0597 8.24842L12.5294 21.4849ZM30.1718 2.59747C30.1718 2.2411 29.859 1.98656 29.4947 1.98656L21.3241 2.08838C21.0643 2.08838 20.804 2.2411 20.752 2.49565C20.6476 2.7502 20.7001 3.00475 20.9079 3.20838L23.0414 5.29567L12.5294 15.4267L8.83405 11.8121C8.57425 11.5575 8.15754 11.5575 7.89722 11.8121L0.195237 19.4485C-0.0650791 19.703 -0.0650791 20.1103 0.195237 20.3649L3.3175 23.4194C3.57782 23.674 3.99401 23.674 4.25433 23.4194L8.46981 19.2958L12.1652 22.9103C12.4255 23.1649 12.8417 23.1649 13.1015 22.9103L27.101 9.2157L29.2344 11.303C29.3389 11.4048 29.5472 11.5066 29.7031 11.5066C30.0673 11.5066 30.3796 11.2012 30.3277 10.8448L30.1718 2.59747Z" fill="#111727"/>
<path d="M8.31566 4.2737C8.26319 4.22279 8.21123 4.12097 8.21123 4.01916C8.21123 3.81552 8.36763 3.66279 8.6799 3.66279V4.47734C8.52351 4.37552 8.41958 4.32461 8.31566 4.2737ZM8.99218 5.64826C9.14807 5.69917 9.25249 5.75008 9.35641 5.80099C9.46033 5.8519 9.5123 5.95372 9.5123 6.05553C9.5123 6.25917 9.35642 6.36099 8.99218 6.4119V5.64826ZM8.21123 6.31008C8.00338 6.25917 7.69111 6.10644 7.53472 6.00462C7.48276 5.95372 7.43079 5.90281 7.37883 5.90281L6.91016 6.81918C7.43079 7.12463 8.05535 7.32827 8.62794 7.37918V8.14282H9.04415V7.37918C9.2525 7.37918 9.46034 7.32827 9.66869 7.27736C10.0329 7.17554 10.3452 6.9719 10.553 6.61554C10.7094 6.25917 10.7094 5.75008 10.6055 5.44462C10.5011 5.19007 10.2932 4.98644 9.87654 4.7828C9.46034 4.63007 9.09611 4.52825 9.04415 4.52825V3.66279C9.5123 3.7137 10.0329 4.01916 10.0849 4.07007L10.553 3.2046C10.3452 3.10279 10.1369 3.00097 9.87654 2.89915C9.61674 2.79733 9.35642 2.74642 9.09611 2.69551V2.03369H8.62794V2.69551C8.00339 2.79733 7.48275 3.05188 7.22244 3.61188C7.06656 3.91734 7.06655 4.37552 7.17048 4.68098C7.2744 4.98644 7.53472 5.13916 7.79504 5.29189C8.15927 5.44462 8.52351 5.54644 8.6799 5.59735V6.46281C8.52351 6.36099 8.36762 6.36099 8.21123 6.31008Z" fill="#111727"/>
<path d="M8.78729 1.27297C10.9208 1.27297 12.6905 3.00389 12.6905 5.09118C12.6905 7.17847 10.9208 8.90939 8.78729 8.90939C6.65382 8.90939 4.88408 7.17847 4.88408 5.09118C4.88408 3.00389 6.65382 1.27297 8.78729 1.27297ZM8.78729 10.1821C11.6497 10.1821 13.9916 7.8912 13.9916 5.09118C13.9916 2.29116 11.6497 0.000235558 8.78729 0.000235558C5.92535 0.000235558 3.58301 2.29116 3.58301 5.09118C3.58301 7.8912 5.92535 10.1821 8.78729 10.1821Z" fill="#111727"/>
<path d="M23.3005 24.231V23.4674C23.4568 23.5183 23.5608 23.5692 23.6647 23.6201C23.7691 23.671 23.8211 23.7728 23.8211 23.8746C23.8211 24.1292 23.6132 24.231 23.3005 24.231ZM22.9887 22.2455C22.8323 22.1946 22.7284 22.1437 22.6244 22.0928C22.572 22.0419 22.5205 21.9401 22.5205 21.8382C22.5205 21.6346 22.6759 21.4819 22.9887 21.4819V22.2455ZM24.1334 22.6019C23.7172 22.4492 23.3529 22.3473 23.3005 22.3473V21.4819C23.7691 21.5328 24.2892 21.8382 24.3417 21.8892L24.8099 21.0237C24.6015 20.9219 24.3937 20.8201 24.1334 20.7182C23.873 20.6164 23.6132 20.5655 23.3529 20.5146V19.8528H22.8848V20.5146C22.2602 20.5655 21.7396 20.8201 21.4793 21.3801C21.3229 21.7364 21.3229 22.1437 21.4273 22.4492C21.5832 22.9073 22.1038 23.111 22.6244 23.2637L22.9362 23.3655V24.231C22.7798 24.231 22.6245 24.1801 22.4681 24.1292C22.2602 24.0783 21.9474 23.9255 21.7915 23.8237C21.7396 23.7728 21.6871 23.7219 21.6357 23.7219L21.167 24.6383C21.6871 24.9437 22.3117 25.1474 22.8848 25.1983V25.9619H23.3529V25.1983C23.7691 25.1983 24.1334 25.0965 24.4456 24.8419C24.6015 24.7401 24.706 24.5874 24.8099 24.4346C24.9658 24.0783 24.9658 23.5692 24.8618 23.2637C24.7579 23.0092 24.5496 22.7546 24.1334 22.6019Z" fill="#111727"/>
<path d="M23.1008 26.7273C20.9668 26.7273 19.1976 24.9963 19.1976 22.9091C19.1976 20.8218 20.9668 19.0908 23.1008 19.0908C25.2342 19.0908 27.004 20.8218 27.004 22.9091C27.004 24.9963 25.2342 26.7273 23.1008 26.7273ZM23.1008 17.8181C20.2383 17.8181 17.8965 20.109 17.8965 22.9091C17.8965 25.7091 20.2383 28 23.1008 28C25.9627 28 28.305 25.7091 28.305 22.9091C28.305 20.109 25.9627 17.8181 23.1008 17.8181Z" fill="#111727"/>
</svg>
