<svg width="56" height="50" viewBox="0 0 56 50" fill="none" xmlns="http://www.w3.org/2000/svg">
<path d="M43.2256 13.4642C43.2256 11.5974 44.7393 10.0858 46.6064 10.0858C48.4734 10.0858 49.9872 11.5974 49.9872 13.4642C49.9872 15.3336 48.4734 16.8452 46.6064 16.8452C44.7393 16.8452 43.2256 15.3336 43.2256 13.4642Z" stroke="white" stroke-width="1.5" stroke-miterlimit="10"/>
<path d="M39.1895 24.6147C39.1895 21.6904 40.8813 19.1559 43.3445 17.9515C44.3099 18.4856 45.4244 18.7873 46.6086 18.7873C47.793 18.7873 48.9027 18.4856 49.8732 17.9515C52.3313 19.1613 54.0231 21.6904 54.0231 24.6147" stroke="white" stroke-width="1.5" stroke-miterlimit="10" stroke-linecap="round"/>
<path d="M5.03613 37.8504C5.03613 35.9836 6.54961 34.4693 8.41694 34.4693C10.284 34.4693 11.7977 35.9836 11.7977 37.8504C11.7977 39.7172 10.284 41.2314 8.41694 41.2314C6.54961 41.2314 5.03613 39.7172 5.03613 37.8504Z" stroke="white" stroke-width="1.5" stroke-miterlimit="10"/>
<path d="M1 49.0005C1 46.0734 2.69187 43.5416 5.15503 42.3372C6.12021 42.8686 7.23493 43.1731 8.41911 43.1731C9.60355 43.1731 10.7132 42.8686 11.6835 42.3372C14.1418 43.5443 15.8337 46.0734 15.8337 49.0005" stroke="white" stroke-width="1.5" stroke-miterlimit="10" stroke-linecap="round"/>
<path d="M24.8203 37.8504C24.8203 35.9836 26.334 34.4693 28.2011 34.4693C30.0682 34.4693 31.5819 35.9836 31.5819 37.8504C31.5819 39.7172 30.0682 41.2314 28.2011 41.2314C26.334 41.2314 24.8203 39.7172 24.8203 37.8504Z" stroke="white" stroke-width="1.5" stroke-miterlimit="10"/>
<path d="M20.7842 49.0005C20.7842 46.0734 22.476 43.5416 24.9392 42.3372C25.9047 42.8686 27.0191 43.1731 28.2036 43.1731C29.388 43.1731 30.4974 42.8686 31.4679 42.3372C33.926 43.5443 35.6179 46.0734 35.6179 49.0005" stroke="white" stroke-width="1.5" stroke-miterlimit="10" stroke-linecap="round"/>
<path d="M43.6396 37.8504C43.6396 35.9836 45.1531 34.4693 47.0202 34.4693C48.8875 34.4693 50.401 35.9836 50.401 37.8504C50.401 39.7172 48.8875 41.2314 47.0202 41.2314C45.1531 41.2314 43.6396 39.7172 43.6396 37.8504Z" stroke="white" stroke-width="1.5" stroke-miterlimit="10"/>
<path d="M39.6035 49.0005C39.6035 46.0734 41.2954 43.5416 43.7585 42.3372C44.724 42.8686 45.8385 43.1731 47.0229 43.1731C48.2071 43.1731 49.317 42.8686 50.2873 42.3372C52.7453 43.5443 54.4372 46.0734 54.4372 49.0005" stroke="white" stroke-width="1.5" stroke-miterlimit="10" stroke-linecap="round"/>
<path d="M4.62207 3.57509H34.0753V23.0256C34.0753 23.8882 33.3761 24.5879 32.5137 24.5879H6.1836C5.32124 24.5879 4.62207 23.8882 4.62207 23.0256V3.57509Z" stroke="white" stroke-width="1.5" stroke-miterlimit="10"/>
<path d="M12.3115 20.6992H30.1126" stroke="white" stroke-width="1.5" stroke-miterlimit="10"/>
<path d="M27.4014 20.6992H24.2842V10.086H27.4014V20.6992Z" stroke="white" stroke-width="1.5" stroke-miterlimit="10"/>
<path d="M24.2845 20.6992H21.167V12.0142H24.2845V20.6992Z" stroke="white" stroke-width="1.5" stroke-miterlimit="10"/>
<path d="M21.1673 20.6992H18.0498V13.8784H21.1673V20.6992Z" stroke="white" stroke-width="1.5" stroke-miterlimit="10"/>
<path d="M18.0491 20.6992H14.9316V15.5288H18.0491V20.6992Z" stroke="white" stroke-width="1.5" stroke-miterlimit="10"/>
<path d="M37.1571 3.5752H1.34375V1.00066H37.1571V3.5752Z" stroke="white" stroke-width="1.5" stroke-miterlimit="10"/>
</svg>
