<svg width="73" height="46" viewBox="0 0 73 46" fill="none" xmlns="http://www.w3.org/2000/svg">
<path d="M60.7406 1.43148C54.7955 1.43148 49.9736 6.25098 49.9736 12.1987C49.9736 14.6282 50.7802 16.8723 52.1384 18.6734L51.3467 24.918L57.126 22.3425C58.2566 22.7457 59.4739 22.9659 60.7406 22.9659C66.6881 22.9659 71.5099 18.1464 71.5099 12.1987C71.5099 6.25098 66.6881 1.43148 60.7406 1.43148Z" stroke="white" stroke-width="1.5" stroke-miterlimit="10"/>
<path d="M43.5742 31.608C43.5742 29.364 45.3924 27.5456 47.6356 27.5456C49.877 27.5456 51.6954 29.364 51.6954 31.608C51.6954 33.852 49.877 35.668 47.6356 35.668C45.3924 35.668 43.5742 33.852 43.5742 31.608Z" stroke="white" stroke-width="1.5" stroke-miterlimit="10"/>
<path d="M38.7256 45.0029C38.7256 41.4873 40.758 38.4441 43.7169 36.9968C44.8765 37.6376 46.2154 38.0013 47.6382 38.0013C49.0608 38.0013 50.3943 37.6376 51.5595 36.9968C54.5135 38.4491 56.5447 41.4873 56.5447 45.0029" stroke="white" stroke-width="1.5" stroke-miterlimit="10" stroke-linecap="round"/>
<path d="M11.7679 1.00126C17.7149 1.00126 22.5358 5.8208 22.5358 11.7685C22.5358 14.2005 21.73 16.442 20.3716 18.2432L21.1632 24.4902L15.3837 21.9122C14.2533 22.3155 13.0366 22.5382 11.7679 22.5382C5.82086 22.5382 1 17.7162 1 11.7685C1 5.8208 5.82086 1.00126 11.7679 1.00126Z" stroke="white" stroke-width="1.5" stroke-miterlimit="10"/>
<path d="M28.2523 31.608C28.2523 29.364 26.4339 27.5456 24.191 27.5456C21.948 27.5456 20.1299 29.364 20.1299 31.608C20.1299 33.852 21.948 35.668 24.191 35.668C26.4339 35.668 28.2523 33.852 28.2523 31.608Z" stroke="white" stroke-width="1.5" stroke-miterlimit="10"/>
<path d="M15.2822 45.0029C15.2822 41.4873 17.3144 38.4491 20.2674 36.9968C21.4331 37.6376 22.7661 38.0013 24.1887 38.0013C25.6115 38.0013 26.9504 37.6376 28.11 36.9968C31.0689 38.4441 33.1013 41.4873 33.1013 45.0029" stroke="white" stroke-width="1.5" stroke-miterlimit="10" stroke-linecap="round"/>
<path d="M42.5966 22.2559H33.584" stroke="white" stroke-width="1.5" stroke-miterlimit="10" stroke-linecap="round"/>
<path d="M32.7547 18.5866L29.2295 22.2557L32.7547 26.0781" stroke="white" stroke-width="1.5" stroke-miterlimit="10" stroke-linecap="round"/>
<path d="M29.2295 12.1953H38.2421" stroke="white" stroke-width="1.5" stroke-miterlimit="10" stroke-linecap="round"/>
<path d="M39.0713 8.52656L42.5965 12.1956L39.0713 16.0181" stroke="white" stroke-width="1.5" stroke-miterlimit="10" stroke-linecap="round"/>
<path d="M56.1387 9.46338H65.3445" stroke="white" stroke-width="1.5" stroke-miterlimit="10" stroke-linecap="round"/>
<path d="M56.1387 12.6021H65.3445" stroke="white" stroke-width="1.5" stroke-miterlimit="10" stroke-linecap="round"/>
<path d="M56.1387 15.7422H61.4504" stroke="white" stroke-width="1.5" stroke-miterlimit="10" stroke-linecap="round"/>
<path d="M7.16602 9.03174H16.3699" stroke="white" stroke-width="1.5" stroke-miterlimit="10" stroke-linecap="round"/>
<path d="M7.16602 12.1724H16.3699" stroke="white" stroke-width="1.5" stroke-miterlimit="10" stroke-linecap="round"/>
<path d="M7.16602 15.3105H13.2353" stroke="white" stroke-width="1.5" stroke-miterlimit="10" stroke-linecap="round"/>
</svg>
