<svg width="56" height="50" viewBox="0 0 56 50" fill="none" xmlns="http://www.w3.org/2000/svg">
<path d="M12.6236 36.2614C12.6236 34.0972 10.87 32.3437 8.70282 32.3437C6.53868 32.3437 4.78516 34.0972 4.78516 36.2614C4.78516 38.4255 6.53868 40.1821 8.70282 40.1821C10.87 40.1821 12.6236 38.4255 12.6236 36.2614Z" stroke="white" stroke-width="1.5" stroke-miterlimit="10"/>
<path d="M16.4083 46.9712C16.4083 47.6751 16.3126 48.3512 16.1366 48.9995H1.2717C1.09573 48.3512 1 47.6751 1 46.9712C1 44.2174 2.44175 41.8032 4.61515 40.4387C5.61541 41.5717 7.07564 42.2848 8.7026 42.2848C10.3327 42.2848 11.7929 41.5717 12.7901 40.4387C14.9635 41.8032 16.4083 44.2174 16.4083 46.9712Z" stroke="white" stroke-width="1.5" stroke-miterlimit="10"/>
<path d="M31.9986 4.91713C31.9986 2.75299 30.2451 0.999437 28.0809 0.999437C25.9168 0.999437 24.1602 2.75299 24.1602 4.91713C24.1602 7.08126 25.9168 8.83789 28.0809 8.83789C30.2451 8.83789 31.9986 7.08126 31.9986 4.91713Z" stroke="white" stroke-width="1.5" stroke-miterlimit="10"/>
<path d="M35.7833 15.6264C35.7833 16.3303 35.6907 17.0065 35.5116 17.6548H20.6497C20.4707 17.0065 20.375 16.3303 20.375 15.6264C20.375 12.8727 21.8198 10.4585 23.9932 9.09391C24.9904 10.2269 26.4537 10.9401 28.0807 10.9401C29.7076 10.9401 31.171 10.2269 32.1682 9.09391C34.3416 10.4585 35.7833 12.8727 35.7833 15.6264Z" stroke="white" stroke-width="1.5" stroke-miterlimit="10"/>
<path d="M31.9644 36.2614C31.9644 34.0972 30.2109 32.3437 28.0467 32.3437C25.8826 32.3437 24.126 34.0972 24.126 36.2614C24.126 38.4255 25.8826 40.1821 28.0467 40.1821C30.2109 40.1821 31.9644 38.4255 31.9644 36.2614Z" stroke="white" stroke-width="1.5" stroke-miterlimit="10"/>
<path d="M35.7501 46.9712C35.7501 47.6751 35.6575 48.3512 35.4784 48.9995H20.6166C20.4375 48.3512 20.3418 47.6751 20.3418 46.9712C20.3418 44.2174 21.7866 41.8032 23.96 40.4387C24.9572 41.5717 26.4205 42.2848 28.0475 42.2848C29.6745 42.2848 31.1378 41.5717 32.135 40.4387C34.3084 41.8032 35.7501 44.2174 35.7501 46.9712Z" stroke="white" stroke-width="1.5" stroke-miterlimit="10"/>
<path d="M51.3777 36.2614C51.3777 34.0972 49.621 32.3437 47.4569 32.3437C45.2928 32.3437 43.5361 34.0972 43.5361 36.2614C43.5361 38.4255 45.2928 40.1821 47.4569 40.1821C49.621 40.1821 51.3777 38.4255 51.3777 36.2614Z" stroke="white" stroke-width="1.5" stroke-miterlimit="10"/>
<path d="M55.1622 46.9712C55.1622 47.6751 55.0665 48.3512 54.8874 48.9995H40.0256C39.8465 48.3512 39.7539 47.6751 39.7539 46.9712C39.7539 44.2174 41.1956 41.8032 43.369 40.4387C44.3662 41.5717 45.8295 42.2848 47.4565 42.2848C49.0835 42.2848 50.5468 41.5717 51.544 40.4387C53.7174 41.8032 55.1622 44.2174 55.1622 46.9712Z" stroke="white" stroke-width="1.5" stroke-miterlimit="10"/>
<path d="M47.456 29.3369V24.0609H8.70215V29.3369" stroke="white" stroke-width="1.5" stroke-miterlimit="10"/>
<path d="M28.0469 29.3369V19.6894" stroke="white" stroke-width="1.5" stroke-miterlimit="10"/>
</svg>
