<svg width="1440" height="856" viewBox="0 0 1440 856" fill="none" xmlns="http://www.w3.org/2000/svg">
<mask id="mask0_559_20275" style="mask-type:alpha" maskUnits="userSpaceOnUse" x="-440" y="-485" width="2608" height="1919">
<path d="M1010.88 237.104C1010.88 433.45 881.061 592.62 720.921 592.62C560.78 592.62 -439.762 -96.0428 -439.762 -292.389C-439.762 -488.736 997.822 -218.428 1157.96 -218.428C1318.1 -218.428 1010.88 40.7571 1010.88 237.104Z" fill="url(#paint0_linear_559_20275)"/>
<path d="M1123.5 1078.47C1123.5 1274.82 993.681 1433.99 833.54 1433.99C673.399 1433.99 -218.723 1388.22 -218.723 1191.87C-218.723 995.527 -152.778 530.428 7.36247 530.428C167.503 530.428 1123.5 882.124 1123.5 1078.47Z" fill="url(#paint1_radial_559_20275)"/>
<path d="M1452.43 237.642C1884.51 627.894 1684.92 431.776 2056.04 421.896C2114.26 433.111 2213.1 433.644 2142.68 346.055C2054.66 236.569 2083.03 159.239 1973.02 39.9533C1863.02 -79.3321 1796.03 -200.524 1629.95 -390.244C1463.88 -579.964 1451.1 -423.572 1263.88 -438.398C1076.65 -453.223 1162.04 -429.68 903.719 -154.404C645.394 120.872 1020.34 -152.609 1452.43 237.642Z" fill="#D9D9D9"/>
<path d="M1044.5 851.485C466.259 919.563 745.293 898.551 508.282 1184.31C461.496 1220.73 395.996 1294.75 508.282 1299.45C648.64 1305.34 688.142 1377.62 850.352 1373.41C1012.56 1369.21 1147.88 1398.63 1400.02 1398.63C1652.16 1398.63 1542.89 1286.01 1677.37 1154.89C1811.84 1023.78 1737.88 1072.53 1700.9 696.839C1663.92 321.151 1622.74 783.407 1044.5 851.485Z" fill="#D9D9D9"/>
</mask>
<g mask="url(#mask0_559_20275)">
<line x1="-14.9658" y1="729.202" x2="2000.47" y2="729.202" stroke="white" stroke-opacity="0.09" stroke-width="1.68093"/>
<line x1="-14.9658" y1="298.884" x2="2000.47" y2="298.884" stroke="white" stroke-opacity="0.09" stroke-width="1.68093"/>
<line x1="-14.9658" y1="514.041" x2="2000.47" y2="514.041" stroke="white" stroke-opacity="0.09" stroke-width="1.68093"/>
<line x1="-14.9658" y1="83.7235" x2="2000.47" y2="83.7235" stroke="white" stroke-opacity="0.09" stroke-width="1.68093"/>
<line x1="-14.9658" y1="621.621" x2="2000.47" y2="621.621" stroke="white" stroke-opacity="0.09" stroke-width="1.68093"/>
<line x1="-14.9658" y1="191.304" x2="2000.47" y2="191.304" stroke="white" stroke-opacity="0.09" stroke-width="1.68093"/>
<line x1="-14.9658" y1="406.461" x2="2000.47" y2="406.461" stroke="white" stroke-opacity="0.09" stroke-width="1.68093"/>
<line x1="-14.9658" y1="836.781" x2="2000.47" y2="836.781" stroke="white" stroke-opacity="0.09" stroke-width="1.68093"/>
<line x1="14.979" y1="-232.296" x2="14.9789" y2="935.11" stroke="white" stroke-opacity="0.09" stroke-width="1.2607"/>
<line x1="660.459" y1="-232.296" x2="660.459" y2="935.11" stroke="white" stroke-opacity="0.09" stroke-width="1.2607"/>
<line x1="337.719" y1="-232.296" x2="337.719" y2="935.11" stroke="white" stroke-opacity="0.09" stroke-width="1.2607"/>
<line x1="983.196" y1="-232.296" x2="983.196" y2="935.11" stroke="white" stroke-opacity="0.09" stroke-width="1.2607"/>
<line x1="1305.94" y1="-232.296" x2="1305.94" y2="935.11" stroke="white" stroke-opacity="0.09" stroke-width="1.2607"/>
<path d="M176.35 -232.296C176.35 223.605 176.35 479.21 176.35 935.11" stroke="white" stroke-opacity="0.09" stroke-width="1.2607"/>
<line x1="821.825" y1="-232.296" x2="821.825" y2="935.11" stroke="white" stroke-opacity="0.09" stroke-width="1.2607"/>
<line x1="499.09" y1="-232.296" x2="499.09" y2="935.11" stroke="white" stroke-opacity="0.09" stroke-width="1.2607"/>
<line x1="1144.57" y1="-232.296" x2="1144.57" y2="935.11" stroke="white" stroke-opacity="0.09" stroke-width="1.2607"/>
<line x1="95.6665" y1="-232.296" x2="95.6664" y2="935.11" stroke="white" stroke-opacity="0.09" stroke-width="1.2607"/>
<line x1="741.143" y1="-232.296" x2="741.143" y2="935.11" stroke="white" stroke-opacity="0.09" stroke-width="1.2607"/>
<line x1="418.403" y1="-232.296" x2="418.403" y2="935.11" stroke="white" stroke-opacity="0.09" stroke-width="1.2607"/>
<line x1="1063.88" y1="-232.296" x2="1063.88" y2="935.11" stroke="white" stroke-opacity="0.09" stroke-width="1.2607"/>
<line x1="1386.62" y1="-232.296" x2="1386.62" y2="935.11" stroke="white" stroke-opacity="0.09" stroke-width="1.2607"/>
<line x1="257.036" y1="-232.296" x2="257.036" y2="935.11" stroke="white" stroke-opacity="0.09" stroke-width="1.2607"/>
<line x1="902.512" y1="-232.296" x2="902.512" y2="935.11" stroke="white" stroke-opacity="0.09" stroke-width="1.2607"/>
<line x1="579.772" y1="-232.296" x2="579.772" y2="935.11" stroke="white" stroke-opacity="0.09" stroke-width="1.2607"/>
<line x1="1225.25" y1="-232.296" x2="1225.25" y2="935.11" stroke="white" stroke-opacity="0.09" stroke-width="1.2607"/>
<g opacity="0.7">
<rect x="675.134" y="16.8374" width="106.968" height="105.44" fill="#FAFF7A" fill-opacity="0.31"/>
<rect x="1428.5" y="230.774" width="106.968" height="105.44" fill="#24613D" fill-opacity="0.11"/>
<rect x="566.638" y="123.805" width="106.968" height="105.44" fill="#FAFF7A" fill-opacity="0.31"/>
<rect x="1428.5" y="123.805" width="106.968" height="105.44" fill="#24613D" fill-opacity="0.11"/>
<rect x="566.638" y="16.8373" width="106.968" height="105.44" fill="#FAFF7A" fill-opacity="0.31"/>
<rect x="245.733" y="768.671" width="106.968" height="106.968" fill="#24613D" fill-opacity="0.25"/>
<rect x="1321.53" y="-91.6587" width="106.968" height="106.968" fill="#FAFF7A" fill-opacity="0.61"/>
<rect x="1213.39" y="-93.187" width="106.968" height="108.496" fill="#FAFF7A" fill-opacity="0.61"/>
<rect x="245.733" y="13.7808" width="108.496" height="110.025" fill="#FAFF7A" fill-opacity="0.24"/>
<rect x="137.237" y="-93.187" width="108.496" height="106.968" fill="#FAFF7A" fill-opacity="0.24"/>
<rect x="30.2686" y="-91.6587" width="108.496" height="106.968" fill="#FAFF7A" fill-opacity="0.24"/>
<rect x="137.237" y="13.7808" width="108.496" height="110.025" fill="#FAFF7A" fill-opacity="0.24"/>
<path d="M245.733 229.246H352.702V337.742H245.733V229.246Z" fill="#FAFF7A" fill-opacity="0.24"/>
</g>
</g>
<defs>
<linearGradient id="paint0_linear_559_20275" x1="252.782" y1="-194.055" x2="858.757" y2="128.684" gradientUnits="userSpaceOnUse">
<stop stop-color="white"/>
<stop offset="1" stop-color="white" stop-opacity="0"/>
</linearGradient>
<radialGradient id="paint1_radial_559_20275" cx="0" cy="0" r="1" gradientUnits="userSpaceOnUse" gradientTransform="translate(206.553 1086.82) rotate(-29.3932) scale(1036.02 1780.63)">
<stop stop-color="white"/>
<stop offset="1" stop-color="white" stop-opacity="0"/>
</radialGradient>
</defs>
</svg>
