<svg width="20" height="20" viewBox="0 0 20 20" fill="none" xmlns="http://www.w3.org/2000/svg">
<path d="M15 17.9995C14.3333 17.9995 13.7667 17.7662 13.3 17.2995C12.8333 16.8328 12.6 16.2662 12.6 15.5995C12.6 15.5062 12.6067 15.4094 12.62 15.3091C12.6333 15.2088 12.6533 15.119 12.68 15.0395L7.04 11.7595C6.81333 11.9595 6.56 12.1163 6.28 12.2299C6 12.3435 5.70667 12.4 5.4 12.3995C4.73333 12.3995 4.16667 12.1662 3.7 11.6995C3.23333 11.2328 3 10.6662 3 9.99951C3 9.33285 3.23333 8.76618 3.7 8.29951C4.16667 7.83285 4.73333 7.59951 5.4 7.59951C5.70667 7.59951 6 7.65631 6.28 7.76991C6.56 7.88351 6.81333 8.04005 7.04 8.23951L12.68 4.95951C12.6533 4.87951 12.6333 4.78964 12.62 4.68991C12.6067 4.59018 12.6 4.49338 12.6 4.39951C12.6 3.73285 12.8333 3.16618 13.3 2.69951C13.7667 2.23285 14.3333 1.99951 15 1.99951C15.6667 1.99951 16.2333 2.23285 16.7 2.69951C17.1667 3.16618 17.4 3.73285 17.4 4.39951C17.4 5.06618 17.1667 5.63285 16.7 6.09951C16.2333 6.56618 15.6667 6.79951 15 6.79951C14.6933 6.79951 14.4 6.74298 14.12 6.62991C13.84 6.51685 13.5867 6.36004 13.36 6.15951L7.72 9.43951C7.74667 9.51951 7.76667 9.60964 7.78 9.70991C7.79333 9.81018 7.8 9.90671 7.8 9.99951C7.8 10.0928 7.79333 10.1896 7.78 10.2899C7.76667 10.3902 7.74667 10.48 7.72 10.5595L13.36 13.8395C13.5867 13.6395 13.84 13.483 14.12 13.3699C14.4 13.2568 14.6933 13.2 15 13.1995C15.6667 13.1995 16.2333 13.4328 16.7 13.8995C17.1667 14.3662 17.4 14.9328 17.4 15.5995C17.4 16.2662 17.1667 16.8328 16.7 17.2995C16.2333 17.7662 15.6667 17.9995 15 17.9995ZM15 5.19951C15.2267 5.19951 15.4168 5.12271 15.5704 4.96911C15.724 4.81551 15.8005 4.62565 15.8 4.39951C15.8 4.17285 15.7232 3.98271 15.5696 3.82911C15.416 3.67551 15.2261 3.59898 15 3.59951C14.7733 3.59951 14.5832 3.67631 14.4296 3.82991C14.276 3.98351 14.1995 4.17338 14.2 4.39951C14.2 4.62618 14.2768 4.81631 14.4304 4.96991C14.584 5.12351 14.7739 5.20005 15 5.19951ZM5.4 10.7995C5.62667 10.7995 5.8168 10.7227 5.9704 10.5691C6.124 10.4155 6.20053 10.2256 6.2 9.99951C6.2 9.77285 6.1232 9.58271 5.9696 9.42911C5.816 9.27551 5.62613 9.19898 5.4 9.19951C5.17333 9.19951 4.9832 9.27631 4.8296 9.42991C4.676 9.58351 4.59947 9.77338 4.6 9.99951C4.6 10.2262 4.6768 10.4163 4.8304 10.5699C4.984 10.7235 5.17387 10.8 5.4 10.7995ZM15 16.3995C15.2267 16.3995 15.4168 16.3227 15.5704 16.1691C15.724 16.0155 15.8005 15.8256 15.8 15.5995C15.8 15.3728 15.7232 15.1827 15.5696 15.0291C15.416 14.8755 15.2261 14.799 15 14.7995C14.7733 14.7995 14.5832 14.8763 14.4296 15.0299C14.276 15.1835 14.1995 15.3734 14.2 15.5995C14.2 15.8262 14.2768 16.0163 14.4304 16.1699C14.584 16.3235 14.7739 16.4 15 16.3995Z" fill="#0A2351"/>
</svg>
