<svg width="64" height="48" viewBox="0 0 64 48" fill="none" xmlns="http://www.w3.org/2000/svg">
<path d="M49.8696 1.32172e-07C53.5339 -0.000504252 57.0517 1.4426 59.6643 4.01814C62.2769 6.59368 63.7751 10.0953 63.8358 13.768C64.195 17.228 64.1431 22.332 61.8087 28.224C59.4225 34.248 54.7698 40.816 46.2783 47.2C45.8591 47.5152 45.3821 47.7445 44.8744 47.8749C44.3668 48.0052 43.8385 48.0341 43.3198 47.9598C42.2721 47.8098 41.3268 47.2487 40.6918 46.4C40.0568 45.5513 39.7842 44.4845 39.9339 43.4343C40.0835 42.3841 40.6432 41.4365 41.4899 40.8C47.7308 36.108 51.3061 31.548 53.3532 27.56C51.434 28.0541 49.4319 28.1331 47.4799 27.7918C45.5278 27.4506 43.6706 26.6969 42.0315 25.5808C40.3925 24.4647 39.0091 23.0117 37.9733 21.3184C36.9375 19.6252 36.273 17.7303 36.0239 15.7598C35.7748 13.7893 35.9469 11.7882 36.5287 9.88947C37.1104 7.99074 38.0886 6.23784 39.3982 4.74722C40.7078 3.2566 42.3188 2.06237 44.1242 1.24389C45.9296 0.425396 47.8881 0.00137847 49.8696 1.32172e-07ZM13.9565 1.32172e-07C17.6208 -0.000504252 21.1386 1.4426 23.7512 4.01814C26.3638 6.59368 27.862 10.0953 27.9227 13.768C28.2819 17.228 28.23 22.332 25.8956 28.224C23.5134 34.248 18.8567 40.816 10.3652 47.2C9.94599 47.5152 9.46895 47.7445 8.96133 47.8749C8.4537 48.0052 7.92543 48.0341 7.40668 47.9598C6.35901 47.8098 5.41371 47.2487 4.77872 46.4C4.14374 45.5513 3.87109 44.4845 4.02076 43.4343C4.17042 42.3841 4.73015 41.4365 5.57679 40.8C11.8177 36.108 15.393 31.548 17.4401 27.56C15.5209 28.0541 13.5188 28.1331 11.5668 27.7918C9.61475 27.4506 7.75751 26.6969 6.11844 25.5808C4.47937 24.4647 3.09598 23.0117 2.06017 21.3184C1.02436 19.6252 0.35985 17.7303 0.110778 15.7598C-0.138295 13.7893 0.0337733 11.7882 0.615553 9.88947C1.19733 7.99074 2.17551 6.23784 3.48509 4.74722C4.79467 3.2566 6.40569 2.06237 8.21111 1.24389C10.0165 0.425396 11.975 0.00137847 13.9565 1.32172e-07Z" fill="#0A2351" fill-opacity="0.1"/>
</svg>
