<svg width="50" height="42" viewBox="0 0 50 42" fill="none" xmlns="http://www.w3.org/2000/svg">
<path d="M3.62779 30.0871L1.03563 28.4549L1.9523 26.1148L4.97223 26.8176C5.40255 26.237 5.91435 25.7227 6.49491 25.2898L5.81504 22.3056L8.11944 21.2972L9.75671 23.9301C10.1132 23.8766 10.4773 23.8486 10.8491 23.8486C11.2107 23.8486 11.5671 23.8741 11.9134 23.925L13.5431 21.3354L15.8857 22.2521L15.1803 25.272C15.7609 25.6998 16.2778 26.2141 16.7081 26.7947L19.6949 26.1148L20.7007 28.4192L18.0678 30.054C18.1213 30.413 18.1493 30.7771 18.1493 31.1489C18.1493 31.5104 18.1239 31.8644 18.0729 32.2132L20.6651 33.8428L19.7484 36.1829L16.7285 35.4801C16.2982 36.0607 15.7863 36.5776 15.2058 37.0079L15.8857 39.9922L13.5813 41.0005L11.944 38.3676C11.5875 38.4211 11.2234 38.4491 10.8491 38.4491C10.49 38.4491 10.1336 38.4236 9.78727 38.3727L8.15764 40.9623L5.81504 40.0456L6.52037 37.0257C5.93727 36.5979 5.42292 36.0836 4.99259 35.5056L2.00579 36.1829L1 33.881L3.63286 32.2438C3.57939 31.8873 3.5514 31.5206 3.5514 31.1489C3.5514 30.7873 3.57686 30.4334 3.62779 30.0871Z" stroke="#020711" stroke-miterlimit="10"/>
<path d="M6.86401 31.1487C6.86401 28.9462 8.64897 27.1612 10.849 27.1612C13.0515 27.1612 14.8365 28.9462 14.8365 31.1487C14.8365 33.3513 13.0515 35.1362 10.849 35.1362C8.64897 35.1362 6.86401 33.3513 6.86401 31.1487Z" stroke="#020711" stroke-miterlimit="10"/>
<path d="M8.22128 7.42478L6.32685 6.23312L6.99652 4.522L9.20417 5.03636C9.51736 4.61113 9.8942 4.23428 10.3169 3.92109L9.82035 1.73635L11.5035 1.00048L12.7002 2.92548C12.9625 2.88729 13.2298 2.86691 13.4998 2.86691C13.7646 2.86691 14.0243 2.88474 14.2789 2.92293L15.4706 1.02849L17.1817 1.69816L16.6648 3.90581C17.0901 4.219 17.4669 4.59585 17.7826 5.01853L19.9648 4.522L20.7007 6.20511L18.7783 7.40187C18.8164 7.66414 18.8368 7.9315 18.8368 8.2014C18.8368 8.46622 18.8164 8.72594 18.7808 8.98057L20.6752 10.1722L20.003 11.8834L17.7979 11.3665C17.4822 11.7917 17.1079 12.1685 16.6852 12.4843L17.1817 14.6665L15.4961 15.4023L14.2993 13.4799C14.0396 13.5181 13.7722 13.5384 13.4998 13.5384C13.2375 13.5384 12.9778 13.5181 12.7231 13.4824L11.5315 15.3769L9.82035 14.7047L10.3347 12.4996C9.90948 12.1838 9.53264 11.8095 9.2169 11.3868L7.03472 11.8834L6.29883 10.1977L8.22384 9.00349C8.18565 8.74122 8.16526 8.47386 8.16526 8.2014C8.16526 7.93914 8.18309 7.67941 8.22128 7.42478Z" stroke="#020711" stroke-miterlimit="10"/>
<path d="M11.5034 8.2016C11.5034 7.09905 12.3972 6.2053 13.4997 6.2053C14.6048 6.2053 15.4985 7.09905 15.4985 8.2016C15.4985 9.30669 14.6048 10.2004 13.4997 10.2004C12.3972 10.2004 11.5034 9.30669 11.5034 8.2016Z" stroke="#020711" stroke-miterlimit="10"/>
<path d="M25.5412 23.6729L21.5129 22.6645L21.7065 19.2601L25.8951 18.8935C26.2032 17.9615 26.6463 17.0805 27.2116 16.2784L25.0752 12.7187L27.619 10.4474L30.84 13.149C31.278 12.9275 31.7363 12.7391 32.2176 12.5812C32.6836 12.4284 33.1521 12.3113 33.6206 12.2298L34.6264 8.20156L38.0308 8.39508L38.4 12.5837C39.3319 12.8918 40.213 13.3349 41.0125 13.9002L44.5748 11.7638L46.8461 14.3076L44.1444 17.5312C44.3634 17.9666 44.5544 18.4275 44.7123 18.9062C44.8651 19.3722 44.9796 19.8407 45.0611 20.3092L49.0894 21.3175L48.8984 24.7219L44.7072 25.0886C44.3991 26.0206 43.956 26.9016 43.3907 27.7037L45.5296 31.2634L42.9859 33.5347L39.7623 30.8331C39.3243 31.052 38.866 31.243 38.3873 31.4009C37.9213 31.5537 37.4528 31.6682 36.9817 31.7523L35.9759 35.7805L32.5715 35.587L32.2023 31.3958C31.2729 31.0902 30.3919 30.6446 29.5898 30.0819L26.0275 32.2182L23.7562 29.6745L26.4579 26.4509C26.2389 26.0155 26.0479 25.5546 25.8926 25.0759C25.7398 24.6099 25.6227 24.1414 25.5412 23.6729Z" stroke="#020711" stroke-miterlimit="10"/>
<path d="M30.1627 23.6754C29.2308 20.8363 30.7789 17.7807 33.6155 16.8513C36.4546 15.9194 39.5102 17.4675 40.4422 20.3066C41.3716 23.1458 39.8259 26.2013 36.9868 27.1307C34.1477 28.0601 31.0921 26.5145 30.1627 23.6754Z" stroke="#020711" stroke-miterlimit="10"/>
</svg>
