<svg width="51" height="42" viewBox="0 0 51 42" fill="none" xmlns="http://www.w3.org/2000/svg">
<path d="M14.0079 27.3868C14.0079 24.9642 12.0436 22.9998 9.62103 22.9998C7.1985 22.9998 5.23413 24.9642 5.23413 27.3868C5.23413 29.8093 7.1985 31.7737 9.62103 31.7737C12.0436 31.7737 14.0079 29.8093 14.0079 27.3868Z" stroke="#020711" stroke-miterlimit="10"/>
<path d="M18.2422 38.7297C18.2422 39.5172 18.1373 40.2778 17.9367 40.9995H1.30544C1.10481 40.2778 1 39.5172 1 38.7297C1 35.6484 2.61401 32.9473 5.04552 31.4231C6.16246 32.6898 7.80045 33.4893 9.62109 33.4893C11.4417 33.4893 13.0797 32.6898 14.1936 31.4231C16.6281 32.9473 18.2422 35.6484 18.2422 38.7297Z" stroke="#020711" stroke-miterlimit="10"/>
<path d="M30.4506 5.3831C30.4506 2.96056 28.4862 0.99917 26.0637 0.99917C23.6411 0.99917 21.6768 2.96056 21.6768 5.3831C21.6768 7.80564 23.6411 9.77002 26.0637 9.77002C28.4862 9.77002 30.4506 7.80564 30.4506 5.3831Z" stroke="#020711" stroke-miterlimit="10"/>
<path d="M34.6848 16.7293C34.6848 17.5138 34.58 18.2744 34.3794 18.9961H17.7481C17.5474 18.2744 17.4426 17.5138 17.4426 16.7293C17.4426 13.6449 19.0567 10.9439 21.4882 9.41972C22.6051 10.6864 24.2431 11.4859 26.0637 11.4859C27.8844 11.4859 29.5193 10.6864 30.6363 9.41972C33.0708 10.9439 34.6848 13.6449 34.6848 16.7293Z" stroke="#020711" stroke-miterlimit="10"/>
<path d="M45.8692 27.3868C45.8692 24.9642 43.9078 22.9998 41.4853 22.9998C39.0628 22.9998 37.0984 24.9642 37.0984 27.3868C37.0984 29.8093 39.0628 31.7737 41.4853 31.7737C43.9078 31.7737 45.8692 29.8093 45.8692 27.3868Z" stroke="#020711" stroke-miterlimit="10"/>
<path d="M50.1064 38.7297C50.1064 39.5172 49.9986 40.2778 49.801 40.9995H33.1667C32.9691 40.2778 32.8643 39.5172 32.8643 38.7297C32.8643 35.6484 34.4783 32.9473 36.9098 31.4231C38.0267 32.6898 39.6617 33.4893 41.4854 33.4893C43.306 33.4893 44.9409 32.6898 46.0579 31.4231C48.4894 32.9473 50.1064 35.6484 50.1064 38.7297Z" stroke="#020711" stroke-miterlimit="10"/>
<path d="M26.0637 21.4636V28.2222" stroke="#020711" stroke-miterlimit="10"/>
<path d="M20.2095 31.6001L26.0637 28.2223" stroke="#020711" stroke-miterlimit="10"/>
<path d="M31.9149 31.6001L26.0637 28.2223" stroke="#020711" stroke-miterlimit="10"/>
</svg>
