<svg width="42" height="42" viewBox="0 0 42 42" fill="none" xmlns="http://www.w3.org/2000/svg">
<path d="M6.6499 38.1746V0.999423H40.9884V38.1746" stroke="#020711" stroke-width="0.822563" stroke-miterlimit="10" stroke-linecap="round"/>
<path d="M3.82715 40.9995H38.1562C39.7167 40.9995 40.9882 39.7351 40.9882 38.1746" stroke="#020711" stroke-width="0.822563" stroke-miterlimit="10" stroke-linecap="round"/>
<path d="M1.00244 38.1746C1.00244 39.7351 2.26449 40.9995 3.82736 40.9995C5.38788 40.9995 6.64992 39.7351 6.64992 38.1746" stroke="#020711" stroke-width="0.822563" stroke-miterlimit="10" stroke-linecap="round"/>
<path d="M1 38.1721V26.7502H6.65452" stroke="#020711" stroke-width="0.822563" stroke-miterlimit="10" stroke-linecap="round"/>
<path d="M15.1722 9.51001C15.1722 9.57219 15.1613 9.6276 15.1397 9.67626C15.1181 9.72492 15.0884 9.76547 15.0505 9.79791C15.0154 9.83034 14.9721 9.85467 14.9208 9.87089C14.8721 9.88441 14.8221 9.89117 14.7707 9.89117H14.3166C14.222 9.89117 14.1395 9.88171 14.0692 9.86278C14.0017 9.84386 13.9381 9.81007 13.8787 9.76141C13.8219 9.71005 13.7665 9.64247 13.7124 9.55867C13.6584 9.47217 13.5975 9.36134 13.53 9.22617L12.2243 6.773C12.1486 6.62703 12.0716 6.47024 11.9932 6.30264C11.9148 6.13234 11.8445 5.96744 11.7823 5.80795H11.7742C11.785 6.00259 11.7931 6.19722 11.7985 6.39185C11.8039 6.58378 11.8067 6.78246 11.8067 6.98791V9.73303C11.8067 9.76006 11.7985 9.78439 11.7823 9.80601C11.7688 9.82764 11.7431 9.84656 11.7053 9.86278C11.6701 9.8763 11.6215 9.88711 11.5593 9.89522C11.4971 9.90333 11.4174 9.90739 11.3201 9.90739C11.2255 9.90739 11.1471 9.90333 11.0849 9.89522C11.0227 9.88711 10.9741 9.8763 10.9389 9.86278C10.9038 9.84656 10.8794 9.82764 10.8659 9.80601C10.8524 9.78439 10.8457 9.76006 10.8457 9.73303V5.01726C10.8457 4.89021 10.8822 4.7956 10.9551 4.73342C11.0308 4.66855 11.1227 4.63611 11.2309 4.63611H11.8026C11.9053 4.63611 11.9918 4.64557 12.0621 4.66449C12.1324 4.68071 12.1946 4.70909 12.2486 4.74964C12.3054 4.79019 12.3581 4.84696 12.4068 4.91995C12.4554 4.99023 12.5054 5.07808 12.5568 5.18351L13.5786 7.10144C13.6381 7.21768 13.6962 7.33257 13.753 7.4461C13.8124 7.55694 13.8692 7.66912 13.9233 7.78266C13.9773 7.89349 14.03 8.00297 14.0814 8.1111C14.1328 8.21923 14.1828 8.32735 14.2314 8.43548H14.2355C14.2274 8.24626 14.2206 8.04892 14.2152 7.84348C14.2125 7.63803 14.2112 7.44205 14.2112 7.25553V4.79425C14.2112 4.76721 14.2193 4.74289 14.2355 4.72126C14.2517 4.69963 14.2787 4.68071 14.3166 4.66449C14.3544 4.64827 14.4044 4.63746 14.4666 4.63205C14.5288 4.62394 14.6085 4.61989 14.7059 4.61989C14.7978 4.61989 14.8748 4.62394 14.937 4.63205C14.9992 4.63746 15.0465 4.64827 15.0789 4.66449C15.114 4.68071 15.1384 4.69963 15.1519 4.72126C15.1654 4.74289 15.1722 4.76721 15.1722 4.79425V9.51001ZM19.4297 9.46541C19.4297 9.5438 19.4257 9.61003 19.4176 9.6641C19.4122 9.71546 19.4027 9.75736 19.3892 9.7898C19.3757 9.82223 19.3581 9.84656 19.3365 9.86278C19.3175 9.8763 19.2959 9.88306 19.2716 9.88306H16.636C16.5467 9.88306 16.4711 9.85738 16.4089 9.80601C16.3494 9.75195 16.3197 9.66545 16.3197 9.54651V4.97266C16.3197 4.85372 16.3494 4.76857 16.4089 4.7172C16.4711 4.66314 16.5467 4.63611 16.636 4.63611H19.2554C19.2797 4.63611 19.3013 4.64287 19.3202 4.65638C19.3392 4.6699 19.3554 4.69423 19.3689 4.72937C19.3824 4.76181 19.3919 4.80506 19.3973 4.85912C19.4054 4.91048 19.4095 4.97671 19.4095 5.05781C19.4095 5.1335 19.4054 5.19838 19.3973 5.25244C19.3919 5.3038 19.3824 5.3457 19.3689 5.37814C19.3554 5.41058 19.3392 5.43491 19.3202 5.45113C19.3013 5.46464 19.2797 5.4714 19.2554 5.4714H17.382V6.75273H18.9675C18.9918 6.75273 19.0134 6.76084 19.0324 6.77706C19.054 6.79057 19.0716 6.81355 19.0851 6.84599C19.0986 6.87573 19.108 6.91763 19.1135 6.97169C19.1216 7.02305 19.1256 7.08658 19.1256 7.16227C19.1256 7.24066 19.1216 7.30554 19.1135 7.3569C19.108 7.40826 19.0986 7.45016 19.0851 7.4826C19.0716 7.51233 19.054 7.53396 19.0324 7.54748C19.0134 7.56099 18.9918 7.56775 18.9675 7.56775H17.382V9.04776H19.2716C19.2959 9.04776 19.3175 9.05587 19.3365 9.07209C19.3581 9.08561 19.3757 9.10858 19.3892 9.14102C19.4027 9.17346 19.4122 9.21671 19.4176 9.27078C19.4257 9.32214 19.4297 9.38702 19.4297 9.46541ZM25.8972 9.61138C25.881 9.67626 25.858 9.72897 25.8283 9.76952C25.8012 9.80737 25.7593 9.8371 25.7026 9.85873C25.6458 9.87765 25.5728 9.88981 25.4836 9.89522C25.3944 9.90333 25.2808 9.90739 25.143 9.90739C24.9889 9.90739 24.8646 9.90333 24.7699 9.89522C24.678 9.88981 24.605 9.87765 24.551 9.85873C24.4969 9.8371 24.4577 9.80737 24.4334 9.76952C24.4091 9.72897 24.3901 9.67626 24.3766 9.61138L23.5373 6.28642H23.5292L22.7344 9.61138C22.7209 9.67356 22.702 9.72492 22.6776 9.76547C22.6533 9.80331 22.6141 9.83305 22.5601 9.85467C22.5087 9.8763 22.4371 9.88981 22.3452 9.89522C22.2559 9.90333 22.137 9.90739 21.9883 9.90739C21.8315 9.90739 21.7058 9.90333 21.6112 9.89522C21.5193 9.88981 21.4463 9.87765 21.3923 9.85873C21.3382 9.8371 21.299 9.80737 21.2747 9.76952C21.2503 9.72897 21.2301 9.67626 21.2139 9.61138L20.0217 5.03348C19.9974 4.93617 19.9839 4.86048 19.9812 4.80641C19.9785 4.74964 19.9934 4.70639 20.0258 4.67666C20.0609 4.64692 20.1163 4.62935 20.192 4.62394C20.2704 4.61583 20.3786 4.61178 20.5164 4.61178C20.6435 4.61178 20.7435 4.61448 20.8165 4.61989C20.8922 4.62259 20.9489 4.63205 20.9868 4.64827C21.0246 4.66179 21.0503 4.68341 21.0638 4.71315C21.0773 4.74018 21.0882 4.77938 21.0963 4.83074L22.0167 8.84908H22.0208L22.9777 4.85912C22.9885 4.80776 23.002 4.76586 23.0183 4.73342C23.0372 4.70099 23.0669 4.67666 23.1075 4.66044C23.1507 4.64151 23.2088 4.62935 23.2818 4.62394C23.3548 4.61583 23.4521 4.61178 23.5738 4.61178C23.7035 4.61178 23.8062 4.61448 23.8819 4.61989C23.9603 4.6253 24.0198 4.63746 24.0603 4.65638C24.1036 4.6726 24.1347 4.69693 24.1536 4.72937C24.1725 4.76181 24.1874 4.80506 24.1982 4.85912L25.1876 8.84908H25.1957L26.1161 4.8429C26.1243 4.79965 26.1351 4.76316 26.1486 4.73342C26.1621 4.70099 26.1878 4.67666 26.2256 4.66044C26.2635 4.64151 26.3175 4.62935 26.3878 4.62394C26.4581 4.61583 26.5568 4.61178 26.6838 4.61178C26.8028 4.61178 26.8947 4.61583 26.9595 4.62394C27.0271 4.62935 27.0758 4.64692 27.1055 4.67666C27.1353 4.70639 27.1474 4.75099 27.142 4.81047C27.1393 4.86723 27.1258 4.94563 27.1015 5.04565L25.8972 9.61138ZM30.9698 8.30978C30.9698 8.58551 30.9184 8.82745 30.8157 9.0356C30.713 9.24375 30.5738 9.4181 30.398 9.55867C30.2223 9.69653 30.0169 9.80061 29.7817 9.87089C29.5465 9.94118 29.2951 9.97632 29.0275 9.97632C28.8464 9.97632 28.6774 9.96145 28.5207 9.93171C28.3666 9.90198 28.2301 9.86684 28.1111 9.82629C27.9922 9.78304 27.8922 9.73843 27.8111 9.69248C27.7327 9.64652 27.6759 9.60598 27.6408 9.57083C27.6056 9.53569 27.5799 9.48568 27.5637 9.42081C27.5502 9.35323 27.5434 9.25726 27.5434 9.13291C27.5434 9.04911 27.5461 8.97883 27.5516 8.92206C27.557 8.86529 27.5651 8.81934 27.5759 8.7842C27.5894 8.74906 27.6056 8.72473 27.6245 8.71121C27.6462 8.69499 27.6705 8.68688 27.6975 8.68688C27.7354 8.68688 27.7881 8.70986 27.8557 8.75581C27.9259 8.79907 28.0152 8.84772 28.1233 8.90179C28.2314 8.95585 28.3598 9.00586 28.5085 9.05182C28.6599 9.09507 28.8342 9.11669 29.0316 9.11669C29.1613 9.11669 29.2776 9.10183 29.3803 9.07209C29.483 9.03965 29.5695 8.99505 29.6398 8.93828C29.7128 8.88151 29.7682 8.81123 29.806 8.72743C29.8439 8.64363 29.8628 8.55037 29.8628 8.44765C29.8628 8.32871 29.8304 8.22733 29.7655 8.14353C29.7006 8.05703 29.6155 7.98134 29.51 7.91646C29.4073 7.84888 29.2897 7.78671 29.1573 7.72994C29.0248 7.67047 28.8883 7.6083 28.7477 7.54342C28.6072 7.47854 28.4706 7.40556 28.3382 7.32446C28.2057 7.24066 28.0868 7.14199 27.9814 7.02846C27.8786 6.91222 27.7948 6.77571 27.73 6.61892C27.6651 6.46213 27.6326 6.27426 27.6326 6.0553C27.6326 5.8039 27.6786 5.58359 27.7705 5.39436C27.8651 5.20243 27.9908 5.04429 28.1476 4.91995C28.3071 4.79289 28.4936 4.69828 28.7072 4.63611C28.9234 4.57393 29.1519 4.54285 29.3924 4.54285C29.5168 4.54285 29.6411 4.55231 29.7655 4.57123C29.8898 4.59015 30.0061 4.61583 30.1142 4.64827C30.2223 4.68071 30.3183 4.7172 30.4021 4.75775C30.4859 4.7983 30.5413 4.83209 30.5683 4.85912C30.5954 4.88616 30.6129 4.90913 30.6211 4.92806C30.6319 4.94698 30.64 4.97266 30.6454 5.0051C30.6535 5.03483 30.6589 5.07403 30.6616 5.12269C30.6643 5.16864 30.6657 5.22676 30.6657 5.29705C30.6657 5.37544 30.663 5.44167 30.6576 5.49573C30.6548 5.5498 30.6481 5.5944 30.6373 5.62954C30.6292 5.66468 30.6157 5.69036 30.5967 5.70658C30.5805 5.7228 30.5575 5.73091 30.5278 5.73091C30.4981 5.73091 30.4508 5.71199 30.3859 5.67414C30.321 5.6363 30.2413 5.59575 30.1466 5.5525C30.052 5.50654 29.9426 5.466 29.8182 5.43085C29.6939 5.39301 29.5573 5.37409 29.4087 5.37409C29.2924 5.37409 29.1911 5.38895 29.1046 5.41869C29.018 5.44572 28.9451 5.48492 28.8856 5.53628C28.8288 5.58494 28.7856 5.64441 28.7558 5.71469C28.7288 5.78498 28.7153 5.85931 28.7153 5.93771C28.7153 6.05395 28.7464 6.15532 28.8085 6.24182C28.8734 6.32562 28.9586 6.40131 29.064 6.46889C29.1721 6.53377 29.2938 6.59594 29.4289 6.65541C29.5641 6.71218 29.702 6.773 29.8425 6.83788C29.9831 6.90276 30.121 6.9771 30.2561 7.0609C30.3913 7.14199 30.5116 7.24066 30.617 7.3569C30.7224 7.47043 30.8076 7.60559 30.8725 7.76238C30.9373 7.91646 30.9698 8.09893 30.9698 8.30978Z" fill="#020711"/>
<path d="M35.5146 21.2766H10.8472V15.098H35.5146V21.2766Z" stroke="#020711" stroke-width="0.822563" stroke-miterlimit="10" stroke-linecap="round"/>
<path d="M10.8472 25.627H21.5099" stroke="#020711" stroke-width="0.822563" stroke-miterlimit="10" stroke-linecap="round"/>
<path d="M10.8472 28.5081H21.5099" stroke="#020711" stroke-width="0.822563" stroke-miterlimit="10" stroke-linecap="round"/>
<path d="M10.8472 31.5281H21.5099" stroke="#020711" stroke-width="0.822563" stroke-miterlimit="10" stroke-linecap="round"/>
<path d="M10.8472 34.8513H21.5099" stroke="#020711" stroke-width="0.822563" stroke-miterlimit="10" stroke-linecap="round"/>
<path d="M24.8521 25.627H35.5148" stroke="#020711" stroke-width="0.822563" stroke-miterlimit="10" stroke-linecap="round"/>
<path d="M24.8521 28.5081H35.5148" stroke="#020711" stroke-width="0.822563" stroke-miterlimit="10" stroke-linecap="round"/>
<path d="M24.8521 31.5281H35.5148" stroke="#020711" stroke-width="0.822563" stroke-miterlimit="10" stroke-linecap="round"/>
<path d="M24.8521 34.8513H35.5148" stroke="#020711" stroke-width="0.822563" stroke-miterlimit="10" stroke-linecap="round"/>
</svg>
