<svg width="51" height="43" viewBox="0 0 51 43" fill="none" xmlns="http://www.w3.org/2000/svg">
<path d="M42.4265 22.4842V34.2884C42.4265 34.9845 41.8581 35.5481 41.162 35.5481H5.98551C5.28944 35.5481 4.72583 34.9845 4.72583 34.2884V10.6777C4.72583 9.98162 5.28944 9.4132 5.98551 9.4132H28.8954" stroke="#020711" stroke-miterlimit="10"/>
<path d="M46.1502 38.4551H1V40.7384C1 41.4345 1.56599 42.0005 2.26205 42.0005H44.8881C45.5842 42.0005 46.1502 41.4345 46.1502 40.7384V38.4551Z" stroke="#020711" stroke-miterlimit="10"/>
<path d="M39.5701 22.8745V32.458H7.57764V12.5082H28.6137" stroke="#020711" stroke-miterlimit="10"/>
<path d="M40.7984 1.07495C34.7988 0.376481 29.37 4.67569 28.6739 10.6753C28.3175 13.7341 29.264 16.6461 31.0704 18.8571L29.7023 23.2502L33.7198 21.2006C35.0565 22.0412 36.598 22.6048 38.2719 22.7998C44.2715 23.4983 49.7004 19.1991 50.3964 13.1995C51.0949 7.20223 46.7981 1.77343 40.7984 1.07495Z" stroke="#020711" stroke-miterlimit="10"/>
<path d="M42.4723 15.7188L36.5979 11.8699" stroke="#020711" stroke-miterlimit="10"/>
<path d="M36.5979 11.8699L42.4723 8.01863" stroke="#020711" stroke-miterlimit="10"/>
<path d="M34.8831 11.8699C34.8831 10.9209 35.6514 10.1526 36.5979 10.1526C37.5445 10.1526 38.3128 10.9209 38.3128 11.8699C38.3128 12.8164 37.5445 13.5847 36.5979 13.5847C35.6514 13.5847 34.8831 12.8164 34.8831 11.8699Z" stroke="#020711" stroke-miterlimit="10"/>
<path d="M40.7092 8.01877C40.7092 7.07222 41.4776 6.30389 42.4265 6.30389C43.3731 6.30389 44.1414 7.07222 44.1414 8.01877C44.1414 8.96532 43.3731 9.73364 42.4265 9.73364C41.4776 9.73364 40.7092 8.96532 40.7092 8.01877Z" stroke="#020711" stroke-miterlimit="10"/>
<path d="M40.7092 15.719C40.7092 14.7724 41.4776 14.0041 42.4265 14.0041C43.3731 14.0041 44.1414 14.7724 44.1414 15.719C44.1414 16.6655 43.3731 17.4338 42.4265 17.4338C41.4776 17.4338 40.7092 16.6655 40.7092 15.719Z" stroke="#020711" stroke-miterlimit="10"/>
</svg>
