<svg width="52" height="43" viewBox="0 0 52 43" fill="none" xmlns="http://www.w3.org/2000/svg">
<path d="M15.9756 42.0005H35.9195" stroke="#020711" stroke-miterlimit="10" stroke-linecap="round"/>
<path d="M48.8366 1.00054H3.05846C1.92155 1.00054 1 1.92284 1 3.05852V34.1439C1 35.2821 1.92155 36.2043 3.05846 36.2043H48.8366C49.9723 36.2043 50.8946 35.2821 50.8946 34.1439V3.05852C50.8946 1.92284 49.9723 1.00054 48.8366 1.00054Z" stroke="#020711" stroke-miterlimit="10" stroke-linecap="round"/>
<path d="M28.5715 36.2043L31.1721 42.0005" stroke="#020711" stroke-miterlimit="10" stroke-linecap="round"/>
<path d="M23.3235 36.2043L20.7229 42.0005" stroke="#020711" stroke-miterlimit="10" stroke-linecap="round"/>
<path d="M50.8971 31.6372H1.0022" stroke="#020711" stroke-miterlimit="10" stroke-linecap="round"/>
<path d="M24.9492 33.9624C24.9492 33.4105 25.3974 32.9616 25.9502 32.9616C26.5029 32.9616 26.951 33.4105 26.951 33.9624C26.951 34.5167 26.5029 34.9631 25.9502 34.9631C25.3974 34.9631 24.9492 34.5167 24.9492 33.9624Z" stroke="#020711" stroke-miterlimit="10" stroke-linecap="round"/>
<path d="M6.12695 10.4321H26.496" stroke="#020711" stroke-miterlimit="10"/>
<path d="M6.12695 13.064H26.496" stroke="#020711" stroke-miterlimit="10"/>
<path d="M6.12695 22.0635H26.496" stroke="#020711" stroke-miterlimit="10"/>
<path d="M6.12695 24.6956H26.496" stroke="#020711" stroke-miterlimit="10"/>
<path d="M29.8059 11.9725C29.8059 9.96354 31.4361 8.33239 33.447 8.33239C35.4576 8.33239 37.0875 9.96354 37.0875 11.9725C37.0875 13.9838 35.4576 15.615 33.447 15.615C31.4361 15.615 29.8059 13.9838 29.8059 11.9725Z" stroke="#020711" stroke-miterlimit="10"/>
<path d="M31.6343 12.0655L32.6787 13.2012L35.2596 10.7434" stroke="#020711" stroke-miterlimit="10"/>
<path d="M29.8059 23.0276C29.8059 21.0163 31.4361 19.3875 33.447 19.3875C35.4576 19.3875 37.0875 21.0163 37.0875 23.0276C37.0875 25.039 35.4576 26.6677 33.447 26.6677C31.4361 26.6677 29.8059 25.039 29.8059 23.0276Z" stroke="#020711" stroke-miterlimit="10"/>
<path d="M39.3035 11.9725C39.3035 9.96354 40.9334 8.33239 42.9448 8.33239C44.9561 8.33239 46.5849 9.96354 46.5849 11.9725C46.5849 13.9838 44.9561 15.615 42.9448 15.615C40.9334 15.615 39.3035 13.9838 39.3035 11.9725Z" stroke="#020711" stroke-miterlimit="10"/>
<path d="M39.3035 23.0276C39.3035 21.0163 40.9334 19.3875 42.9448 19.3875C44.9561 19.3875 46.5849 21.0163 46.5849 23.0276C46.5849 25.039 44.9561 26.6677 42.9448 26.6677C40.9334 26.6677 39.3035 25.039 39.3035 23.0276Z" stroke="#020711" stroke-miterlimit="10"/>
<path d="M1.0022 4.28491H50.8946" stroke="#020711" stroke-miterlimit="10"/>
<path d="M41.1077 21.1561L44.7796 24.9016" stroke="#020711" stroke-miterlimit="10"/>
<path d="M44.7796 21.1561L41.1077 24.9016" stroke="#020711" stroke-miterlimit="10"/>
</svg>
