<svg width="40" height="42" viewBox="0 0 40 42" fill="none" xmlns="http://www.w3.org/2000/svg">
<path d="M39.2984 41.0002H1V36.3917H39.2984V41.0002Z" stroke="#020711" stroke-miterlimit="10"/>
<path d="M7.96349 22.0297V33.2473H3.35498V22.0297H7.96349Z" stroke="#020711" stroke-miterlimit="10"/>
<path d="M17.6922 15.6548V33.2473H13.0837V15.6548H17.6922Z" stroke="#020711" stroke-miterlimit="10"/>
<path d="M36.9433 10.8953V33.2473H32.3379V10.8953H36.9433Z" stroke="#020711" stroke-miterlimit="10"/>
<path d="M27.2145 19.1012V33.2473H22.6091V19.1012H27.2145Z" stroke="#020711" stroke-miterlimit="10"/>
<path d="M5.66089 14.3635L15.3865 7.98869L24.9118 11.435L34.6405 3.3062" stroke="#020711" stroke-miterlimit="10"/>
<path d="M13.0837 7.98856C13.0837 6.71544 14.1164 5.68584 15.3865 5.68584C16.6596 5.68584 17.6922 6.71544 17.6922 7.98856C17.6922 9.26168 16.6596 10.2913 15.3865 10.2913C14.1164 10.2913 13.0837 9.26168 13.0837 7.98856Z" stroke="#020711" stroke-miterlimit="10"/>
<path d="M22.6091 11.4348C22.6091 10.1617 23.6387 9.12904 24.9118 9.12904C26.185 9.12904 27.2145 10.1617 27.2145 11.4348C27.2145 12.7049 26.185 13.7375 24.9118 13.7375C23.6387 13.7375 22.6091 12.7049 22.6091 11.4348Z" stroke="#020711" stroke-miterlimit="10"/>
<path d="M32.3379 3.30594C32.3379 2.03282 33.3675 1.00014 34.6406 1.00014C35.9137 1.00014 36.9433 2.03282 36.9433 3.30594C36.9433 4.57598 35.9137 5.60864 34.6406 5.60864C33.3675 5.60864 32.3379 4.57598 32.3379 3.30594Z" stroke="#020711" stroke-miterlimit="10"/>
<path d="M3.35498 14.3633C3.35498 13.0902 4.38768 12.0606 5.6608 12.0606C6.93084 12.0606 7.96349 13.0902 7.96349 14.3633C7.96349 15.6364 6.93084 16.666 5.6608 16.666C4.38768 16.666 3.35498 15.6364 3.35498 14.3633Z" stroke="#020711" stroke-miterlimit="10"/>
</svg>
