<svg width="20" height="20" viewBox="0 0 20 20" fill="none" xmlns="http://www.w3.org/2000/svg">
<path d="M6.92823 6.13231L1.7016 6.88135L1.60902 6.89998C1.46889 6.93675 1.34113 7.00963 1.23881 7.11117C1.13649 7.21271 1.06326 7.33927 1.02661 7.47793C0.989956 7.6166 0.99119 7.76239 1.03018 7.90043C1.06918 8.03847 1.14454 8.1638 1.24857 8.26364L5.03501 11.9068L4.14206 17.0529L4.13141 17.142C4.12283 17.2853 4.15292 17.4282 4.21861 17.5562C4.2843 17.6842 4.38322 17.7926 4.50525 17.8704C4.62727 17.9482 4.76801 17.9925 4.91306 17.9988C5.05812 18.0051 5.20226 17.9733 5.33075 17.9064L10.0052 15.4771L14.669 17.9064L14.751 17.9437C14.8862 17.9963 15.0331 18.0124 15.1768 17.9904C15.3204 17.9684 15.4555 17.909 15.5682 17.8184C15.681 17.7277 15.7673 17.609 15.8183 17.4745C15.8693 17.34 15.8832 17.1945 15.8586 17.0529L14.9648 11.9068L18.7529 8.26283L18.8168 8.194C18.908 8.08287 18.9679 7.94981 18.9902 7.80838C19.0125 7.66694 18.9965 7.52219 18.9438 7.38886C18.8911 7.25554 18.8036 7.1384 18.6902 7.04939C18.5768 6.96038 18.4415 6.90268 18.2982 6.88216L13.0716 6.13231L10.7351 1.45183C10.6675 1.31622 10.5629 1.20203 10.433 1.12217C10.3031 1.04232 10.1533 1 10.0003 1C9.84736 1 9.69747 1.04232 9.5676 1.12217C9.43773 1.20203 9.33307 1.31622 9.26547 1.45183L6.92823 6.13231Z" fill="#FFA800"/>
</svg>
