<svg width="31" height="38" viewBox="0 0 31 38" fill="none" xmlns="http://www.w3.org/2000/svg">
<path d="M24.6984 5.15826V37.0002H1V5.16004L24.6984 5.15826Z" stroke="#020711" stroke-miterlimit="10"/>
<path d="M15.5256 7.99599C15.5256 4.13294 18.6577 0.99991 22.5209 0.99991C26.3857 0.99991 29.5169 4.13294 29.5169 7.99599C29.5169 11.859 26.3857 14.9921 22.5209 14.9921C18.6577 14.9921 15.5256 11.859 15.5256 7.99599Z" stroke="#020711" stroke-miterlimit="10"/>
<path d="M4.8335 26.064H20.8014" stroke="#020711" stroke-miterlimit="10"/>
<path d="M4.8335 22.7413H20.8014" stroke="#020711" stroke-miterlimit="10"/>
<path d="M4.8335 29.4102H20.8014" stroke="#020711" stroke-miterlimit="10"/>
<path d="M4.8335 32.7559H15.5256" stroke="#020711" stroke-miterlimit="10"/>
<path d="M19.0383 8.17321L21.0448 10.3579L26.0046 5.63422" stroke="#020711" stroke-miterlimit="10"/>
<path d="M4.8335 13.5268C4.8335 11.2169 6.70595 9.3435 9.01607 9.3435C11.3258 9.3435 13.1985 11.2169 13.1985 13.5268C13.1985 15.8368 11.3258 17.7084 9.01607 17.7084C6.70595 17.7084 4.8335 15.8368 4.8335 13.5268Z" stroke="#020711" stroke-miterlimit="10"/>
<path d="M7.72144 12.4639C7.72144 11.7482 8.30116 11.1685 9.01615 11.1685C9.73096 11.1685 10.3107 11.7482 10.3107 12.4639C10.3107 13.1778 9.73096 13.7576 9.01615 13.7576C8.30116 13.7576 7.72144 13.1778 7.72144 12.4639Z" stroke="#020711" stroke-miterlimit="10"/>
<path d="M6.19751 16.6166C6.67846 15.5376 7.76025 14.7879 9.01614 14.7879C10.272 14.7879 11.3511 15.5377 11.8348 16.613" stroke="#020711" stroke-miterlimit="10"/>
</svg>
