<svg width="35" height="38" viewBox="0 0 35 38" fill="none" xmlns="http://www.w3.org/2000/svg">
<path d="M27.3805 10.2858C28.5131 10.3089 29.091 11.255 29.091 11.9604C29.091 12.6658 28.2358 13.6705 28.2358 13.6705C27.733 14.5957 28.802 14.5957 28.802 14.5957H34.1531V2.96178C34.1531 1.8796 33.2746 1.00048 32.191 1.00048H20.6079V6.39251C20.6079 6.39251 20.628 7.02045 20.0629 6.94091C19.9517 6.92626 19.8485 6.87604 19.7583 6.80906C19.3669 6.5202 17.7255 5.52172 16.8099 6.78601C16.3622 7.40349 16.3612 8.25545 16.8149 8.87085C17.7313 10.11 19.3675 9.07595 19.7583 8.78499C19.8485 8.72011 19.9517 8.66989 20.0629 8.65523C20.628 8.57569 20.6079 9.20363 20.6079 9.20363V14.5957H25.9591C25.9591 14.5957 27.028 14.5957 26.5253 13.6705C26.5253 13.6705 25.67 12.6658 25.67 11.9604C25.67 11.255 26.2479 10.2628 27.3805 10.2858Z" stroke="#020711" stroke-miterlimit="10"/>
<path d="M14.5445 36.9911V37.0016H3.38347C2.06709 37.0016 1 35.9341 1 34.6175V23.4043H6.3505C6.3505 23.4043 7.41926 23.4043 6.9167 24.3295C6.9167 24.3295 6.06123 25.3342 6.06123 26.0417C6.06123 26.745 6.63978 27.7393 7.77238 27.7162C8.90477 27.7393 9.48185 26.745 9.48185 26.0417C9.48185 25.3342 8.62785 24.3295 8.62785 24.3295C8.12403 23.4043 9.19404 23.4043 9.19404 23.4043L14.5437 23.3959V28.7858C14.5437 28.7858 14.5638 29.4159 13.9987 29.3364C13.8875 29.3196 13.7843 29.2715 13.6941 29.2045C13.3025 28.9156 11.6612 27.9172 10.7457 29.1794C10.2978 29.799 10.2969 30.6509 10.7507 31.2642C11.6669 32.5033 13.3033 31.4693 13.6941 31.1805C13.7843 31.1135 13.8875 31.0653 13.9987 31.0507C14.5638 30.9712 14.5437 31.5991 14.5437 31.5991L14.5445 36.9911Z" stroke="#020711" stroke-miterlimit="10"/>
<path d="M1 23.3959V12.0718C1 10.8451 1.99424 9.8509 3.22062 9.8509H14.5445V15.2011C14.5445 15.2011 14.5445 16.2707 13.6233 15.7662C13.6233 15.7662 12.6222 14.9122 11.9187 14.9122C11.2167 14.9122 10.2722 15.4899 10.2494 16.6223C10.2264 17.7548 11.2167 18.3346 11.9187 18.3346C12.6222 18.3346 13.6233 17.4785 13.6233 17.4785C14.5445 16.9761 14.5445 18.0457 14.5445 18.0457V23.3959" stroke="#020711" stroke-miterlimit="10"/>
<path d="M14.5444 23.375H14.5488L19.9071 23.3959C19.9071 23.3959 20.5359 23.4147 20.4569 22.8496C20.4406 22.7386 20.3931 22.634 20.3268 22.5461C20.0375 22.1547 19.0033 20.5178 20.2424 19.601C20.8572 19.1468 21.713 19.1489 22.3307 19.5989C23.5872 20.5157 22.5913 22.1547 22.3025 22.5461C22.2347 22.634 22.1871 22.7386 22.1708 22.8496C22.0921 23.4147 22.7207 23.3959 22.7207 23.3959L28.0921 23.3938V34.9084C28.0921 36.0659 27.1548 37.0016 25.9986 37.0016H14.5444" stroke="#020711" stroke-miterlimit="10"/>
</svg>
