<svg width="28" height="38" viewBox="0 0 28 38" fill="none" xmlns="http://www.w3.org/2000/svg">
<path d="M11.979 10.6672C11.979 9.69201 12.7681 8.90295 13.7432 8.90295C14.7184 8.90295 15.5074 9.69201 15.5074 10.6672C15.5074 11.6405 14.7184 12.4314 13.7432 12.4314C12.7681 12.4314 11.979 11.6405 11.979 10.6672Z" stroke="#020711" stroke-miterlimit="10"/>
<path d="M9.87305 16.4862C9.87305 14.96 10.7551 13.6377 12.0416 13.0097C12.5444 13.287 13.1259 13.4445 13.745 13.4445C14.3623 13.4445 14.942 13.287 15.4484 13.0097C16.7313 13.6395 17.6152 14.96 17.6152 16.4862" stroke="#020711" stroke-miterlimit="10" stroke-linecap="round"/>
<path d="M3.10791 31.1812C3.10791 30.2078 3.89699 29.417 4.87214 29.417C5.8455 29.417 6.63635 30.2078 6.63635 31.1812C6.63635 32.1563 5.8455 32.9454 4.87214 32.9454C3.89699 32.9454 3.10791 32.1563 3.10791 31.1812Z" stroke="#020711" stroke-miterlimit="10"/>
<path d="M1 36.9998C1 35.4735 1.8839 34.1512 3.16859 33.5232C3.67317 33.8005 4.25468 33.9598 4.87198 33.9598C5.49106 33.9598 6.07078 33.8005 6.57715 33.5232C7.86005 34.1548 8.74216 35.4735 8.74216 36.9998" stroke="#020711" stroke-miterlimit="10" stroke-linecap="round"/>
<path d="M12.1025 31.1812C12.1025 30.2078 12.8916 29.417 13.8667 29.417C14.8401 29.417 15.631 30.2078 15.631 31.1812C15.631 32.1563 14.8401 32.9454 13.8667 32.9454C12.8916 32.9454 12.1025 32.1563 12.1025 31.1812Z" stroke="#020711" stroke-miterlimit="10"/>
<path d="M9.99463 36.9998C9.99463 35.4735 10.8785 34.1512 12.1632 33.5232C12.6678 33.8005 13.2493 33.9598 13.8666 33.9598C14.4857 33.9598 15.0654 33.8005 15.5718 33.5232C16.8547 34.1548 17.7368 35.4735 17.7368 36.9998" stroke="#020711" stroke-miterlimit="10" stroke-linecap="round"/>
<path d="M21.1221 31.1812C21.1221 30.2078 21.9129 29.417 22.8863 29.417C23.8614 29.417 24.6505 30.2078 24.6505 31.1812C24.6505 32.1563 23.8614 32.9454 22.8863 32.9454C21.9129 32.9454 21.1221 32.1563 21.1221 31.1812Z" stroke="#020711" stroke-miterlimit="10"/>
<path d="M19.0161 36.9998C19.0161 35.4735 19.8982 34.1512 21.1847 33.5232C21.6875 33.8005 22.269 33.9598 22.8881 33.9598C23.5054 33.9598 24.0851 33.8005 24.5915 33.5232C25.8744 34.1548 26.7583 35.4735 26.7583 36.9998" stroke="#020711" stroke-miterlimit="10" stroke-linecap="round"/>
<path d="M19.8551 16.495H7.87598V18.7083H19.8551V16.495Z" stroke="#020711" stroke-miterlimit="10" stroke-linecap="round"/>
<path d="M8.64209 18.7082V26.1622H19.0896V18.7082" stroke="#020711" stroke-miterlimit="10" stroke-linecap="round"/>
<path d="M21.8358 0.999861C19.2521 0.999861 17.1587 3.09509 17.1587 5.67878C17.1587 6.73444 17.5076 7.70957 18.0981 8.49148L17.7545 11.2058L20.2649 10.0857C20.7569 10.2611 21.2847 10.3577 21.8358 10.3577C24.4213 10.3577 26.5148 8.26247 26.5148 5.67878C26.5148 3.09509 24.4213 0.999861 21.8358 0.999861Z" stroke="#020711" stroke-miterlimit="10"/>
<path d="M19.8374 4.49084H23.8364" stroke="#020711" stroke-miterlimit="10" stroke-linecap="round"/>
<path d="M19.8374 5.85425H23.8364" stroke="#020711" stroke-miterlimit="10" stroke-linecap="round"/>
<path d="M19.8374 7.21777H22.1456" stroke="#020711" stroke-miterlimit="10" stroke-linecap="round"/>
</svg>
