<svg width="36" height="36" viewBox="0 0 36 36" fill="none" xmlns="http://www.w3.org/2000/svg">
<circle cx="18" cy="18" r="18" fill="#AFEC2C"/>
<path d="M27.9646 16.7661L23.7459 20.4064L25.0312 25.8505C25.1021 26.146 25.0838 26.4559 24.9787 26.7411C24.8736 27.0263 24.6863 27.2739 24.4405 27.4526C24.1947 27.6314 23.9015 27.7333 23.5978 27.7455C23.2941 27.7577 22.9936 27.6796 22.7343 27.5211L17.9999 24.6074L13.2628 27.5211C13.0035 27.6787 12.7034 27.7561 12.4002 27.7434C12.097 27.7308 11.8044 27.6287 11.5591 27.4501C11.3139 27.2715 11.1269 27.0243 11.0219 26.7396C10.9168 26.455 10.8983 26.1456 10.9687 25.8505L12.2587 20.4064L8.03994 16.7661C7.81053 16.5678 7.64462 16.3064 7.56293 16.0144C7.48123 15.7224 7.48737 15.4128 7.58058 15.1242C7.67379 14.8357 7.84994 14.581 8.08703 14.392C8.32412 14.203 8.61164 14.088 8.91369 14.0614L14.4449 13.6152L16.5787 8.45143C16.6942 8.17001 16.8908 7.92929 17.1434 7.75987C17.3961 7.59046 17.6934 7.5 17.9976 7.5C18.3018 7.5 18.5991 7.59046 18.8518 7.75987C19.1044 7.92929 19.301 8.17001 19.4165 8.45143L21.5493 13.6152L27.0806 14.0614C27.3832 14.087 27.6716 14.2014 27.9095 14.3901C28.1475 14.5789 28.3244 14.8337 28.4182 15.1225C28.512 15.4114 28.5185 15.7216 28.4368 16.0141C28.3551 16.3066 28.1889 16.5686 27.959 16.7671L27.9646 16.7661Z" fill="#00271A"/>
</svg>
