<svg width="40" height="40" viewBox="0 0 40 40" fill="none" xmlns="http://www.w3.org/2000/svg">
<path d="M13.6755 11.7754L17.761 7.68924C17.0443 11.417 18.1912 15.4313 20.9869 18.4417L20.6286 18.8001C18.6932 20.7361 15.6109 20.7361 13.6755 18.8001C11.7394 16.8647 11.7394 13.7107 13.6755 11.7754ZM29.1594 3.24476C31.023 5.10901 31.0948 8.1194 29.303 10.0547C27.4387 12.1337 24.141 12.2055 22.1345 10.2695C20.1984 8.33412 20.1984 5.25192 22.1345 3.31658C24.141 1.30942 27.2951 1.30942 29.1594 3.24476ZM24.0699 15.2877L22.2056 17.152C21.7044 16.65 21.2742 16.0762 20.9151 15.5032C21.9909 15.5743 23.066 15.5032 24.0699 15.2877ZM19.9837 13.5678C19.4099 12.0619 19.1951 10.4849 19.3381 8.97972C20.1266 11.2016 22.0627 12.9222 24.4994 13.3524C23.1378 13.7825 21.5607 13.8544 19.9837 13.5678ZM12.385 20.0187C15.0371 22.6715 19.2663 22.6715 21.9191 20.0187L30.4499 11.4888C32.8155 9.12334 33.102 5.46737 31.1666 2.81462C31.2384 2.81462 31.2384 2.74281 31.3095 2.74281C32.1699 2.45628 32.6719 2.74279 32.9591 2.95823C33.3175 3.24476 33.8905 3.17297 34.2489 2.81462C34.5354 2.45628 34.4643 1.8832 34.106 1.52414C32.6 0.305485 30.9512 0.807452 29.8761 1.45304C27.2951 -0.625928 23.4243 -0.483013 20.9151 1.9543L12.385 10.4849C9.80397 13.1377 9.80397 17.3667 12.385 20.0187Z" fill="#00271A"/>
<path d="M25.359 5.11064C25.718 5.46898 26.2911 5.46898 26.6495 5.11064C27.0078 4.75158 27.0078 4.17852 26.6495 3.82017L26.0046 3.17458C25.6462 2.81623 25.0724 2.81623 24.7141 3.17458C24.3557 3.53292 24.3557 4.10671 24.7141 4.46506L25.359 5.11064Z" fill="#00271A"/>
<path d="M27.9398 7.69218C28.2981 8.05052 28.8719 8.05052 29.2303 7.69218C29.5886 7.33383 29.5886 6.76006 29.2303 6.40172L28.5847 5.75683C28.2263 5.39849 27.6532 5.39849 27.2942 5.75683C26.9358 6.11518 26.9358 6.68826 27.2942 7.04731L27.9398 7.69218Z" fill="#00271A"/>
<path d="M24.1402 8.908C24.4986 9.26634 25.0724 9.26634 25.4307 8.908C25.7891 8.54965 25.7891 7.97586 25.4307 7.61752L24.7858 6.97265C24.4275 6.61431 23.8537 6.61431 23.4953 6.97265C23.137 7.331 23.137 7.90406 23.4953 8.26312L24.1402 8.908Z" fill="#00271A"/>
<path d="M37.6891 24.75L26.076 36.4353L10.8061 35.8615L7.07894 32.1337C6.72058 31.7754 6.14678 31.7754 5.78842 32.1337C5.43007 32.4928 5.43007 33.0659 5.78842 33.4242L9.15796 36.7936L8.15399 37.7969L2.27598 31.8472L8.15399 25.9693C24.9284 27.8329 24.2835 27.7618 24.3553 27.7618C25.0721 27.8329 25.6458 28.3349 25.7177 29.0515C25.7888 29.9119 25.0721 30.7004 24.2117 30.7004L15.1078 30.2702C14.6058 30.2702 14.1756 30.6285 14.1756 31.1305C14.1756 31.6325 14.534 32.0619 15.036 32.0619L24.1399 32.4928C25.7177 32.5639 27.0793 31.4889 27.4376 29.9837C35.753 22.2416 35.3947 22.5281 35.3947 22.5281C36.0403 21.8832 37.1154 21.8832 37.761 22.5281C38.4059 23.1019 38.4059 24.1051 37.6891 24.75ZM38.9789 21.1665C37.6173 19.8042 35.4665 19.8042 34.1049 21.1665L27.0793 27.6893C26.5773 26.686 25.574 26.0412 24.4272 25.8968L7.86745 24.1051C7.5802 24.1051 7.29367 24.1769 7.15075 24.3923L0.268766 31.2734C-0.0895888 31.6325 -0.0895888 32.2055 0.268766 32.5639L7.43729 39.7322C7.79565 40.0906 8.36944 40.0906 8.72779 39.7322L10.735 37.7251L26.3626 38.2988C26.5773 38.2988 26.8638 38.227 27.0075 38.0123L38.9078 26.1123C40.3412 24.6789 40.3412 22.5281 38.9789 21.1665Z" fill="#00271A"/>
</svg>
