<svg width="42" height="40" viewBox="0 0 42 40" fill="none" xmlns="http://www.w3.org/2000/svg">
<path d="M35.672 7.38407L31.4189 11.638L29.105 9.32485C28.9555 9.17533 28.9555 8.87705 29.105 8.65277C29.2545 8.50399 29.5528 8.50399 29.7764 8.65277L30.7468 9.62315C31.1198 9.99621 31.7172 9.99621 32.0902 9.62315L35.0754 6.63797C35.2242 6.48845 35.5232 6.48845 35.7468 6.63797C35.8215 6.93626 35.8215 7.23529 35.672 7.38407ZM33.6572 5.44403L31.3441 7.75713L31.0451 7.45883C30.1494 6.56319 28.6572 6.56319 27.7616 7.45883C26.8659 8.35446 26.8659 9.8467 27.7616 10.7423L30.7468 13.7275C31.1198 14.1006 31.7172 14.1006 32.0902 13.7275L37.0155 8.80229C37.9111 7.90665 37.9111 6.41368 37.0155 5.51879C36.0458 4.47363 34.5528 4.47363 33.6572 5.44403Z" fill="#00271A"/>
<path d="M38.7321 11.567C38.2095 13.3583 36.7913 14.3279 33.5825 17.6869H30.8964C26.2694 12.8357 25.4486 12.9852 25.299 8.58179C25.2243 7.83567 25.299 3.13397 25.299 2.38786C27.3886 2.61214 29.1799 2.38785 30.6721 1.86602H33.8068C35.299 2.38785 37.0903 2.53738 39.1799 2.38786C39.1799 7.3131 39.2546 9.92524 38.7321 11.567ZM33.7321 22.4626C32.6869 23.2835 31.3442 23.2835 29.926 23.2835V21.4182C29.926 20.8956 29.4782 20.4478 28.9556 20.4478H25.2243C24.7017 20.4478 24.2539 20.8956 24.2539 21.4182V23.2835H13.06V21.4182C13.06 20.8956 12.6121 20.4478 12.0896 20.4478H8.35825C7.83641 20.4478 7.38861 20.8956 7.38861 21.4182V23.2835H6.04515C3.73131 23.2835 1.71651 21.3434 1.71651 19.0296V13.0599C2.09031 13.0599 23.3583 13.0599 24.0304 13.0599C24.926 14.8505 26.493 16.1192 29.5529 19.3286C29.7017 19.4774 30.0008 19.6269 30.2243 19.6269H33.6573C33.8816 19.6269 34.1799 19.5522 34.3294 19.3286C34.6277 19.0296 34.926 18.6565 35.2243 18.433V19.1044C35.5233 20.373 34.8512 21.6417 33.7321 22.4626ZM26.1947 28.8808V27.9104H28.06V28.8808H26.1947ZM27.0903 32.7617L26.1199 31.3435V30.6721H27.9852V31.3435L27.0903 32.7617ZM28.06 26.0451H26.1947C26.1947 24.7765 26.1947 23.5818 26.1947 22.3138H28.06C28.06 23.6565 28.06 24.7765 28.06 26.0451ZM9.40341 28.8808V27.9104H11.2687V28.8808H9.40341ZM10.2991 32.7617L9.40341 31.3435V30.6721H11.2687V31.3435L10.2991 32.7617ZM11.2687 26.0451H9.40341C9.40341 24.7765 9.40341 23.5818 9.40341 22.3138H11.2687C11.2687 23.6565 11.2687 24.7765 11.2687 26.0451ZM32.6869 35.9704C32.6869 37.1643 31.7173 38.1347 30.5233 38.1347H6.94079C5.74612 38.1347 4.77646 37.1643 4.77646 35.9704V24.9252C5.22428 25.0748 5.74611 25.1495 6.26943 25.1495H7.61215V26.1192C7.08957 26.1192 6.64175 26.5677 6.64175 27.0903C6.64175 27.6121 7.08957 28.0599 7.61215 28.0599V29.0303C7.08957 29.0303 6.64175 29.4774 6.64175 30C6.64175 30.5226 7.08957 30.9704 7.61215 30.9704C7.61215 31.94 7.61215 31.9401 7.61215 32.0148C7.61215 32.0903 7.61215 32.1643 7.68691 32.2391C7.76167 32.3886 7.6869 32.2391 9.62695 35.1495C10.0007 35.6714 10.8209 35.6714 11.1947 35.1495C13.1347 32.2391 13.06 32.3886 13.1347 32.2391C13.2095 32.1643 13.2095 32.0903 13.2095 32.0148C13.2095 31.866 13.2095 31.866 13.2095 30.9704C13.732 30.9704 14.1799 30.5226 14.1799 30C14.1799 29.4774 13.732 29.0303 13.2095 29.0303V28.0599C13.732 28.0599 14.1799 27.6121 14.1799 27.0903C14.1799 26.5677 13.732 26.1192 13.2095 26.1192V25.1495H24.4034V26.1192C23.8808 26.1192 23.5078 26.5677 23.5078 27.0903C23.5078 27.6121 23.9556 28.0599 24.4034 28.0599V29.0303C23.8808 29.0303 23.5078 29.4774 23.5078 30C23.5078 30.5226 23.9556 30.9704 24.4034 30.9704C24.4034 30.9704 24.4034 31.9401 24.4034 31.866C24.4034 31.866 24.4034 31.9401 24.4034 32.0148C24.4034 32.0903 24.4034 32.1643 24.4782 32.2391C24.5529 32.3886 24.4782 32.2391 26.4182 35.1495C26.792 35.6714 27.6122 35.6714 27.9852 35.1495C29.926 32.1643 29.8512 32.3886 29.926 32.2391C29.926 32.1643 30.0008 32.1643 30.0008 32.0903C30.0008 32.0148 30.0755 31.866 30.0755 31.7913C30.0755 31.493 30.0755 31.1947 30.0755 30.8216C30.5973 30.8216 31.0452 30.373 31.0452 29.8512C31.0452 29.3286 30.5973 28.8808 30.0755 28.8808V27.9104C30.5973 27.9104 31.0452 27.4634 31.0452 26.94C31.0452 26.4175 30.5973 25.9704 30.0755 25.9704V25.0748C31.0452 25.0748 31.9408 25.0748 32.9112 24.8512L32.6869 35.9704ZM13.1347 10.1488C13.1347 9.70169 13.5078 9.25389 14.0304 9.25389C15.5973 9.25389 23.433 9.25389 23.5078 9.25389C23.5825 10 23.5825 10.5966 23.7321 11.1192H13.1347V10.1488ZM41.0452 1.26868C41.0452 0.671341 40.5233 0.223518 40.0008 0.373035C37.7617 0.746094 35.8216 0.597332 34.3294 0.0747566C34.2546 -3.8147e-06 34.1051 -3.8147e-06 34.0304 -3.8147e-06H30.5974C30.4486 -3.8147e-06 30.3738 -3.8147e-06 30.2991 0.0747566C28.8068 0.671349 26.866 0.746094 24.6277 0.373035C24.0304 0.298279 23.5825 0.746101 23.5825 1.26868C23.5825 3.35824 23.5825 5.89561 23.5825 7.38784H13.9556C12.4634 7.38784 11.1947 8.58178 11.1947 10.1488V11.1192H0.970391C0.447815 11.1192 0 11.567 0 12.0896V18.9548C0 21.0451 1.11918 22.9852 2.83568 24.1044V35.9704C2.83568 38.2095 4.62694 40 6.86603 40H30.4486C32.6869 40 34.4782 38.2095 34.4782 35.9704V24.1044C36.1199 23.0599 37.2391 21.1192 37.2391 18.9548V16.4182C38.8816 14.7757 39.8512 13.6565 40.3738 12.0896C41.1199 10.0747 41.0452 7.16431 41.0452 1.26868Z" fill="#00271A"/>
<path d="M20.5973 18.5858H16.866V16.7198H20.5973V18.5858ZM21.493 14.8538H15.8956C15.3738 14.8538 15 15.3016 15 15.8242V19.5555C15 20.0781 15.4478 20.5259 15.8956 20.5259H21.493C22.0155 20.5259 22.4633 20.0781 22.4633 19.5555V15.8242C22.4633 15.3016 22.0155 14.8538 21.493 14.8538Z" fill="#00271A"/>
<path d="M22.4623 32.6095H14.999C14.4771 32.6095 14.0293 33.0573 14.0293 33.5799C14.0293 34.1017 14.4771 34.5503 14.999 34.5503H22.4623C22.9849 34.5503 23.432 34.1017 23.432 33.5799C23.3572 32.9826 22.9849 32.6095 22.4623 32.6095Z" fill="#00271A"/>
<path d="M20.5982 35.3761H16.8669C16.3443 35.3761 15.8965 35.8247 15.8965 36.3473C15.8965 36.8691 16.3443 37.3169 16.8669 37.3169H20.5982C21.1208 37.3169 21.5686 36.8691 21.5686 36.3473C21.4938 35.8247 21.1208 35.3761 20.5982 35.3761Z" fill="#00271A"/>
</svg>
