<svg width="41" height="40" viewBox="0 0 41 40" fill="none" xmlns="http://www.w3.org/2000/svg">
<path d="M4.60104 7.60438C4.80648 7.39921 5.1488 7.39921 5.35444 7.60438L6.313 8.56361C6.65553 8.906 7.20383 8.906 7.54615 8.56361L10.4228 5.68656C10.6284 5.4814 10.9705 5.4814 11.1761 5.68656C11.3815 5.8924 11.3815 6.2348 11.1761 6.43996L6.92971 10.6866L4.60104 8.28915C4.3954 8.1526 4.3954 7.81022 4.60104 7.60438ZM6.24479 12.4678C6.58712 12.8102 7.13508 12.8102 7.47767 12.4678L12.3406 7.60438C13.2309 6.71375 13.2309 5.34418 12.3406 4.45355C11.4503 3.56361 10.0805 3.56361 9.18983 4.45355L6.86096 6.78304L6.51864 6.37203C5.62829 5.4814 4.25845 5.4814 3.36816 6.37203C2.47754 7.26197 2.47754 8.63223 3.36816 9.52217L6.24479 12.4678Z" fill="#00271A"/>
<path d="M20.2185 38.288C15.9721 38.288 12.0679 36.7806 8.98566 34.3838H13.3008C14.9446 34.3838 16.3144 33.0136 16.3144 31.3696C16.3144 29.7255 14.9446 28.356 13.3008 28.356H12.4105C11.7256 28.356 11.1089 27.8084 11.1089 27.055C11.1089 26.3702 11.6569 25.7534 12.4105 25.7534C14.0539 25.7534 15.424 24.3831 15.424 22.7398C15.424 21.1644 14.1227 19.7948 12.5472 19.7262C13.3008 18.2194 12.6156 16.3703 11.0404 15.6848C13.3008 13.4246 14.465 12.3974 15.013 10.6169C15.4925 9.04144 15.4925 6.78126 15.4925 2.87637C19.739 1.71264 24.4651 2.12364 28.5745 4.31522H25.2871C23.6431 4.31522 22.2736 5.68479 22.2736 7.32881C22.2736 7.80843 22.4101 8.21943 22.5473 8.63044C20.9719 8.69837 19.6708 10 19.6708 11.644C19.6708 13.2881 21.0405 14.6576 22.6846 14.6576H28.7117C29.3965 14.6576 30.0134 15.2052 30.0134 15.9586C30.0134 16.644 29.4651 17.2602 28.7117 17.2602H20.0813C18.4376 17.2602 17.0677 18.6298 17.0677 20.2738C17.0677 21.9178 18.4376 23.2874 20.0813 23.2874H22.4787C22.3422 23.6304 22.2736 24.0414 22.2736 24.5204C22.2736 26.1644 23.6431 27.5346 25.2871 27.5346H36.6567C33.9169 33.8356 27.5473 38.288 20.2185 38.288ZM2.47873 17.2602H5.9718C6.04055 17.2602 6.04055 17.2602 6.10903 17.2602C9.32826 17.2602 9.19103 17.2602 9.39646 17.2602H9.87621C10.5611 17.2602 11.1773 17.8084 11.1773 18.5618C11.1773 19.3152 10.6296 19.8628 9.87621 19.8628C9.39646 19.8628 8.98566 20.2738 8.98566 20.7534C8.98566 21.233 9.39646 21.644 9.87621 21.644H12.4787C13.1639 21.644 13.7801 22.1916 13.7801 22.945C13.7801 23.6304 13.2321 24.2466 12.4787 24.2466C10.835 24.2466 9.46514 25.6168 9.46514 27.2609C9.46514 28.9035 10.835 30.2738 12.4787 30.2738H13.369C14.0539 30.2738 14.6704 30.822 14.6704 31.5754C14.6704 32.2602 14.1227 32.8764 13.369 32.8764H7.20502C3.16372 28.4246 1.51997 22.7398 2.47873 17.2602ZM4.05427 15.5482H2.88953C2.95828 15.2738 3.09524 14.9314 3.16372 14.6576C3.50624 14.9314 3.71168 15.1372 4.05427 15.5482ZM1.58817 3.4246C1.58817 3.0136 1.58817 2.60258 1.58817 2.19158C3.36935 2.32881 5.01276 2.19158 6.31419 1.78125H9.05414C10.3555 2.26019 11.9307 2.39742 13.7116 2.19158C13.7116 6.57541 13.7801 8.76698 13.369 10.2058C12.8897 11.7126 11.7256 12.6026 8.84843 15.5482H6.45162C3.57445 12.6026 2.41032 11.7126 1.93104 10.2058C1.58818 8.97283 1.58817 7.12297 1.58817 3.4246ZM37.3415 25.822H25.2185C24.5338 25.822 23.9169 25.2745 23.9169 24.5204C23.9169 23.8356 24.4651 23.2194 25.2185 23.2194C25.6982 23.2194 26.1092 22.8084 26.1092 22.3288C26.1092 21.8492 25.6982 21.5068 25.2185 21.5068H20.0813C19.3967 21.5068 18.78 20.9592 18.78 20.2058C18.78 19.5204 19.3279 18.9042 20.0813 18.9042H28.6431C30.2871 18.9042 31.6567 17.5347 31.6567 15.8906C31.6567 14.2466 30.2871 12.877 28.6431 12.877H22.6153C21.9312 12.877 21.3143 12.3288 21.3143 11.5754C21.3143 10.8906 21.8626 10.2738 22.6153 10.2738H25.1499C25.6295 10.2738 26.0406 9.86346 26.0406 9.45246C26.0406 8.97284 25.6295 8.56182 25.1499 8.56182C24.4651 8.56182 23.8483 8.0136 23.8483 7.2602C23.8483 6.57542 24.3965 5.95924 25.1499 5.95924H31.1771C37.2736 10.822 39.6017 18.767 37.3415 25.822ZM34.1227 6.37025C28.9855 1.23302 21.8626 -0.410994 15.424 1.16441C15.424 0.61618 14.9446 0.273782 14.465 0.342396C12.4787 0.616173 10.835 0.548236 9.53335 0.0686166C9.46514 2.49679e-06 9.32826 1.83271e-06 9.25951 1.83271e-06H6.24599C6.10903 1.83271e-06 6.04055 2.49679e-06 5.9718 0.0686166C4.67044 0.548236 2.95828 0.684787 0.972006 0.342396C0.423977 0.273782 0.0129709 0.684794 0.0129709 1.16441C0.0129709 6.5068 -0.123989 8.90421 0.49218 10.6848C0.766297 11.644 1.24612 12.3974 1.99925 13.2194C-0.671949 20.1372 0.698159 28.356 6.31419 34.1101C10.0816 37.945 15.0814 40 20.3558 40C31.2457 40 40.0127 31.1644 40.0127 20.3424C39.8761 15.0686 37.8211 10.1372 34.1227 6.37025Z" fill="#00271A"/>
</svg>
