<svg width="34" height="36" viewBox="0 0 34 36" fill="none" xmlns="http://www.w3.org/2000/svg">
<path d="M32.0556 31.242C32.0556 32.995 30.6789 34.3097 28.8004 34.3724C27.9235 34.3097 27.2355 33.621 27.2355 32.8069C27.2355 31.9928 28.049 31.3041 28.9252 31.242C29.3636 31.242 29.6766 30.8663 29.6766 30.4279C29.6766 29.9894 29.3015 29.6765 28.9252 29.6765H7.82644V1.50217H32.0556V31.242ZM3.06844 32.8069C3.06844 31.9307 3.7565 31.242 4.69606 31.242C4.69606 31.242 24.2299 31.242 26.1084 31.242C25.4818 32.2436 25.4818 33.4335 26.1084 34.3724H4.82086C3.88192 34.4345 3.06844 33.6837 3.06844 32.8069ZM32.807 0H7.07507C6.63665 0 6.26093 0.375084 6.26093 0.813503V29.7392H4.69606C2.88028 29.7392 1.50293 31.1165 1.50293 32.8696C1.50293 34.6226 2.943 36 4.75815 36C23.9797 36 28.7383 36 28.8004 36C31.4924 35.9373 33.5584 33.934 33.5584 31.3041V0.750797C33.6211 0.313 33.2454 0 32.807 0Z" fill="white"/>
<path d="M1.50281 12.5214H3.06832V24.1041L2.25358 26.0453L1.44007 24.1041V12.5214H1.50281ZM2.31692 7.01195C2.75472 7.01195 3.13042 7.38766 3.13042 7.82545V8.63959H1.56551V7.82545C1.50279 7.38766 1.8785 7.01195 2.31692 7.01195ZM1.50281 10.1424H3.06832V10.9559H1.50281V10.1424ZM2.31692 28.9248C2.6299 28.9248 2.94288 28.7373 3.06832 28.4243L4.57049 24.5425C4.63321 24.4798 4.6332 24.355 4.6332 24.2295V7.82545C4.6332 6.51082 3.56821 5.50918 2.31692 5.50918C1.06438 5.50918 0 6.57354 0 7.82545V24.2916C0 24.4171 -1.45539e-05 24.4798 0.0627054 24.6046L1.62761 28.5491C1.69033 28.7373 2.00332 28.9248 2.31692 28.9248Z" fill="white"/>
<path d="M17.2796 11.2703C17.4057 11.1455 17.656 11.1455 17.8441 11.2703L18.6576 12.0844C18.9706 12.3974 19.4718 12.3974 19.7847 12.0844L22.2892 9.58058C22.414 9.45514 22.6643 9.45514 22.8524 9.58058C22.9772 9.7054 22.9772 9.95565 22.8524 10.1438L19.2836 13.712L17.343 11.7714C17.1548 11.646 17.1548 11.3957 17.2796 11.2703ZM18.6576 15.403C18.9706 15.7159 19.4718 15.7159 19.7847 15.403L23.9168 11.2703C24.6682 10.5195 24.6682 9.26699 23.9168 8.51559C23.1654 7.76419 21.9129 7.76419 21.1615 8.51559L19.2209 10.4568L18.9706 10.1438C18.2192 9.39241 16.9673 9.39241 16.2159 10.1438C15.4645 10.8952 15.4645 12.1471 16.2159 12.8985L18.6576 15.403Z" fill="white"/>
<path d="M14.0251 5.8858C15.7788 6.07334 17.3437 5.94852 18.5956 5.44738H21.2255C22.4774 5.8858 23.9802 6.01124 25.7332 5.8858C25.7332 10.0806 25.7953 12.2721 25.3575 13.6494C24.9191 15.1516 23.7293 15.9657 21.0373 18.7831H18.721C15.9657 15.903 14.8392 15.0895 14.4008 13.6494C13.963 12.2721 14.0251 10.1433 14.0251 5.8858ZM17.8448 20.0984C17.9696 20.2232 18.2199 20.3486 18.408 20.3486H21.413C21.6012 20.3486 21.8514 20.2859 21.9769 20.0984C24.9191 17.0301 26.2965 16.0284 26.9231 14.0872C27.4863 12.3969 27.3608 9.95517 27.3608 5.00899C27.3608 4.50847 26.9231 4.19548 26.4846 4.25758C24.6061 4.57118 22.9779 4.44573 21.726 4.00731C21.6012 3.88249 21.4757 3.8825 21.413 3.8825H18.5329C18.4702 3.8825 18.3453 3.8825 18.2826 3.9446C17.0301 4.44574 15.3397 4.50846 13.4619 4.19548C12.9607 4.13276 12.585 4.50847 12.585 4.94689C12.585 10.0806 12.4602 12.3348 13.0234 14.0251C13.5246 16.0284 14.9013 17.0301 17.8448 20.0984Z" fill="white"/>
<path d="M10.894 23.48H28.925C29.3635 23.48 29.6764 23.1043 29.6764 22.6659C29.6764 22.2275 29.3014 21.8518 28.925 21.8518H10.894C10.4556 21.8518 10.1426 22.2275 10.1426 22.6659C10.1426 23.1043 10.4556 23.48 10.894 23.48Z" fill="white"/>
<path d="M26.5459 24.231H13.2729C12.8344 24.231 12.5215 24.6061 12.5215 25.0445C12.5215 25.4829 12.8978 25.7959 13.2729 25.7959H26.6086C27.047 25.7959 27.4228 25.4202 27.4228 25.0445C27.36 24.6061 26.9843 24.231 26.5459 24.231Z" fill="white"/>
<path d="M24.2303 26.6091H15.5905C15.1521 26.6091 14.7764 26.9848 14.7764 27.4232C14.7764 27.8616 15.1521 28.2373 15.5905 28.2373H24.2303C24.6688 28.2373 25.0438 27.8616 25.0438 27.4232C25.0438 26.9848 24.6688 26.6091 24.2303 26.6091Z" fill="white"/>
</svg>
