<svg width="37" height="36" viewBox="0 0 37 36" fill="none" xmlns="http://www.w3.org/2000/svg">
<path d="M4.95521 14.0684C6.72919 9.35864 10.3997 5.81068 14.9251 4.46502C12.4789 7.21761 11.2558 11.7436 10.7662 15.3528C9.42052 13.5788 6.97369 13.0286 4.95521 14.0684ZM33.2764 14.0684C31.3186 13.0286 28.8105 13.5175 27.4042 15.3528C26.9146 11.7436 25.7522 7.15633 23.306 4.40375C27.8932 5.81068 31.5631 9.29737 33.2764 14.0684ZM19.88 14.8632L19.9412 3.97541C22.5719 4.64824 24.7736 8.68521 25.7522 14.3742C23.9175 13.1511 21.532 13.3343 19.88 14.8632ZM12.5401 14.3129C13.0291 11.6216 13.7633 9.17482 14.8031 7.33956C15.843 5.44363 17.1274 4.21991 18.4124 3.91414L18.3511 14.8632C16.7609 13.3343 14.3141 13.1511 12.5401 14.3129ZM10.3378 18.4112C10.3378 18.8395 10.7049 19.2065 11.0719 19.2065C11.5003 19.2065 11.8667 18.8395 11.8667 18.4112C11.8667 17.9828 11.9286 17.5545 12.1118 17.1268C12.1118 17.0655 12.1731 17.0655 12.1731 17.0042C12.6627 15.8424 13.8245 15.047 15.1089 15.047C16.8829 15.047 18.3511 16.5765 18.3511 18.4112C18.3511 18.4112 18.3511 18.4112 18.3511 18.4724C18.3511 18.5337 18.3511 18.5337 18.3511 18.5337C18.3511 18.595 18.3511 18.595 18.3511 18.595C18.3511 18.6557 18.3511 18.595 18.3511 18.6557C18.3511 18.7169 18.3511 18.6557 18.3511 18.7169C18.3511 18.7782 18.3511 18.7169 18.4124 18.7782C18.4124 18.8395 18.4124 18.8395 18.473 18.8395C18.5349 18.9008 18.473 18.8395 18.5349 18.9008C18.5956 18.9614 18.5349 18.9008 18.5956 18.9614C18.6569 19.0227 18.6569 18.9614 18.6569 19.0227C18.7175 19.084 18.7175 19.0227 18.7175 19.084C18.7794 19.1453 18.7794 19.084 18.7794 19.1453C18.8407 19.1453 18.8407 19.1453 18.8407 19.1453C18.9014 19.1453 18.9014 19.1453 18.9014 19.1453C18.9626 19.1453 18.9627 19.1453 18.9627 19.1453C19.0239 19.1453 19.0239 19.1453 19.0239 19.1453C19.0239 19.1453 19.0852 19.1453 19.1465 19.1453C19.2071 19.1453 19.2071 19.1453 19.2071 19.1453C19.269 19.1453 19.269 19.1453 19.269 19.1453C19.3297 19.1453 19.3297 19.1453 19.3297 19.1453C19.391 19.1453 19.391 19.1453 19.391 19.084C19.4517 19.084 19.391 19.084 19.4517 19.0227C19.5129 18.9614 19.5129 19.0227 19.5129 18.9614C19.5748 18.9008 19.5129 18.9614 19.5748 18.9008C19.6355 18.8395 19.5748 18.9008 19.6355 18.8395C19.6967 18.7782 19.6355 18.7782 19.6967 18.7782C19.7574 18.7169 19.6967 18.7169 19.7574 18.7169C19.7574 18.6557 19.7574 18.6557 19.7574 18.6557C19.7574 18.595 19.7574 18.595 19.7574 18.595C19.7574 18.5337 19.7574 18.595 19.7574 18.5337C19.7574 18.4724 19.7574 18.4724 19.7574 18.4724C19.7574 18.4724 19.7574 18.4724 19.7574 18.4112C19.7574 16.5765 21.2256 15.047 22.9996 15.047C24.7736 15.047 26.2418 16.5765 26.2418 18.4112C26.2418 18.8395 26.6088 19.2065 26.9759 19.2065C27.4042 19.2065 27.7707 18.8395 27.7707 18.4112C27.7707 16.5765 29.2389 15.047 31.0128 15.047C32.2972 15.047 33.5209 15.8424 34.0105 17.0655C34.1325 17.4326 34.5608 17.6158 34.9272 17.4938C35.2949 17.3713 35.5394 17.0042 35.4781 16.6372C34.0105 8.80777 27.8319 2.62976 19.8193 2.26271V0.794506C19.8193 0.366785 19.4517 -0.000272751 19.0852 -0.000272751C18.6569 -0.000272751 18.2898 0.366785 18.2898 0.733229V2.26271C10.2159 2.62976 3.97663 8.80777 2.50843 16.5765C2.44715 16.943 2.69164 17.31 3.05869 17.4326C3.42574 17.5545 3.85406 17.3713 3.97662 17.0042C4.58817 15.536 6.11765 14.68 7.7078 15.047C9.29795 15.536 10.3378 16.8823 10.3378 18.4112Z" fill="white"/>
<path d="M27.5258 2.38477H33.6425C34.0709 2.38477 34.4385 2.01772 34.4385 1.65067C34.4385 1.22234 34.0709 0.855285 33.6425 0.855285H27.5258C27.0975 0.855285 26.7305 1.22234 26.7305 1.65067C26.7305 2.01772 27.0975 2.38477 27.5258 2.38477Z" fill="white"/>
<path d="M35.9062 3.11823H32.1138C31.6854 3.11823 31.3184 3.48527 31.3184 3.9136C31.3184 4.34193 31.6854 4.70898 32.1138 4.70898H35.9062C36.3345 4.70898 36.701 4.34193 36.701 3.9136C36.701 3.48527 36.3345 3.11823 35.9062 3.11823Z" fill="white"/>
<path d="M7.64622 1.58976C7.64622 1.16143 7.27916 0.79437 6.91211 0.79437H0.795401C0.367073 0.79437 0 1.16143 0 1.58976C0 2.01808 0.367073 2.32385 0.795401 2.32385H6.91211C7.27916 2.38513 7.64622 2.01808 7.64622 1.58976Z" fill="white"/>
<path d="M4.58789 3.9136C4.58789 4.34193 4.95493 4.70898 5.38326 4.70898H9.17574C9.60346 4.70898 9.97052 4.34193 9.97052 3.9136C9.97052 3.48527 9.60346 3.11823 9.17574 3.11823H5.38326C4.95493 3.11823 4.58789 3.48527 4.58789 3.9136Z" fill="white"/>
<path d="M21.1648 32.2961L23.4278 26.7909H27.0977L21.1648 32.2961ZM14.803 26.8516L17.0666 32.3567L11.1331 26.8516H14.803ZM25.9971 22.8759L27.6486 25.3227H24.4064L25.9971 22.8759ZM15.3539 24.7718L13.6405 22.2031H17.433L15.3539 24.7718ZM21.2873 25.3227H16.8827L19.0851 22.6927L21.2873 25.3227ZM22.8775 24.7718L20.7365 22.2031H24.5289L22.8775 24.7718ZM12.2342 22.8759L13.8856 25.3227H10.6435L12.2342 22.8759ZM16.4544 26.8516H21.7764L19.0851 33.2747L16.4544 26.8516ZM29.6671 25.6285C28.6885 24.1609 27.5873 22.5088 26.6087 21.0406C26.5474 20.9794 26.4861 20.8574 26.4255 20.8574C26.4255 20.8574 26.4255 20.8574 26.3642 20.7961C26.3023 20.7348 26.1804 20.7348 26.1197 20.7348C26.0578 20.7348 26.4861 20.7348 19.1463 20.7348C11.8059 20.7348 12.2342 20.7348 12.1729 20.7348C12.1117 20.7348 11.9897 20.7961 11.9285 20.7961C11.8666 20.7961 11.8666 20.8574 11.8666 20.8574C11.8059 20.9187 11.6839 20.9794 11.6839 21.0406C8.44175 25.9342 8.62557 25.6285 8.56369 25.6898C8.38047 25.9955 8.50303 26.362 8.74753 26.6071C15.2926 32.6625 18.7174 35.7828 18.7174 35.8434C19.0238 36.0885 19.4515 36.0273 19.6966 35.7828C22.8162 32.9076 29.6671 26.6071 29.6671 26.5458C29.8503 26.362 29.9122 25.9343 29.6671 25.6285Z" fill="white"/>
</svg>
