<svg width="32" height="36" viewBox="0 0 32 36" fill="none" xmlns="http://www.w3.org/2000/svg">
<path d="M12.4545 15.5771H14.333C14.7574 15.5771 15.1211 15.2134 15.1211 14.789V12.9105H16.6359V14.789C16.6359 15.2134 16.9996 15.5771 17.4246 15.5771H19.3031V17.0919H17.4246C16.9996 17.0919 16.6359 17.4556 16.6359 17.88V19.7585H15.1211V17.88C15.1211 17.4556 14.7574 17.0919 14.333 17.0919H12.4545V15.5771ZM11.7272 18.6073H13.6057V20.4858C13.6057 20.9102 13.9693 21.2739 14.333 21.2739H17.3633C17.7877 21.2739 18.0906 20.9102 18.0906 20.4858V18.6073H20.0299C20.4548 18.6073 20.8179 18.2437 20.8179 17.8193V14.789C20.8179 14.3646 20.4548 14.0009 20.0299 14.0009H18.1513V12.1224C18.1513 11.698 17.7877 11.3951 17.4246 11.3951H14.3943C13.9693 11.3951 13.667 11.7588 13.667 12.1224V14.0617H11.7879C11.3635 14.0617 10.9998 14.4253 10.9998 14.8497V17.88C10.9391 18.2437 11.3028 18.6073 11.7272 18.6073Z" fill="white"/>
<path d="M26.4546 21.0316C25.485 23.941 23.3029 25.8201 18.5757 30.7289H13.1818C8.4546 25.8201 6.27252 23.941 5.30231 21.0316C4.39401 18.2442 4.51483 14.2437 4.51483 5.94102C7.90877 6.36541 11.1819 6.12317 13.4848 5.27439H18.2727C20.5756 6.12317 23.8481 6.36541 27.2427 5.94102C27.2427 14.2437 27.3635 18.2442 26.4546 21.0316ZM28.7575 5.09223C28.7575 4.60773 28.3331 4.24406 27.9087 4.36548C24.3939 4.9107 20.9393 4.72854 18.6971 3.88036C18.5757 3.75953 18.4543 3.75955 18.3941 3.75955H13.3639C13.2419 3.75955 13.1818 3.75955 13.1211 3.81966C10.8789 4.66844 7.42426 4.84997 3.9089 4.30475C3.42379 4.24404 3.06014 4.60773 3.06014 5.03212C3.06014 23.941 2.5149 21.6988 12.333 31.9407C12.4545 32.0622 12.6967 32.1836 12.8788 32.1836H18.9393C19.1209 32.1836 19.3632 32.1229 19.4846 31.9407C29.3027 21.7589 28.7575 24.0017 28.7575 5.09223Z" fill="white"/>
<path d="M15.8478 8.72746C15.424 8.72746 15.0603 9.09113 15.0603 9.51553C15.0603 9.93932 15.424 10.303 15.8478 10.303C19.1816 10.303 21.9089 13.0303 21.9089 16.3635C21.9089 19.6974 19.1816 22.4246 15.8478 22.4246C12.5152 22.4246 9.78727 19.6974 9.78727 16.3635C9.78727 15.9397 9.42422 15.5761 9.05994 15.5761C8.63615 15.5761 8.27246 15.9397 8.27246 16.3635C8.27246 20.5455 11.6664 23.9395 15.8478 23.9395C20.0298 23.9395 23.4243 20.5455 23.4243 16.3635C23.4243 12.1214 20.0298 8.72746 15.8478 8.72746Z" fill="white"/>
<path d="M15.848 24.6659C11.2422 24.6659 7.54526 20.9082 7.54526 16.3626C7.54526 11.7568 11.3029 7.99914 15.848 7.99914C20.3942 7.99914 24.1513 11.7568 24.1513 16.3626C24.2126 20.9082 20.455 24.6659 15.848 24.6659ZM15.848 6.48371C10.394 6.48371 5.96973 10.908 5.96973 16.3626C5.96973 21.8171 10.394 26.1807 15.848 26.1807C21.3031 26.1807 25.7274 21.7564 25.7274 16.3626C25.7274 10.908 21.3031 6.48371 15.848 6.48371Z" fill="white"/>
<path d="M12.3935 34.4846C6.45438 28.3026 3.66637 25.8783 2.45391 22.3028C1.24204 18.6666 1.4843 13.6358 1.4843 2.3029C5.78713 2.84812 9.78698 2.54518 12.7571 1.45414H18.9998C21.9693 2.54518 25.9692 2.84812 30.2726 2.3029C30.2726 13.5757 30.5149 18.6666 29.3024 22.3028C28.0906 25.8783 25.3025 28.3026 19.3629 34.4846H12.3935ZM29.4845 34.4846H21.4241C26.8174 28.9086 29.4238 26.4848 30.697 22.7873C32.0297 18.7875 31.7267 13.5758 31.7267 1.45414C31.7267 0.969036 31.3023 0.666065 30.8779 0.726776C26.393 1.39342 22.333 1.15115 19.3629 0.060112C19.3027 0 19.1813 0 19.1206 0H12.6363C12.575 0 12.4542 0 12.3935 0.060112C9.42392 1.15115 5.36334 1.39342 0.878368 0.726776C0.393263 0.666065 0.0295772 1.02975 0.0295772 1.45414C0.0295772 13.5758 -0.27338 18.8482 1.05991 22.7873C2.33308 26.4848 4.93893 28.9086 10.3328 34.4846H2.21164C1.78725 34.4846 1.42357 34.8482 1.42357 35.2119C1.42357 35.6363 1.78725 36 2.21164 36C3.4235 36 28.3935 36 29.4845 36C29.9083 36 30.2726 35.6363 30.2726 35.2119C30.2726 34.8482 29.9083 34.4846 29.4845 34.4846Z" fill="white"/>
</svg>
