<svg width="37" height="36" viewBox="0 0 37 36" fill="none" xmlns="http://www.w3.org/2000/svg">
<path d="M28.6299 32.0406C28.6299 32.8934 29.2999 33.5635 30.1527 33.5635C31.0055 33.5635 31.6756 32.8934 31.6756 32.0406C31.6756 31.1878 31.0055 30.5178 30.1527 30.5178C29.2999 30.5178 28.6299 31.1878 28.6299 32.0406Z" fill="white"/>
<path d="M9.56386 33.5635C10.4167 33.5635 11.0867 32.8934 11.0867 32.0406C11.0867 31.1878 10.4167 30.5178 9.56386 30.5178C8.71107 30.5178 8.04102 31.1878 8.04102 32.0406C8.04102 32.8934 8.71107 33.5635 9.56386 33.5635Z" fill="white"/>
<path d="M35.0863 22.9036C31.1269 22.9036 8.64975 22.9036 5.36041 22.9036V19.1269C6.57868 19.1269 34.5381 19.1269 35.0863 19.1269V22.9036ZM31.2487 25.9492H28.9949V24.4264H31.2487V25.9492ZM29.3604 28.203H24.4264V24.3655H27.4721V26.6802C27.4721 27.1066 27.8376 27.4721 28.264 27.4721H29.4213L29.3604 28.203ZM32.4061 32.0406C32.4061 33.3198 31.3706 34.2944 30.1523 34.2944C28.8731 34.2944 27.8376 33.2589 27.8376 32.0406C27.8376 30.7614 28.8731 29.7259 30.1523 29.7259C31.3706 29.7259 32.4061 30.7614 32.4061 32.0406ZM11.8782 32.0406C11.8782 33.3198 10.8426 34.2944 9.56345 34.2944C8.28426 34.2944 7.30965 33.2589 7.30965 32.0406C7.30965 30.7614 8.34518 29.7259 9.56345 29.7259C10.7817 29.7259 11.8782 30.7614 11.8782 32.0406ZM22.9036 24.4264V28.264H16.8122V24.4264H22.9036ZM11.5127 27.4721C11.9391 27.4721 12.2437 27.1066 12.2437 26.6802V24.3655H15.2893V28.203H10.3553V27.4112L11.5127 27.4721ZM8.46701 24.4264H10.7208V25.9492H8.40609V24.4264H8.46701ZM1.58376 7.79696C2.92386 8.16244 3.83756 9.3198 3.83756 10.7208C3.83756 13.8883 3.83756 20.7716 3.83756 22.9036H1.58376V7.79696ZM12.9137 13.7665H5.42132V11.5127H9.98985C11.3909 11.4518 12.5482 12.4264 12.9137 13.7665ZM22.4772 9.01523C22.1117 7.91878 22.1117 6.27411 22.1726 2.98477C22.1726 2.61929 22.1726 2.25381 22.1726 1.88832C23.7563 2.01015 25.2183 1.88832 26.3756 1.52284H28.8122C29.9695 1.94924 31.3706 2.07107 32.9543 1.88832C32.9543 5.72589 33.0152 7.73604 32.6497 9.01523C32.2234 10.3553 31.1878 11.1472 28.6294 13.7665H26.4975C23.9391 11.1472 22.9036 10.3553 22.4772 9.01523ZM32.0406 17.5431H5.42132V15.2284C6.2132 15.2284 31.2487 15.2284 32.0406 15.2284V17.5431ZM35.8173 17.5431H33.5635V14.4975C33.5635 14.0711 33.198 13.7056 32.7716 13.7056H30.7005C32.5279 11.8782 33.5635 10.9645 34.0508 9.38071C34.599 7.85787 34.4772 5.60406 34.4772 1.03553C34.4772 0.548225 34.0508 0.182743 33.6244 0.304569C31.8579 0.548225 30.3959 0.487309 29.2386 0.0609131C29.1777 0 29.0558 0 28.9949 0H26.3147C26.1929 0 26.132 0 26.0711 0.0609131C24.9137 0.487309 23.3909 0.609138 21.6244 0.304569C21.1371 0.243656 20.7716 0.609138 20.7716 1.03553C20.7716 5.7868 20.6497 7.91878 21.198 9.50254C21.6853 11.0254 22.7208 12 24.5482 13.8274H17.5431V1.64467C17.5431 1.21827 17.1777 0.852791 16.8122 0.852791C16.3858 0.852791 16.0203 1.21827 16.0203 1.64467V3.16751H11.4518V1.64467C11.4518 1.21827 11.0863 0.852791 10.6599 0.852791C10.2335 0.852791 9.86802 1.21827 9.86802 1.64467V3.89848C9.86802 4.32487 10.2335 4.69036 10.6599 4.69036H12.9137V9.25888C12.9137 9.68528 13.2792 10.0508 13.7056 10.0508C14.132 10.0508 14.4975 9.68528 14.4975 9.25888V4.69036H16.0203V13.8274H14.4365C14.0711 11.6954 12.1827 10.0508 9.92893 10.0508H5.29949C4.93401 7.91878 3.04569 6.27411 0.791878 6.27411C0.365482 6.27411 0 6.6396 0 7.06599V23.8173C0 24.2437 0.365482 24.5482 0.791878 24.5482C2.74112 24.5482 5.7868 24.5482 6.88325 24.5482V26.8629C6.88325 27.2893 7.24873 27.6548 7.61421 27.6548H8.77157V28.5076C7.06599 28.8731 5.72589 30.3959 5.72589 32.2234C5.72589 34.2944 7.43147 36 9.50254 36C11.5736 36 13.2792 34.2944 13.2792 32.2234C13.2792 31.3706 12.9746 30.5787 12.4873 29.9086H26.9848C26.4975 30.5178 26.1929 31.3096 26.1929 32.2234C26.1929 34.2944 27.8985 36 30.0305 36C32.1015 36 33.8071 34.2944 33.8071 32.2234C33.8071 30.3959 32.467 28.8731 30.7614 28.5076V27.6548H32.0406C32.467 27.6548 32.8325 27.2893 32.8325 26.8629V24.5482H35.8782C36.3046 24.5482 36.6701 24.1827 36.6701 23.8173V18.4569C36.6091 17.9086 36.2437 17.5431 35.8173 17.5431Z" fill="white"/>
<path d="M30.6399 5.60404L26.8632 9.38069L24.7921 7.30962C24.6094 7.12688 24.6094 6.82231 24.7921 6.63957C24.9749 6.45683 25.2795 6.45683 25.4622 6.63957L26.315 7.49236C26.6196 7.79693 27.1069 7.79693 27.4114 7.49236L29.9698 4.93399C30.1526 4.75125 30.4571 4.75125 30.6399 4.93399C30.8226 5.17764 30.8226 5.4213 30.6399 5.60404ZM31.7363 3.89845C30.9444 3.10658 29.7262 3.10658 28.9343 3.89845L26.8632 5.96952L26.5586 5.60404C25.8277 4.87307 24.6703 4.81216 23.8784 5.48221C22.9647 6.21318 22.9038 7.61419 23.7566 8.40607L26.315 10.9644C26.6196 11.269 27.1069 11.269 27.4114 10.9644L31.7363 6.63957C32.4673 5.90861 32.4673 4.69033 31.7363 3.89845Z" fill="white"/>
</svg>
