<svg width="25" height="32" viewBox="0 0 25 32" fill="none" xmlns="http://www.w3.org/2000/svg">
<path d="M12.2419 25.4833V24.6281C12.4019 24.6816 12.5624 24.7357 12.6689 24.8422C12.776 24.8957 12.8295 25.0022 12.8295 25.1627C12.776 25.3763 12.616 25.4833 12.2419 25.4833ZM11.8678 23.2393C11.7072 23.1858 11.5472 23.1328 11.4942 23.0793C11.3866 23.0258 11.3866 22.9187 11.3866 22.8122C11.3866 22.5452 11.5472 22.4381 11.9213 22.3846L11.8678 23.2393ZM13.1501 23.6669C12.7225 23.5063 12.2954 23.3998 12.2419 23.3998V22.3846C12.4019 22.3846 12.5089 22.4381 12.6689 22.4917C12.883 22.5452 13.1501 22.6517 13.3101 22.7587C13.3636 22.8122 13.4171 22.8122 13.4171 22.8657L13.9512 21.8505C13.7377 21.744 13.5241 21.6364 13.2036 21.5299C12.9365 21.4234 12.616 21.3694 12.2954 21.3164V20.5682H11.8143V21.3164C11.1201 21.3694 10.5325 21.6899 10.2649 22.3311C10.1584 22.5452 10.1584 22.7587 10.1584 23.0257C10.1584 23.5599 10.3719 23.934 10.9596 24.201C11.3337 24.4151 11.7613 24.4681 11.9213 24.5216V25.4833C11.7613 25.4833 11.6007 25.4298 11.3866 25.3763C11.1201 25.2692 10.8531 25.1627 10.639 25.0022C10.5325 24.9492 10.479 24.8957 10.479 24.8957L9.94434 25.9639C10.479 26.338 11.1731 26.5515 11.8143 26.605V27.4597H12.2954V26.605C12.5089 26.605 12.776 26.5515 12.9895 26.498C13.2036 26.445 13.3636 26.338 13.5771 26.2309C13.7377 26.1244 13.8977 25.9639 13.9512 25.7504C14.0583 25.5368 14.1118 25.3227 14.1118 25.0557C14.1118 24.8421 14.0583 24.6281 14.0047 24.4681C13.8447 24.0945 13.5771 23.8269 13.1501 23.6669Z" fill="white"/>
<path d="M11.9748 30.6644C8.28852 30.6644 5.29686 27.6728 5.29686 23.987C5.29686 20.3007 8.34204 17.309 11.9748 17.309C15.6606 17.309 18.6523 20.3007 18.6523 23.987C18.6523 27.6728 15.6606 30.6644 11.9748 30.6644ZM7.38032 10.1504C7.70089 8.28052 8.23501 6.67768 8.98318 5.39539C9.67732 4.11363 10.5325 3.31247 11.3337 3.04488V10.5245C10.2119 9.56282 8.66261 9.45578 7.38032 10.1504ZM1.93112 9.93691C3.21341 6.83822 5.61744 4.48771 8.66261 3.47248C7.11327 5.44943 6.31209 8.38758 5.938 10.8451C4.92277 9.77637 3.32044 9.4028 1.93112 9.93691ZM22.0715 9.9899C20.7363 9.45579 19.1334 9.72285 18.1182 10.8981C17.7446 8.38758 16.9429 5.44943 15.3936 3.47248C18.3852 4.4342 20.8428 6.83822 22.0715 9.9899ZM12.669 10.5245V3.04488C13.5242 3.31247 14.3789 4.16714 15.073 5.44943C15.7677 6.73119 16.3018 8.33405 16.6223 10.204C15.34 9.45579 13.7912 9.56282 12.669 10.5245ZM12.669 16.0267V13.2491C12.7225 12.0204 13.7377 11.0586 14.913 11.0586C15.8212 11.0586 16.6223 11.6463 16.9429 12.4474C16.9429 12.501 16.9429 12.501 16.9964 12.5545C17.1035 12.8215 17.157 13.0886 17.157 13.4092C17.157 13.7832 17.4775 14.0503 17.8511 14.0503C18.2252 14.0503 18.5458 13.7297 18.5458 13.4092C18.5458 12.1269 19.5605 11.1122 20.7898 11.1122C21.6974 11.1122 22.4991 11.6463 22.8197 12.501C22.9262 12.8215 23.3003 12.9816 23.6209 12.8751C23.9415 12.768 24.155 12.4475 24.102 12.1269C23.0333 6.46414 18.5993 1.92315 12.7225 1.65609V0.694355C12.7225 0.320795 12.4019 0.000244141 12.0278 0.000244141C11.6543 0.000244141 11.3867 0.320795 11.3867 0.694355V1.65609C5.5104 1.97667 1.07643 6.51766 0.00821207 12.1269C-0.045305 12.4475 0.168237 12.768 0.488809 12.8751C0.809382 12.9816 1.18346 12.8215 1.28997 12.501C1.71757 11.4863 2.78633 10.8981 3.85455 11.1657C4.86979 11.4327 5.56392 12.3404 5.56392 13.4092C5.56392 13.7832 5.88449 14.0503 6.25858 14.0503C6.63267 14.0503 6.95271 13.7297 6.95271 13.4092C6.95271 13.0886 7.00623 12.8215 7.11327 12.5545C7.11327 12.501 7.16678 12.501 7.16678 12.4474C7.54087 11.6463 8.28851 11.1122 9.19671 11.1122C10.4255 11.1122 11.4407 12.1269 11.4407 13.4092V13.4627V16.0267C7.3268 16.3473 4.06809 19.8201 4.06809 23.987C4.06809 28.421 7.64738 32.0002 12.0813 32.0002C16.5158 32.0002 20.0951 28.421 20.0951 23.987C19.9881 19.8201 16.7829 16.3473 12.669 16.0267Z" fill="white"/>
<path d="M11.975 27.9938C9.78449 27.9938 7.96809 26.1779 7.96809 23.9874C7.96809 21.7969 9.78449 19.9805 11.975 19.9805C14.1655 19.9805 15.9813 21.7969 15.9813 23.9874C15.9813 26.1779 14.2185 27.9938 11.975 27.9938ZM11.975 18.6447C9.03631 18.6447 6.63281 21.0493 6.63281 23.9874C6.63281 26.9256 9.03631 29.3296 11.975 29.3296C14.9131 29.3296 17.3171 26.9256 17.3171 23.9874C17.3171 21.0493 14.9666 18.6447 11.975 18.6447Z" fill="white"/>
</svg>
