<svg width="34" height="32" viewBox="0 0 34 32" fill="none" xmlns="http://www.w3.org/2000/svg">
<path d="M16.3232 12.6689C16.2673 12.6131 16.2118 12.5573 16.2118 12.4456C16.2118 12.2788 16.3232 12.1672 16.6016 12.1114V12.7799C16.4902 12.7799 16.4345 12.7247 16.3232 12.6689ZM16.8801 13.8387C16.9917 13.8945 17.1033 13.9503 17.1585 14.0061C17.2144 14.0614 17.2702 14.1172 17.2702 14.2288C17.2702 14.3956 17.1585 14.5073 16.8801 14.5073V13.8387ZM16.2673 14.3956C16.1004 14.3404 15.8774 14.2288 15.7104 14.1172C15.6545 14.0613 15.599 14.0614 15.599 14.0061L15.209 14.7858C15.599 15.0643 16.1559 15.2311 16.6016 15.2311V15.8445H16.9917V15.2869C17.326 15.2869 17.6603 15.1759 17.883 15.0084C17.9946 14.8968 18.1056 14.7858 18.1614 14.6741C18.2173 14.5073 18.2731 14.3404 18.2731 14.173C18.2731 13.7271 18.0504 13.3927 17.6045 13.17C17.2702 13.0584 16.9917 13.0032 16.9359 12.9474V12.223C17.0475 12.223 17.1585 12.2788 17.2144 12.2788C17.3818 12.3346 17.5487 12.3904 17.6603 12.5015C17.7161 12.5573 17.7713 12.5573 17.7713 12.5573L18.1614 11.8334C17.9946 11.7218 17.8271 11.666 17.6045 11.5544C17.3818 11.4991 17.1585 11.4433 16.9359 11.3875V10.8305H16.5461V11.3875C16.0445 11.4433 15.599 11.666 15.4317 12.1114C15.3203 12.3904 15.3203 12.7799 15.376 13.0032C15.4876 13.2259 15.6545 13.3927 15.8774 13.5044C16.1559 13.6718 16.4902 13.7271 16.6016 13.7829V14.5073C16.4902 14.4515 16.3789 14.3956 16.2673 14.3956Z" fill="white"/>
<path d="M16.7135 10.5516C18.2736 10.5516 19.555 11.833 19.555 13.3923C19.555 14.9522 18.2736 16.2336 16.7135 16.2336C15.1538 16.2336 13.8722 14.9522 13.8722 13.3923C13.8722 11.7766 15.1538 10.5516 16.7135 10.5516ZM16.7135 17.5708C19.0539 17.5708 20.9475 15.6766 20.9475 13.337C20.9475 10.9969 19.0539 9.10275 16.7135 9.10275C14.3738 9.10275 12.4795 10.9969 12.4795 13.337C12.4795 15.6766 14.3738 17.5708 16.7135 17.5708Z" fill="white"/>
<path d="M32.0337 19.5772L23.343 27.7662H20.2232C19.8331 27.7662 19.4988 28.1005 19.4988 28.4906C19.4988 28.8807 19.8331 29.215 20.2232 29.215H22.9529V30.608H18.4959V23.3656C18.4959 23.1423 18.3848 22.9754 18.2174 22.808L17.8831 22.5295C26.7413 15.3987 26.3511 15.733 26.3511 15.733C26.7413 15.3987 27.354 15.3987 27.7994 15.733C28.357 16.1789 28.357 17.0144 27.8552 17.4603L22.5628 22.1952C22.2843 22.4737 22.2843 22.9196 22.507 23.1981C22.7854 23.4766 23.2314 23.4766 23.5099 23.2539L28.8023 18.4068C29.5267 17.7388 29.8052 16.7917 29.5267 15.8999C29.5267 15.8446 29.5267 16.4016 29.4709 6.76375C29.4709 6.03934 30.0279 5.48235 30.7523 5.48235C31.4767 5.48235 32.0337 6.03934 32.0337 6.76375V19.5772ZM16.379 30.5517V23.6441L16.7131 23.4208L17.0476 23.6441V30.5517H16.379ZM10.5293 29.1592H13.2592C13.6492 29.1592 13.9835 28.8249 13.9835 28.4348C13.9835 28.0447 13.6492 27.7109 13.2592 27.7109H10.1393L1.39285 19.5772V6.76375C1.39285 6.03934 1.94994 5.48235 2.67408 5.48235C3.39844 5.48235 3.95537 6.03934 3.95537 6.76375C3.89989 16.4016 3.89989 15.7888 3.89989 15.8999C3.67693 16.7917 3.95537 17.7946 4.62381 18.4068L9.91638 23.2539C10.1952 23.5324 10.641 23.4766 10.9194 23.1981C11.1978 22.9196 11.1421 22.4737 10.8635 22.1952L5.57118 17.3487C5.06978 16.9028 5.06978 16.0673 5.62688 15.6214C6.07258 15.2871 6.68537 15.2871 7.07537 15.6214C7.07537 15.6214 6.74107 15.3429 15.5433 22.4185L15.2091 22.697C15.042 22.808 14.9307 23.0313 14.9307 23.2539V30.4964H10.4736L10.5293 29.1592ZM18.2732 20.301L16.7131 21.583L15.1534 20.301C16.156 20.4685 17.2703 20.4685 18.2732 20.301ZM11.3651 10.2178C12.2565 8.15623 13.4819 6.70795 14.7077 6.15096C15.3205 5.87192 15.989 5.76085 16.7131 5.76085C18.9976 5.76085 20.6128 7.71084 21.5046 9.38179C22.6744 11.4992 23.1756 13.783 23.1756 14.7859C23.1756 15.8999 22.507 16.9586 21.3372 17.7388C19.443 19.0754 16.7691 19.3539 14.5404 18.8528C11.9222 18.24 10.1393 16.6243 10.1393 14.7859C10.1952 13.783 10.585 11.9446 11.3651 10.2178ZM17.7715 2.08354C18.4401 1.74924 18.9412 1.63817 19.3872 1.63817L18.6075 4.59107C17.9947 4.36784 17.3819 4.25676 16.7691 4.25676C16.2674 4.25676 15.8217 4.31257 15.3762 4.42363L14.7631 1.97246C15.5991 2.36257 16.7131 2.58527 17.7715 2.08354ZM30.7523 4.08934C29.2482 4.08934 28.0785 5.31492 28.0785 6.76375L28.1337 14.2289C27.2424 13.8388 26.2395 13.9504 25.4599 14.619L24.5686 15.2871C24.5686 15.1202 24.6244 14.8969 24.6244 14.7301C24.6244 13.3929 23.9558 10.8306 22.7296 8.65739C22.1732 7.59923 21.5046 6.76374 20.7802 6.09514C22.1174 5.76084 23.1197 5.20332 23.1756 5.20332C23.5099 5.03645 23.6215 4.59106 23.4541 4.25676C23.2872 3.92245 22.8413 3.81086 22.507 3.97829C22.507 3.97829 22.2843 4.08933 21.8942 4.25676C22.5628 3.47653 22.9529 2.75212 23.0087 2.69687C23.1756 2.36257 23.0639 1.91665 22.7296 1.74922C22.3959 1.58235 21.95 1.69398 21.7831 2.02829C21.7831 2.02829 21.1145 3.19805 20.1116 4.08934L20.836 1.24806C20.9471 0.913757 20.7244 0.524193 20.3901 0.412575C20.2232 0.356766 18.9413 0.0224533 17.1034 0.91374C16.1005 1.41492 14.5404 0.524189 13.9835 0.134079C13.7608 -0.0333481 13.4264 -0.0333366 13.2035 0.0782833C12.9807 0.245157 12.8134 0.524195 12.9248 0.802689L13.9276 4.98062C10.3623 6.76375 8.74671 12.7248 8.74671 14.7859C8.74671 14.9528 8.74671 15.176 8.80213 15.3429L7.9666 14.6743C7.18677 14.0615 6.18397 13.8946 5.29252 14.2847L5.34844 6.819C5.34844 5.31492 4.12263 4.14514 2.67408 4.14514C1.22575 4.14514 0 5.37073 0 6.819V19.9115C0 20.0783 0.0558662 20.301 0.222962 20.4127L9.13671 28.7691V31.2766C9.13671 31.6662 9.47063 32.0005 9.8609 32.0005C10.6964 32.0005 22.7854 32.0005 23.6215 32.0005C24.011 32.0005 24.3453 31.6662 24.3453 31.2766V28.7691L33.2593 20.4127C33.4262 20.301 33.482 20.0783 33.482 19.9115V6.76375C33.4262 5.25967 32.2006 4.08934 30.7523 4.08934Z" fill="white"/>
</svg>
