<svg width="29" height="32" viewBox="0 0 29 32" fill="none" xmlns="http://www.w3.org/2000/svg">
<path d="M8.9602 21.2943L6.9237 19.2578L8.9602 17.2219L10.9967 19.2578L8.9602 21.2943ZM9.48361 15.6505C9.19277 15.3597 8.72764 15.3597 8.43679 15.6505L5.3529 18.7344C5.06205 19.0253 5.06205 19.4909 5.3529 19.7818L8.43679 22.8651C8.72764 23.156 9.19277 23.156 9.48361 22.8651L12.5675 19.7818C12.8583 19.4909 12.8583 19.0253 12.5675 18.7344L9.48361 15.6505Z" fill="white"/>
<path d="M12.9742 26.182H4.94532C4.53733 26.182 4.24707 26.5311 4.24707 26.8803C4.24707 27.2877 4.59619 27.6362 4.94532 27.6362H12.9742C13.3816 27.6362 13.7307 27.2877 13.7307 26.8803C13.6724 26.4728 13.3816 26.182 12.9742 26.182Z" fill="white"/>
<path d="M23.9705 12.334L20.6541 15.6504L18.8507 13.8471C18.7341 13.7305 18.7341 13.4979 18.8507 13.3231C18.9667 13.2071 19.1998 13.2071 19.3741 13.3231L20.1307 14.0796C20.4215 14.3705 20.8872 14.3705 21.178 14.0796L23.5054 11.7523C23.6214 11.6357 23.8545 11.6357 24.0288 11.7523C24.1454 11.9271 24.1454 12.1597 23.9705 12.334ZM22.458 10.7632L20.6541 12.5671L20.4215 12.334C19.7232 11.6357 18.5598 11.6357 17.8616 12.334C17.1633 13.0322 17.1633 14.1962 17.8616 14.8939L20.1889 17.2218C20.4798 17.5127 20.9455 17.5127 21.2357 17.2218L25.0762 13.3814C25.7745 12.6831 25.7745 11.5197 25.0762 10.8215C24.3196 10.0649 23.1563 10.0649 22.458 10.7632Z" fill="white"/>
<path d="M26.3562 15.5346C25.9488 16.9306 24.8431 17.6871 22.3415 20.3053H20.2473C17.6874 17.6288 16.64 16.8729 16.2326 15.5346C15.8251 14.2547 15.8834 12.2182 15.8834 8.32004C17.5125 8.49432 18.909 8.32004 20.0724 7.91262H22.5163C23.6797 8.32004 25.0762 8.43604 26.7053 8.32004C26.7053 12.2765 26.7636 14.3124 26.3562 15.5346ZM15.4177 28.3342C13.0327 28.3342 5.58494 28.3342 2.50163 28.3342C1.86165 28.3342 1.33824 27.8108 1.33824 27.1708V25.4251H16.5817V27.1708C16.5817 27.8108 16.0577 28.3342 15.4177 28.3342ZM13.6726 30.545H12.9161V29.789H13.6726V30.545ZM4.94554 30.545H4.24728V29.789H4.94554V30.545ZM2.50163 10.1817H14.4292C14.4292 11.3456 14.4292 12.2765 14.4292 13.0907H1.33824V11.3456C1.33824 10.6474 1.86165 10.1817 2.50163 10.1817ZM6.39976 3.60704H11.5196V8.66916H6.39976V3.60704ZM4.24728 1.80368C4.24728 1.62883 4.42155 1.45456 4.5964 1.45456H13.3235C13.4978 1.45456 13.6726 1.62883 13.6726 1.80368C13.6726 1.97796 13.4978 2.15283 13.3235 2.15283H4.5964C4.42155 2.15283 4.24728 1.97796 4.24728 1.80368ZM16.5817 23.9709H1.33824V14.5449H14.5452C14.7195 16.4072 15.3017 17.338 16.5817 18.7345V23.9709ZM28.1601 7.56348C28.1601 7.09835 27.7522 6.80692 27.3453 6.86521C25.5997 7.15606 24.0871 7.04008 22.9232 6.63266C22.8655 6.57438 22.7489 6.57439 22.6906 6.57439H20.0141C19.9564 6.57439 19.8399 6.57438 19.7816 6.63266C18.6176 7.09836 17.1051 7.15606 15.3594 6.86521C14.8943 6.80692 14.5452 7.15606 14.5452 7.56348C14.5452 7.97089 14.5452 8.37774 14.5452 8.72687H13.0904V3.60704H13.4395C14.4292 3.60704 15.2434 2.79279 15.2434 1.80368C15.2434 0.813997 14.4292 -0.000242233 13.4395 -0.000242233H4.71239C3.72329 -0.000242233 2.90903 0.813997 2.90903 1.80368C2.90903 2.79279 3.72329 3.60704 4.71239 3.60704H5.06153V8.72687H2.61762C1.16339 8.72687 0 9.89083 0 11.3456V27.1708C0 28.625 1.16339 29.789 2.61762 29.789H2.90903V31.2432C2.90903 31.6512 3.25817 31.9998 3.66501 31.9998H5.81808C6.22492 31.9998 6.57404 31.6512 6.57404 31.2432V29.789H11.6944V31.2432C11.6944 31.6512 12.0436 31.9998 12.4504 31.9998H14.6618C15.0686 31.9998 15.4177 31.6512 15.4177 31.2432V29.789H15.7086C17.1634 29.789 18.3268 28.625 18.3268 27.1708V20.1888C18.7342 20.5962 19.1999 21.0619 19.665 21.5853C19.7816 21.7018 20.0141 21.8178 20.189 21.8178H22.8655C23.0397 21.8178 23.2723 21.7595 23.3889 21.5853C26.1236 18.7345 27.4036 17.8037 27.9853 15.9997C28.2761 14.3707 28.1601 12.1599 28.1601 7.56348Z" fill="white"/>
</svg>
