<svg width="33" height="32" viewBox="0 0 33 32" fill="none" xmlns="http://www.w3.org/2000/svg">
<path d="M11.9466 2.66671C11.8403 2.66671 11.04 2.87989 10.2401 3.51996C9.44031 4.16004 8.53361 5.27991 8.42676 7.25356C8.42676 7.62649 8.6939 7.94653 9.06684 7.94653C9.4403 7.94653 9.75981 7.67992 9.75981 7.30645C9.86667 4.53351 12.1598 3.94685 12.2667 3.94685C12.6407 3.83999 12.8538 3.51997 12.747 3.14704C12.6936 2.827 12.3201 2.61329 11.9466 2.66671Z" fill="white"/>
<path d="M13.1733 28.0535L15.1999 23.8935C15.4136 23.4672 15.0936 22.9334 14.6133 22.9334H11.2531L14.4006 15.9471H17.9739L16.5864 19.0401C16.4271 19.467 16.6403 19.8939 17.1201 20.0002L20.8003 20.4805L13.1733 28.0535ZM6.18648 19.3601C3.51986 19.2538 1.38699 17.067 1.38699 14.2935C1.38699 11.5205 3.68015 9.22684 6.55995 9.28027C6.98684 9.28027 7.30687 8.9068 7.25345 8.48043C6.61337 4.69342 9.60004 1.3333 13.3871 1.3333C15.7871 1.3333 17.9205 2.66686 18.9869 4.74684C19.1467 5.06688 19.5201 5.17372 19.8402 5.06687C20.3739 4.85369 20.9066 4.74684 21.4398 4.74684C23.4135 4.74684 25.0671 6.18676 25.3337 8.05355C24.4799 8.10698 23.0405 8.42701 21.9201 9.70663C21.6535 9.97377 21.7069 10.4001 21.9736 10.6667C22.2402 10.9333 22.6671 10.8804 22.9337 10.6133C24.0001 9.44053 25.4406 9.38658 25.8664 9.44054C25.9203 9.44054 25.9203 9.44054 25.9738 9.44054C28.3203 9.92033 30.1337 12.0003 30.0269 14.4537C29.9734 17.1738 27.6268 19.4135 24.9068 19.4135C22.4005 19.4135 22.2936 19.4135 22.2936 19.4135C22.2936 19.4135 18.1331 18.8803 18.1331 18.8269L19.5736 15.5736C19.7867 15.1467 19.4667 14.6135 18.9869 14.6135H13.9737C13.7066 14.6135 13.4934 14.7738 13.3871 14.987L11.4134 19.3601H6.18648ZM24.9068 20.6937C28.4267 20.6937 31.3599 17.8668 31.3599 14.2935C31.3599 11.4671 29.4402 9.01365 26.7202 8.21382C26.5064 5.5472 24.2133 3.41327 21.4398 3.41327C20.9066 3.41327 20.3739 3.46723 19.8931 3.62698C18.56 1.44015 16.1066 0.000244141 13.3871 0.000244141C9.01339 0.000244141 5.49352 3.68042 5.81356 7.94669C2.56029 8.26673 0 10.9868 0 14.24C0 17.707 2.66662 20.5334 6.08017 20.6403C6.08017 20.6403 5.81355 20.6403 10.7733 20.6403L9.60005 23.3069C9.38687 23.7338 9.7069 24.267 10.1867 24.267H13.4934L10.1867 31.0407C9.97351 31.467 10.2935 32.0002 10.7733 32.0002C10.9336 32.0002 11.0934 31.9468 11.2531 31.787L22.4005 20.6403L24.9068 20.6937Z" fill="white"/>
<path d="M22.7202 23.3603C22.3472 23.3603 22.0801 23.6804 22.0801 24.0538C22.0801 24.4273 22.4006 24.7473 22.7202 24.7473H26.7203C27.0938 24.7473 27.3604 24.4273 27.3604 24.0538C27.3604 23.6804 27.0404 23.3603 26.7203 23.3603H22.7202Z" fill="white"/>
<path d="M31.3598 25.3332H23.3599C22.9865 25.3332 22.667 25.6532 22.667 26.0267C22.667 26.4002 22.9865 26.6667 23.3599 26.6667H31.3598C31.7333 26.6667 32.0538 26.3467 32.0538 26.0267C32.0538 25.6532 31.7333 25.3332 31.3598 25.3332Z" fill="white"/>
<path d="M26.7203 28.0004C26.7203 27.6274 26.4003 27.3074 26.0268 27.3074H18.027C17.6535 27.3074 17.334 27.6274 17.334 28.0004C17.334 28.3738 17.6535 28.6938 18.027 28.6938H26.0268C26.4003 28.6938 26.7203 28.3738 26.7203 28.0004Z" fill="white"/>
<path d="M29.3867 29.3337H23.3599C22.9865 29.3337 22.667 29.6537 22.667 30.0267C22.667 30.4007 22.9865 30.6667 23.3599 30.6667H29.3867C29.7602 30.6667 30.0802 30.3467 30.0802 30.0267C30.0802 29.6537 29.7602 29.3337 29.3867 29.3337Z" fill="white"/>
<path d="M9.38708 26.0273H4.05385C3.68038 26.0273 3.36035 26.3473 3.36035 26.6674C3.36035 27.0408 3.68038 27.3604 4.05385 27.3604H9.38708C9.76002 27.3604 10.0806 27.0408 10.0806 26.6674C10.0806 26.2939 9.76002 26.0273 9.38708 26.0273Z" fill="white"/>
<path d="M4.74698 24.6932C4.74698 24.3202 4.42642 24.0002 4.05348 24.0002H1.38685C1.01339 24.0002 0.693359 24.3202 0.693359 24.6932C0.693359 25.0666 1.01339 25.3333 1.38685 25.3333H4.05348C4.42642 25.3333 4.74698 25.0132 4.74698 24.6932Z" fill="white"/>
<path d="M7.41331 28.694C7.41331 28.3205 7.09275 28.0005 6.71982 28.0005H2.72013C2.34667 28.0005 2.08008 28.3205 2.08008 28.694C2.08008 29.0674 2.39957 29.3875 2.72013 29.3875H6.71982C7.09275 29.334 7.41331 29.014 7.41331 28.694Z" fill="white"/>
<path d="M8.74687 30.0268H4.74721C4.37374 30.0268 4.05371 30.3468 4.05371 30.6669C4.05371 31.0409 4.37374 31.3604 4.74721 31.3604H8.74687C9.12033 31.3604 9.44039 31.0409 9.44039 30.6669C9.38696 30.2939 9.0669 30.0268 8.74687 30.0268Z" fill="white"/>
</svg>
