<svg width="42" height="35" viewBox="0 0 42 35" fill="none" xmlns="http://www.w3.org/2000/svg">
<path d="M13.0059 33.8674H28.994" stroke="#000B42" stroke-miterlimit="10" stroke-linecap="round"/>
<path d="M39.3484 0.999702H2.65017C1.73876 0.999702 1 1.73906 1 2.64949V27.5692C1 28.4816 1.73876 29.2209 2.65017 29.2209H39.3484C40.2588 29.2209 40.9982 28.4816 40.9982 27.5692V2.64949C40.9982 1.73906 40.2588 0.999702 39.3484 0.999702Z" stroke="#000B42" stroke-miterlimit="10" stroke-linecap="round"/>
<path d="M23.1025 29.2209L25.1873 33.8674" stroke="#000B42" stroke-miterlimit="10" stroke-linecap="round"/>
<path d="M18.8953 29.2209L16.8105 33.8674" stroke="#000B42" stroke-miterlimit="10" stroke-linecap="round"/>
<path d="M41.0003 25.5596H1.00195" stroke="#000B42" stroke-miterlimit="10" stroke-linecap="round"/>
<path d="M20.1992 27.4238C20.1992 26.9814 20.5585 26.6215 21.0017 26.6215C21.4447 26.6215 21.804 26.9814 21.804 27.4238C21.804 27.8682 21.4447 28.2261 21.0017 28.2261C20.5585 28.2261 20.1992 27.8682 20.1992 27.4238Z" stroke="#000B42" stroke-miterlimit="10" stroke-linecap="round"/>
<path d="M5.11035 8.5603H21.4392" stroke="#000B42" stroke-miterlimit="10"/>
<path d="M5.11035 10.6707H21.4392" stroke="#000B42" stroke-miterlimit="10"/>
<path d="M5.11035 17.8848H21.4392" stroke="#000B42" stroke-miterlimit="10"/>
<path d="M5.11035 19.9951H21.4392" stroke="#000B42" stroke-miterlimit="10"/>
<path d="M27.0117 12.2153C28.347 12.2153 29.4296 11.1319 29.4297 9.79541C29.4297 8.46107 28.3473 7.37749 27.0117 7.37744C25.6758 7.37744 24.5928 8.4611 24.5928 9.79541C24.5928 11.1318 25.6761 12.2153 27.0117 12.2153Z" stroke="#000B42"/>
<path d="M24.0928 9.79528C24.0928 8.18483 25.3996 6.87721 27.0116 6.87721C28.6235 6.87721 29.9301 8.18483 29.9301 9.79528C29.9301 11.4077 28.6235 12.7153 27.0116 12.7153C25.3996 12.7153 24.0928 11.4077 24.0928 9.79528Z" stroke="#000B42" stroke-miterlimit="10"/>
<path d="M25.5586 9.87008L26.3959 10.7805L28.4649 8.81022" stroke="#000B42" stroke-miterlimit="10"/>
<path d="M27.0117 21.0759C28.3475 21.0759 29.4296 19.994 29.4297 18.658C29.4297 17.3219 28.3475 16.24 27.0117 16.24C25.6756 16.24 24.5928 17.3219 24.5928 18.658C24.5928 19.994 25.6757 21.0759 27.0117 21.0759Z" stroke="#000B42"/>
<path d="M24.0928 18.6578C24.0928 17.0454 25.3996 15.7397 27.0116 15.7397C28.6235 15.7397 29.9301 17.0454 29.9301 18.6578C29.9301 20.2703 28.6235 21.5759 27.0116 21.5759C25.3996 21.5759 24.0928 20.2703 24.0928 18.6578Z" stroke="#000B42" stroke-miterlimit="10"/>
<path d="M34.625 12.2153C35.9608 12.2153 37.0429 11.1321 37.043 9.79541C37.043 8.46089 35.9611 7.37744 34.625 7.37744C33.2888 7.37751 32.2061 8.46115 32.2061 9.79541C32.2061 11.1318 33.289 12.2153 34.625 12.2153Z" stroke="#000B42"/>
<path d="M31.7061 9.79528C31.7061 8.18483 33.0127 6.87721 34.6251 6.87721C36.2375 6.87721 37.5432 8.18483 37.5432 9.79528C37.5432 11.4077 36.2375 12.7153 34.6251 12.7153C33.0127 12.7153 31.7061 11.4077 31.7061 9.79528Z" stroke="#000B42" stroke-miterlimit="10"/>
<path d="M34.625 21.0759C35.9612 21.0759 37.0429 19.9942 37.043 18.658C37.043 17.3217 35.9613 16.24 34.625 16.24C33.2886 16.2401 32.2061 17.3219 32.2061 18.658C32.2061 19.9939 33.2886 21.0759 34.625 21.0759Z" stroke="#000B42"/>
<path d="M31.7061 18.6578C31.7061 17.0454 33.0127 15.7397 34.6251 15.7397C36.2375 15.7397 37.5432 17.0454 37.5432 18.6578C37.5432 20.2703 36.2375 21.5759 34.6251 21.5759C33.0127 21.5759 31.7061 20.2703 31.7061 18.6578Z" stroke="#000B42" stroke-miterlimit="10"/>
<path d="M1.00195 3.63257H40.9984" stroke="#000B42" stroke-miterlimit="10"/>
<path d="M33.1523 17.1573L36.096 20.1599" stroke="#000B42" stroke-miterlimit="10"/>
<path d="M36.096 17.1573L33.1523 20.1599" stroke="#000B42" stroke-miterlimit="10"/>
</svg>
