<svg width="41" height="38" viewBox="0 0 41 38" fill="none" xmlns="http://www.w3.org/2000/svg">
<path d="M21.7847 6.09641V34.0234H1V6.09834L21.7847 6.09641Z" stroke="#000B42" stroke-miterlimit="10"/>
<path d="M3.75586 10.4524H10.9868" stroke="#000B42" stroke-miterlimit="10"/>
<path d="M3.75586 12.5388H10.9868" stroke="#000B42" stroke-miterlimit="10"/>
<path d="M3.75586 19.0181H10.9868" stroke="#000B42" stroke-miterlimit="10"/>
<path d="M3.75586 21.1035H10.9868" stroke="#000B42" stroke-miterlimit="10"/>
<path d="M3.75586 27.6816H10.9868" stroke="#000B42" stroke-miterlimit="10"/>
<path d="M3.75586 29.7678H10.9868" stroke="#000B42" stroke-miterlimit="10"/>
<path d="M15.96 13.9626C17.3788 13.9626 18.5282 12.8139 18.5283 11.3953C18.5283 9.9761 17.3784 8.82593 15.96 8.82593C14.5416 8.82603 13.3916 9.97617 13.3916 11.3953C13.3917 12.8139 14.5413 13.9625 15.96 13.9626Z" stroke="#000B42"/>
<path d="M12.8916 11.3951C12.8916 9.69993 14.2654 8.32556 15.9602 8.32556C17.6549 8.32556 19.0287 9.69993 19.0287 11.3951C19.0287 13.0902 17.6549 14.4626 15.9602 14.4626C14.2654 14.4626 12.8916 13.0902 12.8916 11.3951Z" stroke="#000B42" stroke-miterlimit="10"/>
<path d="M14.4326 11.4733L15.313 12.4316L17.4883 10.3594" stroke="#000B42" stroke-miterlimit="10"/>
<path d="M15.96 22.6289C17.3783 22.6289 18.5282 21.4786 18.5283 20.0596C18.5283 18.6426 17.3786 17.4922 15.96 17.4922C14.5414 17.4923 13.3916 18.6426 13.3916 20.0596C13.3917 21.4786 14.5417 22.6288 15.96 22.6289Z" stroke="#000B42"/>
<path d="M12.8916 20.0594C12.8916 18.3662 14.2654 16.9918 15.9602 16.9918C17.6549 16.9918 19.0287 18.3662 19.0287 20.0594C19.0287 21.7545 17.6549 23.1289 15.9602 23.1289C14.2654 23.1289 12.8916 21.7545 12.8916 20.0594Z" stroke="#000B42" stroke-miterlimit="10"/>
<path d="M14.4326 20.1378L15.313 21.0962L17.4883 19.0239" stroke="#000B42" stroke-miterlimit="10"/>
<path d="M15.96 31.2935C17.3788 31.2935 18.5282 30.1447 18.5283 28.7261C18.5283 27.3069 17.3784 26.1567 15.96 26.1567C14.5416 26.1568 13.3916 27.307 13.3916 28.7261C13.3917 30.1447 14.5413 31.2934 15.96 31.2935Z" stroke="#000B42"/>
<path d="M12.8916 28.7259C12.8916 27.0307 14.2654 25.6564 15.9602 25.6564C17.6549 25.6564 19.0287 27.0307 19.0287 28.7259C19.0287 30.421 17.6549 31.7935 15.9602 31.7935C14.2654 31.7935 12.8916 30.421 12.8916 28.7259Z" stroke="#000B42" stroke-miterlimit="10"/>
<path d="M21.7847 34.0235V34.9858C21.7847 36.0977 20.8827 36.9998 19.7698 36.9998H3.01473C1.902 36.9998 1 36.0977 1 34.9858V34.0235" stroke="#000B42" stroke-miterlimit="10"/>
<path d="M21.7847 6.0979V5.52249C21.7847 4.30751 20.8001 3.32192 19.5857 3.32192H3.19882C1.98442 3.32192 1 4.30751 1 5.52249V6.0979" stroke="#000B42" stroke-miterlimit="10"/>
<path d="M35.5735 1.38806C31.9457 0.124479 27.9804 2.04123 26.7168 5.66868C26.2005 7.15192 26.2158 8.6896 26.6616 10.0776L24.8516 13.7206L28.9246 13.3765C29.5286 13.8625 30.2237 14.2552 30.9976 14.5254C34.6254 15.789 38.5907 13.8722 39.8543 10.2448C41.1179 6.61732 39.2013 2.65164 35.5735 1.38806Z" stroke="#000B42" stroke-miterlimit="10"/>
<path d="M30.5635 6.15454H36.5089" stroke="#000B42" stroke-miterlimit="10" stroke-linecap="round"/>
<path d="M30.5635 8.18164H36.5089" stroke="#000B42" stroke-miterlimit="10" stroke-linecap="round"/>
<path d="M30.5635 10.2097H33.9948" stroke="#000B42" stroke-miterlimit="10" stroke-linecap="round"/>
</svg>
