<svg width="38" height="38" viewBox="0 0 38 38" fill="none" xmlns="http://www.w3.org/2000/svg">
<path d="M6.08496 34.457V0.999935H36.9891V34.457" stroke="#000B42" stroke-miterlimit="10" stroke-linecap="round"/>
<path d="M3.54492 36.999H34.4406C35.8451 36.999 36.9893 35.8611 36.9893 34.4566" stroke="#000B42" stroke-miterlimit="10" stroke-linecap="round"/>
<path d="M1.00195 34.4566C1.00195 35.8611 2.13778 36.999 3.54434 36.999C4.94879 36.999 6.0846 35.8611 6.0846 34.4566" stroke="#000B42" stroke-miterlimit="10" stroke-linecap="round"/>
<path d="M1 34.4546V24.1751H6.08899" stroke="#000B42" stroke-miterlimit="10" stroke-linecap="round"/>
<path d="M13.755 8.35909C13.755 8.41505 13.7453 8.46492 13.7258 8.50871C13.7064 8.5525 13.6796 8.58899 13.6455 8.61819C13.6139 8.64738 13.575 8.66928 13.5288 8.68388C13.485 8.69604 13.44 8.70212 13.3937 8.70212H12.985C12.8999 8.70212 12.8257 8.69361 12.7624 8.67658C12.7016 8.65955 12.6444 8.62914 12.5909 8.58535C12.5398 8.53912 12.4899 8.4783 12.4413 8.40288C12.3926 8.32503 12.3379 8.22528 12.2771 8.10364L11.102 5.89582C11.0339 5.76445 10.9645 5.62334 10.894 5.4725C10.8234 5.31923 10.7602 5.17083 10.7042 5.02729H10.6969C10.7066 5.20245 10.7139 5.37762 10.7188 5.55279C10.7237 5.72552 10.7261 5.90433 10.7261 6.08923V8.5598C10.7261 8.58413 10.7188 8.60602 10.7042 8.62549C10.6921 8.64495 10.6689 8.66198 10.6349 8.67658C10.6033 8.68874 10.5595 8.69847 10.5035 8.70577C10.4475 8.71307 10.3758 8.71672 10.2882 8.71672C10.203 8.71672 10.1325 8.71307 10.0765 8.70577C10.0206 8.69847 9.97679 8.68874 9.94516 8.67658C9.91354 8.66198 9.89164 8.64495 9.87948 8.62549C9.86731 8.60602 9.86123 8.58413 9.86123 8.5598V4.31568C9.86123 4.20133 9.89407 4.11618 9.95976 4.06023C10.0279 4.00184 10.1106 3.97264 10.2079 3.97264H10.7225C10.8149 3.97264 10.8928 3.98116 10.956 3.99819C11.0193 4.01279 11.0752 4.03833 11.1239 4.07482C11.175 4.11132 11.2224 4.16241 11.2662 4.22809C11.31 4.29135 11.355 4.37042 11.4012 4.4653L12.3209 6.19141C12.3744 6.29603 12.4267 6.39942 12.4778 6.5016C12.5313 6.60135 12.5824 6.70231 12.631 6.80449C12.6797 6.90424 12.7271 7.00277 12.7734 7.10009C12.8196 7.1974 12.8646 7.29471 12.9084 7.39203H12.912C12.9047 7.22173 12.8987 7.04413 12.8938 6.85923C12.8914 6.67433 12.8901 6.49795 12.8901 6.33009V4.11497C12.8901 4.09064 12.8974 4.06874 12.912 4.04928C12.9266 4.02982 12.951 4.01279 12.985 3.99819C13.0191 3.98359 13.0641 3.97386 13.12 3.969C13.176 3.9617 13.2478 3.95805 13.3354 3.95805C13.4181 3.95805 13.4874 3.9617 13.5434 3.969C13.5993 3.97386 13.6419 3.98359 13.6711 3.99819C13.7027 4.01279 13.7246 4.02982 13.7368 4.04928C13.7489 4.06874 13.755 4.09064 13.755 4.11497V8.35909ZM17.5868 8.31895C17.5868 8.3895 17.5831 8.44911 17.5758 8.49776C17.571 8.54399 17.5624 8.5817 17.5503 8.61089C17.5381 8.64008 17.5223 8.66198 17.5028 8.67658C17.4858 8.68874 17.4663 8.69482 17.4445 8.69482H15.0724C14.9921 8.69482 14.924 8.67171 14.8681 8.62549C14.8145 8.57683 14.7878 8.49898 14.7878 8.39193V4.27554C14.7878 4.16849 14.8145 4.09185 14.8681 4.04563C14.924 3.99697 14.9921 3.97264 15.0724 3.97264H17.4299C17.4518 3.97264 17.4712 3.97873 17.4882 3.99089C17.5053 4.00306 17.5199 4.02495 17.532 4.05658C17.5442 4.08577 17.5527 4.1247 17.5576 4.17336C17.5649 4.21958 17.5685 4.27918 17.5685 4.35217C17.5685 4.42029 17.5649 4.47868 17.5576 4.52734C17.5527 4.57356 17.5442 4.61127 17.532 4.64046C17.5199 4.66966 17.5053 4.69155 17.4882 4.70615C17.4712 4.71832 17.4518 4.7244 17.4299 4.7244H15.7439V5.87757H17.1708C17.1927 5.87757 17.2121 5.88487 17.2291 5.89947C17.2486 5.91163 17.2644 5.93231 17.2766 5.96151C17.2887 5.98827 17.2973 6.02598 17.3021 6.07463C17.3094 6.12086 17.3131 6.17803 17.3131 6.24615C17.3131 6.3167 17.3094 6.37509 17.3021 6.42132C17.2973 6.46754 17.2887 6.50525 17.2766 6.53445C17.2644 6.56121 17.2486 6.58067 17.2291 6.59283C17.2121 6.605 17.1927 6.61108 17.1708 6.61108H15.7439V7.94307H17.4445C17.4663 7.94307 17.4858 7.95037 17.5028 7.96497C17.5223 7.97713 17.5381 7.99781 17.5503 8.027C17.5624 8.0562 17.571 8.09512 17.5758 8.14378C17.5831 8.19001 17.5868 8.24839 17.5868 8.31895ZM23.4074 8.45032C23.3928 8.50871 23.3721 8.55615 23.3454 8.59264C23.321 8.6267 23.2833 8.65347 23.2322 8.67293C23.1811 8.68996 23.1154 8.70091 23.0352 8.70577C22.9549 8.71307 22.8527 8.71672 22.7286 8.71672C22.5899 8.71672 22.478 8.71307 22.3929 8.70577C22.3102 8.70091 22.2445 8.68996 22.1958 8.67293C22.1472 8.65347 22.1119 8.6267 22.09 8.59264C22.0681 8.55615 22.0511 8.50871 22.0389 8.45032L21.2835 5.45791H21.2762L20.5609 8.45032C20.5488 8.50628 20.5317 8.5525 20.5099 8.58899C20.488 8.62305 20.4527 8.64982 20.404 8.66928C20.3578 8.68874 20.2933 8.70091 20.2106 8.70577C20.1303 8.71307 20.0233 8.71672 19.8895 8.71672C19.7484 8.71672 19.6352 8.71307 19.5501 8.70577C19.4674 8.70091 19.4017 8.68996 19.353 8.67293C19.3044 8.65347 19.2691 8.6267 19.2472 8.59264C19.2253 8.55615 19.2071 8.50871 19.1925 8.45032L18.1196 4.33027C18.0977 4.24269 18.0855 4.17457 18.0831 4.12591C18.0806 4.07482 18.094 4.0359 18.1232 4.00914C18.1548 3.98238 18.2047 3.96656 18.2728 3.9617C18.3434 3.9544 18.4407 3.95075 18.5648 3.95075C18.6791 3.95075 18.7691 3.95318 18.8348 3.95805C18.903 3.96048 18.954 3.969 18.9881 3.98359C19.0222 3.99576 19.0453 4.01522 19.0574 4.04198C19.0696 4.06631 19.0793 4.10159 19.0866 4.14781L19.915 7.76426H19.9187L20.7799 4.17336C20.7896 4.12713 20.8018 4.08942 20.8164 4.06023C20.8334 4.03103 20.8602 4.00914 20.8967 3.99454C20.9356 3.97751 20.9879 3.96656 21.0536 3.9617C21.1193 3.9544 21.2069 3.95075 21.3163 3.95075C21.4331 3.95075 21.5256 3.95318 21.5937 3.95805C21.6642 3.96291 21.7178 3.97386 21.7543 3.99089C21.7932 4.00549 21.8212 4.02738 21.8382 4.05658C21.8552 4.08577 21.8686 4.1247 21.8783 4.17336L22.7688 7.76426H22.7761L23.6045 4.15876C23.6117 4.11983 23.6215 4.08699 23.6336 4.06023C23.6458 4.03103 23.6689 4.00914 23.703 3.99454C23.737 3.97751 23.7857 3.96656 23.849 3.9617C23.9122 3.9544 24.001 3.95075 24.1154 3.95075C24.2224 3.95075 24.3051 3.9544 24.3635 3.9617C24.4243 3.96656 24.4681 3.98238 24.4949 4.00914C24.5216 4.0359 24.5326 4.07604 24.5277 4.12956C24.5253 4.18065 24.5131 4.25121 24.4912 4.34122L23.4074 8.45032ZM27.9726 7.2789C27.9726 7.52705 27.9264 7.74479 27.834 7.93212C27.7415 8.11945 27.6162 8.27637 27.4581 8.40288C27.3 8.52696 27.1151 8.62062 26.9034 8.68388C26.6917 8.74713 26.4655 8.77876 26.2246 8.77876C26.0616 8.77876 25.9096 8.76538 25.7685 8.73862C25.6298 8.71185 25.5069 8.68023 25.3999 8.64373C25.2929 8.60481 25.2028 8.56467 25.1299 8.52331C25.0593 8.48195 25.0082 8.44546 24.9766 8.41383C24.945 8.3822 24.9218 8.33719 24.9072 8.27881C24.8951 8.21798 24.889 8.13162 24.889 8.01971C24.889 7.94429 24.8914 7.88103 24.8963 7.82994C24.9012 7.77885 24.9085 7.73749 24.9182 7.70587C24.9304 7.67424 24.945 7.65234 24.962 7.64018C24.9814 7.62558 25.0033 7.61828 25.0277 7.61828C25.0617 7.61828 25.1092 7.63896 25.17 7.68032C25.2333 7.71925 25.3135 7.76304 25.4108 7.8117C25.5082 7.86035 25.6237 7.90536 25.7575 7.94672C25.8938 7.98565 26.0507 8.00511 26.2283 8.00511C26.3451 8.00511 26.4497 7.99173 26.5421 7.96497C26.6346 7.93577 26.7124 7.89563 26.7757 7.84454C26.8414 7.79345 26.8912 7.7302 26.9253 7.65478C26.9594 7.57936 26.9764 7.49542 26.9764 7.40298C26.9764 7.29593 26.9472 7.2047 26.8888 7.12928C26.8304 7.05143 26.7538 6.98331 26.6589 6.92492C26.5665 6.8641 26.4606 6.80814 26.3414 6.75705C26.2222 6.70353 26.0993 6.64757 25.9728 6.58918C25.8463 6.5308 25.7235 6.46511 25.6043 6.39212C25.4851 6.3167 25.378 6.2279 25.2831 6.12572C25.1907 6.02111 25.1153 5.89825 25.0569 5.75715C24.9985 5.61604 24.9693 5.44696 24.9693 5.2499C24.9693 5.02364 25.0106 4.82536 25.0934 4.65506C25.1785 4.48233 25.2916 4.34001 25.4327 4.22809C25.5763 4.11375 25.7442 4.0286 25.9363 3.97264C26.131 3.91669 26.3366 3.88871 26.5531 3.88871C26.665 3.88871 26.7769 3.89723 26.8888 3.91426C27.0007 3.93129 27.1053 3.9544 27.2027 3.98359C27.3 4.01279 27.3863 4.04563 27.4617 4.08212C27.5372 4.11862 27.587 4.14903 27.6114 4.17336C27.6357 4.19768 27.6515 4.21836 27.6588 4.23539C27.6685 4.25242 27.6758 4.27554 27.6807 4.30473C27.688 4.33149 27.6929 4.36677 27.6953 4.41056C27.6977 4.45192 27.699 4.50422 27.699 4.56748C27.699 4.63803 27.6965 4.69764 27.6917 4.74629C27.6892 4.79495 27.6831 4.83509 27.6734 4.86672C27.6661 4.89835 27.6539 4.92146 27.6369 4.93606C27.6223 4.95065 27.6016 4.95795 27.5749 4.95795C27.5481 4.95795 27.5055 4.94092 27.4472 4.90686C27.3888 4.8728 27.317 4.83631 27.2318 4.79738C27.1467 4.75603 27.0482 4.71953 26.9363 4.68791C26.8243 4.65385 26.7015 4.63682 26.5677 4.63682C26.4631 4.63682 26.3718 4.6502 26.294 4.67696C26.2161 4.70129 26.1504 4.73656 26.0969 4.78279C26.0458 4.82658 26.0069 4.8801 25.9801 4.94336C25.9558 5.00661 25.9436 5.07351 25.9436 5.14407C25.9436 5.24868 25.9716 5.33991 26.0276 5.41776C26.086 5.49318 26.1626 5.5613 26.2575 5.62212C26.3548 5.68051 26.4643 5.73647 26.5859 5.78999C26.7076 5.84108 26.8316 5.89582 26.9581 5.95421C27.0847 6.0126 27.2087 6.0795 27.3304 6.15492C27.452 6.2279 27.5603 6.3167 27.6552 6.42132C27.75 6.5235 27.8267 6.64514 27.8851 6.78625C27.9435 6.92492 27.9726 7.08914 27.9726 7.2789Z" fill="#000B42"/>
<path d="M32.0627 19.2493H9.8623V13.6886H32.0627V19.2493Z" stroke="#000B42" stroke-miterlimit="10" stroke-linecap="round"/>
<path d="M9.8623 23.1641H19.4586" stroke="#000B42" stroke-miterlimit="10" stroke-linecap="round"/>
<path d="M9.8623 25.7573H19.4586" stroke="#000B42" stroke-miterlimit="10" stroke-linecap="round"/>
<path d="M9.8623 28.4749H19.4586" stroke="#000B42" stroke-miterlimit="10" stroke-linecap="round"/>
<path d="M9.8623 31.4656H19.4586" stroke="#000B42" stroke-miterlimit="10" stroke-linecap="round"/>
<path d="M22.4668 23.1641H32.0631" stroke="#000B42" stroke-miterlimit="10" stroke-linecap="round"/>
<path d="M22.4668 25.7573H32.0631" stroke="#000B42" stroke-miterlimit="10" stroke-linecap="round"/>
<path d="M22.4668 28.4749H32.0631" stroke="#000B42" stroke-miterlimit="10" stroke-linecap="round"/>
<path d="M22.4668 31.4656H32.0631" stroke="#000B42" stroke-miterlimit="10" stroke-linecap="round"/>
</svg>
