<svg width="40" height="40" viewBox="0 0 40 40" fill="none" xmlns="http://www.w3.org/2000/svg">
<path d="M17.5 12.084C17.279 12.084 17.067 12.1718 16.9107 12.3281C16.7545 12.4843 16.6667 12.6963 16.6667 12.9173C16.6667 13.1383 16.7545 13.3503 16.9107 13.5066C17.067 13.6629 17.279 13.7507 17.5 13.7507H22.5C22.721 13.7507 22.933 13.6629 23.0893 13.5066C23.2455 13.3503 23.3333 13.1383 23.3333 12.9173C23.3333 12.6963 23.2455 12.4843 23.0893 12.3281C22.933 12.1718 22.721 12.084 22.5 12.084H17.5ZM15.8333 21.2507C15.8333 21.6927 15.6577 22.1166 15.3452 22.4292C15.0326 22.7417 14.6087 22.9173 14.1667 22.9173C13.7246 22.9173 13.3007 22.7417 12.9882 22.4292C12.6756 22.1166 12.5 21.6927 12.5 21.2507C12.5 20.8086 12.6756 20.3847 12.9882 20.0721C13.3007 19.7596 13.7246 19.584 14.1667 19.584C14.6087 19.584 15.0326 19.7596 15.3452 20.0721C15.6577 20.3847 15.8333 20.8086 15.8333 21.2507ZM15.8333 27.084C15.8333 27.526 15.6577 27.9499 15.3452 28.2625C15.0326 28.5751 14.6087 28.7507 14.1667 28.7507C13.7246 28.7507 13.3007 28.5751 12.9882 28.2625C12.6756 27.9499 12.5 27.526 12.5 27.084C12.5 26.642 12.6756 26.218 12.9882 25.9055C13.3007 25.5929 13.7246 25.4173 14.1667 25.4173C14.6087 25.4173 15.0326 25.5929 15.3452 25.9055C15.6577 26.218 15.8333 26.642 15.8333 27.084ZM20 22.9173C20.442 22.9173 20.866 22.7417 21.1785 22.4292C21.4911 22.1166 21.6667 21.6927 21.6667 21.2507C21.6667 20.8086 21.4911 20.3847 21.1785 20.0721C20.866 19.7596 20.442 19.584 20 19.584C19.558 19.584 19.134 19.7596 18.8215 20.0721C18.5089 20.3847 18.3333 20.8086 18.3333 21.2507C18.3333 21.6927 18.5089 22.1166 18.8215 22.4292C19.134 22.7417 19.558 22.9173 20 22.9173ZM21.6667 27.084C21.6667 27.526 21.4911 27.9499 21.1785 28.2625C20.866 28.5751 20.442 28.7507 20 28.7507C19.558 28.7507 19.134 28.5751 18.8215 28.2625C18.5089 27.9499 18.3333 27.526 18.3333 27.084C18.3333 26.642 18.5089 26.218 18.8215 25.9055C19.134 25.5929 19.558 25.4173 20 25.4173C20.442 25.4173 20.866 25.5929 21.1785 25.9055C21.4911 26.218 21.6667 26.642 21.6667 27.084ZM25.8333 22.9173C26.2754 22.9173 26.6993 22.7417 27.0118 22.4292C27.3244 22.1166 27.5 21.6927 27.5 21.2507C27.5 20.8086 27.3244 20.3847 27.0118 20.0721C26.6993 19.7596 26.2754 19.584 25.8333 19.584C25.3913 19.584 24.9674 19.7596 24.6548 20.0721C24.3423 20.3847 24.1667 20.8086 24.1667 21.2507C24.1667 21.6927 24.3423 22.1166 24.6548 22.4292C24.9674 22.7417 25.3913 22.9173 25.8333 22.9173Z" fill="#111727"/>
<path fill-rule="evenodd" clip-rule="evenodd" d="M13.3333 5.83398C13.5543 5.83398 13.7663 5.92178 13.9226 6.07806C14.0789 6.23434 14.1667 6.4463 14.1667 6.66732V8.33398H25.8333V6.66732C25.8333 6.4463 25.9211 6.23434 26.0774 6.07806C26.2337 5.92178 26.4457 5.83398 26.6667 5.83398C26.8877 5.83398 27.0996 5.92178 27.2559 6.07806C27.4122 6.23434 27.5 6.4463 27.5 6.66732V8.33898C27.9078 8.34232 28.2711 8.35676 28.59 8.38232C29.1983 8.43232 29.7317 8.53732 30.225 8.78732C31.0088 9.18714 31.6459 9.82483 32.045 10.609C32.2967 11.1023 32.4017 11.6357 32.4517 12.2423C32.5 12.834 32.5 13.5623 32.5 14.4657V27.2023C32.5 28.1056 32.5 28.8356 32.4517 29.424C32.4017 30.0323 32.2967 30.5657 32.045 31.059C31.6456 31.8425 31.0085 32.4796 30.225 32.879C29.7317 33.1306 29.1983 33.2357 28.5917 33.2857C28 33.334 27.2717 33.334 26.37 33.334H13.6317C12.7283 33.334 11.9983 33.334 11.41 33.2857C10.8017 33.2357 10.2683 33.1306 9.775 32.879C8.99084 32.4799 8.35316 31.8428 7.95333 31.059C7.70333 30.5657 7.59833 30.0323 7.54833 29.4257C7.5 28.834 7.5 28.104 7.5 27.2006V14.4673C7.5 13.6757 7.5 13.0207 7.53333 12.4723L7.54833 12.2457C7.59833 11.6373 7.70333 11.104 7.95333 10.6107C8.35287 9.82624 8.99059 9.18853 9.775 8.78898C10.2683 8.53898 10.8017 8.43398 11.4083 8.38398C11.7294 8.35843 12.0933 8.34398 12.5 8.34065V6.66732C12.5 6.4463 12.5878 6.23434 12.7441 6.07806C12.9004 5.92178 13.1123 5.83398 13.3333 5.83398ZM12.5 10.834V10.0057C12.1813 10.0083 11.8628 10.0211 11.545 10.044C11.0417 10.084 10.7517 10.1607 10.5317 10.2723C10.0608 10.5121 9.67809 10.8948 9.43833 11.3657C9.32667 11.5857 9.25 11.8757 9.21 12.379C9.16667 12.894 9.16667 13.554 9.16667 14.5007V15.4173H30.8333V14.5007C30.8333 13.554 30.8333 12.894 30.79 12.379C30.75 11.8757 30.6733 11.5857 30.5617 11.3657C30.3219 10.8948 29.9392 10.5121 29.4683 10.2723C29.2483 10.1607 28.9583 10.084 28.455 10.044C28.1372 10.0211 27.8187 10.0083 27.5 10.0057V10.834C27.5 11.055 27.4122 11.267 27.2559 11.4232C27.0996 11.5795 26.8877 11.6673 26.6667 11.6673C26.4457 11.6673 26.2337 11.5795 26.0774 11.4232C25.9211 11.267 25.8333 11.055 25.8333 10.834V10.0007H14.1667V10.834C14.1667 11.055 14.0789 11.267 13.9226 11.4232C13.7663 11.5795 13.5543 11.6673 13.3333 11.6673C13.1123 11.6673 12.9004 11.5795 12.7441 11.4232C12.5878 11.267 12.5 11.055 12.5 10.834ZM30.8333 17.084H9.16667V27.1673C9.16667 28.114 9.16667 28.7757 9.21 29.289C9.25 29.7923 9.32667 30.0823 9.43833 30.3023C9.67809 30.7731 10.0608 31.1559 10.5317 31.3957C10.7517 31.5073 11.0417 31.584 11.545 31.624C12.06 31.6673 12.72 31.6673 13.6667 31.6673H26.3333C27.28 31.6673 27.9417 31.6673 28.455 31.624C28.9583 31.584 29.2483 31.5073 29.4683 31.3957C29.9392 31.1559 30.3219 30.7731 30.5617 30.3023C30.6733 30.0823 30.75 29.7923 30.79 29.289C30.8333 28.7757 30.8333 28.114 30.8333 27.1673V17.084Z" fill="#111727"/>
</svg>
