<svg width="40" height="40" viewBox="0 0 40 40" fill="none" xmlns="http://www.w3.org/2000/svg">
<path d="M20.0026 16.6673C23.6845 16.6673 26.6693 13.6825 26.6693 10.0007C26.6693 6.31875 23.6845 3.33398 20.0026 3.33398C16.3207 3.33398 13.3359 6.31875 13.3359 10.0007C13.3359 13.6825 16.3207 16.6673 20.0026 16.6673Z" stroke="#111727" stroke-width="2"/>
<path d="M33.3313 30.0013C33.3335 29.728 33.3346 29.4502 33.3346 29.168C33.3346 25.0263 27.3646 21.668 20.0013 21.668C12.638 21.668 6.66797 25.0263 6.66797 29.168C6.66797 33.3096 6.66797 36.668 20.0013 36.668C23.7196 36.668 26.4013 36.4063 28.3346 35.9396" stroke="#111727" stroke-width="2" stroke-linecap="round"/>
</svg>
