<svg width="34" height="37" viewBox="0 0 34 37" fill="none" xmlns="http://www.w3.org/2000/svg">
<path d="M26.4623 9.96219C27.5555 9.98441 28.1134 10.8976 28.1134 11.5785C28.1134 12.2593 27.2879 13.2291 27.2879 13.2291C26.8026 14.122 27.8344 14.1221 27.8344 14.1221H32.9993V2.89301C32.9993 1.8485 32.1514 0.999974 31.1055 0.999974H19.9253V6.20436C19.9253 6.20436 19.9447 6.81044 19.3992 6.73367C19.292 6.71953 19.1924 6.67106 19.1053 6.60641C18.7275 6.32761 17.1431 5.36387 16.2594 6.58416C15.8273 7.18016 15.8263 8.00247 16.2643 8.59645C17.1488 9.79249 18.7281 8.79441 19.1053 8.51358C19.1924 8.45095 19.292 8.40248 19.3992 8.38833C19.9447 8.31156 19.9253 8.91765 19.9253 8.91765V14.1221H25.0903C25.0903 14.1221 26.1221 14.122 25.6368 13.2291C25.6368 13.2291 24.8113 12.2593 24.8113 11.5785C24.8113 10.8976 25.3691 9.93996 26.4623 9.96219Z" fill="#644AF9" stroke="white" stroke-miterlimit="10"/>
<path d="M14.0734 35.7379V35.748H3.30056C2.02997 35.748 1 34.7177 1 33.4469V22.6239H6.16439C6.16439 22.6239 7.19597 22.624 6.71089 23.517C6.71089 23.517 5.88518 24.4867 5.88518 25.1696C5.88518 25.8484 6.4436 26.8081 7.53681 26.7858C8.62981 26.8081 9.18681 25.8484 9.18681 25.1696C9.18681 24.4867 8.36252 23.517 8.36252 23.517C7.87622 22.624 8.90902 22.6239 8.90902 22.6239L14.0726 22.6158V27.8182C14.0726 27.8182 14.092 28.4264 13.5465 28.3496C13.4392 28.3334 13.3396 28.2869 13.2525 28.2223C12.8745 27.9435 11.2904 26.9798 10.4067 28.1981C9.97434 28.7961 9.97353 29.6183 10.4115 30.2103C11.2958 31.4063 12.8753 30.4083 13.2525 30.1295C13.3396 30.0648 13.4392 30.0184 13.5465 30.0042C14.092 29.9275 14.0726 30.5336 14.0726 30.5336L14.0734 35.7379Z" fill="#644AF9" stroke="white" stroke-miterlimit="10"/>
<path d="M1 22.6157V11.6857C1 10.5018 1.95966 9.54212 3.14338 9.54212H14.0734V14.7061C14.0734 14.7061 14.0734 15.7385 13.1843 15.2516C13.1843 15.2516 12.2179 14.4273 11.5389 14.4273C10.8613 14.4273 9.94969 14.9849 9.92767 16.0779C9.90545 17.1709 10.8613 17.7306 11.5389 17.7306C12.2179 17.7306 13.1843 16.9042 13.1843 16.9042C14.0734 16.4194 14.0734 17.4517 14.0734 17.4517V22.6157" fill="#644AF9"/>
<path d="M1 22.6157V11.6857C1 10.5018 1.95966 9.54212 3.14338 9.54212H14.0734V14.7061C14.0734 14.7061 14.0734 15.7385 13.1843 15.2516C13.1843 15.2516 12.2179 14.4273 11.5389 14.4273C10.8613 14.4273 9.94969 14.9849 9.92767 16.0779C9.90545 17.1709 10.8613 17.7306 11.5389 17.7306C12.2179 17.7306 13.1843 16.9042 13.1843 16.9042C14.0734 16.4194 14.0734 17.4517 14.0734 17.4517V22.6157" stroke="white" stroke-miterlimit="10"/>
<path d="M14.0742 22.5956H14.0785L19.2503 22.6158C19.2503 22.6158 19.8572 22.634 19.7811 22.0885C19.7653 21.9815 19.7194 21.8805 19.6554 21.7956C19.3762 21.4178 18.3779 19.8379 19.574 18.953C20.1674 18.5146 20.9935 18.5166 21.5897 18.951C22.8025 19.8359 21.8412 21.4178 21.5624 21.7956C21.4969 21.8805 21.4511 21.9815 21.4353 22.0885C21.3594 22.634 21.9661 22.6158 21.9661 22.6158L27.1507 22.6138V33.7277C27.1507 34.845 26.2459 35.748 25.1299 35.748H14.0742" fill="#644AF9"/>
<path d="M14.0742 22.5956H14.0785L19.2503 22.6158C19.2503 22.6158 19.8572 22.634 19.7811 22.0885C19.7653 21.9815 19.7194 21.8805 19.6554 21.7956C19.3762 21.4178 18.3779 19.8379 19.574 18.953C20.1674 18.5146 20.9935 18.5166 21.5897 18.951C22.8025 19.8359 21.8412 21.4178 21.5624 21.7956C21.4969 21.8805 21.4511 21.9815 21.4353 22.0885C21.3594 22.634 21.9661 22.6158 21.9661 22.6158L27.1507 22.6138V33.7277C27.1507 34.845 26.2459 35.748 25.1299 35.748H14.0742" stroke="white" stroke-miterlimit="10"/>
</svg>
