<svg width="38" height="35" viewBox="0 0 38 35" fill="none" xmlns="http://www.w3.org/2000/svg">
<path d="M25.7571 0.999957V34.2644H1V1.00182L25.7571 0.999957Z" stroke="white" stroke-miterlimit="10"/>
<path d="M5.00586 22.8389H13.6195" stroke="white" stroke-miterlimit="10"/>
<path d="M5.00586 19.3682H12.7524" stroke="white" stroke-miterlimit="10"/>
<path d="M5.00586 26.333H15.4753" stroke="white" stroke-miterlimit="10"/>
<path d="M5.00586 29.8291H18.8823" stroke="white" stroke-miterlimit="10"/>
<path d="M5.00586 9.74102C5.00586 7.32641 6.96259 5.37157 9.37532 5.37157C11.788 5.37157 13.7448 7.32641 13.7448 9.74102C13.7448 12.1538 11.788 14.1086 9.37532 14.1086C6.96259 14.1086 5.00586 12.1538 5.00586 9.74102Z" stroke="white" stroke-miterlimit="10"/>
<path d="M8.02344 8.63075C8.02344 7.88319 8.62897 7.27766 9.37465 7.27766C10.1222 7.27766 10.7277 7.88319 10.7277 8.63075C10.7277 9.37643 10.1222 9.98193 9.37465 9.98193C8.62897 9.98193 8.02344 9.37643 8.02344 8.63075Z" stroke="white" stroke-miterlimit="10"/>
<path d="M6.43164 12.9685C6.93437 11.8416 8.06318 11.0585 9.37513 11.0585C10.6871 11.0585 11.8159 11.8415 12.3205 12.9647" stroke="white" stroke-miterlimit="10"/>
<path d="M18.7412 22.3535C21.1839 25.9646 26.0144 26.9949 29.7012 24.7637L30.0547 24.5371C33.7821 22.0175 34.7601 16.9515 32.2402 13.2236C29.7186 9.49777 24.6523 8.51959 20.9248 11.041H20.9238C17.1988 13.5628 16.2203 18.6263 18.7412 22.3535Z" stroke="white"/>
<path d="M18.3273 22.634C15.6511 18.6776 16.6902 13.3026 20.6448 10.6264C24.6012 7.95013 29.9779 8.98923 32.6542 12.9438C35.3286 16.9003 34.2913 22.2771 30.3349 24.9515C26.3804 27.6277 21.0036 26.5905 18.3273 22.634Z" stroke="white" stroke-miterlimit="10"/>
<path d="M31.5161 23.9941L36.7621 31.7482C37.1919 32.3855 37.0256 33.2508 36.3883 33.6825C35.751 34.1123 34.8857 33.946 34.4559 33.3087L29.2305 25.5846" stroke="white" stroke-miterlimit="10"/>
<path d="M20.1982 21.3679C18.2228 18.4468 18.989 14.4773 21.9101 12.5" stroke="white" stroke-miterlimit="10"/>
</svg>
