<svg width="311" height="180" viewBox="0 0 311 180" fill="none" xmlns="http://www.w3.org/2000/svg">
<g filter="url(#filter0_d_559_14476)">
<rect x="40" y="36" width="231" height="100" rx="8" fill="#F2F0FE"/>
</g>
<rect x="146.868" y="87.2344" width="106.868" height="4.95868" rx="2.47934" fill="#E6E0FF"/>
<rect x="146.868" y="87.2344" width="90.427" height="4.95868" fill="#111727"/>
<rect x="146.868" y="104.59" width="106.868" height="4.95868" rx="2.47934" fill="#E6E0FF"/>
<rect x="146.868" y="104.59" width="69.8754" height="4.95868" fill="#111727"/>
<path d="M149.416 74.6172V72.9729H152.127C152.611 72.9729 152.986 72.8248 153.253 72.5285C153.529 72.2323 153.667 71.8817 153.667 71.4768C153.667 71.2003 153.608 70.9485 153.49 70.7213C153.371 70.4942 153.193 70.3164 152.956 70.1881C152.729 70.0498 152.453 69.9807 152.127 69.9807H149.416V68.3512H151.905C152.319 68.3512 152.65 68.2475 152.897 68.0401C153.154 67.8328 153.282 67.5217 153.282 67.1069C153.282 66.6823 153.154 66.3663 152.897 66.1589C152.65 65.9515 152.319 65.8478 151.905 65.8478H149.416V64.2035H152.142C152.833 64.2035 153.411 64.3319 153.875 64.5887C154.349 64.8356 154.704 65.1664 154.941 65.5812C155.178 65.986 155.297 66.4304 155.297 66.9143C155.297 67.5069 155.114 68.0204 154.749 68.4549C154.393 68.8796 153.87 69.1956 153.179 69.403L153.267 68.7512C154.038 68.9684 154.63 69.3289 155.045 69.8325C155.47 70.3263 155.682 70.9238 155.682 71.6249C155.682 72.178 155.544 72.6816 155.267 73.1359C155.001 73.5803 154.606 73.9407 154.082 74.2172C153.569 74.4839 152.942 74.6172 152.201 74.6172H149.416ZM147.935 74.6172V64.2035H149.934V74.6172H147.935ZM160.124 74.7653C159.492 74.7653 158.929 74.632 158.435 74.3654C157.951 74.0987 157.571 73.7284 157.295 73.2544C157.018 72.7804 156.88 72.2323 156.88 71.6101V67.4624H158.835V71.5657C158.835 71.8619 158.884 72.1187 158.983 72.336C159.082 72.5433 159.23 72.7014 159.428 72.81C159.625 72.9186 159.857 72.9729 160.124 72.9729C160.529 72.9729 160.845 72.8495 161.072 72.6026C161.299 72.3557 161.413 72.0101 161.413 71.5657V67.4624H163.353V71.6101C163.353 72.2421 163.215 72.7952 162.938 73.2692C162.672 73.7432 162.292 74.1135 161.798 74.3802C161.314 74.6369 160.756 74.7653 160.124 74.7653ZM167.357 74.7801C166.953 74.7801 166.553 74.7258 166.158 74.6172C165.772 74.5086 165.417 74.3604 165.091 74.1728C164.765 73.9753 164.484 73.7383 164.247 73.4618L165.402 72.2915C165.649 72.568 165.935 72.7754 166.261 72.9137C166.587 73.0519 166.948 73.1211 167.343 73.1211C167.659 73.1211 167.896 73.0766 168.054 72.9877C168.222 72.8989 168.305 72.7655 168.305 72.5878C168.305 72.3903 168.217 72.2372 168.039 72.1286C167.871 72.0199 167.649 71.9311 167.372 71.8619C167.096 71.7829 166.804 71.699 166.498 71.6101C166.202 71.5114 165.916 71.3879 165.639 71.2398C165.363 71.0818 165.135 70.8695 164.958 70.6028C164.79 70.3263 164.706 69.9708 164.706 69.5363C164.706 69.082 164.815 68.687 165.032 68.3512C165.259 68.0155 165.58 67.7538 165.995 67.5661C166.409 67.3785 166.898 67.2847 167.461 67.2847C168.054 67.2847 168.587 67.3884 169.061 67.5957C169.545 67.8031 169.945 68.1142 170.261 68.529L169.091 69.6992C168.873 69.4326 168.626 69.24 168.35 69.1215C168.083 69.003 167.792 68.9437 167.476 68.9437C167.19 68.9437 166.967 68.9882 166.809 69.0771C166.661 69.1659 166.587 69.2894 166.587 69.4474C166.587 69.6252 166.671 69.7634 166.839 69.8622C167.017 69.9609 167.244 70.0498 167.52 70.1288C167.797 70.1979 168.083 70.2819 168.38 70.3806C168.686 70.4695 168.972 70.5979 169.239 70.7658C169.515 70.9336 169.737 71.1558 169.905 71.4324C170.083 71.7089 170.172 72.0644 170.172 72.4989C170.172 73.2001 169.92 73.758 169.416 74.1728C168.913 74.5777 168.226 74.7801 167.357 74.7801ZM171.48 74.6172V67.4624H173.436V74.6172H171.48ZM172.458 66.307C172.142 66.307 171.88 66.2033 171.673 65.9959C171.466 65.7787 171.362 65.512 171.362 65.196C171.362 64.8899 171.466 64.6282 171.673 64.4109C171.88 64.1937 172.142 64.085 172.458 64.085C172.784 64.085 173.046 64.1937 173.243 64.4109C173.451 64.6282 173.554 64.8899 173.554 65.196C173.554 65.512 173.451 65.7787 173.243 65.9959C173.046 66.2033 172.784 66.307 172.458 66.307ZM179.969 74.6172V70.5139C179.969 70.0893 179.836 69.7437 179.569 69.477C179.303 69.2104 178.957 69.0771 178.532 69.0771C178.256 69.0771 178.009 69.1363 177.792 69.2548C177.574 69.3733 177.401 69.5412 177.273 69.7585C177.155 69.9757 177.095 70.2276 177.095 70.5139L176.34 70.1288C176.34 69.5659 176.458 69.0771 176.695 68.6623C176.942 68.2377 177.278 67.9068 177.703 67.6698C178.137 67.4328 178.626 67.3143 179.169 67.3143C179.693 67.3143 180.162 67.4476 180.576 67.7143C180.991 67.971 181.317 68.3117 181.554 68.7364C181.791 69.1511 181.91 69.6005 181.91 70.0844V74.6172H179.969ZM175.155 74.6172V67.4624H177.095V74.6172H175.155ZM186.895 74.7653C186.144 74.7653 185.477 74.6073 184.895 74.2913C184.312 73.9654 183.848 73.521 183.502 72.9581C183.167 72.3952 182.999 71.7533 182.999 71.0324C182.999 70.3214 183.162 69.6893 183.488 69.1363C183.823 68.5734 184.278 68.129 184.85 67.8031C185.423 67.4674 186.06 67.2995 186.761 67.2995C187.453 67.2995 188.06 67.4575 188.583 67.7735C189.117 68.0796 189.531 68.5043 189.828 69.0474C190.134 69.5807 190.287 70.1881 190.287 70.8695C190.287 70.9978 190.277 71.1312 190.257 71.2694C190.247 71.3978 190.223 71.5459 190.183 71.7138L184.169 71.7286V70.2769L189.28 70.2621L188.494 70.8695C188.475 70.4448 188.396 70.0893 188.257 69.8029C188.129 69.5165 187.936 69.2993 187.68 69.1511C187.433 68.9931 187.127 68.9141 186.761 68.9141C186.376 68.9141 186.04 69.003 185.754 69.1808C185.468 69.3486 185.245 69.5906 185.087 69.9066C184.939 70.2127 184.865 70.5781 184.865 71.0028C184.865 71.4373 184.944 71.8175 185.102 72.1434C185.27 72.4594 185.507 72.7063 185.813 72.884C186.119 73.0519 186.475 73.1359 186.88 73.1359C187.245 73.1359 187.576 73.0766 187.872 72.9581C188.169 72.8297 188.425 72.6421 188.643 72.3952L189.783 73.5358C189.438 73.9407 189.013 74.2469 188.509 74.4542C188.015 74.6616 187.477 74.7653 186.895 74.7653ZM193.946 74.7801C193.541 74.7801 193.141 74.7258 192.746 74.6172C192.361 74.5086 192.005 74.3604 191.679 74.1728C191.354 73.9753 191.072 73.7383 190.835 73.4618L191.991 72.2915C192.237 72.568 192.524 72.7754 192.85 72.9137C193.176 73.0519 193.536 73.1211 193.931 73.1211C194.247 73.1211 194.484 73.0766 194.642 72.9877C194.81 72.8989 194.894 72.7655 194.894 72.5878C194.894 72.3903 194.805 72.2372 194.627 72.1286C194.459 72.0199 194.237 71.9311 193.961 71.8619C193.684 71.7829 193.393 71.699 193.087 71.6101C192.79 71.5114 192.504 71.3879 192.228 71.2398C191.951 71.0818 191.724 70.8695 191.546 70.6028C191.378 70.3263 191.294 69.9708 191.294 69.5363C191.294 69.082 191.403 68.687 191.62 68.3512C191.847 68.0155 192.168 67.7538 192.583 67.5661C192.998 67.3785 193.487 67.2847 194.05 67.2847C194.642 67.2847 195.175 67.3884 195.649 67.5957C196.133 67.8031 196.533 68.1142 196.849 68.529L195.679 69.6992C195.462 69.4326 195.215 69.24 194.938 69.1215C194.672 69.003 194.38 68.9437 194.064 68.9437C193.778 68.9437 193.556 68.9882 193.398 69.0771C193.25 69.1659 193.176 69.2894 193.176 69.4474C193.176 69.6252 193.26 69.7634 193.427 69.8622C193.605 69.9609 193.832 70.0498 194.109 70.1288C194.385 70.1979 194.672 70.2819 194.968 70.3806C195.274 70.4695 195.561 70.5979 195.827 70.7658C196.104 70.9336 196.326 71.1558 196.494 71.4324C196.672 71.7089 196.76 72.0644 196.76 72.4989C196.76 73.2001 196.509 73.758 196.005 74.1728C195.501 74.5777 194.815 74.7801 193.946 74.7801ZM200.528 74.7801C200.123 74.7801 199.723 74.7258 199.328 74.6172C198.943 74.5086 198.587 74.3604 198.262 74.1728C197.936 73.9753 197.654 73.7383 197.417 73.4618L198.573 72.2915C198.819 72.568 199.106 72.7754 199.432 72.9137C199.758 73.0519 200.118 73.1211 200.513 73.1211C200.829 73.1211 201.066 73.0766 201.224 72.9877C201.392 72.8989 201.476 72.7655 201.476 72.5878C201.476 72.3903 201.387 72.2372 201.209 72.1286C201.041 72.0199 200.819 71.9311 200.543 71.8619C200.266 71.7829 199.975 71.699 199.669 71.6101C199.373 71.5114 199.086 71.3879 198.81 71.2398C198.533 71.0818 198.306 70.8695 198.128 70.6028C197.96 70.3263 197.876 69.9708 197.876 69.5363C197.876 69.082 197.985 68.687 198.202 68.3512C198.429 68.0155 198.75 67.7538 199.165 67.5661C199.58 67.3785 200.069 67.2847 200.632 67.2847C201.224 67.2847 201.757 67.3884 202.231 67.5957C202.715 67.8031 203.115 68.1142 203.431 68.529L202.261 69.6992C202.044 69.4326 201.797 69.24 201.52 69.1215C201.254 69.003 200.962 68.9437 200.646 68.9437C200.36 68.9437 200.138 68.9882 199.98 69.0771C199.832 69.1659 199.758 69.2894 199.758 69.4474C199.758 69.6252 199.842 69.7634 200.009 69.8622C200.187 69.9609 200.414 70.0498 200.691 70.1288C200.967 70.1979 201.254 70.2819 201.55 70.3806C201.856 70.4695 202.143 70.5979 202.409 70.7658C202.686 70.9336 202.908 71.1558 203.076 71.4324C203.254 71.7089 203.342 72.0644 203.342 72.4989C203.342 73.2001 203.091 73.758 202.587 74.1728C202.083 74.5777 201.397 74.7801 200.528 74.7801ZM212.566 74.7653C211.825 74.7653 211.129 74.632 210.477 74.3654C209.835 74.0889 209.267 73.7037 208.774 73.2099C208.29 72.7162 207.91 72.1483 207.633 71.5064C207.366 70.8546 207.233 70.1535 207.233 69.403C207.233 68.6425 207.371 67.9414 207.648 67.2995C207.924 66.6477 208.31 66.0799 208.803 65.596C209.297 65.1022 209.875 64.722 210.536 64.4554C211.198 64.1788 211.914 64.0406 212.684 64.0406C213.544 64.0406 214.334 64.2035 215.054 64.5294C215.775 64.8454 216.373 65.2948 216.847 65.8774L215.484 67.2402C215.158 66.8156 214.753 66.4897 214.269 66.2626C213.785 66.0354 213.252 65.9219 212.67 65.9219C212.008 65.9219 211.42 66.07 210.907 66.3663C210.403 66.6526 210.008 67.0575 209.722 67.5809C209.435 68.0945 209.292 68.6969 209.292 69.3881C209.292 70.0794 209.43 70.6917 209.707 71.225C209.993 71.7484 210.378 72.1582 210.862 72.4545C211.356 72.7507 211.919 72.8989 212.551 72.8989C213.203 72.8989 213.761 72.7804 214.225 72.5433C214.689 72.2965 215.045 71.9409 215.291 71.4768C215.538 71.0028 215.662 70.4251 215.662 69.7437L216.98 70.6473L212.433 70.6028V68.8549H217.736V69.1363C217.736 70.3806 217.513 71.4225 217.069 72.2619C216.625 73.0914 216.012 73.7185 215.232 74.1432C214.462 74.5579 213.573 74.7653 212.566 74.7653ZM219.074 74.6172V67.4624H221.014V74.6172H219.074ZM221.014 70.6621L220.259 70.1584C220.347 69.2795 220.604 68.5882 221.029 68.0846C221.454 67.5711 222.066 67.3143 222.866 67.3143C223.211 67.3143 223.522 67.3735 223.799 67.4921C224.075 67.6007 224.327 67.7834 224.554 68.0401L223.34 69.4326C223.231 69.3141 223.098 69.2252 222.94 69.1659C222.792 69.1067 222.619 69.0771 222.421 69.0771C222.007 69.0771 221.666 69.2104 221.399 69.477C221.142 69.7338 221.014 70.1288 221.014 70.6621ZM228.396 74.7653C227.675 74.7653 227.023 74.6024 226.441 74.2765C225.868 73.9407 225.409 73.4914 225.063 72.9285C224.727 72.3557 224.56 71.7187 224.56 71.0176C224.56 70.3164 224.727 69.6893 225.063 69.1363C225.399 68.5734 225.858 68.129 226.441 67.8031C227.023 67.4674 227.67 67.2995 228.381 67.2995C229.112 67.2995 229.764 67.4674 230.337 67.8031C230.919 68.129 231.379 68.5734 231.714 69.1363C232.05 69.6893 232.218 70.3164 232.218 71.0176C232.218 71.7187 232.05 72.3557 231.714 72.9285C231.379 73.4914 230.919 73.9407 230.337 74.2765C229.764 74.6024 229.117 74.7653 228.396 74.7653ZM228.381 72.9581C228.747 72.9581 229.068 72.8791 229.344 72.7211C229.631 72.5532 229.848 72.3261 229.996 72.0397C230.154 71.7434 230.233 71.4077 230.233 71.0324C230.233 70.6571 230.154 70.3263 229.996 70.0399C229.838 69.7535 229.621 69.5313 229.344 69.3733C229.068 69.2054 228.747 69.1215 228.381 69.1215C228.026 69.1215 227.71 69.2054 227.433 69.3733C227.157 69.5313 226.94 69.7535 226.781 70.0399C226.623 70.3263 226.544 70.6571 226.544 71.0324C226.544 71.4077 226.623 71.7434 226.781 72.0397C226.94 72.3261 227.157 72.5532 227.433 72.7211C227.71 72.8791 228.026 72.9581 228.381 72.9581ZM235.219 74.6172L232.538 67.4624H234.493L236.241 72.6618L235.649 72.6767L237.441 67.4624H238.848L240.641 72.6767L240.048 72.6618L241.796 67.4624H243.751L241.085 74.6172H239.678L237.871 69.6696H238.419L236.611 74.6172H235.219ZM245.745 74.6172V64.485H247.685V74.6172H245.745ZM244.071 69.1659V67.4624H249.359V69.1659H244.071ZM255.265 74.6172V70.5139C255.265 70.0893 255.131 69.7437 254.865 69.477C254.598 69.2104 254.252 69.0771 253.828 69.0771C253.551 69.0771 253.304 69.1363 253.087 69.2548C252.87 69.3733 252.697 69.5412 252.569 69.7585C252.45 69.9757 252.391 70.2276 252.391 70.5139L251.635 70.1288C251.635 69.5659 251.754 69.0771 251.991 68.6623C252.228 68.2377 252.554 67.9068 252.969 67.6698C253.393 67.4328 253.877 67.3143 254.42 67.3143C254.963 67.3143 255.442 67.4328 255.857 67.6698C256.282 67.9068 256.613 68.2327 256.85 68.6475C257.087 69.0622 257.205 69.5412 257.205 70.0844V74.6172H255.265ZM250.45 74.6172V63.9073H252.391V74.6172H250.45Z" fill="#111727"/>
<rect x="53" y="53" width="74" height="66" rx="4" fill="#111727"/>
<path d="M112.644 103.929H110.334V75.9855C110.334 75.0249 109.955 74.1035 109.282 73.4242C108.608 72.7449 107.694 72.3633 106.741 72.3633C105.788 72.3633 104.874 72.7449 104.2 73.4242C103.526 74.1035 103.147 75.0249 103.147 75.9855V103.929H99.554V82.1951C99.554 81.2344 99.1755 80.3131 98.5016 79.6338C97.8277 78.9545 96.9137 78.5729 95.9607 78.5729C95.0077 78.5729 94.0937 78.9545 93.4198 79.6338C92.746 80.3131 92.3674 81.2344 92.3674 82.1951V103.929H88.774V91.5095C88.774 90.5488 88.3955 89.6274 87.7216 88.9481C87.0477 88.2688 86.1337 87.8872 85.1807 87.8872C84.2277 87.8872 83.3137 88.2688 82.6398 88.9481C81.966 89.6274 81.5874 90.5488 81.5874 91.5095V103.929H77.994V97.719C77.994 96.7584 77.6155 95.837 76.9416 95.1577C76.2677 94.4784 75.3537 94.0968 74.4007 94.0968C73.4477 94.0968 72.5337 94.4784 71.8598 95.1577C71.186 95.837 70.8074 96.7584 70.8074 97.719V103.929H68.4974C68.2251 103.929 67.9639 104.038 67.7714 104.232C67.5789 104.426 67.4707 104.689 67.4707 104.964C67.4707 105.238 67.5789 105.501 67.7714 105.695C67.9639 105.889 68.2251 105.998 68.4974 105.998H112.644C112.916 105.998 113.177 105.889 113.37 105.695C113.563 105.501 113.671 105.238 113.671 104.964C113.671 104.689 113.563 104.426 113.37 104.232C113.177 104.038 112.916 103.929 112.644 103.929ZM105.201 75.9855C105.201 75.5738 105.363 75.179 105.652 74.8878C105.941 74.5967 106.332 74.4331 106.741 74.4331C107.149 74.4331 107.541 74.5967 107.83 74.8878C108.118 75.179 108.281 75.5738 108.281 75.9855V103.929H105.201V75.9855ZM94.4207 82.1951C94.4207 81.7834 94.583 81.3885 94.8718 81.0974C95.1606 80.8063 95.5523 80.6427 95.9607 80.6427C96.3691 80.6427 96.7608 80.8063 97.0496 81.0974C97.3385 81.3885 97.5007 81.7834 97.5007 82.1951V103.929H94.4207V82.1951ZM83.6407 91.5095C83.6407 91.0977 83.803 90.7029 84.0918 90.4118C84.3806 90.1206 84.7723 89.9571 85.1807 89.9571C85.5891 89.9571 85.9808 90.1206 86.2696 90.4118C86.5585 90.7029 86.7207 91.0977 86.7207 91.5095V103.929H83.6407V91.5095ZM72.8607 97.719C72.8607 97.3073 73.023 96.9125 73.3118 96.6213C73.6006 96.3302 73.9923 96.1666 74.4007 96.1666C74.8091 96.1666 75.2008 96.3302 75.4896 96.6213C75.7785 96.9125 75.9407 97.3073 75.9407 97.719V103.929H72.8607V97.719Z" fill="white"/>
<path d="M69.6784 87.5783C69.8565 87.7823 70.1071 87.9075 70.3761 87.9269C70.645 87.9463 70.9107 87.8582 71.1158 87.6818L92.5731 68.8978V74.5899C92.5731 74.8644 92.6813 75.1276 92.8738 75.3217C93.0663 75.5158 93.3275 75.6248 93.5998 75.6248C93.872 75.6248 94.1332 75.5158 94.3257 75.3217C94.5183 75.1276 94.6264 74.8644 94.6264 74.5899V66.6727V66H85.6944C85.4221 66 85.161 66.109 84.9685 66.3031C84.7759 66.4972 84.6678 66.7604 84.6678 67.0349C84.6678 67.3094 84.7759 67.5726 84.9685 67.7667C85.161 67.9608 85.4221 68.0699 85.6944 68.0699H90.8278L69.7811 86.1294C69.5787 86.3089 69.4544 86.5615 69.4352 86.8326C69.416 87.1037 69.5034 87.3715 69.6784 87.5783Z" fill="white"/>
<defs>
<filter id="filter0_d_559_14476" x="0" y="0" width="311" height="180" filterUnits="userSpaceOnUse" color-interpolation-filters="sRGB">
<feFlood flood-opacity="0" result="BackgroundImageFix"/>
<feColorMatrix in="SourceAlpha" type="matrix" values="0 0 0 0 0 0 0 0 0 0 0 0 0 0 0 0 0 0 127 0" result="hardAlpha"/>
<feOffset dy="4"/>
<feGaussianBlur stdDeviation="20"/>
<feComposite in2="hardAlpha" operator="out"/>
<feColorMatrix type="matrix" values="0 0 0 0 0.0627451 0 0 0 0 0.00784314 0 0 0 0 0.207843 0 0 0 0.09 0"/>
<feBlend mode="normal" in2="BackgroundImageFix" result="effect1_dropShadow_559_14476"/>
<feBlend mode="normal" in="SourceGraphic" in2="effect1_dropShadow_559_14476" result="shape"/>
</filter>
</defs>
</svg>
