<svg width="345" height="177" viewBox="0 0 345 177" fill="none" xmlns="http://www.w3.org/2000/svg">
<g filter="url(#filter0_d_559_14468)">
<rect x="40" y="36" width="268" height="97" rx="10" fill="#F2F0FE"/>
<path d="M152.337 63.8182V74H150.925L145.749 66.5327H145.655V74H144.119V63.8182H145.54L150.721 71.2955H150.815V63.8182H152.337ZM157.469 74.1541C156.717 74.1541 156.069 73.9934 155.526 73.6719C154.985 73.3471 154.568 72.8913 154.273 72.3047C153.981 71.7147 153.835 71.0237 153.835 70.2315C153.835 69.4493 153.981 68.7599 154.273 68.1634C154.568 67.5668 154.979 67.1011 155.506 66.7663C156.036 66.4316 156.656 66.2642 157.365 66.2642C157.796 66.2642 158.214 66.3355 158.618 66.478C159.022 66.6205 159.385 66.8442 159.707 67.1491C160.028 67.4541 160.282 67.8501 160.467 68.3374C160.653 68.8213 160.746 69.4096 160.746 70.1023V70.6293H154.675V69.5156H159.289C159.289 69.1245 159.21 68.7782 159.05 68.4766C158.891 68.1716 158.668 67.9313 158.379 67.7557C158.094 67.58 157.759 67.4922 157.375 67.4922C156.957 67.4922 156.593 67.5949 156.281 67.8004C155.973 68.0026 155.734 68.2678 155.565 68.5959C155.4 68.9207 155.317 69.2737 155.317 69.6548V70.5249C155.317 71.0353 155.406 71.4695 155.585 71.8274C155.768 72.1854 156.021 72.4588 156.346 72.6477C156.671 72.8333 157.05 72.9261 157.484 72.9261C157.766 72.9261 158.023 72.8864 158.255 72.8068C158.487 72.724 158.688 72.6013 158.857 72.4389C159.026 72.2765 159.155 72.076 159.244 71.8374L160.651 72.0909C160.539 72.5052 160.336 72.8681 160.045 73.1797C159.756 73.4879 159.393 73.7282 158.956 73.9006C158.522 74.0696 158.026 74.1541 157.469 74.1541ZM163.757 74L161.51 66.3636H163.046L164.542 71.9716H164.617L166.118 66.3636H167.655L169.146 71.9467H169.221L170.707 66.3636H172.243L170.001 74H168.485L166.934 68.4865H166.819L165.268 74H163.757ZM180.016 74.1541C179.277 74.1541 178.64 73.9867 178.107 73.652C177.576 73.3139 177.169 72.8482 176.884 72.255C176.599 71.6617 176.456 70.9822 176.456 70.2166C176.456 69.4411 176.602 68.7566 176.894 68.1634C177.185 67.5668 177.596 67.1011 178.127 66.7663C178.657 66.4316 179.282 66.2642 180.001 66.2642C180.581 66.2642 181.098 66.3719 181.552 66.5874C182.006 66.7995 182.372 67.0978 182.651 67.4822C182.932 67.8667 183.1 68.3158 183.153 68.8295H181.706C181.627 68.4716 181.444 68.1634 181.159 67.9048C180.878 67.6463 180.5 67.517 180.026 67.517C179.611 67.517 179.249 67.6264 178.937 67.8452C178.629 68.0606 178.388 68.3688 178.216 68.7699C178.044 69.1676 177.958 69.6383 177.958 70.1818C177.958 70.7386 178.042 71.2192 178.211 71.6236C178.38 72.0279 178.619 72.3411 178.927 72.5632C179.239 72.7853 179.605 72.8963 180.026 72.8963C180.307 72.8963 180.563 72.8449 180.791 72.7422C181.023 72.6361 181.217 72.4853 181.373 72.2898C181.532 72.0942 181.643 71.8589 181.706 71.5838H183.153C183.1 72.0777 182.939 72.5185 182.671 72.9062C182.402 73.294 182.043 73.599 181.592 73.821C181.144 74.0431 180.619 74.1541 180.016 74.1541ZM185.949 63.8182V74H184.463V63.8182H185.949ZM187.669 74V66.3636H189.155V74H187.669ZM188.42 65.1854C188.161 65.1854 187.939 65.0992 187.753 64.9268C187.571 64.7512 187.48 64.5424 187.48 64.3004C187.48 64.0552 187.571 63.8464 187.753 63.674C187.939 63.4983 188.161 63.4105 188.42 63.4105C188.678 63.4105 188.899 63.4983 189.081 63.674C189.266 63.8464 189.359 64.0552 189.359 64.3004C189.359 64.5424 189.266 64.7512 189.081 64.9268C188.899 65.0992 188.678 65.1854 188.42 65.1854ZM194.166 74.1541C193.414 74.1541 192.766 73.9934 192.223 73.6719C191.682 73.3471 191.265 72.8913 190.97 72.3047C190.678 71.7147 190.532 71.0237 190.532 70.2315C190.532 69.4493 190.678 68.7599 190.97 68.1634C191.265 67.5668 191.676 67.1011 192.203 66.7663C192.733 66.4316 193.353 66.2642 194.062 66.2642C194.493 66.2642 194.911 66.3355 195.315 66.478C195.719 66.6205 196.082 66.8442 196.404 67.1491C196.725 67.4541 196.979 67.8501 197.164 68.3374C197.35 68.8213 197.443 69.4096 197.443 70.1023V70.6293H191.372V69.5156H195.986C195.986 69.1245 195.906 68.7782 195.747 68.4766C195.588 68.1716 195.365 67.9313 195.076 67.7557C194.791 67.58 194.456 67.4922 194.072 67.4922C193.654 67.4922 193.29 67.5949 192.978 67.8004C192.67 68.0026 192.431 68.2678 192.262 68.5959C192.097 68.9207 192.014 69.2737 192.014 69.6548V70.5249C192.014 71.0353 192.103 71.4695 192.282 71.8274C192.464 72.1854 192.718 72.4588 193.043 72.6477C193.368 72.8333 193.747 72.9261 194.181 72.9261C194.463 72.9261 194.72 72.8864 194.952 72.8068C195.184 72.724 195.384 72.6013 195.553 72.4389C195.723 72.2765 195.852 72.076 195.941 71.8374L197.348 72.0909C197.236 72.5052 197.033 72.8681 196.742 73.1797C196.453 73.4879 196.09 73.7282 195.653 73.9006C195.219 74.0696 194.723 74.1541 194.166 74.1541ZM200.299 69.4659V74H198.812V66.3636H200.239V67.6065H200.333C200.509 67.2022 200.784 66.8774 201.159 66.6321C201.536 66.3868 202.012 66.2642 202.585 66.2642C203.106 66.2642 203.562 66.3736 203.953 66.5923C204.344 66.8078 204.647 67.1293 204.862 67.5568C205.078 67.9844 205.186 68.513 205.186 69.1428V74H203.699V69.3217C203.699 68.7682 203.555 68.3357 203.267 68.0241C202.978 67.7093 202.582 67.5518 202.078 67.5518C201.734 67.5518 201.427 67.6264 201.159 67.7756C200.893 67.9247 200.683 68.1435 200.527 68.4318C200.375 68.7169 200.299 69.0616 200.299 69.4659ZM210.464 66.3636V67.5568H206.293V66.3636H210.464ZM207.411 64.5341H208.898V71.7578C208.898 72.0462 208.941 72.2633 209.027 72.4091C209.113 72.5516 209.224 72.6494 209.36 72.7024C209.499 72.7521 209.65 72.777 209.813 72.777C209.932 72.777 210.036 72.7687 210.126 72.7521C210.215 72.7356 210.285 72.7223 210.335 72.7124L210.603 73.9403C210.517 73.9735 210.394 74.0066 210.235 74.0398C210.076 74.0762 209.877 74.0961 209.639 74.0994C209.247 74.1061 208.883 74.0365 208.545 73.8906C208.207 73.7448 207.933 73.5194 207.724 73.2145C207.516 72.9096 207.411 72.5268 207.411 72.0661V64.5341ZM217.427 68.228L216.08 68.4666C216.024 68.2943 215.934 68.1302 215.812 67.9744C215.692 67.8187 215.53 67.6911 215.324 67.5916C215.119 67.4922 214.862 67.4425 214.554 67.4425C214.133 67.4425 213.782 67.5369 213.5 67.7259C213.218 67.9115 213.077 68.1518 213.077 68.4467C213.077 68.7019 213.172 68.9074 213.361 69.0632C213.55 69.219 213.855 69.3466 214.275 69.446L215.489 69.7244C216.191 69.8868 216.715 70.1371 217.06 70.4751C217.404 70.8132 217.577 71.2524 217.577 71.7926C217.577 72.25 217.444 72.6577 217.179 73.0156C216.917 73.3703 216.551 73.6487 216.08 73.8509C215.613 74.053 215.071 74.1541 214.454 74.1541C213.599 74.1541 212.902 73.9718 212.361 73.6072C211.821 73.2393 211.49 72.7173 211.367 72.0412L212.804 71.8224C212.893 72.197 213.077 72.4804 213.356 72.6726C213.634 72.8615 213.997 72.956 214.444 72.956C214.932 72.956 215.321 72.8549 215.613 72.6527C215.904 72.4472 216.05 72.197 216.05 71.902C216.05 71.6634 215.961 71.4628 215.782 71.3004C215.606 71.138 215.336 71.0154 214.971 70.9325L213.679 70.6491C212.966 70.4867 212.439 70.2282 212.098 69.8736C211.76 69.5189 211.591 69.0698 211.591 68.5263C211.591 68.0755 211.717 67.6811 211.969 67.343C212.221 67.005 212.569 66.7415 213.013 66.5526C213.457 66.3603 213.966 66.2642 214.539 66.2642C215.364 66.2642 216.014 66.4432 216.488 66.8011C216.962 67.1558 217.275 67.6314 217.427 68.228Z" fill="#111727"/>
<path d="M150.866 105.817C149.594 105.817 148.46 105.598 147.466 105.161C146.477 104.717 145.696 104.109 145.122 103.337C144.554 102.558 144.261 101.661 144.244 100.643H147.96C147.983 101.07 148.122 101.445 148.378 101.768C148.639 102.087 148.986 102.334 149.418 102.51C149.849 102.686 150.335 102.774 150.875 102.774C151.438 102.774 151.935 102.675 152.366 102.476C152.798 102.277 153.136 102.001 153.381 101.649C153.625 101.297 153.747 100.891 153.747 100.43C153.747 99.9645 153.616 99.5526 153.355 99.1946C153.099 98.831 152.73 98.5469 152.247 98.3423C151.77 98.1378 151.202 98.0355 150.543 98.0355H148.915V95.3253H150.543C151.099 95.3253 151.591 95.2287 152.017 95.0355C152.449 94.8423 152.784 94.5753 153.023 94.2344C153.261 93.8878 153.381 93.4844 153.381 93.0241C153.381 92.5866 153.276 92.2031 153.065 91.8736C152.861 91.5384 152.571 91.277 152.196 91.0895C151.827 90.902 151.395 90.8082 150.901 90.8082C150.401 90.8082 149.943 90.8991 149.528 91.081C149.114 91.2571 148.781 91.5099 148.531 91.8395C148.281 92.169 148.148 92.5554 148.131 92.9986H144.594C144.611 91.9929 144.898 91.1065 145.455 90.3395C146.011 89.5724 146.761 88.973 147.705 88.5412C148.653 88.1037 149.724 87.8849 150.918 87.8849C152.122 87.8849 153.176 88.1037 154.08 88.5412C154.983 88.9787 155.685 89.5696 156.185 90.3139C156.69 91.0526 156.94 91.8821 156.935 92.8026C156.94 93.7798 156.636 94.5952 156.023 95.2486C155.415 95.902 154.622 96.3168 153.645 96.4929V96.6293C154.929 96.794 155.906 97.2401 156.577 97.9673C157.253 98.6889 157.588 99.5923 157.582 100.678C157.588 101.672 157.301 102.555 156.722 103.328C156.148 104.101 155.355 104.709 154.344 105.152C153.332 105.595 152.173 105.817 150.866 105.817ZM159.755 105.578V102.919L165.968 97.1662C166.497 96.6548 166.94 96.1946 167.298 95.7855C167.661 95.3764 167.937 94.9759 168.124 94.5838C168.312 94.1861 168.406 93.7571 168.406 93.2969C168.406 92.7855 168.289 92.3452 168.056 91.9759C167.823 91.6009 167.505 91.3139 167.102 91.1151C166.698 90.9105 166.241 90.8082 165.73 90.8082C165.195 90.8082 164.73 90.9162 164.332 91.1321C163.934 91.348 163.627 91.6577 163.411 92.0611C163.195 92.4645 163.087 92.9446 163.087 93.5014H159.585C159.585 92.3594 159.843 91.3679 160.36 90.527C160.877 89.6861 161.602 89.0355 162.533 88.5753C163.465 88.1151 164.539 87.8849 165.755 87.8849C167.005 87.8849 168.093 88.1065 169.019 88.5497C169.951 88.9872 170.676 89.5952 171.193 90.3736C171.71 91.152 171.968 92.044 171.968 93.0497C171.968 93.7088 171.837 94.3594 171.576 95.0014C171.32 95.6435 170.863 96.3565 170.204 97.1406C169.545 97.919 168.616 98.8537 167.417 99.9446L164.869 102.442V102.561H172.198V105.578H159.755ZM181.986 88.1236V105.578H178.296V91.6264H178.193L174.196 94.1321V90.8594L178.517 88.1236H181.986Z" fill="#111727"/>
<circle cx="85" cy="84" r="28" fill="#111727"/>
<g clip-path="url(#clip0_559_14468)">
<path fill-rule="evenodd" clip-rule="evenodd" d="M90.4482 85.3183C92.0466 86.4033 93.1666 87.8733 93.1666 89.8333V93.3333H96.6666C97.3082 93.3333 97.8332 92.8083 97.8332 92.1666V89.8333C97.8332 87.29 93.6682 85.785 90.4482 85.3183Z" fill="#F2F0FE"/>
<path d="M81.5 84C84.0774 84 86.1667 81.9107 86.1667 79.3333C86.1667 76.756 84.0774 74.6667 81.5 74.6667C78.9227 74.6667 76.8334 76.756 76.8334 79.3333C76.8334 81.9107 78.9227 84 81.5 84Z" fill="#F2F0FE"/>
<path fill-rule="evenodd" clip-rule="evenodd" d="M88.4999 84C91.0782 84 93.1666 81.9117 93.1666 79.3333C93.1666 76.755 91.0782 74.6667 88.4999 74.6667C87.9516 74.6667 87.4382 74.7833 86.9482 74.9467C87.9166 76.1483 88.4999 77.6767 88.4999 79.3333C88.4999 80.99 87.9166 82.5183 86.9482 83.72C87.4382 83.8833 87.9516 84 88.4999 84Z" fill="#F2F0FE"/>
<path fill-rule="evenodd" clip-rule="evenodd" d="M81.5 85.1666C78.385 85.1666 72.1666 86.73 72.1666 89.8333V92.1666C72.1666 92.8083 72.6916 93.3333 73.3333 93.3333H89.6666C90.3083 93.3333 90.8333 92.8083 90.8333 92.1666V89.8333C90.8333 86.73 84.615 85.1666 81.5 85.1666Z" fill="#F2F0FE"/>
</g>
<path d="M216 97.7041C216 97.7041 222.146 99.4949 228.292 97.7041C242.614 93.5305 238 67 249 74C262.178 82.3863 272.656 81.9388 274.5 70" stroke="url(#paint0_linear_559_14468)" stroke-width="3" stroke-linecap="round" stroke-linejoin="round"/>
</g>
<defs>
<filter id="filter0_d_559_14468" x="0" y="0" width="348" height="177" filterUnits="userSpaceOnUse" color-interpolation-filters="sRGB">
<feFlood flood-opacity="0" result="BackgroundImageFix"/>
<feColorMatrix in="SourceAlpha" type="matrix" values="0 0 0 0 0 0 0 0 0 0 0 0 0 0 0 0 0 0 127 0" result="hardAlpha"/>
<feOffset dy="4"/>
<feGaussianBlur stdDeviation="20"/>
<feComposite in2="hardAlpha" operator="out"/>
<feColorMatrix type="matrix" values="0 0 0 0 0 0 0 0 0 0 0 0 0 0 0 0 0 0 0.09 0"/>
<feBlend mode="normal" in2="BackgroundImageFix" result="effect1_dropShadow_559_14468"/>
<feBlend mode="normal" in="SourceGraphic" in2="effect1_dropShadow_559_14468" result="shape"/>
</filter>
<linearGradient id="paint0_linear_559_14468" x1="179" y1="106" x2="262.56" y2="55.134" gradientUnits="userSpaceOnUse">
<stop stop-color="#6E9419"/>
<stop offset="1" stop-color="#6E9419" stop-opacity="0"/>
</linearGradient>
<clipPath id="clip0_559_14468">
<rect width="28" height="28" fill="white" transform="translate(71 70)"/>
</clipPath>
</defs>
</svg>
