<svg width="46" height="63" viewBox="0 0 46 63" fill="none" xmlns="http://www.w3.org/2000/svg">
<path d="M40.4225 55.8724H5.36074C2.98912 55.8724 1.06738 57.7974 1.06738 60.1658V61.5879H44.7158V60.1658C44.7158 57.7974 42.7941 55.8724 40.4225 55.8724Z" stroke="#111727" stroke-opacity="0.2" stroke-width="2" stroke-miterlimit="10"/>
<path d="M44.7158 1.58848H1.06738V3.04844C1.06738 5.41682 2.98912 7.3418 5.36074 7.3418H40.4225C42.7941 7.3418 44.7158 5.41682 44.7158 3.04844V1.58848Z" stroke="#111727" stroke-opacity="0.2" stroke-width="2" stroke-miterlimit="10"/>
<path d="M39.7128 7.34293V18.9631C39.7128 22.9537 34.7814 28.8692 27.7466 31.6107C34.7814 34.3468 39.7128 40.2623 39.7128 44.2529V44.2583V55.873" stroke="#111727" stroke-opacity="0.2" stroke-width="2" stroke-miterlimit="10"/>
<path d="M5.87744 55.873V44.2529C5.87744 40.2623 10.8007 34.3468 17.8356 31.6107C10.8007 28.8692 5.87744 22.9537 5.87744 18.9631V7.34293" stroke="#111727" stroke-opacity="0.2" stroke-width="2" stroke-miterlimit="10"/>
<path d="M36.9647 55.8514C32.5637 51.3472 24.92 48.6598 22.7139 48.6598C20.7397 48.6598 11.8566 52.2664 8.81885 55.873" stroke="#111727" stroke-opacity="0.2" stroke-width="2" stroke-miterlimit="10"/>
<path d="M31.2993 21.6663C29.0098 24.3645 24.1038 26.668 22.7861 26.668C21.6062 26.668 16.2995 24.159 14.4849 21.65L31.2993 21.6663Z" stroke="#111727" stroke-opacity="0.2" stroke-width="2" stroke-miterlimit="10"/>
</svg>
