<svg width="111" height="73" viewBox="0 0 111 73" fill="none" xmlns="http://www.w3.org/2000/svg">
<path d="M109.653 46.1699C109.653 41.327 98.9457 37.406 85.7388 37.406C72.5314 37.406 61.825 41.327 61.825 46.1699C61.825 51.0068 72.5314 54.9277 85.7388 54.9277C98.9457 54.9277 109.653 51.0068 109.653 46.1699Z" stroke="#111727" stroke-opacity="0.2" stroke-width="2" stroke-miterlimit="10"/>
<path d="M61.8201 53.8984C61.8201 58.7412 72.5336 62.6562 85.7357 62.6562C98.9498 62.6562 109.652 58.7412 109.652 53.8984" stroke="#111727" stroke-opacity="0.2" stroke-width="2" stroke-miterlimit="10"/>
<path d="M61.825 46.1702V53.8984" stroke="#111727" stroke-opacity="0.2" stroke-width="2" stroke-miterlimit="10"/>
<path d="M109.653 46.1702V53.8984" stroke="#111727" stroke-opacity="0.2" stroke-width="2" stroke-miterlimit="10"/>
<path d="M11.7714 48.4814C11.7608 48.4932 11.7607 48.4932 11.7607 48.4814" stroke="#111727" stroke-opacity="0.2" stroke-width="2" stroke-miterlimit="10"/>
<path d="M41.2135 48.0508H41.2029" stroke="#111727" stroke-opacity="0.2" stroke-width="2" stroke-miterlimit="10"/>
<path d="M48.824 51.3845C50.3265 52.5398 51.1598 53.8209 51.1598 55.1678C51.1598 60.0047 40.4462 63.9316 27.2441 63.9316C14.0415 63.9316 3.32788 60.0047 3.32788 55.1678C3.32788 54.3836 3.61284 53.6233 4.15041 52.899" stroke="#111727" stroke-opacity="0.2" stroke-width="2" stroke-miterlimit="10"/>
<path d="M3.32495 62.9023C3.32495 67.7452 14.0379 71.6602 27.2406 71.6602C40.454 71.6602 51.1569 67.7452 51.1569 62.9023" stroke="#111727" stroke-opacity="0.2" stroke-width="2" stroke-miterlimit="10"/>
<path d="M3.32959 55.1741V62.9023" stroke="#111727" stroke-opacity="0.2" stroke-width="2" stroke-miterlimit="10"/>
<path d="M51.1567 55.174V62.9082" stroke="#111727" stroke-opacity="0.2" stroke-width="2" stroke-miterlimit="10"/>
<path d="M7.77985 35.5981C4.07376 37.1425 1.82593 39.1599 1.82593 41.3748C1.82593 46.2117 12.5282 50.1387 25.7416 50.1387C36.6306 50.1387 45.8195 47.4628 48.7036 43.8112C48.7144 43.7992 48.7144 43.7992 48.7144 43.7992" stroke="#111727" stroke-opacity="0.2" stroke-width="2" stroke-miterlimit="10"/>
<path d="M1.81812 49.1035C1.81812 53.9463 12.5311 57.8613 25.7344 57.8613C38.9472 57.8613 49.65 53.9463 49.65 49.1035" stroke="#111727" stroke-opacity="0.2" stroke-width="2" stroke-miterlimit="10"/>
<path d="M1.823 41.3753V49.1035" stroke="#111727" stroke-opacity="0.2" stroke-width="2" stroke-miterlimit="10"/>
<path d="M49.6465 49.1035V43.4285" stroke="#111727" stroke-opacity="0.2" stroke-width="2" stroke-miterlimit="10"/>
<path d="M55.6117 29.9299C55.6117 34.7608 44.9095 38.6758 31.696 38.6758C18.4934 38.6758 7.77979 34.7608 7.77979 29.9299C7.77979 29.864 7.77978 29.7982 7.79116 29.7323C12.0348 32.1747 19.4913 33.785 27.9678 33.785C40.9945 33.785 51.5872 29.9838 51.8727 25.2247C54.2409 26.5716 55.6117 28.1939 55.6117 29.9299Z" stroke="#111727" stroke-opacity="0.2" stroke-width="2" stroke-miterlimit="10"/>
<path d="M7.78052 37.6523C7.78052 42.4951 18.4935 46.4102 31.6962 46.4102C44.9096 46.4102 55.6118 42.4951 55.6118 37.6523" stroke="#111727" stroke-opacity="0.2" stroke-width="2" stroke-miterlimit="10"/>
<path d="M7.78516 29.9241V37.6523" stroke="#111727" stroke-opacity="0.2" stroke-width="2" stroke-miterlimit="10"/>
<path d="M55.6123 29.9241V37.6523" stroke="#111727" stroke-opacity="0.2" stroke-width="2" stroke-miterlimit="10"/>
<path d="M7.79111 29.7324C5.42235 28.3795 4.05151 26.7573 4.05151 25.0272" stroke="#111727" stroke-opacity="0.2" stroke-width="2" stroke-miterlimit="10"/>
<path d="M51.8836 25.0271C51.8836 25.0929 51.8836 25.1588 51.8728 25.2246" stroke="#111727" stroke-opacity="0.2" stroke-width="2" stroke-miterlimit="10"/>
<path d="M4.05225 17.2971V25.0254" stroke="#111727" stroke-opacity="0.2" stroke-width="2" stroke-miterlimit="10"/>
<path d="M51.8745 25.0332V17.287" stroke="#111727" stroke-opacity="0.2" stroke-width="2" stroke-miterlimit="10"/>
<path d="M51.8895 9.77325C51.8895 9.8391 51.8894 9.91691 51.8739 9.97677C51.7961 11.2937 50.934 12.5329 49.4291 13.6463C48.5515 14.2869 47.4704 14.9035 46.1852 15.4482C41.8128 17.3458 35.2776 18.5371 27.9744 18.5371C22.5209 18.5371 17.4901 17.8607 13.4781 16.7352C7.74206 15.1369 4.05933 12.6107 4.05933 9.77325C4.05933 4.94833 14.7478 1.01535 27.9744 1.01535C41.1705 1.01535 51.8895 4.94833 51.8895 9.77325Z" stroke="#111727" stroke-opacity="0.2" stroke-width="2" stroke-miterlimit="10"/>
<path d="M4.05933 17.5019C4.05933 17.6875 4.07489 17.8611 4.10662 18.0347C4.15331 18.3938 4.27843 18.741 4.45083 19.1002C4.52925 19.2439 4.60767 19.3995 4.70165 19.5372C4.70165 19.5552 4.7178 19.5731 4.73336 19.5851C4.84291 19.7407 4.95246 19.9024 5.09374 20.07C5.21885 20.2316 5.36013 20.3873 5.53253 20.5429C5.67321 20.6985 5.84561 20.8542 6.03417 20.9979C6.22214 21.1715 6.41012 21.3271 6.61365 21.4528C6.81719 21.6084 7.0369 21.7641 7.25659 21.8898C7.4284 22.0155 7.60139 22.1113 7.78936 22.219C7.85222 22.249 7.91448 22.2849 7.97734 22.3148C8.2126 22.4525 8.47896 22.5962 8.74535 22.7219C9.21527 22.9554 9.71694 23.1888 10.2497 23.3924C10.4694 23.4881 10.7041 23.5839 10.9393 23.6617C11.4093 23.8353 11.9109 24.0029 12.4281 24.1646C12.7573 24.2723 13.1177 24.3801 13.4781 24.4759C13.7912 24.5716 14.1049 24.6495 14.4341 24.7273C14.7633 24.8231 15.0926 24.9009 15.4368 24.9608C16.1426 25.1344 16.8633 25.278 17.6158 25.4037C18.0701 25.4816 18.5245 25.5594 18.9789 25.6192C19.2452 25.6671 19.5116 25.6971 19.778 25.727C20.1384 25.7928 20.4988 25.8407 20.8753 25.8707C21.2512 25.9185 21.6433 25.9664 22.0504 25.9964C22.6778 26.0562 23.3201 26.1041 23.978 26.14C24.652 26.1819 25.3416 26.2179 26.0468 26.2298C26.3605 26.2478 26.6891 26.2478 27.0028 26.2478C27.3321 26.2598 27.6451 26.2598 27.9744 26.2598C28.7897 26.2598 29.5889 26.2478 30.388 26.2179C31.7517 26.17 33.0837 26.0742 34.3683 25.9485C34.9328 25.8886 35.4811 25.8228 36.0301 25.7629C36.406 25.6971 36.782 25.6492 37.1585 25.5893C38.224 25.4337 39.2423 25.2421 40.2145 25.0266C40.6533 24.9308 41.0921 24.835 41.4997 24.7273C42.0163 24.6016 42.518 24.4579 42.9879 24.3202C43.0041 24.3202 43.0041 24.3202 43.0041 24.3202C43.5057 24.1766 43.9912 24.0209 44.4455 23.8473C44.7592 23.7575 45.0568 23.6438 45.3393 23.5181C45.6524 23.4103 45.9505 23.2846 46.2325 23.1589C46.8903 22.8955 47.486 22.5962 48.0349 22.2669C48.2384 22.1712 48.4264 22.0634 48.5988 21.9377C48.7712 21.8419 48.9436 21.7342 49.1005 21.6085C49.2567 21.5127 49.4135 21.4049 49.5548 21.2792C49.6955 21.1715 49.8368 21.0577 49.978 20.932C50.1187 20.8243 50.26 20.6985 50.3695 20.5728C50.5419 20.4172 50.6832 20.2615 50.8083 20.1059C50.9023 19.9922 50.9963 19.8844 51.0592 19.7767C51.1376 19.6809 51.216 19.5851 51.2633 19.4893C51.3567 19.3696 51.4195 19.2259 51.4824 19.1002C51.5764 18.9266 51.6386 18.753 51.7015 18.5854C51.7961 18.304 51.8583 18.0047 51.8745 17.7054C51.8895 17.6456 51.8895 17.5797 51.8895 17.5019" stroke="#111727" stroke-opacity="0.2" stroke-width="2" stroke-miterlimit="10"/>
<path d="M4.05933 17.502V9.7737" stroke="#111727" stroke-opacity="0.2" stroke-width="2" stroke-miterlimit="10"/>
<path d="M51.8745 17.5195V9.77333" stroke="#111727" stroke-opacity="0.2" stroke-width="2" stroke-miterlimit="10"/>
</svg>
