<svg width="83" height="83" viewBox="0 0 83 83" fill="none" xmlns="http://www.w3.org/2000/svg">
<path d="M1.37854 41.7571C1.37854 19.67 19.2835 1.75977 41.3759 1.75977C63.463 1.75977 81.3733 19.67 81.3733 41.7571C81.3733 63.8495 63.463 81.7598 41.3759 81.7598C19.2835 81.7598 1.37854 63.8495 1.37854 41.7571Z" stroke="#111727" stroke-opacity="0.2" stroke-width="1.85517" stroke-miterlimit="10"/>
<path d="M1.38373 41.7734H81.3679" stroke="#111727" stroke-opacity="0.2" stroke-width="1.85517" stroke-miterlimit="10"/>
<path d="M41.3601 81.7443V1.76015" stroke="#111727" stroke-opacity="0.2" stroke-width="1.85517" stroke-miterlimit="10"/>
<path d="M33.6376 81.0137C31.0721 77.0224 27.5102 70.6301 24.913 62.5097V62.4779C22.9836 56.4513 21.5525 49.46 21.42 41.7743C21.3193 35.2812 22.1197 28.2581 24.383 20.901C26.148 15.044 28.8088 8.9537 32.6729 2.73094" stroke="#111727" stroke-opacity="0.2" stroke-width="1.85517" stroke-miterlimit="10"/>
<path d="M48.5796 81.082C51.2086 77.0219 54.8076 70.5288 57.4367 62.276C59.3342 56.2811 60.7283 49.3587 60.8661 41.7737C60.9615 35.3496 60.1664 28.3901 57.9667 21.1337C56.2017 15.1442 53.4719 8.95318 49.5443 2.59261" stroke="#111727" stroke-opacity="0.2" stroke-width="1.85517" stroke-miterlimit="10"/>
<path d="M10.734 16.0389H10.7711C14.6617 17.8411 19.2254 19.6009 24.3827 20.8995C29.5083 22.2299 35.2328 23.0992 41.3601 23.131C46.6182 23.131 52.1784 22.5639 57.9665 21.1327C62.5249 20.0037 67.2212 18.3393 72.0128 16.0389" stroke="#111727" stroke-opacity="0.2" stroke-width="1.85517" stroke-miterlimit="10"/>
<path d="M10.771 67.4649C14.7941 65.6044 19.5539 63.8076 24.9127 62.5089V62.4771C29.9057 61.2421 35.4341 60.4417 41.36 60.4099C46.4485 60.3781 51.8443 60.9082 57.4363 62.2757C62.1273 63.3729 66.9878 65.069 71.9808 67.502" stroke="#111727" stroke-opacity="0.2" stroke-width="1.85517" stroke-miterlimit="10"/>
</svg>
