<svg width="45" height="38" viewBox="0 0 45 38" fill="none" xmlns="http://www.w3.org/2000/svg">
<path d="M3.36501 27.1779L1.03207 25.709L1.85707 23.6029L4.575 24.2354C4.96229 23.7129 5.42291 23.25 5.94541 22.8604L5.33353 20.1746L7.40749 19.2671L8.88103 21.6367C9.20187 21.5885 9.52958 21.5633 9.86417 21.5633C10.1896 21.5633 10.5104 21.5862 10.8221 21.6321L12.2887 19.3015L14.3971 20.1265L13.7623 22.8444C14.2848 23.2294 14.75 23.6923 15.1373 24.2148L17.8254 23.6029L18.7306 25.6769L16.361 27.1481C16.4092 27.4712 16.4344 27.799 16.4344 28.1335C16.4344 28.459 16.4115 28.7775 16.3656 29.0915L18.6985 30.5581L17.8735 32.6642L15.1556 32.0317C14.7683 32.5542 14.3077 33.0194 13.7852 33.4067L14.3971 36.0925L12.3231 37L10.8496 34.6304C10.5287 34.6785 10.201 34.7037 9.86417 34.7037C9.54104 34.7037 9.2202 34.6808 8.90854 34.635L7.44187 36.9656L5.33353 36.1406L5.96833 33.4227C5.44354 33.0377 4.98062 32.5748 4.59333 32.0546L1.90521 32.6642L1 30.5925L3.36957 29.119C3.32145 28.7981 3.29626 28.4681 3.29626 28.1335C3.29626 27.8081 3.31917 27.4896 3.36501 27.1779Z" stroke="#111727" stroke-miterlimit="10"/>
<path d="M6.27823 28.1334C6.27823 26.1511 7.88469 24.5447 9.86469 24.5447C11.847 24.5447 13.4534 26.1511 13.4534 28.1334C13.4534 30.1157 11.847 31.7222 9.86469 31.7222C7.88469 31.7222 6.27823 30.1157 6.27823 28.1334Z" stroke="#111727" stroke-miterlimit="10"/>
<path d="M7.49867 6.78187L5.79368 5.70937L6.39639 4.16937L8.38327 4.63229C8.66514 4.24958 9.00429 3.91042 9.38471 3.62854L8.93784 1.66228L10.4526 0.999993L11.5297 2.7325C11.7658 2.69812 12.0064 2.67978 12.2493 2.67978C12.4876 2.67978 12.7214 2.69583 12.9506 2.7302L14.0231 1.0252L15.5631 1.62791L15.0979 3.61479C15.4806 3.89666 15.8197 4.23582 16.1039 4.61624L18.0678 4.16937L18.7301 5.68416L16.9999 6.76124C17.0343 6.99729 17.0526 7.23791 17.0526 7.48083C17.0526 7.71916 17.0343 7.95291 17.0022 8.18208L18.7072 9.25459L18.1022 10.7946L16.1176 10.3294C15.8335 10.7121 15.4966 11.0512 15.1162 11.3354L15.5631 13.2994L14.046 13.9617L12.9689 12.2315C12.7351 12.2658 12.4945 12.2842 12.2493 12.2842C12.0133 12.2842 11.7795 12.2658 11.5503 12.2338L10.4778 13.9388L8.93784 13.3337L9.40076 11.3492C9.01805 11.065 8.67889 10.7281 8.39473 10.3477L6.43076 10.7946L5.76846 9.2775L7.50098 8.2027C7.4666 7.96666 7.44825 7.72603 7.44825 7.48083C7.44825 7.24478 7.4643 7.01103 7.49867 6.78187Z" stroke="#111727" stroke-miterlimit="10"/>
<path d="M10.4538 7.48083C10.4538 6.48853 11.2582 5.68416 12.2505 5.68416C13.2451 5.68416 14.0494 6.48853 14.0494 7.48083C14.0494 8.47541 13.2451 9.27979 12.2505 9.27979C11.2582 9.27979 10.4538 8.47541 10.4538 7.48083Z" stroke="#111727" stroke-miterlimit="10"/>
<path d="M23.0872 21.4051L19.4618 20.4976L19.636 17.4337L23.4058 17.1037C23.6831 16.2649 24.0818 15.472 24.5906 14.7501L22.6679 11.5464L24.9572 9.5022L27.8562 11.9337C28.2504 11.7343 28.6629 11.5647 29.096 11.4226C29.5154 11.2851 29.937 11.1797 30.3587 11.1064L31.2639 7.48094L34.3279 7.65511L34.6602 11.4249C35.4989 11.7022 36.2918 12.101 37.0114 12.6097L40.2175 10.687L42.2616 12.9764L39.8302 15.8776C40.0272 16.2695 40.1991 16.6843 40.3412 17.1151C40.4787 17.5345 40.5818 17.9562 40.6552 18.3778L44.2806 19.2853L44.1087 22.3493L40.3366 22.6793C40.0593 23.518 39.6606 24.311 39.1518 25.0328L41.0768 28.2366L38.7875 30.2808L35.8862 27.8493C35.492 28.0464 35.0795 28.2182 34.6487 28.3603C34.2293 28.4978 33.8077 28.601 33.3837 28.6766L32.4785 32.302L29.4145 32.1278L29.0822 28.3558C28.2458 28.0808 27.4529 27.6797 26.731 27.1733L23.5249 29.096L21.4808 26.8066L23.9122 23.9053C23.7152 23.5135 23.5433 23.0987 23.4035 22.6678C23.266 22.2485 23.1606 21.8268 23.0872 21.4051Z" stroke="#111727" stroke-miterlimit="10"/>
<path d="M27.2469 21.4073C26.4081 18.8521 27.8014 16.1021 30.3544 15.2657C32.9096 14.4269 35.6596 15.8202 36.4983 18.3754C37.3348 20.9307 35.9437 23.6807 33.3885 24.5171C30.8333 25.3536 28.0833 23.9625 27.2469 21.4073Z" stroke="#111727" stroke-miterlimit="10"/>
</svg>
