<svg width="41" height="34" viewBox="0 0 41 34" fill="none" xmlns="http://www.w3.org/2000/svg">
<path d="M33.3334 17.767V26.979C33.3334 27.5222 32.8897 27.962 32.3465 27.962H4.89137C4.3481 27.962 3.9082 27.5222 3.9082 26.979V8.55312C3.9082 8.00991 4.3481 7.56633 4.89137 7.56633H22.7724" stroke="#111727" stroke-miterlimit="10"/>
<path d="M36.2395 30.2331H1V32.015C1 32.5582 1.44175 32.9999 1.98503 32.9999H35.2545C35.7977 32.9999 36.2395 32.5582 36.2395 32.015V30.2331Z" stroke="#111727" stroke-miterlimit="10"/>
<path d="M31.1047 18.074V25.553H6.13477V9.98412H22.5533" stroke="#111727" stroke-miterlimit="10"/>
<path d="M32.0621 1.05802C27.3795 0.512926 23.1423 3.86803 22.599 8.55016C22.3208 10.9373 23.0596 13.2097 24.4695 14.9352L23.4017 18.3636L26.5373 16.7641C27.5806 17.4201 28.7837 17.8599 30.0902 18.0122C34.7729 18.5572 39.01 15.2021 39.5533 10.52C40.0985 5.83975 36.7448 1.6031 32.0621 1.05802Z" stroke="#111727" stroke-miterlimit="10"/>
<path d="M33.3701 12.4867L28.7852 9.48307" stroke="#111727" stroke-miterlimit="10"/>
<path d="M28.7852 9.48486L33.3701 6.47935" stroke="#111727" stroke-miterlimit="10"/>
<path d="M27.4473 9.48363C27.4473 8.74306 28.0469 8.14345 28.7857 8.14345C29.5245 8.14345 30.1241 8.74306 30.1241 9.48363C30.1241 10.2223 29.5245 10.8219 28.7857 10.8219C28.0469 10.8219 27.4473 10.2223 27.4473 9.48363Z" stroke="#111727" stroke-miterlimit="10"/>
<path d="M31.9922 6.47982C31.9922 5.74114 32.5919 5.14153 33.3325 5.14153C34.0713 5.14153 34.671 5.74114 34.671 6.47982C34.671 7.21851 34.0713 7.81812 33.3325 7.81812C32.5919 7.81812 31.9922 7.21851 31.9922 6.47982Z" stroke="#111727" stroke-miterlimit="10"/>
<path d="M31.9922 12.4874C31.9922 11.7487 32.5919 11.1491 33.3325 11.1491C34.0713 11.1491 34.671 11.7487 34.671 12.4874C34.671 13.2261 34.0713 13.8257 33.3325 13.8257C32.5919 13.8257 31.9922 13.2261 31.9922 12.4874Z" stroke="#111727" stroke-miterlimit="10"/>
</svg>
