<svg width="38" height="38" viewBox="0 0 38 38" fill="none" xmlns="http://www.w3.org/2000/svg">
<path d="M1 18.9988C1 9.05963 9.0572 0.999999 18.9987 0.999999C28.9379 0.999999 36.9975 9.05963 36.9975 18.9988C36.9975 28.9404 28.9379 37 18.9987 37C9.0572 37 1 28.9404 1 18.9988Z" stroke="#111727" stroke-miterlimit="10"/>
<path d="M1.00195 19.0059H36.9947" stroke="#111727" stroke-miterlimit="10"/>
<path d="M18.9922 36.9941V1.00129" stroke="#111727" stroke-miterlimit="10"/>
<path d="M15.5173 36.6641C14.3628 34.868 12.76 31.9914 11.5912 28.3373V28.323C10.723 25.611 10.079 22.4649 10.0194 19.0063C9.97406 16.0844 10.3342 12.924 11.3527 9.61337C12.147 6.97771 13.3443 4.23708 15.0832 1.43684" stroke="#111727" stroke-miterlimit="10"/>
<path d="M22.2402 36.6953C23.4233 34.8682 25.0428 31.9464 26.2259 28.2326C27.0798 25.5349 27.7071 22.4198 27.7691 19.0066C27.8121 16.1157 27.4543 12.9839 26.4644 9.71857C25.6701 7.02328 24.4418 4.23733 22.6743 1.37507" stroke="#111727" stroke-miterlimit="10"/>
<path d="M5.20898 7.42575H5.22569C6.97642 8.23673 9.03008 9.02864 11.3509 9.61302C13.6574 10.2117 16.2334 10.6029 18.9907 10.6172C21.3568 10.6172 23.8589 10.362 26.4635 9.71798C28.5148 9.20993 30.6281 8.46094 32.7843 7.42575" stroke="#111727" stroke-miterlimit="10"/>
<path d="M5.22656 30.5673C7.03693 29.7301 9.17884 28.9215 11.5903 28.3371V28.3228C13.8371 27.7671 16.3249 27.4069 18.9915 27.3926C21.2813 27.3783 23.7095 27.6168 26.2259 28.2322C28.3368 28.7259 30.524 29.4892 32.7708 30.584" stroke="#111727" stroke-miterlimit="10"/>
</svg>
