<svg width="41" height="38" viewBox="0 0 41 38" fill="none" xmlns="http://www.w3.org/2000/svg">
<path d="M21.7849 6.09695V34.0234H1V6.09888L21.7849 6.09695Z" stroke="#111727" stroke-miterlimit="10"/>
<path d="M3.75452 10.4534H10.9856" stroke="#111727" stroke-miterlimit="10"/>
<path d="M3.75452 12.5393H10.9856" stroke="#111727" stroke-miterlimit="10"/>
<path d="M3.75452 19.0181H10.9856" stroke="#111727" stroke-miterlimit="10"/>
<path d="M3.75452 21.1042H10.9856" stroke="#111727" stroke-miterlimit="10"/>
<path d="M3.75452 27.6824H10.9856" stroke="#111727" stroke-miterlimit="10"/>
<path d="M3.75452 29.7683H10.9856" stroke="#111727" stroke-miterlimit="10"/>
<path d="M15.9619 13.9636C17.3808 13.9636 18.5302 12.8149 18.5303 11.3962C18.5303 9.97713 17.3804 8.8269 15.9619 8.8269C14.5435 8.82702 13.3936 9.9772 13.3936 11.3962C13.3936 12.8148 14.5432 13.9635 15.9619 13.9636Z" stroke="#111727"/>
<path d="M12.8936 11.3961C12.8936 9.701 14.2674 8.32665 15.9621 8.32665C17.6569 8.32665 19.0307 9.701 19.0307 11.3961C19.0307 13.0912 17.6569 14.4636 15.9621 14.4636C14.2674 14.4636 12.8936 13.0912 12.8936 11.3961Z" stroke="#111727" stroke-miterlimit="10"/>
<path d="M14.4333 11.474L15.3138 12.4324L17.4891 10.3602" stroke="#111727" stroke-miterlimit="10"/>
<path d="M15.9619 22.6296C17.3803 22.6296 18.5302 21.4794 18.5303 20.0603C18.5303 18.6433 17.3806 17.4929 15.9619 17.4929C14.5433 17.493 13.3936 18.6434 13.3936 20.0603C13.3936 21.4793 14.5436 22.6295 15.9619 22.6296Z" stroke="#111727"/>
<path d="M12.8936 20.0602C12.8936 18.367 14.2674 16.9926 15.9621 16.9926C17.6569 16.9926 19.0307 18.367 19.0307 20.0602C19.0307 21.7553 17.6569 23.1296 15.9621 23.1296C14.2674 23.1296 12.8936 21.7553 12.8936 20.0602Z" stroke="#111727" stroke-miterlimit="10"/>
<path d="M14.4333 20.1383L15.3138 21.0967L17.4891 19.0245" stroke="#111727" stroke-miterlimit="10"/>
<path d="M15.9619 31.2939C17.3808 31.2939 18.5302 30.1452 18.5303 28.7266C18.5303 27.3074 17.3804 26.1572 15.9619 26.1572C14.5435 26.1573 13.3936 27.3075 13.3936 28.7266C13.3936 30.1451 14.5432 31.2938 15.9619 31.2939Z" stroke="#111727"/>
<path d="M12.8936 28.7264C12.8936 27.0313 14.2674 25.657 15.9621 25.657C17.6569 25.657 19.0307 27.0313 19.0307 28.7264C19.0307 30.4215 17.6569 31.7939 15.9621 31.7939C14.2674 31.7939 12.8936 30.4215 12.8936 28.7264Z" stroke="#111727" stroke-miterlimit="10"/>
<path d="M21.7849 34.0238V34.9861C21.7849 36.098 20.8829 37 19.7699 37H3.01475C1.90201 37 1 36.098 1 34.9861V34.0238" stroke="#111727" stroke-miterlimit="10"/>
<path d="M21.7849 6.09888V5.52348C21.7849 4.30852 20.8002 3.32295 19.5858 3.32295H3.19884C1.98443 3.32295 1 4.30852 1 5.52348V6.09888" stroke="#111727" stroke-miterlimit="10"/>
<path d="M35.5724 1.38881C31.9445 0.125253 27.9792 2.04197 26.7156 5.66934C26.1993 7.15256 26.2146 8.69021 26.6604 10.0782L24.8503 13.7211L28.9234 13.377C29.5274 13.863 30.2225 14.2557 30.9964 14.5259C34.6243 15.7894 38.5896 13.8727 39.8532 10.2453C41.1168 6.61797 39.2002 2.65236 35.5724 1.38881Z" stroke="#111727" stroke-miterlimit="10"/>
<path d="M30.5632 6.15552H36.5087" stroke="#111727" stroke-miterlimit="10" stroke-linecap="round"/>
<path d="M30.5632 8.18311H36.5087" stroke="#111727" stroke-miterlimit="10" stroke-linecap="round"/>
<path d="M30.5632 10.2104H33.9946" stroke="#111727" stroke-miterlimit="10" stroke-linecap="round"/>
</svg>
