<svg width="42" height="38" viewBox="0 0 42 38" fill="none" xmlns="http://www.w3.org/2000/svg">
<path d="M32.6699 10.3471C32.6699 8.94699 33.8052 7.81329 35.2055 7.81329C36.6058 7.81329 37.7411 8.94699 37.7411 10.3471C37.7411 11.7492 36.6058 12.8829 35.2055 12.8829C33.8052 12.8829 32.6699 11.7492 32.6699 10.3471Z" stroke="#111727" stroke-miterlimit="10"/>
<path d="M29.6426 18.71C29.6426 16.5167 30.9115 14.6158 32.7588 13.7125C33.4829 14.1131 34.3188 14.3394 35.2069 14.3394C36.0952 14.3394 36.9275 14.1131 37.6554 13.7125C39.4989 14.6199 40.7678 16.5167 40.7678 18.71" stroke="#111727" stroke-miterlimit="10" stroke-linecap="round"/>
<path d="M4.02734 28.6367C4.02734 27.2366 5.16245 26.1009 6.56295 26.1009C7.96325 26.1009 9.09854 27.2366 9.09854 28.6367C9.09854 30.0368 7.96325 31.1725 6.56295 31.1725C5.16245 31.1725 4.02734 30.0368 4.02734 28.6367Z" stroke="#111727" stroke-miterlimit="10"/>
<path d="M1 36.9993C1 34.804 2.2689 32.9051 4.11627 32.0018C4.84015 32.4004 5.6762 32.6287 6.56433 32.6287C7.45266 32.6287 8.28491 32.4004 9.0126 32.0018C10.8564 32.9071 12.1253 34.804 12.1253 36.9993" stroke="#111727" stroke-miterlimit="10" stroke-linecap="round"/>
<path d="M18.8652 28.6367C18.8652 27.2366 20.0005 26.1009 21.4008 26.1009C22.8011 26.1009 23.9364 27.2366 23.9364 28.6367C23.9364 30.0368 22.8011 31.1725 21.4008 31.1725C20.0005 31.1725 18.8652 30.0368 18.8652 28.6367Z" stroke="#111727" stroke-miterlimit="10"/>
<path d="M15.8379 36.9993C15.8379 34.804 17.1068 32.9051 18.9542 32.0018C19.6782 32.4004 20.5141 32.6287 21.4024 32.6287C22.2908 32.6287 23.1228 32.4004 23.8507 32.0018C25.6943 32.9071 26.9632 34.804 26.9632 36.9993" stroke="#111727" stroke-miterlimit="10" stroke-linecap="round"/>
<path d="M32.9805 28.6367C32.9805 27.2366 34.1156 26.1009 35.5159 26.1009C36.9164 26.1009 38.0515 27.2366 38.0515 28.6367C38.0515 30.0368 36.9164 31.1725 35.5159 31.1725C34.1156 31.1725 32.9805 30.0368 32.9805 28.6367Z" stroke="#111727" stroke-miterlimit="10"/>
<path d="M29.9531 36.9993C29.9531 34.804 31.222 32.9051 33.0694 32.0018C33.7935 32.4004 34.6293 32.6287 35.5177 32.6287C36.4058 32.6287 37.2382 32.4004 37.9659 32.0018C39.8095 32.9071 41.0784 34.804 41.0784 36.9993" stroke="#111727" stroke-miterlimit="10" stroke-linecap="round"/>
<path d="M3.7168 2.93009H25.8067V17.5179C25.8067 18.1649 25.2823 18.6897 24.6355 18.6897H4.88795C4.24118 18.6897 3.7168 18.1649 3.7168 17.5179V2.93009Z" stroke="#111727" stroke-miterlimit="10"/>
<path d="M9.48438 15.7733H22.8352" stroke="#111727" stroke-miterlimit="10"/>
<path d="M20.8008 15.7733H18.4629V7.81336H20.8008V15.7733Z" stroke="#111727" stroke-miterlimit="10"/>
<path d="M18.4631 15.7733H16.125V9.25951H18.4631V15.7733Z" stroke="#111727" stroke-miterlimit="10"/>
<path d="M16.1252 15.7733H13.7871V10.6576H16.1252V15.7733Z" stroke="#111727" stroke-miterlimit="10"/>
<path d="M13.7873 15.7733H11.4492V11.8955H13.7873V15.7733Z" stroke="#111727" stroke-miterlimit="10"/>
<path d="M28.1178 2.93018H1.25781V0.999275H28.1178V2.93018Z" stroke="#111727" stroke-miterlimit="10"/>
</svg>
