<svg width="21" height="20" viewBox="0 0 21 20" fill="none" xmlns="http://www.w3.org/2000/svg">
<path d="M6.93699 6.29001L1.17931 7.11516L1.07734 7.13567C0.922961 7.17618 0.782228 7.25646 0.669509 7.36832C0.55679 7.48018 0.476122 7.6196 0.435745 7.77235C0.395368 7.9251 0.396728 8.08571 0.439685 8.23778C0.482642 8.38984 0.565658 8.52791 0.680255 8.63789L4.85141 12.6512L3.86773 18.3202L3.856 18.4183C3.84655 18.5761 3.87971 18.7336 3.95207 18.8746C4.02443 19.0156 4.1334 19.135 4.26783 19.2207C4.40225 19.3064 4.55729 19.3552 4.71708 19.3622C4.87687 19.3692 5.03566 19.334 5.1772 19.2604L10.3266 16.5843L15.4643 19.2604L15.5546 19.3014C15.7035 19.3594 15.8654 19.3772 16.0236 19.353C16.1818 19.3287 16.3307 19.2633 16.4548 19.1634C16.579 19.0635 16.6741 18.9328 16.7303 18.7846C16.7865 18.6364 16.8018 18.4761 16.7747 18.3202L15.7901 12.6512L19.9631 8.63699L20.0335 8.56117C20.134 8.43875 20.1999 8.29217 20.2245 8.13637C20.2491 7.98057 20.2315 7.8211 20.1734 7.67423C20.1154 7.52736 20.0189 7.39832 19.894 7.30027C19.7691 7.20222 19.6201 7.13865 19.4622 7.11605L13.7045 6.29001L11.1307 1.13397C11.0562 0.984579 10.9409 0.858783 10.7979 0.770817C10.6548 0.682852 10.4897 0.63623 10.3212 0.63623C10.1527 0.63623 9.98761 0.682852 9.84454 0.770817C9.70148 0.858783 9.58618 0.984579 9.5117 1.13397L6.93699 6.29001Z" fill="#FB8500"/>
</svg>
