<svg width="40" height="26" viewBox="0 0 40 26" fill="none" xmlns="http://www.w3.org/2000/svg">
<path d="M33.5859 1.23556C30.3431 1.23556 27.7129 3.86404 27.7129 7.10783C27.7129 8.43287 28.1528 9.65673 28.8937 10.639L28.4619 14.0447L31.6143 12.6401C32.231 12.86 32.895 12.9801 33.5859 12.9801C36.8301 12.9801 39.4603 10.3516 39.4603 7.10783C39.4603 3.86404 36.8301 1.23556 33.5859 1.23556Z" stroke="#111727" stroke-miterlimit="10"/>
<path d="M24.2227 17.6913C24.2227 16.4674 25.2144 15.4757 26.438 15.4757C27.6606 15.4757 28.6525 16.4674 28.6525 17.6913C28.6525 18.9151 27.6606 19.9055 26.438 19.9055C25.2144 19.9055 24.2227 18.9151 24.2227 17.6913Z" stroke="#111727" stroke-miterlimit="10"/>
<path d="M21.5781 24.9971C21.5781 23.0797 22.6867 21.42 24.3007 20.6306C24.9332 20.9801 25.6636 21.1785 26.4397 21.1785C27.2156 21.1785 27.943 20.9801 28.5786 20.6306C30.1899 21.4227 31.2979 23.0797 31.2979 24.9971" stroke="#111727" stroke-miterlimit="10" stroke-linecap="round"/>
<path d="M6.87355 0.999094C10.1175 0.999094 12.7471 3.6276 12.7471 6.87139C12.7471 8.19778 12.3076 9.42026 11.5666 10.4026L11.9984 13.8096L8.84584 12.4036C8.22926 12.6236 7.56557 12.745 6.87355 12.745C3.62963 12.745 1 10.1152 1 6.87139C1 3.6276 3.62963 0.999094 6.87355 0.999094Z" stroke="#111727" stroke-miterlimit="10"/>
<path d="M15.8661 17.6913C15.8661 16.4674 14.8742 15.4757 13.6508 15.4757C12.4273 15.4757 11.4355 16.4674 11.4355 17.6913C11.4355 18.9151 12.4273 19.9055 13.6508 19.9055C14.8742 19.9055 15.8661 18.9151 15.8661 17.6913Z" stroke="#111727" stroke-miterlimit="10"/>
<path d="M8.79102 24.9971C8.79102 23.0797 9.89949 21.4227 11.5103 20.6306C12.1461 20.9801 12.8732 21.1785 13.6492 21.1785C14.4253 21.1785 15.1556 20.9801 15.7882 20.6306C17.4022 21.42 18.5108 23.0797 18.5108 24.9971" stroke="#111727" stroke-miterlimit="10" stroke-linecap="round"/>
<path d="M23.6895 12.59H18.7734" stroke="#111727" stroke-miterlimit="10" stroke-linecap="round"/>
<path d="M18.3213 10.5887L16.3984 12.5898L18.3213 14.6745" stroke="#111727" stroke-miterlimit="10" stroke-linecap="round"/>
<path d="M16.3984 7.10388H21.3145" stroke="#111727" stroke-miterlimit="10" stroke-linecap="round"/>
<path d="M21.7676 5.10462L23.6905 7.10566L21.7676 9.19037" stroke="#111727" stroke-miterlimit="10" stroke-linecap="round"/>
<path d="M31.0762 5.61328H36.0976" stroke="#111727" stroke-miterlimit="10" stroke-linecap="round"/>
<path d="M31.0762 7.32513H36.0976" stroke="#111727" stroke-miterlimit="10" stroke-linecap="round"/>
<path d="M31.0762 9.03888H33.9735" stroke="#111727" stroke-miterlimit="10" stroke-linecap="round"/>
<path d="M4.36133 5.37817H9.38173" stroke="#111727" stroke-miterlimit="10" stroke-linecap="round"/>
<path d="M4.36133 7.08997H9.38173" stroke="#111727" stroke-miterlimit="10" stroke-linecap="round"/>
<path d="M4.36133 8.80176H7.67192" stroke="#111727" stroke-miterlimit="10" stroke-linecap="round"/>
</svg>
