<svg width="35" height="38" viewBox="0 0 35 38" fill="none" xmlns="http://www.w3.org/2000/svg">
<path d="M27.3807 10.2849C28.5133 10.3079 29.0912 11.254 29.0912 11.9594C29.0912 12.6647 28.236 13.6694 28.236 13.6694C27.7332 14.5946 28.8022 14.5946 28.8022 14.5946H34.1533V2.96102C34.1533 1.87888 33.2748 0.999787 32.1912 0.999787H20.6082V6.39166C20.6082 6.39166 20.6283 7.01958 20.0631 6.94004C19.952 6.92539 19.8488 6.87518 19.7586 6.8082C19.3671 6.51935 17.7257 5.52089 16.8102 6.78514C16.3624 7.40261 16.3614 8.25454 16.8152 8.86992C17.7316 10.109 19.3678 9.07501 19.7586 8.78407C19.8488 8.71918 19.952 8.66896 20.0631 8.65431C20.6283 8.57477 20.6082 9.20269 20.6082 9.20269V14.5946H25.9593C25.9593 14.5946 27.0282 14.5946 26.5255 13.6694C26.5255 13.6694 25.6702 12.6647 25.6702 11.9594C25.6702 11.254 26.2481 10.2618 27.3807 10.2849Z" stroke="#111727" stroke-miterlimit="10"/>
<path d="M14.5445 36.9903V37.0007H3.38346C2.06708 37.0007 1 35.9333 1 34.6167V23.4038H6.35048C6.35048 23.4038 7.41924 23.4039 6.91668 24.329C6.91668 24.329 6.06121 25.3337 6.06121 26.0412C6.06121 26.7445 6.63975 27.7387 7.77235 27.7157C8.90474 27.7387 9.48182 26.7445 9.48182 26.0412C9.48182 25.3337 8.62782 24.329 8.62782 24.329C8.124 23.4039 9.19401 23.4038 9.19401 23.4038L14.5437 23.3954V28.7852C14.5437 28.7852 14.5637 29.4153 13.9986 29.3357C13.8875 29.319 13.7843 29.2708 13.694 29.2039C13.3024 28.915 11.6612 27.9166 10.7457 29.1788C10.2977 29.7983 10.2969 30.6502 10.7507 31.2635C11.6668 32.5026 13.3033 31.4686 13.694 31.1798C13.7843 31.1128 13.8875 31.0647 13.9986 31.05C14.5637 30.9705 14.5437 31.5984 14.5437 31.5984L14.5445 36.9903Z" stroke="#111727" stroke-miterlimit="10"/>
<path d="M1 23.3953V12.0715C1 10.8449 1.99424 9.85069 3.22061 9.85069H14.5445V15.2007C14.5445 15.2007 14.5445 16.2703 13.6233 15.7658C13.6233 15.7658 12.6222 14.9119 11.9186 14.9119C11.2166 14.9119 10.2722 15.4896 10.2494 16.6219C10.2263 17.7543 11.2166 18.3341 11.9186 18.3341C12.6222 18.3341 13.6233 17.478 13.6233 17.478C14.5445 16.9757 14.5445 18.0453 14.5445 18.0453V23.3953" stroke="#111727" stroke-miterlimit="10"/>
<path d="M14.5449 23.3745H14.5493L19.9075 23.3954C19.9075 23.3954 20.5363 23.4143 20.4574 22.8492C20.4411 22.7382 20.3936 22.6336 20.3272 22.5456C20.0379 22.1542 19.0037 20.5174 20.2429 19.6006C20.8576 19.1464 21.7135 19.1485 22.3312 19.5986C23.5877 20.5153 22.5918 22.1542 22.3029 22.5456C22.2351 22.6336 22.1876 22.7382 22.1713 22.8492C22.0926 23.4143 22.7211 23.3954 22.7211 23.3954L28.0925 23.3934V34.9076C28.0925 36.0651 27.1552 37.0007 25.999 37.0007H14.5449" stroke="#111727" stroke-miterlimit="10"/>
</svg>
