<svg width="41" height="38" viewBox="0 0 41 38" fill="none" xmlns="http://www.w3.org/2000/svg">
<path d="M27.7935 1V37H1V1.00201L27.7935 1Z" stroke="#100F0D" stroke-miterlimit="10"/>
<path d="M5.33386 24.634H14.6561" stroke="#100F0D" stroke-miterlimit="10"/>
<path d="M5.33386 20.8779H13.7176" stroke="#100F0D" stroke-miterlimit="10"/>
<path d="M5.33386 28.416H16.6645" stroke="#100F0D" stroke-miterlimit="10"/>
<path d="M5.33386 32.2004H20.3517" stroke="#100F0D" stroke-miterlimit="10"/>
<path d="M5.33386 10.4595C5.33386 7.84629 7.45155 5.73069 10.0627 5.73069C12.6739 5.73069 14.7916 7.84629 14.7916 10.4595C14.7916 13.0706 12.6739 15.1863 10.0627 15.1863C7.45155 15.1863 5.33386 13.0706 5.33386 10.4595Z" stroke="#100F0D" stroke-miterlimit="10"/>
<path d="M8.60181 9.25815C8.60181 8.44912 9.25715 7.79379 10.0642 7.79379C10.8732 7.79379 11.5285 8.44912 11.5285 9.25815C11.5285 10.0652 10.8732 10.7205 10.0642 10.7205C9.25715 10.7205 8.60181 10.0652 8.60181 9.25815Z" stroke="#100F0D" stroke-miterlimit="10"/>
<path d="M6.87756 13.9526C7.42164 12.733 8.6433 11.8855 10.0632 11.8855C11.483 11.8855 12.7047 12.733 13.2508 13.9486" stroke="#100F0D" stroke-miterlimit="10"/>
<path d="M19.753 24.4135C16.8566 20.1317 17.9812 14.3148 22.261 11.4184C26.5429 8.52208 32.3619 9.64663 35.2583 13.9264C38.1526 18.2082 37.0301 24.0272 32.7483 26.9215C28.4684 29.8179 22.6494 28.6953 19.753 24.4135Z" stroke="#100F0D" stroke-miterlimit="10"/>
<path d="M34.0248 25.8858L39.7023 34.2775C40.1675 34.9672 39.9874 35.9036 39.2977 36.3709C38.608 36.8361 37.6716 36.656 37.2064 35.9663L31.5511 27.607" stroke="#100F0D" stroke-miterlimit="10"/>
<path d="M21.7803 23.0422C19.6424 19.8809 20.4717 15.585 23.633 13.4451" stroke="#100F0D" stroke-miterlimit="10"/>
</svg>
