<svg width="36" height="36" viewBox="0 0 36 36" fill="none" xmlns="http://www.w3.org/2000/svg">
<path d="M11.7578 18.003C11.7578 14.5567 14.5529 11.7589 18.002 11.7589C21.4511 11.7589 24.2462 14.5567 24.2462 18.003C24.2462 21.4521 21.4511 24.2472 18.002 24.2472C14.5529 24.2472 11.7578 21.4521 11.7578 18.003Z" stroke="#111727" stroke-miterlimit="10"/>
<path d="M5.18359 16.8195C5.72993 10.8125 10.4069 5.99767 16.3475 5.23611" stroke="#111727" stroke-miterlimit="10"/>
<path d="M16.815 30.8195C10.8081 30.2731 5.99593 25.5989 5.23438 19.6555" stroke="#111727" stroke-miterlimit="10"/>
<path d="M30.8191 19.19C30.27 25.197 25.5958 30.0091 19.6523 30.7706" stroke="#111727" stroke-miterlimit="10"/>
<path d="M19.1855 5.18602C25.1925 5.73511 30.0073 10.4092 30.7689 16.3527" stroke="#111727" stroke-miterlimit="10"/>
<path d="M17.75 10.0089V0.00389017" stroke="#111727" stroke-miterlimit="10"/>
<path d="M10.0051 18.2529H0" stroke="#111727" stroke-miterlimit="10"/>
<path d="M18.25 25.998V36.0032" stroke="#111727" stroke-miterlimit="10"/>
<path d="M25.9941 17.755H36.002" stroke="#111727" stroke-miterlimit="10"/>
</svg>
