<svg width="43" height="38" viewBox="0 0 43 38" fill="none" xmlns="http://www.w3.org/2000/svg">
<path d="M9.71702 27.4464C9.71702 25.8233 8.40185 24.5082 6.77641 24.5082C5.15328 24.5082 3.83812 25.8233 3.83812 27.4464C3.83812 29.0695 5.15328 30.387 6.77641 30.387C8.40185 30.387 9.71702 29.0695 9.71702 27.4464Z" stroke="#111727" stroke-miterlimit="10"/>
<path d="M12.5564 35.4788C12.5564 36.0067 12.4846 36.5138 12.3527 37H1.20378C1.0718 36.5138 1 36.0067 1 35.4788C1 33.4135 2.08133 31.6028 3.7114 30.5794C4.46161 31.4292 5.5568 31.964 6.77704 31.964C7.99959 31.964 9.09481 31.4292 9.8427 30.5794C11.4728 31.6028 12.5564 33.4135 12.5564 35.4788Z" stroke="#111727" stroke-miterlimit="10"/>
<path d="M24.2496 3.93835C24.2496 2.31525 22.9344 1.0001 21.3113 1.0001C19.6882 1.0001 18.3707 2.31525 18.3707 3.93835C18.3707 5.56144 19.6882 6.87891 21.3113 6.87891C22.9344 6.87891 24.2496 5.56144 24.2496 3.93835Z" stroke="#111727" stroke-miterlimit="10"/>
<path d="M27.0873 11.9705C27.0873 12.4984 27.0179 13.0055 26.8836 13.4917H15.737C15.6027 13.0055 15.5309 12.4984 15.5309 11.9705C15.5309 9.90512 16.6146 8.09448 18.2447 7.07108C18.9925 7.92083 20.09 8.45571 21.3103 8.45571C22.5305 8.45571 23.6281 7.92083 24.3759 7.07108C26.006 8.09448 27.0873 9.90512 27.0873 11.9705Z" stroke="#111727" stroke-miterlimit="10"/>
<path d="M24.224 27.4464C24.224 25.8233 22.9088 24.5082 21.2857 24.5082C19.6626 24.5082 18.3451 25.8233 18.3451 27.4464C18.3451 29.0695 19.6626 30.387 21.2857 30.387C22.9088 30.387 24.224 29.0695 24.224 27.4464Z" stroke="#111727" stroke-miterlimit="10"/>
<path d="M27.0634 35.4788C27.0634 36.0067 26.9939 36.5138 26.8596 37H15.7131C15.5788 36.5138 15.507 36.0067 15.507 35.4788C15.507 33.4135 16.5906 31.6028 18.2207 30.5794C18.9686 31.4292 20.0661 31.964 21.2863 31.964C22.5066 31.964 23.6041 31.4292 24.352 30.5794C25.9821 31.6028 27.0634 33.4135 27.0634 35.4788Z" stroke="#111727" stroke-miterlimit="10"/>
<path d="M38.7828 27.4464C38.7828 25.8233 37.4654 24.5082 35.8422 24.5082C34.2191 24.5082 32.9016 25.8233 32.9016 27.4464C32.9016 29.0695 34.2191 30.387 35.8422 30.387C37.4654 30.387 38.7828 29.0695 38.7828 27.4464Z" stroke="#111727" stroke-miterlimit="10"/>
<path d="M41.6215 35.4788C41.6215 36.0067 41.5497 36.5138 41.4154 37H30.2688C30.1346 36.5138 30.0651 36.0067 30.0651 35.4788C30.0651 33.4135 31.1464 31.6028 32.7765 30.5794C33.5244 31.4292 34.6219 31.964 35.8421 31.964C37.0624 31.964 38.1599 31.4292 38.9078 30.5794C40.5379 31.6028 41.6215 33.4135 41.6215 35.4788Z" stroke="#111727" stroke-miterlimit="10"/>
<path d="M35.8427 22.2532V18.2961H6.7769V22.2532" stroke="#111727" stroke-miterlimit="10"/>
<path d="M21.2855 22.2532V15.0176" stroke="#111727" stroke-miterlimit="10"/>
</svg>
