<svg width="45" height="38" viewBox="0 0 45 38" fill="none" xmlns="http://www.w3.org/2000/svg">
<path d="M41.1581 23.5947H3.42736L1 37.0009H44.082L41.1581 23.5947Z" stroke="#111727" stroke-miterlimit="10" stroke-linecap="round"/>
<path d="M31.9805 14.7419C32.531 13.2871 32.7747 11.6816 32.5764 9.99065C31.992 5.00551 27.7194 1.10643 22.7019 1.003C16.9981 0.88832 12.3379 5.47771 12.3379 11.1554C12.3379 13.1252 12.9086 14.96 13.8802 16.5161L22.4912 28.9666L30.7906 16.9186C31.2567 16.2417 31.6538 15.5199 31.9724 14.7622C31.9776 14.7487 31.9805 14.7419 31.9805 14.7419Z" stroke="#111727" stroke-miterlimit="10" stroke-linecap="round"/>
<path d="M17.1113 11.1553C17.1113 8.1849 19.5198 5.77666 22.4909 5.77666C25.4622 5.77666 27.8706 8.1849 27.8706 11.1553C27.8706 14.1257 25.4622 16.5362 22.4909 16.5362C19.5198 16.5362 17.1113 14.1257 17.1113 11.1553Z" stroke="#111727" stroke-miterlimit="10" stroke-linecap="round"/>
</svg>
