<svg width="46" height="38" viewBox="0 0 46 38" fill="none" xmlns="http://www.w3.org/2000/svg">
<path d="M14.1484 37.0005H31.6602" stroke="#111727" stroke-miterlimit="10" stroke-linecap="round"/>
<path d="M43.0031 1.00052H2.80744C1.80917 1.00052 1 1.81035 1 2.80754V30.1022C1 31.1015 1.80917 31.9113 2.80744 31.9113H43.0031C44.0003 31.9113 44.8101 31.1015 44.8101 30.1022V2.80754C44.8101 1.81035 44.0003 1.00052 43.0031 1.00052Z" stroke="#111727" stroke-miterlimit="10" stroke-linecap="round"/>
<path d="M25.209 31.9112L27.4924 37.0005" stroke="#111727" stroke-miterlimit="10" stroke-linecap="round"/>
<path d="M20.6018 31.9112L18.3184 37.0005" stroke="#111727" stroke-miterlimit="10" stroke-linecap="round"/>
<path d="M44.8123 27.9011H1.00195" stroke="#111727" stroke-miterlimit="10" stroke-linecap="round"/>
<path d="M22.0293 29.9426C22.0293 29.458 22.4228 29.0638 22.9082 29.0638C23.3935 29.0638 23.787 29.458 23.787 29.9426C23.787 30.4293 23.3935 30.8213 22.9082 30.8213C22.4228 30.8213 22.0293 30.4293 22.0293 29.9426Z" stroke="#111727" stroke-miterlimit="10" stroke-linecap="round"/>
<path d="M5.50195 9.28168H23.387" stroke="#111727" stroke-miterlimit="10"/>
<path d="M5.50195 11.5927H23.387" stroke="#111727" stroke-miterlimit="10"/>
<path d="M5.50195 19.4948H23.387" stroke="#111727" stroke-miterlimit="10"/>
<path d="M5.50195 21.8058H23.387" stroke="#111727" stroke-miterlimit="10"/>
<path d="M26.293 10.6343C26.293 8.87038 27.7243 7.43814 29.49 7.43814C31.2554 7.43814 32.6866 8.87038 32.6866 10.6343C32.6866 12.4004 31.2554 13.8326 29.49 13.8326C27.7243 13.8326 26.293 12.4004 26.293 10.6343Z" stroke="#111727" stroke-miterlimit="10"/>
<path d="M27.8984 10.716L28.8155 11.7132L31.0817 9.55512" stroke="#111727" stroke-miterlimit="10"/>
<path d="M26.293 20.3413C26.293 18.5753 27.7243 17.1452 29.49 17.1452C31.2554 17.1452 32.6866 18.5753 32.6866 20.3413C32.6866 22.1074 31.2554 23.5375 29.49 23.5375C27.7243 23.5375 26.293 22.1074 26.293 20.3413Z" stroke="#111727" stroke-miterlimit="10"/>
<path d="M34.6328 10.6343C34.6328 8.87038 36.064 7.43814 37.8301 7.43814C39.5962 7.43814 41.0263 8.87038 41.0263 10.6343C41.0263 12.4004 39.5962 13.8326 37.8301 13.8326C36.064 13.8326 34.6328 12.4004 34.6328 10.6343Z" stroke="#111727" stroke-miterlimit="10"/>
<path d="M34.6328 20.3413C34.6328 18.5753 36.064 17.1452 37.8301 17.1452C39.5962 17.1452 41.0263 18.5753 41.0263 20.3413C41.0263 22.1074 39.5962 23.5375 37.8301 23.5375C36.064 23.5375 34.6328 22.1074 34.6328 20.3413Z" stroke="#111727" stroke-miterlimit="10"/>
<path d="M1.00195 3.88422H44.8101" stroke="#111727" stroke-miterlimit="10"/>
<path d="M36.2168 18.6981L39.441 21.9869" stroke="#111727" stroke-miterlimit="10"/>
<path d="M39.441 18.6981L36.2168 21.9869" stroke="#111727" stroke-miterlimit="10"/>
</svg>
