<svg width="40" height="40" viewBox="0 0 40 40" fill="none" xmlns="http://www.w3.org/2000/svg">
<path d="M19.9997 17.9999C20.8203 17.9999 21.3439 18.3946 21.3439 18.6666C21.3439 18.8434 21.4147 19.013 21.5407 19.138C21.6667 19.263 21.8377 19.3333 22.0159 19.3333C22.1942 19.3333 22.3651 19.263 22.4911 19.138C22.6172 19.013 22.688 18.8434 22.688 18.6666C22.688 17.7193 21.8419 16.9526 20.6718 16.7333V15.9999C20.6718 15.8231 20.601 15.6535 20.475 15.5285C20.3489 15.4035 20.178 15.3333 19.9997 15.3333C19.8215 15.3333 19.6506 15.4035 19.5245 15.5285C19.3985 15.6535 19.3277 15.8231 19.3277 15.9999V16.7333C18.1576 16.9513 17.3115 17.7179 17.3115 18.6666C17.3115 19.7879 18.4923 20.6666 19.9997 20.6666C20.8203 20.6666 21.3439 21.0613 21.3439 21.3333C21.3439 21.6053 20.8203 21.9999 19.9997 21.9999C19.1792 21.9999 18.6556 21.6053 18.6556 21.3333C18.6556 21.1564 18.5848 20.9869 18.4588 20.8618C18.3328 20.7368 18.1618 20.6666 17.9836 20.6666C17.8053 20.6666 17.6344 20.7368 17.5084 20.8618C17.3823 20.9869 17.3115 21.1564 17.3115 21.3333C17.3115 22.2806 18.1576 23.0473 19.3277 23.2666V23.9999C19.3277 24.1767 19.3985 24.3463 19.5245 24.4713C19.6506 24.5963 19.8215 24.6666 19.9997 24.6666C20.178 24.6666 20.3489 24.5963 20.475 24.4713C20.601 24.3463 20.6718 24.1767 20.6718 23.9999V23.2666C21.8419 23.0486 22.688 22.2819 22.688 21.3333C22.688 20.2119 21.5072 19.3333 19.9997 19.3333C19.1792 19.3333 18.6556 18.9386 18.6556 18.6666C18.6556 18.3946 19.1792 17.9999 19.9997 17.9999Z" fill="#363D2B"/>
<path d="M24.1527 13.56C24.36 13.3746 24.5171 13.1406 24.6096 12.8794C24.7022 12.6182 24.7272 12.3382 24.6824 12.0649C24.6376 11.7916 24.5244 11.5339 24.3532 11.3152C24.182 11.0966 23.9583 10.924 23.7025 10.8133L25.302 7.63333C25.3535 7.53185 25.3781 7.41897 25.3733 7.30543C25.3685 7.19189 25.3345 7.08144 25.2746 6.98459C25.2146 6.88773 25.1307 6.80768 25.0308 6.75204C24.931 6.6964 24.8184 6.66701 24.7038 6.66667H22.6877C22.5421 6.66588 22.4004 6.71275 22.2844 6.8L20.6715 8V5.33333H21.3435C22.2347 5.33333 23.0894 4.98214 23.7196 4.35702C24.3498 3.7319 24.7038 2.88406 24.7038 2V0.666667C24.7038 0.489856 24.633 0.320286 24.507 0.195262C24.3809 0.0702379 24.21 0 24.0318 0H22.6877C22.1642 0.00200912 21.6485 0.125437 21.1818 0.360422C20.715 0.595407 20.3101 0.935434 19.9994 1.35333C19.6888 0.935434 19.2839 0.595407 18.8171 0.360422C18.3503 0.125437 17.8346 0.00200912 17.3112 0H15.9671C15.7889 0 15.6179 0.0702379 15.4919 0.195262C15.3658 0.320286 15.295 0.489856 15.295 0.666667V2C15.295 2.88406 15.6491 3.7319 16.2792 4.35702C16.9094 4.98214 17.7641 5.33333 18.6553 5.33333H19.3274V8L17.7144 6.8C17.5985 6.71275 17.4567 6.66588 17.3112 6.66667H15.295C15.1805 6.66701 15.0679 6.6964 14.968 6.75204C14.8681 6.80768 14.7842 6.88773 14.7243 6.98459C14.6644 7.08144 14.6304 7.19189 14.6256 7.30543C14.6208 7.41897 14.6454 7.53185 14.6969 7.63333L16.2964 10.8133C16.0406 10.924 15.8168 11.0966 15.6456 11.3152C15.4745 11.5339 15.3613 11.7916 15.3165 12.0649C15.2717 12.3382 15.2967 12.6182 15.3892 12.8794C15.4818 13.1406 15.6388 13.3746 15.8461 13.56C13.5813 15.5 11.2627 18.1133 11.2627 20.6667C11.2627 24.9667 14.3676 27.3333 19.9994 27.3333C25.6313 27.3333 28.7362 24.9667 28.7362 20.6667C28.7362 18.1133 26.4176 15.5 24.1527 13.56ZM20.6715 3.33333C20.6731 2.80339 20.886 2.2956 21.2638 1.92087C21.6415 1.54614 22.1534 1.33492 22.6877 1.33333H23.3597V2C23.3581 2.52995 23.1452 3.03773 22.7674 3.41247C22.3897 3.7872 21.8778 3.99842 21.3435 4H20.6715V3.33333ZM18.6553 4C18.1211 3.99842 17.6092 3.7872 17.2314 3.41247C16.8537 3.03773 16.6407 2.52995 16.6391 2V1.33333H17.3112C17.8454 1.33492 18.3573 1.54614 18.7351 1.92087C19.1128 2.2956 19.3258 2.80339 19.3274 3.33333V4H18.6553ZM17.0894 8L19.5962 9.86667C19.7121 9.95425 19.8537 10.0017 19.9994 10.0017C20.1451 10.0017 20.2868 9.95425 20.4027 9.86667L22.9094 8H23.6151L22.271 10.6667H17.7279L16.3838 8H17.0894ZM23.3597 12.3333C23.3597 12.4217 23.3243 12.5065 23.2613 12.569C23.1983 12.6315 23.1128 12.6667 23.0237 12.6667H16.9752C16.8861 12.6667 16.8006 12.6315 16.7376 12.569C16.6746 12.5065 16.6391 12.4217 16.6391 12.3333C16.6391 12.2449 16.6746 12.1601 16.7376 12.0976C16.8006 12.0351 16.8861 12 16.9752 12H23.0237C23.1128 12 23.1983 12.0351 23.2613 12.0976C23.3243 12.1601 23.3597 12.2449 23.3597 12.3333ZM19.9994 26C16.6257 26 12.6068 25.0733 12.6068 20.6667C12.6068 18.8533 14.3138 16.4933 17.4187 14H22.5801C25.685 16.4933 27.3921 18.8533 27.3921 20.6667C27.3921 25.0733 23.3732 26 19.9994 26Z" fill="#363D2B"/>
<path d="M38.6358 16.9065C38.6494 16.7892 38.6561 16.6712 38.6559 16.5531C38.6527 15.942 38.439 15.3504 38.0503 14.8763C37.6616 14.4022 37.1212 14.0741 36.5188 13.9465C35.8375 13.8191 35.1328 13.9525 34.5467 14.3199C33.9606 14.6873 33.5366 15.2614 33.3601 15.9265L30.4031 24.3665C30.3593 24.3837 30.3166 24.4038 30.2754 24.4265L24.3344 27.8798C23.4253 28.4095 22.6713 29.1654 22.1468 30.0726C21.6223 30.9799 21.3455 32.0073 21.3438 33.0531V39.3331C21.3438 39.5099 21.4146 39.6795 21.5406 39.8045C21.6666 39.9296 21.8376 39.9998 22.0158 39.9998C22.194 39.9998 22.365 39.9296 22.491 39.8045C22.6171 39.6795 22.6879 39.5099 22.6879 39.3331V33.0531C22.6912 32.2397 22.9072 31.4411 23.3148 30.7354C23.7224 30.0296 24.3076 29.4408 25.0132 29.0265L30.9474 25.5798C31.1004 25.4914 31.2696 25.4338 31.4451 25.4104C31.6206 25.387 31.799 25.3982 31.9701 25.4435C32.1412 25.4887 32.3017 25.567 32.4422 25.6739C32.5827 25.7808 32.7005 25.9142 32.7889 26.0665C32.9634 26.3745 33.0116 26.7374 32.9233 27.0798C32.8766 27.2488 32.7968 27.4071 32.6884 27.5455C32.58 27.6839 32.4451 27.7998 32.2915 27.8865L28.4407 30.0931C28.2944 30.1854 28.1897 30.3301 28.1484 30.4971C28.1072 30.6641 28.1326 30.8405 28.2194 30.9894C28.3061 31.1382 28.4475 31.2481 28.614 31.296C28.7804 31.3439 28.9591 31.3262 29.1127 31.2465L32.9636 29.0398C33.2714 28.8666 33.5412 28.634 33.757 28.3558C33.9728 28.0776 34.1304 27.7593 34.2204 27.4198C34.4033 26.7377 34.3066 26.0115 33.9515 25.3998L33.9112 25.3398L35.9879 18.9865C36.0704 18.6417 36.2808 18.3404 36.5773 18.1427C36.8737 17.945 37.2344 17.8654 37.5874 17.9198C37.8886 17.9824 38.159 18.1456 38.3535 18.3822C38.548 18.6188 38.6548 18.9145 38.6559 19.2198C38.6582 19.3371 38.6423 19.454 38.6089 19.5665L35.6854 30.3931C35.5843 30.7693 35.374 31.1078 35.0806 31.3665L30.5308 35.3731C30.1787 35.6881 29.897 36.0726 29.7037 36.502C29.5104 36.9314 29.4098 37.3962 29.4084 37.8665V39.3331C29.4084 39.5099 29.4792 39.6795 29.6053 39.8045C29.7313 39.9296 29.9022 39.9998 30.0805 39.9998C30.2587 39.9998 30.4297 39.9296 30.5557 39.8045C30.6817 39.6795 30.7525 39.5099 30.7525 39.3331V37.8665C30.7538 37.5849 30.8142 37.3067 30.9299 37.0495C31.0456 36.7924 31.2141 36.562 31.4246 36.3731L35.9677 32.3665C36.4646 31.9351 36.8204 31.3664 36.9892 30.7331L39.9059 19.9131C39.9682 19.6872 39.9999 19.454 40 19.2198C39.9974 18.7493 39.8699 18.2878 39.6304 17.8818C39.3909 17.4757 39.0479 17.1393 38.6358 16.9065ZM37.3118 16.5598C36.7111 16.5731 36.1311 16.78 35.6595 17.1493C35.1878 17.5185 34.8502 18.03 34.6975 18.6065L32.8225 24.3465C32.5398 24.2098 32.2349 24.124 31.9219 24.0931L34.6437 16.3198C34.7262 15.975 34.9367 15.6738 35.2331 15.4761C35.5296 15.2784 35.8903 15.1988 36.2432 15.2531C36.5445 15.3157 36.8149 15.4789 37.0094 15.7156C37.2039 15.9522 37.3107 16.2478 37.3118 16.5531V16.5598Z" fill="#363D2B"/>
<path d="M15.6662 27.8789L9.72117 24.4222C9.68017 24.3995 9.63649 24.3869 9.59482 24.3655L6.65659 15.9728C6.48676 15.2968 6.06308 14.7106 5.47212 14.334C4.88116 13.9574 4.16754 13.8189 3.47709 13.9468C2.87498 14.0744 2.33499 14.4024 1.94683 14.8765C1.55866 15.3506 1.3457 15.9421 1.34331 16.5528C1.34341 16.6719 1.35104 16.7908 1.36616 16.9089C0.848583 17.1982 0.442414 17.6497 0.21133 18.1926C-0.0197551 18.7355 -0.0626903 19.3391 0.0892546 19.9089L3.01203 30.7328C3.1794 31.3658 3.53317 31.9349 4.02818 32.3675L8.57061 36.3735C8.78256 36.5613 8.95229 36.7913 9.06877 37.0485C9.18525 37.3056 9.24588 37.5843 9.2467 37.8662V39.3329C9.2467 39.5097 9.3175 39.6792 9.44354 39.8043C9.56957 39.9293 9.74051 39.9995 9.91875 39.9995C10.097 39.9995 10.2679 39.9293 10.394 39.8043C10.52 39.6792 10.5908 39.5097 10.5908 39.3329V37.8662C10.5902 37.3957 10.4896 36.9306 10.2956 36.5012C10.1017 36.0718 9.81868 35.6878 9.46512 35.3742L4.91932 31.3662C4.624 31.1067 4.41341 30.7657 4.31447 30.3869L1.38767 19.5662C1.35738 19.4531 1.34246 19.3365 1.34331 19.2195C1.34409 18.9148 1.45009 18.6195 1.64366 18.3828C1.83724 18.1461 2.1067 17.9824 2.40718 17.9188C2.76682 17.8664 3.13315 17.9506 3.43294 18.1546C3.73272 18.3585 3.94386 18.6672 4.02415 19.0188L6.08803 25.3402C6.07526 25.3609 6.05846 25.3775 6.04636 25.3982C5.6899 26.0107 5.5933 26.7385 5.77781 27.4216C5.96233 28.1048 6.41284 28.6872 7.03025 29.0409L10.8818 31.2468C10.9583 31.2913 11.0428 31.3203 11.1307 31.3323C11.2185 31.3442 11.3078 31.3387 11.3935 31.3162C11.4792 31.2938 11.5595 31.2547 11.6299 31.2013C11.7003 31.1479 11.7594 31.0812 11.8037 31.0051C11.848 30.9289 11.8767 30.8448 11.8881 30.7577C11.8996 30.6705 11.8935 30.5819 11.8703 30.4971C11.8471 30.4122 11.8071 30.3328 11.7528 30.2633C11.6985 30.1938 11.6309 30.1356 11.5539 30.0922L7.70231 27.8869C7.54927 27.7994 7.4151 27.6829 7.30746 27.544C7.19981 27.4051 7.1208 27.2465 7.07493 27.0773C6.9823 26.7356 7.03029 26.3714 7.20835 26.0648C7.38641 25.7583 7.67996 25.5344 8.02441 25.4425C8.36887 25.3506 8.73601 25.3982 9.04508 25.5749L14.9861 29.0295C15.6927 29.4423 16.2788 30.0306 16.6866 30.7364C17.0943 31.4423 17.3097 32.2413 17.3114 33.0549V39.3329C17.3114 39.5097 17.3822 39.6792 17.5082 39.8043C17.6342 39.9293 17.8052 39.9995 17.9834 39.9995C18.1617 39.9995 18.3326 39.9293 18.4586 39.8043C18.5847 39.6792 18.6555 39.5097 18.6555 39.3329V33.0549C18.6531 32.0089 18.3762 30.9816 17.852 30.074C17.3279 29.1665 16.5746 28.4099 15.6662 27.8789ZM7.6808 24.1555C7.50741 24.2019 7.33903 24.2651 7.17811 24.3442L5.31248 18.6395C5.1615 18.0584 4.82423 17.5417 4.35149 17.1673C3.87875 16.7928 3.29615 16.5809 2.69146 16.5635V16.5528C2.69223 16.2481 2.79823 15.9528 2.99181 15.7161C3.18538 15.4795 3.45485 15.3157 3.75532 15.2522C4.11725 15.2001 4.48564 15.2859 4.78638 15.4923C5.08712 15.6988 5.2979 16.0105 5.37632 16.3649L8.08001 24.0909C7.94549 24.1024 7.81204 24.124 7.6808 24.1555Z" fill="#363D2B"/>
</svg>
