<svg width="40" height="40" viewBox="0 0 40 40" fill="none" xmlns="http://www.w3.org/2000/svg">
<path d="M30 14C28.0222 14 26.0888 14.5865 24.4443 15.6853C22.7998 16.7841 21.5181 18.3459 20.7612 20.1732C20.0043 22.0004 19.8063 24.0111 20.1922 25.9509C20.578 27.8907 21.5304 29.6725 22.9289 31.0711C24.3275 32.4696 26.1093 33.422 28.0491 33.8079C29.9889 34.1937 31.9996 33.9957 33.8268 33.2388C35.6541 32.4819 37.2159 31.2002 38.3147 29.5557C39.4135 27.9112 40 25.9778 40 24C39.997 21.3488 38.9425 18.807 37.0678 16.9322C35.193 15.0575 32.6512 14.003 30 14ZM30 32.6667C28.2859 32.6667 26.6103 32.1584 25.1851 31.2061C23.7598 30.2538 22.649 28.9002 21.993 27.3166C21.3371 25.733 21.1655 23.9904 21.4999 22.3092C21.8343 20.628 22.6597 19.0838 23.8717 17.8717C25.0838 16.6597 26.6281 15.8343 28.3092 15.4999C29.9904 15.1655 31.733 15.3371 33.3166 15.993C34.9002 16.649 36.2538 17.7598 37.2061 19.1851C38.1584 20.6103 38.6667 22.2859 38.6667 24C38.664 26.2977 37.7501 28.5006 36.1253 30.1253C34.5006 31.7501 32.2977 32.664 30 32.6667Z" fill="#363D2B"/>
<path d="M32.6663 19.9997C32.8432 19.9997 33.0127 20.0699 33.1377 20.1949C33.2628 20.32 33.333 20.4895 33.333 20.6663H34.6663C34.6663 20.1359 34.4556 19.6272 34.0806 19.2521C33.7055 18.8771 33.1968 18.6663 32.6663 18.6663H30.6663V17.333H29.333V18.6663H27.333C26.8026 18.6663 26.2939 18.8771 25.9188 19.2521C25.5437 19.6272 25.333 20.1359 25.333 20.6663V22.6663C25.333 23.1968 25.5437 23.7055 25.9188 24.0806C26.2939 24.4556 26.8026 24.6663 27.333 24.6663H29.333V27.9997H27.333C27.1562 27.9997 26.9866 27.9294 26.8616 27.8044C26.7366 27.6794 26.6663 27.5098 26.6663 27.333H25.333C25.333 27.8634 25.5437 28.3721 25.9188 28.7472C26.2939 29.1223 26.8026 29.333 27.333 29.333H29.333V30.6663H30.6663V29.333H32.6663C33.1968 29.333 33.7055 29.1223 34.0806 28.7472C34.4556 28.3721 34.6663 27.8634 34.6663 27.333V25.333C34.6663 24.8026 34.4556 24.2939 34.0806 23.9188C33.7055 23.5437 33.1968 23.333 32.6663 23.333H30.6663V19.9997H32.6663ZM32.6663 24.6663C32.8432 24.6663 33.0127 24.7366 33.1377 24.8616C33.2628 24.9866 33.333 25.1562 33.333 25.333V27.333C33.333 27.5098 33.2628 27.6794 33.1377 27.8044C33.0127 27.9294 32.8432 27.9997 32.6663 27.9997H30.6663V24.6663H32.6663ZM29.333 23.333H27.333C27.1562 23.333 26.9866 23.2628 26.8616 23.1377C26.7366 23.0127 26.6663 22.8432 26.6663 22.6663V20.6663C26.6663 20.4895 26.7366 20.32 26.8616 20.1949C26.9866 20.0699 27.1562 19.9997 27.333 19.9997H29.333V23.333Z" fill="#363D2B"/>
<path d="M24.0002 23.334H23.3335V24.6673H24.0002V23.334Z" fill="#363D2B"/>
<path d="M36.6667 23.334H36V24.6673H36.6667V23.334Z" fill="#363D2B"/>
<path d="M29.3333 37.3333C29.3333 37.687 29.1929 38.0261 28.9428 38.2761C28.6928 38.5262 28.3536 38.6667 28 38.6667H2.66667C2.31304 38.6667 1.97391 38.5262 1.72386 38.2761C1.47381 38.0261 1.33333 37.687 1.33333 37.3333V2C1.33333 1.82319 1.40357 1.65362 1.5286 1.5286C1.65362 1.40357 1.82319 1.33333 2 1.33333H20V8.66667C20 9.1971 20.2107 9.70581 20.5858 10.0809C20.9609 10.456 21.4696 10.6667 22 10.6667H29.3333V12.6667H30.6667V9.724L20.9427 0H2C1.46957 0 0.960859 0.210714 0.585786 0.585787C0.210714 0.960859 0 1.46957 0 2V37.3333C0 38.0406 0.280952 38.7189 0.781049 39.219C1.28115 39.719 1.95942 40 2.66667 40H28C28.7072 40 29.3855 39.719 29.8856 39.219C30.3857 38.7189 30.6667 38.0406 30.6667 37.3333V35.3333H29.3333V37.3333ZM21.3333 8.66667V2.276L28.3907 9.33333H22C21.8232 9.33333 21.6536 9.2631 21.5286 9.13807C21.4036 9.01305 21.3333 8.84348 21.3333 8.66667Z" fill="#363D2B"/>
<path d="M2.6665 33.9997H18.6665V32.6663H17.9998V19.333H13.9998V32.6663H12.6665V27.333H8.6665V32.6663H7.33317V21.9997H3.33317V32.6663H2.6665V33.9997ZM15.3332 20.6663H16.6665V32.6663H15.3332V20.6663ZM9.99984 28.6663H11.3332V32.6663H9.99984V28.6663ZM4.6665 23.333H5.99984V32.6663H4.6665V23.333Z" fill="#363D2B"/>
<path d="M18.667 2.66699H2.66699V4.00033H18.667V2.66699Z" fill="#363D2B"/>
<path d="M10.6665 5.33325H2.6665V6.66659H10.6665V5.33325Z" fill="#363D2B"/>
<path d="M18.6667 5.33325H12V6.66659H18.6667V5.33325Z" fill="#363D2B"/>
<path d="M18.6665 7.99976H2.6665V9.33309H18.6665V7.99976Z" fill="#363D2B"/>
<path d="M18.6665 10.667H2.6665V12.0003H18.6665V10.667Z" fill="#363D2B"/>
<path d="M10.667 13.334H2.66699V14.6673H10.667V13.334Z" fill="#363D2B"/>
<path d="M18.6667 13.334H12V14.6673H18.6667V13.334Z" fill="#363D2B"/>
</svg>
